G04 #@! TF.GenerationSoftware,KiCad,Pcbnew,(7.0.0)*
G04 #@! TF.CreationDate,2023-05-09T09:59:22+03:00*
G04 #@! TF.ProjectId,IoT_sulari_sensorboard,496f545f-7375-46c6-9172-695f73656e73,rev?*
G04 #@! TF.SameCoordinates,Original*
G04 #@! TF.FileFunction,Copper,L1,Top*
G04 #@! TF.FilePolarity,Positive*
%FSLAX46Y46*%
G04 Gerber Fmt 4.6, Leading zero omitted, Abs format (unit mm)*
G04 Created by KiCad (PCBNEW (7.0.0)) date 2023-05-09 09:59:22*
%MOMM*%
%LPD*%
G01*
G04 APERTURE LIST*
G04 Aperture macros list*
%AMRoundRect*
0 Rectangle with rounded corners*
0 $1 Rounding radius*
0 $2 $3 $4 $5 $6 $7 $8 $9 X,Y pos of 4 corners*
0 Add a 4 corners polygon primitive as box body*
4,1,4,$2,$3,$4,$5,$6,$7,$8,$9,$2,$3,0*
0 Add four circle primitives for the rounded corners*
1,1,$1+$1,$2,$3*
1,1,$1+$1,$4,$5*
1,1,$1+$1,$6,$7*
1,1,$1+$1,$8,$9*
0 Add four rect primitives between the rounded corners*
20,1,$1+$1,$2,$3,$4,$5,0*
20,1,$1+$1,$4,$5,$6,$7,0*
20,1,$1+$1,$6,$7,$8,$9,0*
20,1,$1+$1,$8,$9,$2,$3,0*%
G04 Aperture macros list end*
G04 #@! TA.AperFunction,SMDPad,CuDef*
%ADD10RoundRect,0.237500X0.300000X0.237500X-0.300000X0.237500X-0.300000X-0.237500X0.300000X-0.237500X0*%
G04 #@! TD*
G04 #@! TA.AperFunction,SMDPad,CuDef*
%ADD11RoundRect,0.237500X0.237500X-0.250000X0.237500X0.250000X-0.237500X0.250000X-0.237500X-0.250000X0*%
G04 #@! TD*
G04 #@! TA.AperFunction,SMDPad,CuDef*
%ADD12RoundRect,0.237500X-0.300000X-0.237500X0.300000X-0.237500X0.300000X0.237500X-0.300000X0.237500X0*%
G04 #@! TD*
G04 #@! TA.AperFunction,SMDPad,CuDef*
%ADD13R,0.299999X0.449999*%
G04 #@! TD*
G04 #@! TA.AperFunction,SMDPad,CuDef*
%ADD14RoundRect,0.237500X-0.250000X-0.237500X0.250000X-0.237500X0.250000X0.237500X-0.250000X0.237500X0*%
G04 #@! TD*
G04 #@! TA.AperFunction,SMDPad,CuDef*
%ADD15R,0.305600X0.706399*%
G04 #@! TD*
G04 #@! TA.AperFunction,SMDPad,CuDef*
%ADD16R,1.092200X0.508000*%
G04 #@! TD*
G04 #@! TA.AperFunction,SMDPad,CuDef*
%ADD17R,0.762000X2.387600*%
G04 #@! TD*
G04 #@! TA.AperFunction,ViaPad*
%ADD18C,1.000000*%
G04 #@! TD*
G04 #@! TA.AperFunction,ViaPad*
%ADD19C,0.600000*%
G04 #@! TD*
G04 #@! TA.AperFunction,ViaPad*
%ADD20C,0.700000*%
G04 #@! TD*
G04 #@! TA.AperFunction,ViaPad*
%ADD21C,0.800000*%
G04 #@! TD*
G04 #@! TA.AperFunction,Conductor*
%ADD22C,0.700000*%
G04 #@! TD*
G04 #@! TA.AperFunction,Conductor*
%ADD23C,1.000000*%
G04 #@! TD*
G04 #@! TA.AperFunction,Conductor*
%ADD24C,0.300000*%
G04 #@! TD*
G04 #@! TA.AperFunction,Conductor*
%ADD25C,0.250000*%
G04 #@! TD*
G04 APERTURE END LIST*
D10*
X135862500Y-94000000D03*
X134137500Y-94000000D03*
D11*
X143250000Y-88662500D03*
X143250000Y-86837500D03*
D12*
X140237500Y-94000000D03*
X141962500Y-94000000D03*
D13*
X140449998Y-98074998D03*
X141099999Y-98074998D03*
X141749998Y-98074998D03*
X141749998Y-96125000D03*
X141099999Y-96125000D03*
X140449998Y-96125000D03*
D14*
X135637500Y-91150000D03*
X137462500Y-91150000D03*
D11*
X132900000Y-88662500D03*
X132900000Y-86837500D03*
D15*
X134600000Y-97846899D03*
X135399998Y-97846899D03*
X135399998Y-96353099D03*
X134600000Y-96353099D03*
D16*
X134999999Y-97099999D03*
D17*
X135538499Y-87950000D03*
X135538499Y-84049998D03*
X136808499Y-87950000D03*
X136808499Y-84049998D03*
X138078499Y-87950000D03*
X138078499Y-84049998D03*
X139348499Y-87950000D03*
X139348499Y-84049998D03*
X140618499Y-87950000D03*
X140618499Y-84049998D03*
D18*
X132960000Y-89850000D03*
D19*
X136320000Y-96760000D03*
D20*
X135540000Y-89850000D03*
D18*
X134300000Y-92300000D03*
X134050000Y-84050000D03*
D21*
X138205023Y-96314977D03*
D18*
X141950000Y-92150000D03*
D22*
X135538500Y-89831500D02*
X135538500Y-89848500D01*
X135640000Y-92570000D02*
X135637500Y-92572500D01*
X135637500Y-92572500D02*
X135637500Y-93775000D01*
X135540000Y-89850000D02*
X135538500Y-89851500D01*
X135538500Y-89851500D02*
X135538500Y-91051000D01*
D23*
X140237500Y-94000000D02*
X140237500Y-91650000D01*
D24*
X140561471Y-97188529D02*
X141100000Y-96650000D01*
D22*
X135538500Y-87950001D02*
X135538500Y-89828500D01*
D24*
X141749999Y-96125001D02*
X141749999Y-95512499D01*
X141749999Y-95512499D02*
X141100000Y-94862500D01*
X135913100Y-96353100D02*
X135399999Y-96353100D01*
X141100000Y-94862500D02*
X141100000Y-96125001D01*
D22*
X135637500Y-93775000D02*
X135862500Y-94000000D01*
D24*
X136320000Y-96760000D02*
X137100000Y-97540000D01*
D22*
X135540000Y-89830000D02*
X135538500Y-89831500D01*
X135538500Y-89848500D02*
X135540000Y-89850000D01*
D24*
X137100000Y-97540000D02*
X138027058Y-97540000D01*
D22*
X135637500Y-91150000D02*
X135637500Y-92567500D01*
D24*
X140237500Y-94000000D02*
X141100000Y-94862500D01*
X138378529Y-97188529D02*
X140561471Y-97188529D01*
D22*
X135637500Y-92567500D02*
X135640000Y-92570000D01*
D23*
X140237500Y-91650000D02*
X143225000Y-88662500D01*
D24*
X141100000Y-96650000D02*
X141100000Y-96125001D01*
D22*
X135538500Y-89828500D02*
X135540000Y-89830000D01*
D24*
X138027058Y-97540000D02*
X138378529Y-97188529D01*
D22*
X135538500Y-91051000D02*
X135637500Y-91150000D01*
D23*
X132960000Y-89850000D02*
X132960000Y-88722500D01*
D24*
X136320000Y-96760000D02*
X135913100Y-96353100D01*
X141100000Y-97650000D02*
X142840000Y-95910000D01*
X142840000Y-95910000D02*
X142840000Y-95610000D01*
X141100000Y-98074999D02*
X141100000Y-97650000D01*
D23*
X135538500Y-84049999D02*
X134050000Y-84050000D01*
X141950000Y-92150000D02*
X141962500Y-92162500D01*
D25*
X134137500Y-92462500D02*
X134300000Y-92300000D01*
D24*
X141962500Y-94732500D02*
X141962500Y-94000000D01*
D22*
X134137500Y-94000000D02*
X134137500Y-92462500D01*
D24*
X142840000Y-95610000D02*
X141962500Y-94732500D01*
X137430046Y-95540000D02*
X135007100Y-95540000D01*
X134600001Y-95947099D02*
X134600001Y-96353100D01*
X138205023Y-96314977D02*
X137430046Y-95540000D01*
D23*
X141962500Y-92162500D02*
X141962500Y-94000000D01*
D24*
X135007100Y-95540000D02*
X134600001Y-95947099D01*
X139075001Y-96125001D02*
X140449999Y-96125001D01*
X133750000Y-97449699D02*
X133750000Y-95490000D01*
D22*
X136808500Y-87950001D02*
X136808500Y-90496000D01*
D24*
X136935000Y-95040000D02*
X137462500Y-94512500D01*
X133750000Y-95490000D02*
X134200000Y-95040000D01*
X134200000Y-95040000D02*
X136935000Y-95040000D01*
X134147201Y-97846900D02*
X133750000Y-97449699D01*
X137462500Y-91150000D02*
X137462500Y-94512500D01*
X134600001Y-97846900D02*
X134147201Y-97846900D01*
X137462500Y-94512500D02*
X139075001Y-96125001D01*
D22*
X136808500Y-90496000D02*
X137462500Y-91150000D01*
D24*
X133060000Y-97940000D02*
X133060000Y-91430000D01*
X139814998Y-98710000D02*
X135400000Y-98710000D01*
D22*
X133737500Y-86000000D02*
X132900000Y-86837500D01*
X136263299Y-86000000D02*
X134190000Y-86000000D01*
D24*
X135400000Y-98710000D02*
X133830000Y-98710000D01*
D22*
X134190000Y-86000000D02*
X133737500Y-86000000D01*
D24*
X134190000Y-90300000D02*
X134190000Y-86000000D01*
X133830000Y-98710000D02*
X133060000Y-97940000D01*
X135399999Y-97846900D02*
X135400000Y-98710000D01*
D22*
X136808500Y-85454799D02*
X136263299Y-86000000D01*
D24*
X133060000Y-91430000D02*
X134190000Y-90300000D01*
X140449999Y-98074999D02*
X139814998Y-98710000D01*
D22*
X136808500Y-84049999D02*
X136808500Y-85454799D01*
X138078500Y-87950001D02*
X138078500Y-86545201D01*
D24*
X144075000Y-87662500D02*
X143250000Y-86837500D01*
X144075000Y-95749998D02*
X144075000Y-87662500D01*
D22*
X138623701Y-86000000D02*
X142412500Y-86000000D01*
D24*
X141749999Y-98074999D02*
X144075000Y-95749998D01*
D22*
X142412500Y-86000000D02*
X143250000Y-86837500D01*
X138078500Y-86545201D02*
X138623701Y-86000000D01*
M02*
