%TF.GenerationSoftware,KiCad,Pcbnew,(7.0.0)*%
%TF.CreationDate,2023-05-09T09:59:39+03:00*%
%TF.ProjectId,IoT_sulari_sensorboard,496f545f-7375-46c6-9172-695f73656e73,rev?*%
%TF.SameCoordinates,Original*%
%TF.FileFunction,Drillmap*%
%TF.FilePolarity,Positive*%
%FSLAX45Y45*%
G04 Gerber Fmt 4.5, Leading zero omitted, Abs format (unit mm)*
G04 Created by KiCad (PCBNEW (7.0.0)) date 2023-05-09 09:59:39*
%MOMM*%
%LPD*%
G01*
G04 APERTURE LIST*
%ADD10C,0.100000*%
%ADD11C,0.200000*%
G04 APERTURE END LIST*
D10*
X13750000Y-8210000D02*
X14270000Y-8210000D01*
X14414000Y-9960000D02*
X13195000Y-9960014D01*
X13196000Y-8210000D02*
G75*
G03*
X13159986Y-8245000I-1000J-35000D01*
G01*
X13750000Y-8210000D02*
X13196000Y-8210000D01*
X14450000Y-8246415D02*
X14450014Y-9925000D01*
X14414000Y-9960000D02*
G75*
G03*
X14450014Y-9925000I1000J35000D01*
G01*
X14449996Y-8246415D02*
G75*
G03*
X14412671Y-8210000I-35436J1015D01*
G01*
X13160000Y-9924000D02*
G75*
G03*
X13195000Y-9960014I35000J-1000D01*
G01*
X14270000Y-8210000D02*
X14412671Y-8210000D01*
X13160000Y-9924000D02*
X13159986Y-8245000D01*
D11*
X13402605Y-10258490D02*
X13402605Y-10058490D01*
X13402605Y-10058490D02*
X13450224Y-10058490D01*
X13450224Y-10058490D02*
X13478795Y-10068014D01*
X13478795Y-10068014D02*
X13497843Y-10087062D01*
X13497843Y-10087062D02*
X13507367Y-10106109D01*
X13507367Y-10106109D02*
X13516890Y-10144205D01*
X13516890Y-10144205D02*
X13516890Y-10172776D01*
X13516890Y-10172776D02*
X13507367Y-10210871D01*
X13507367Y-10210871D02*
X13497843Y-10229919D01*
X13497843Y-10229919D02*
X13478795Y-10248967D01*
X13478795Y-10248967D02*
X13450224Y-10258490D01*
X13450224Y-10258490D02*
X13402605Y-10258490D01*
X13602605Y-10258490D02*
X13602605Y-10125157D01*
X13602605Y-10163252D02*
X13612129Y-10144205D01*
X13612129Y-10144205D02*
X13621652Y-10134681D01*
X13621652Y-10134681D02*
X13640700Y-10125157D01*
X13640700Y-10125157D02*
X13659748Y-10125157D01*
X13726414Y-10258490D02*
X13726414Y-10125157D01*
X13726414Y-10058490D02*
X13716890Y-10068014D01*
X13716890Y-10068014D02*
X13726414Y-10077538D01*
X13726414Y-10077538D02*
X13735938Y-10068014D01*
X13735938Y-10068014D02*
X13726414Y-10058490D01*
X13726414Y-10058490D02*
X13726414Y-10077538D01*
X13850224Y-10258490D02*
X13831176Y-10248967D01*
X13831176Y-10248967D02*
X13821652Y-10229919D01*
X13821652Y-10229919D02*
X13821652Y-10058490D01*
X13954986Y-10258490D02*
X13935938Y-10248967D01*
X13935938Y-10248967D02*
X13926414Y-10229919D01*
X13926414Y-10229919D02*
X13926414Y-10058490D01*
X14151176Y-10258490D02*
X14151176Y-10058490D01*
X14151176Y-10058490D02*
X14217843Y-10201348D01*
X14217843Y-10201348D02*
X14284509Y-10058490D01*
X14284509Y-10058490D02*
X14284509Y-10258490D01*
X14465462Y-10258490D02*
X14465462Y-10153728D01*
X14465462Y-10153728D02*
X14455938Y-10134681D01*
X14455938Y-10134681D02*
X14436890Y-10125157D01*
X14436890Y-10125157D02*
X14398795Y-10125157D01*
X14398795Y-10125157D02*
X14379748Y-10134681D01*
X14465462Y-10248967D02*
X14446414Y-10258490D01*
X14446414Y-10258490D02*
X14398795Y-10258490D01*
X14398795Y-10258490D02*
X14379748Y-10248967D01*
X14379748Y-10248967D02*
X14370224Y-10229919D01*
X14370224Y-10229919D02*
X14370224Y-10210871D01*
X14370224Y-10210871D02*
X14379748Y-10191824D01*
X14379748Y-10191824D02*
X14398795Y-10182300D01*
X14398795Y-10182300D02*
X14446414Y-10182300D01*
X14446414Y-10182300D02*
X14465462Y-10172776D01*
X14560700Y-10125157D02*
X14560700Y-10325157D01*
X14560700Y-10134681D02*
X14579748Y-10125157D01*
X14579748Y-10125157D02*
X14617843Y-10125157D01*
X14617843Y-10125157D02*
X14636890Y-10134681D01*
X14636890Y-10134681D02*
X14646414Y-10144205D01*
X14646414Y-10144205D02*
X14655938Y-10163252D01*
X14655938Y-10163252D02*
X14655938Y-10220395D01*
X14655938Y-10220395D02*
X14646414Y-10239443D01*
X14646414Y-10239443D02*
X14636890Y-10248967D01*
X14636890Y-10248967D02*
X14617843Y-10258490D01*
X14617843Y-10258490D02*
X14579748Y-10258490D01*
X14579748Y-10258490D02*
X14560700Y-10248967D01*
X14741652Y-10239443D02*
X14751176Y-10248967D01*
X14751176Y-10248967D02*
X14741652Y-10258490D01*
X14741652Y-10258490D02*
X14732129Y-10248967D01*
X14732129Y-10248967D02*
X14741652Y-10239443D01*
X14741652Y-10239443D02*
X14741652Y-10258490D01*
X14741652Y-10134681D02*
X14751176Y-10144205D01*
X14751176Y-10144205D02*
X14741652Y-10153728D01*
X14741652Y-10153728D02*
X14732129Y-10144205D01*
X14732129Y-10144205D02*
X14741652Y-10134681D01*
X14741652Y-10134681D02*
X14741652Y-10153728D01*
M02*
