G04 #@! TF.GenerationSoftware,KiCad,Pcbnew,(7.0.0)*
G04 #@! TF.CreationDate,2023-05-09T09:59:22+03:00*
G04 #@! TF.ProjectId,IoT_sulari_sensorboard,496f545f-7375-46c6-9172-695f73656e73,rev?*
G04 #@! TF.SameCoordinates,Original*
G04 #@! TF.FileFunction,Copper,L2,Bot*
G04 #@! TF.FilePolarity,Positive*
%FSLAX46Y46*%
G04 Gerber Fmt 4.6, Leading zero omitted, Abs format (unit mm)*
G04 Created by KiCad (PCBNEW (7.0.0)) date 2023-05-09 09:59:22*
%MOMM*%
%LPD*%
G01*
G04 APERTURE LIST*
G04 #@! TA.AperFunction,ViaPad*
%ADD10C,1.000000*%
G04 #@! TD*
G04 #@! TA.AperFunction,ViaPad*
%ADD11C,0.600000*%
G04 #@! TD*
G04 #@! TA.AperFunction,ViaPad*
%ADD12C,0.700000*%
G04 #@! TD*
G04 #@! TA.AperFunction,ViaPad*
%ADD13C,0.800000*%
G04 #@! TD*
G04 #@! TA.AperFunction,Conductor*
%ADD14C,1.000000*%
G04 #@! TD*
G04 APERTURE END LIST*
D10*
X132960000Y-89850000D03*
D11*
X136320000Y-96760000D03*
D12*
X135540000Y-89850000D03*
D10*
X134300000Y-92300000D03*
X134050000Y-84050000D03*
D13*
X138205023Y-96314977D03*
D10*
X141950000Y-92150000D03*
D14*
X136320000Y-96730000D02*
X132670000Y-93080000D01*
X132710000Y-89850000D02*
X132960000Y-89850000D01*
X135540000Y-89850000D02*
X132960000Y-89850000D01*
X132670000Y-89890000D02*
X132710000Y-89850000D01*
X132670000Y-93080000D02*
X132670000Y-89890000D01*
G04 #@! TA.AperFunction,Conductor*
G36*
X143938000Y-82516613D02*
G01*
X143983387Y-82562000D01*
X144000000Y-82624000D01*
X144000000Y-99126000D01*
X143983387Y-99188000D01*
X143938000Y-99233387D01*
X143876000Y-99250000D01*
X132124000Y-99250000D01*
X132062000Y-99233387D01*
X132016613Y-99188000D01*
X132000000Y-99126000D01*
X132000000Y-94124283D01*
X132013515Y-94067988D01*
X132051115Y-94023965D01*
X132104602Y-94001810D01*
X132162318Y-94006352D01*
X132211681Y-94036602D01*
X135648420Y-97473341D01*
X135766593Y-97569698D01*
X135946951Y-97663910D01*
X136142582Y-97719887D01*
X136345477Y-97735337D01*
X136547328Y-97709630D01*
X136739873Y-97643816D01*
X136915227Y-97540591D01*
X137066214Y-97404179D01*
X137186650Y-97240167D01*
X137271606Y-97055269D01*
X137317603Y-96857054D01*
X137322757Y-96653637D01*
X137286859Y-96453348D01*
X137211378Y-96264383D01*
X137099402Y-96094482D01*
X133706818Y-92701898D01*
X133679939Y-92661671D01*
X133670500Y-92614218D01*
X133670500Y-90974500D01*
X133687113Y-90912500D01*
X133732500Y-90867113D01*
X133794500Y-90850500D01*
X135587600Y-90850500D01*
X135590742Y-90850500D01*
X135742438Y-90835074D01*
X135936588Y-90774159D01*
X136114502Y-90675409D01*
X136268895Y-90542866D01*
X136393448Y-90381958D01*
X136483060Y-90199271D01*
X136534063Y-90002285D01*
X136544369Y-89799064D01*
X136513556Y-89597929D01*
X136442886Y-89407113D01*
X136335252Y-89234429D01*
X136195059Y-89086947D01*
X136028049Y-88970705D01*
X135994454Y-88956288D01*
X135846836Y-88892939D01*
X135846831Y-88892937D01*
X135841058Y-88890460D01*
X135803590Y-88882760D01*
X135647899Y-88850765D01*
X135647894Y-88850764D01*
X135641741Y-88849500D01*
X135635453Y-88849500D01*
X133015244Y-88849500D01*
X133003090Y-88848903D01*
X132986236Y-88847243D01*
X132960000Y-88844659D01*
X132933764Y-88847243D01*
X132916910Y-88848903D01*
X132904756Y-88849500D01*
X132724278Y-88849500D01*
X132721137Y-88849460D01*
X132639924Y-88847402D01*
X132639921Y-88847402D01*
X132633637Y-88847243D01*
X132627454Y-88848351D01*
X132627442Y-88848352D01*
X132575571Y-88857649D01*
X132566244Y-88858958D01*
X132513815Y-88864290D01*
X132513813Y-88864290D01*
X132507562Y-88864926D01*
X132501569Y-88866805D01*
X132501560Y-88866808D01*
X132478531Y-88874033D01*
X132463295Y-88877772D01*
X132439539Y-88882030D01*
X132439526Y-88882033D01*
X132433348Y-88883141D01*
X132427521Y-88885468D01*
X132427512Y-88885471D01*
X132378557Y-88905026D01*
X132369684Y-88908185D01*
X132319402Y-88923961D01*
X132319397Y-88923963D01*
X132313412Y-88925841D01*
X132307925Y-88928886D01*
X132307914Y-88928891D01*
X132286813Y-88940602D01*
X132272645Y-88947331D01*
X132250222Y-88956288D01*
X132250210Y-88956294D01*
X132244383Y-88958622D01*
X132239136Y-88962079D01*
X132239136Y-88962080D01*
X132195122Y-88991087D01*
X132187081Y-88995959D01*
X132184194Y-88997562D01*
X132122444Y-89013142D01*
X132061104Y-88996017D01*
X132016354Y-88950702D01*
X132000000Y-88889152D01*
X132000000Y-82624000D01*
X132016613Y-82562000D01*
X132062000Y-82516613D01*
X132124000Y-82500000D01*
X143876000Y-82500000D01*
X143938000Y-82516613D01*
G37*
G04 #@! TD.AperFunction*
M02*
