%TF.GenerationSoftware,KiCad,Pcbnew,(7.0.0)*%
%TF.CreationDate,2023-05-09T15:07:43+03:00*%
%TF.ProjectId,IoT_sulari,496f545f-7375-46c6-9172-692e6b696361,rev?*%
%TF.SameCoordinates,Original*%
%TF.FileFunction,Drillmap*%
%TF.FilePolarity,Positive*%
%FSLAX45Y45*%
G04 Gerber Fmt 4.5, Leading zero omitted, Abs format (unit mm)*
G04 Created by KiCad (PCBNEW (7.0.0)) date 2023-05-09 15:07:43*
%MOMM*%
%LPD*%
G01*
G04 APERTURE LIST*
%ADD10C,0.100000*%
%ADD11C,0.200000*%
%ADD12C,0.040000*%
%ADD13C,0.050000*%
%ADD14C,0.320000*%
G04 APERTURE END LIST*
D10*
X14300000Y-7200000D02*
X14300000Y-3900000D01*
X9230000Y-7200000D02*
G75*
G03*
X9630000Y-7600000I400000J0D01*
G01*
X9230000Y-3900000D02*
X9230000Y-7200000D01*
X13900000Y-7600000D02*
G75*
G03*
X14300000Y-7200000I0J400000D01*
G01*
X14300000Y-3900000D02*
G75*
G03*
X13900000Y-3500000I-400000J0D01*
G01*
X13900000Y-3500000D02*
X9630000Y-3500000D01*
X9630000Y-7600000D02*
X13900000Y-7600000D01*
X9630000Y-3500000D02*
G75*
G03*
X9230000Y-3900000I0J-400000D01*
G01*
D11*
D12*
X9380000Y-6130000D02*
X9420000Y-6170000D01*
X9420000Y-6130000D02*
X9380000Y-6170000D01*
X9380000Y-6450000D02*
X9420000Y-6490000D01*
X9420000Y-6450000D02*
X9380000Y-6490000D01*
X9410000Y-4880000D02*
X9450000Y-4920000D01*
X9450000Y-4880000D02*
X9410000Y-4920000D01*
X9540000Y-6130000D02*
X9580000Y-6170000D01*
X9580000Y-6130000D02*
X9540000Y-6170000D01*
X9540000Y-6460000D02*
X9580000Y-6500000D01*
X9580000Y-6460000D02*
X9540000Y-6500000D01*
X9600000Y-5740000D02*
X9640000Y-5780000D01*
X9640000Y-5740000D02*
X9600000Y-5780000D01*
X9600000Y-5830000D02*
X9640000Y-5870000D01*
X9640000Y-5830000D02*
X9600000Y-5870000D01*
X9640000Y-4879500D02*
X9680000Y-4919500D01*
X9680000Y-4879500D02*
X9640000Y-4919500D01*
X9890000Y-4880000D02*
X9930000Y-4920000D01*
X9930000Y-4880000D02*
X9890000Y-4920000D01*
X9900000Y-5740000D02*
X9940000Y-5780000D01*
X9940000Y-5740000D02*
X9900000Y-5780000D01*
X9900000Y-5830000D02*
X9940000Y-5870000D01*
X9940000Y-5830000D02*
X9900000Y-5870000D01*
X10190000Y-4790000D02*
X10230000Y-4830000D01*
X10230000Y-4790000D02*
X10190000Y-4830000D01*
X10200000Y-4170000D02*
X10240000Y-4210000D01*
X10240000Y-4170000D02*
X10200000Y-4210000D01*
X10210000Y-5740000D02*
X10250000Y-5780000D01*
X10250000Y-5740000D02*
X10210000Y-5780000D01*
X10210000Y-5830000D02*
X10250000Y-5870000D01*
X10250000Y-5830000D02*
X10210000Y-5870000D01*
X10290000Y-4860000D02*
X10330000Y-4900000D01*
X10330000Y-4860000D02*
X10290000Y-4900000D01*
X10350000Y-6530000D02*
X10390000Y-6570000D01*
X10390000Y-6530000D02*
X10350000Y-6570000D01*
X10350000Y-6810000D02*
X10390000Y-6850000D01*
X10390000Y-6810000D02*
X10350000Y-6850000D01*
X10397550Y-4170000D02*
X10437550Y-4210000D01*
X10437550Y-4170000D02*
X10397550Y-4210000D01*
X10420000Y-6970000D02*
X10460000Y-7010000D01*
X10460000Y-6970000D02*
X10420000Y-7010000D01*
X10420000Y-7100000D02*
X10460000Y-7140000D01*
X10460000Y-7100000D02*
X10420000Y-7140000D01*
X10430000Y-7330000D02*
X10470000Y-7370000D01*
X10470000Y-7330000D02*
X10430000Y-7370000D01*
X10520000Y-5740000D02*
X10560000Y-5780000D01*
X10560000Y-5740000D02*
X10520000Y-5780000D01*
X10520000Y-5830000D02*
X10560000Y-5870000D01*
X10560000Y-5830000D02*
X10520000Y-5870000D01*
X10620000Y-4080000D02*
X10660000Y-4120000D01*
X10660000Y-4080000D02*
X10620000Y-4120000D01*
X10710000Y-3760000D02*
X10750000Y-3800000D01*
X10750000Y-3760000D02*
X10710000Y-3800000D01*
X10710000Y-4342119D02*
X10750000Y-4382119D01*
X10750000Y-4342119D02*
X10710000Y-4382119D01*
X10710000Y-6130000D02*
X10750000Y-6170000D01*
X10750000Y-6130000D02*
X10710000Y-6170000D01*
X10720000Y-3620000D02*
X10760000Y-3660000D01*
X10760000Y-3620000D02*
X10720000Y-3660000D01*
X10720000Y-6670000D02*
X10760000Y-6710000D01*
X10760000Y-6670000D02*
X10720000Y-6710000D01*
X10772763Y-4517237D02*
X10812763Y-4557237D01*
X10812763Y-4517237D02*
X10772763Y-4557237D01*
X10820000Y-3660000D02*
X10860000Y-3700000D01*
X10860000Y-3660000D02*
X10820000Y-3700000D01*
X10820000Y-3850000D02*
X10860000Y-3890000D01*
X10860000Y-3850000D02*
X10820000Y-3890000D01*
X10820000Y-4080000D02*
X10860000Y-4120000D01*
X10860000Y-4080000D02*
X10820000Y-4120000D01*
X10890000Y-4620000D02*
X10930000Y-4660000D01*
X10930000Y-4620000D02*
X10890000Y-4660000D01*
X10892782Y-3932782D02*
X10932782Y-3972782D01*
X10932782Y-3932782D02*
X10892782Y-3972782D01*
X10991245Y-3880000D02*
X11031245Y-3920000D01*
X11031245Y-3880000D02*
X10991245Y-3920000D01*
X11100000Y-3890000D02*
X11140000Y-3930000D01*
X11140000Y-3890000D02*
X11100000Y-3930000D01*
X11100000Y-3990000D02*
X11140000Y-4030000D01*
X11140000Y-3990000D02*
X11100000Y-4030000D01*
X11230000Y-4410000D02*
X11270000Y-4450000D01*
X11270000Y-4410000D02*
X11230000Y-4450000D01*
X11400000Y-4750000D02*
X11440000Y-4790000D01*
X11440000Y-4750000D02*
X11400000Y-4790000D01*
X11400000Y-4860000D02*
X11440000Y-4900000D01*
X11440000Y-4860000D02*
X11400000Y-4900000D01*
X11400000Y-4980000D02*
X11440000Y-5020000D01*
X11440000Y-4980000D02*
X11400000Y-5020000D01*
X11400000Y-5090000D02*
X11440000Y-5130000D01*
X11440000Y-5090000D02*
X11400000Y-5130000D01*
X11400000Y-5600000D02*
X11440000Y-5640000D01*
X11440000Y-5600000D02*
X11400000Y-5640000D01*
X11400000Y-5690000D02*
X11440000Y-5730000D01*
X11440000Y-5690000D02*
X11400000Y-5730000D01*
X11400000Y-5780000D02*
X11440000Y-5820000D01*
X11440000Y-5780000D02*
X11400000Y-5820000D01*
X11400000Y-5870000D02*
X11440000Y-5910000D01*
X11440000Y-5870000D02*
X11400000Y-5910000D01*
X11400000Y-5960000D02*
X11440000Y-6000000D01*
X11440000Y-5960000D02*
X11400000Y-6000000D01*
X11420000Y-3890000D02*
X11460000Y-3930000D01*
X11460000Y-3890000D02*
X11420000Y-3930000D01*
X11420000Y-3980000D02*
X11460000Y-4020000D01*
X11460000Y-3980000D02*
X11420000Y-4020000D01*
X11420000Y-4070000D02*
X11460000Y-4110000D01*
X11460000Y-4070000D02*
X11420000Y-4110000D01*
X11420000Y-4160000D02*
X11460000Y-4200000D01*
X11460000Y-4160000D02*
X11420000Y-4200000D01*
X11420000Y-4320000D02*
X11460000Y-4360000D01*
X11460000Y-4320000D02*
X11420000Y-4360000D01*
X11490000Y-7030000D02*
X11530000Y-7070000D01*
X11530000Y-7030000D02*
X11490000Y-7070000D01*
X11510000Y-6590000D02*
X11550000Y-6630000D01*
X11550000Y-6590000D02*
X11510000Y-6630000D01*
X11690000Y-3980000D02*
X11730000Y-4020000D01*
X11730000Y-3980000D02*
X11690000Y-4020000D01*
X11690000Y-4180000D02*
X11730000Y-4220000D01*
X11730000Y-4180000D02*
X11690000Y-4220000D01*
X11690000Y-4660000D02*
X11730000Y-4700000D01*
X11730000Y-4660000D02*
X11690000Y-4700000D01*
X11750000Y-3620000D02*
X11790000Y-3660000D01*
X11790000Y-3620000D02*
X11750000Y-3660000D01*
X11750000Y-5460000D02*
X11790000Y-5500000D01*
X11790000Y-5460000D02*
X11750000Y-5500000D01*
X11780000Y-3980000D02*
X11820000Y-4020000D01*
X11820000Y-3980000D02*
X11780000Y-4020000D01*
X11780000Y-4180000D02*
X11820000Y-4220000D01*
X11820000Y-4180000D02*
X11780000Y-4220000D01*
X11790000Y-4760000D02*
X11830000Y-4800000D01*
X11830000Y-4760000D02*
X11790000Y-4800000D01*
X11790000Y-4850000D02*
X11830000Y-4890000D01*
X11830000Y-4850000D02*
X11790000Y-4890000D01*
X11807000Y-4316000D02*
X11847000Y-4356000D01*
X11847000Y-4316000D02*
X11807000Y-4356000D01*
X11820000Y-5590000D02*
X11860000Y-5630000D01*
X11860000Y-5590000D02*
X11820000Y-5630000D01*
X11820000Y-5680000D02*
X11860000Y-5720000D01*
X11860000Y-5680000D02*
X11820000Y-5720000D01*
X11820000Y-5770000D02*
X11860000Y-5810000D01*
X11860000Y-5770000D02*
X11820000Y-5810000D01*
X11820000Y-5860000D02*
X11860000Y-5900000D01*
X11860000Y-5860000D02*
X11820000Y-5900000D01*
X11820000Y-5960000D02*
X11860000Y-6000000D01*
X11860000Y-5960000D02*
X11820000Y-6000000D01*
X12020000Y-6970000D02*
X12060000Y-7010000D01*
X12060000Y-6970000D02*
X12020000Y-7010000D01*
X12050000Y-6710000D02*
X12090000Y-6750000D01*
X12090000Y-6710000D02*
X12050000Y-6750000D01*
X12150000Y-4640000D02*
X12190000Y-4680000D01*
X12190000Y-4640000D02*
X12150000Y-4680000D01*
X12150000Y-4830000D02*
X12190000Y-4870000D01*
X12190000Y-4830000D02*
X12150000Y-4870000D01*
X12150000Y-4990000D02*
X12190000Y-5030000D01*
X12190000Y-4990000D02*
X12150000Y-5030000D01*
X12150000Y-5140000D02*
X12190000Y-5180000D01*
X12190000Y-5140000D02*
X12150000Y-5180000D01*
X12215000Y-5631000D02*
X12255000Y-5671000D01*
X12255000Y-5631000D02*
X12215000Y-5671000D01*
X12275236Y-4126687D02*
X12315236Y-4166687D01*
X12315236Y-4126687D02*
X12275236Y-4166687D01*
X12280000Y-5810000D02*
X12320000Y-5850000D01*
X12320000Y-5810000D02*
X12280000Y-5850000D01*
X12342562Y-4832705D02*
X12382562Y-4872705D01*
X12382562Y-4832705D02*
X12342562Y-4872705D01*
X12350000Y-4980000D02*
X12390000Y-5020000D01*
X12390000Y-4980000D02*
X12350000Y-5020000D01*
X12350000Y-5140000D02*
X12390000Y-5180000D01*
X12390000Y-5140000D02*
X12350000Y-5180000D01*
X12380000Y-5750000D02*
X12420000Y-5790000D01*
X12420000Y-5750000D02*
X12380000Y-5790000D01*
X12407179Y-4027755D02*
X12447179Y-4067755D01*
X12447179Y-4027755D02*
X12407179Y-4067755D01*
X12430000Y-5520000D02*
X12470000Y-5560000D01*
X12470000Y-5520000D02*
X12430000Y-5560000D01*
X12485381Y-4090000D02*
X12525381Y-4130000D01*
X12525381Y-4090000D02*
X12485381Y-4130000D01*
X12530000Y-4320000D02*
X12570000Y-4360000D01*
X12570000Y-4320000D02*
X12530000Y-4360000D01*
X12540000Y-5650000D02*
X12580000Y-5690000D01*
X12580000Y-5650000D02*
X12540000Y-5690000D01*
X12550000Y-4580000D02*
X12590000Y-4620000D01*
X12590000Y-4580000D02*
X12550000Y-4620000D01*
X12550000Y-4700000D02*
X12590000Y-4740000D01*
X12590000Y-4700000D02*
X12550000Y-4740000D01*
X12550000Y-4820000D02*
X12590000Y-4860000D01*
X12590000Y-4820000D02*
X12550000Y-4860000D01*
X12550000Y-4980000D02*
X12590000Y-5020000D01*
X12590000Y-4980000D02*
X12550000Y-5020000D01*
X12550000Y-5140000D02*
X12590000Y-5180000D01*
X12590000Y-5140000D02*
X12550000Y-5180000D01*
X12600000Y-3640000D02*
X12640000Y-3680000D01*
X12640000Y-3640000D02*
X12600000Y-3680000D01*
X12620000Y-5785000D02*
X12660000Y-5825000D01*
X12660000Y-5785000D02*
X12620000Y-5825000D01*
X12635683Y-5468800D02*
X12675683Y-5508800D01*
X12675683Y-5468800D02*
X12635683Y-5508800D01*
X12690000Y-4260000D02*
X12730000Y-4300000D01*
X12730000Y-4260000D02*
X12690000Y-4300000D01*
X12720000Y-5900000D02*
X12760000Y-5940000D01*
X12760000Y-5900000D02*
X12720000Y-5940000D01*
X12750000Y-4690000D02*
X12790000Y-4730000D01*
X12790000Y-4690000D02*
X12750000Y-4730000D01*
X12750000Y-4830000D02*
X12790000Y-4870000D01*
X12790000Y-4830000D02*
X12750000Y-4870000D01*
X12750000Y-4980000D02*
X12790000Y-5020000D01*
X12790000Y-4980000D02*
X12750000Y-5020000D01*
X12750000Y-5150000D02*
X12790000Y-5190000D01*
X12790000Y-5150000D02*
X12750000Y-5190000D01*
X12950000Y-4820000D02*
X12990000Y-4860000D01*
X12990000Y-4820000D02*
X12950000Y-4860000D01*
X12950000Y-4980000D02*
X12990000Y-5020000D01*
X12990000Y-4980000D02*
X12950000Y-5020000D01*
X12950000Y-5150000D02*
X12990000Y-5190000D01*
X12990000Y-5150000D02*
X12950000Y-5190000D01*
X12960000Y-4660000D02*
X13000000Y-4700000D01*
X13000000Y-4660000D02*
X12960000Y-4700000D01*
X12970000Y-5700000D02*
X13010000Y-5740000D01*
X13010000Y-5700000D02*
X12970000Y-5740000D01*
X13000000Y-5900000D02*
X13040000Y-5940000D01*
X13040000Y-5900000D02*
X13000000Y-5940000D01*
X13040000Y-5500000D02*
X13080000Y-5540000D01*
X13080000Y-5500000D02*
X13040000Y-5540000D01*
X13150000Y-4640000D02*
X13190000Y-4680000D01*
X13190000Y-4640000D02*
X13150000Y-4680000D01*
X13150000Y-4980000D02*
X13190000Y-5020000D01*
X13190000Y-4980000D02*
X13150000Y-5020000D01*
X13150000Y-5140000D02*
X13190000Y-5180000D01*
X13190000Y-5140000D02*
X13150000Y-5180000D01*
X13220000Y-6050000D02*
X13260000Y-6090000D01*
X13260000Y-6050000D02*
X13220000Y-6090000D01*
X13260000Y-5700000D02*
X13300000Y-5740000D01*
X13300000Y-5700000D02*
X13260000Y-5740000D01*
X13342011Y-4685841D02*
X13382011Y-4725841D01*
X13382011Y-4685841D02*
X13342011Y-4725841D01*
X13350000Y-4910000D02*
X13390000Y-4950000D01*
X13390000Y-4910000D02*
X13350000Y-4950000D01*
X13435000Y-5830000D02*
X13475000Y-5870000D01*
X13475000Y-5830000D02*
X13435000Y-5870000D01*
X13520000Y-5410000D02*
X13560000Y-5450000D01*
X13560000Y-5410000D02*
X13520000Y-5450000D01*
X13520000Y-5650000D02*
X13560000Y-5690000D01*
X13560000Y-5650000D02*
X13520000Y-5690000D01*
X13680000Y-5680000D02*
X13720000Y-5720000D01*
X13720000Y-5680000D02*
X13680000Y-5720000D01*
X13890000Y-6130000D02*
X13930000Y-6170000D01*
X13930000Y-6130000D02*
X13890000Y-6170000D01*
X13890000Y-6260000D02*
X13930000Y-6300000D01*
X13930000Y-6260000D02*
X13890000Y-6300000D01*
X13980000Y-4320000D02*
X14020000Y-4360000D01*
X14020000Y-4320000D02*
X13980000Y-4360000D01*
X13980000Y-4860000D02*
X14020000Y-4900000D01*
X14020000Y-4860000D02*
X13980000Y-4900000D01*
X13980000Y-5070000D02*
X14020000Y-5110000D01*
X14020000Y-5070000D02*
X13980000Y-5110000D01*
X13980000Y-5600000D02*
X14020000Y-5640000D01*
X14020000Y-5600000D02*
X13980000Y-5640000D01*
X14020000Y-4580000D02*
X14060000Y-4620000D01*
X14060000Y-4580000D02*
X14020000Y-4620000D01*
X14020000Y-5330000D02*
X14060000Y-5370000D01*
X14060000Y-5330000D02*
X14020000Y-5370000D01*
X14070000Y-6480000D02*
X14110000Y-6520000D01*
X14110000Y-6480000D02*
X14070000Y-6520000D01*
D13*
X9405000Y-3900000D02*
G75*
G03*
X9405000Y-3900000I-25000J0D01*
G01*
X9405000Y-7200000D02*
G75*
G03*
X9405000Y-7200000I-25000J0D01*
G01*
X9475294Y-3730294D02*
G75*
G03*
X9475294Y-3730294I-25000J0D01*
G01*
X9475294Y-4069706D02*
G75*
G03*
X9475294Y-4069706I-25000J0D01*
G01*
X9475294Y-7030294D02*
G75*
G03*
X9475294Y-7030294I-25000J0D01*
G01*
X9475294Y-7369706D02*
G75*
G03*
X9475294Y-7369706I-25000J0D01*
G01*
X9645000Y-3660000D02*
G75*
G03*
X9645000Y-3660000I-25000J0D01*
G01*
X9645000Y-4140000D02*
G75*
G03*
X9645000Y-4140000I-25000J0D01*
G01*
X9645000Y-6960000D02*
G75*
G03*
X9645000Y-6960000I-25000J0D01*
G01*
X9645000Y-7440000D02*
G75*
G03*
X9645000Y-7440000I-25000J0D01*
G01*
X9814706Y-3730294D02*
G75*
G03*
X9814706Y-3730294I-25000J0D01*
G01*
X9814706Y-4069706D02*
G75*
G03*
X9814706Y-4069706I-25000J0D01*
G01*
X9814706Y-7030294D02*
G75*
G03*
X9814706Y-7030294I-25000J0D01*
G01*
X9814706Y-7369706D02*
G75*
G03*
X9814706Y-7369706I-25000J0D01*
G01*
X9885000Y-3900000D02*
G75*
G03*
X9885000Y-3900000I-25000J0D01*
G01*
X9885000Y-7200000D02*
G75*
G03*
X9885000Y-7200000I-25000J0D01*
G01*
X13685000Y-3900000D02*
G75*
G03*
X13685000Y-3900000I-25000J0D01*
G01*
X13685000Y-7200000D02*
G75*
G03*
X13685000Y-7200000I-25000J0D01*
G01*
X13755294Y-3730294D02*
G75*
G03*
X13755294Y-3730294I-25000J0D01*
G01*
X13755294Y-4069706D02*
G75*
G03*
X13755294Y-4069706I-25000J0D01*
G01*
X13755294Y-7030294D02*
G75*
G03*
X13755294Y-7030294I-25000J0D01*
G01*
X13755294Y-7369706D02*
G75*
G03*
X13755294Y-7369706I-25000J0D01*
G01*
X13925000Y-3660000D02*
G75*
G03*
X13925000Y-3660000I-25000J0D01*
G01*
X13925000Y-4140000D02*
G75*
G03*
X13925000Y-4140000I-25000J0D01*
G01*
X13925000Y-6960000D02*
G75*
G03*
X13925000Y-6960000I-25000J0D01*
G01*
X13925000Y-7440000D02*
G75*
G03*
X13925000Y-7440000I-25000J0D01*
G01*
X14094706Y-3730294D02*
G75*
G03*
X14094706Y-3730294I-25000J0D01*
G01*
X14094706Y-4069706D02*
G75*
G03*
X14094706Y-4069706I-25000J0D01*
G01*
X14094706Y-7030294D02*
G75*
G03*
X14094706Y-7030294I-25000J0D01*
G01*
X14094706Y-7369706D02*
G75*
G03*
X14094706Y-7369706I-25000J0D01*
G01*
X14165000Y-3900000D02*
G75*
G03*
X14165000Y-3900000I-25000J0D01*
G01*
X14165000Y-7200000D02*
G75*
G03*
X14165000Y-7200000I-25000J0D01*
G01*
D14*
X9620000Y-3740000D02*
X9620000Y-4060000D01*
X9460000Y-3900000D02*
X9780000Y-3900000D01*
X9620000Y-7040000D02*
X9620000Y-7360000D01*
X9460000Y-7200000D02*
X9780000Y-7200000D01*
X13900000Y-3740000D02*
X13900000Y-4060000D01*
X13740000Y-3900000D02*
X14060000Y-3900000D01*
X13900000Y-7040000D02*
X13900000Y-7360000D01*
X13740000Y-7200000D02*
X14060000Y-7200000D01*
D11*
X9472619Y-7898476D02*
X9472619Y-7698476D01*
X9472619Y-7698476D02*
X9520238Y-7698476D01*
X9520238Y-7698476D02*
X9548810Y-7708000D01*
X9548810Y-7708000D02*
X9567857Y-7727048D01*
X9567857Y-7727048D02*
X9577381Y-7746095D01*
X9577381Y-7746095D02*
X9586905Y-7784190D01*
X9586905Y-7784190D02*
X9586905Y-7812762D01*
X9586905Y-7812762D02*
X9577381Y-7850857D01*
X9577381Y-7850857D02*
X9567857Y-7869905D01*
X9567857Y-7869905D02*
X9548810Y-7888952D01*
X9548810Y-7888952D02*
X9520238Y-7898476D01*
X9520238Y-7898476D02*
X9472619Y-7898476D01*
X9672619Y-7898476D02*
X9672619Y-7765143D01*
X9672619Y-7803238D02*
X9682143Y-7784190D01*
X9682143Y-7784190D02*
X9691667Y-7774667D01*
X9691667Y-7774667D02*
X9710714Y-7765143D01*
X9710714Y-7765143D02*
X9729762Y-7765143D01*
X9796429Y-7898476D02*
X9796429Y-7765143D01*
X9796429Y-7698476D02*
X9786905Y-7708000D01*
X9786905Y-7708000D02*
X9796429Y-7717524D01*
X9796429Y-7717524D02*
X9805952Y-7708000D01*
X9805952Y-7708000D02*
X9796429Y-7698476D01*
X9796429Y-7698476D02*
X9796429Y-7717524D01*
X9920238Y-7898476D02*
X9901190Y-7888952D01*
X9901190Y-7888952D02*
X9891667Y-7869905D01*
X9891667Y-7869905D02*
X9891667Y-7698476D01*
X10025000Y-7898476D02*
X10005952Y-7888952D01*
X10005952Y-7888952D02*
X9996429Y-7869905D01*
X9996429Y-7869905D02*
X9996429Y-7698476D01*
X10221190Y-7898476D02*
X10221190Y-7698476D01*
X10221190Y-7698476D02*
X10287857Y-7841333D01*
X10287857Y-7841333D02*
X10354524Y-7698476D01*
X10354524Y-7698476D02*
X10354524Y-7898476D01*
X10535476Y-7898476D02*
X10535476Y-7793714D01*
X10535476Y-7793714D02*
X10525952Y-7774667D01*
X10525952Y-7774667D02*
X10506905Y-7765143D01*
X10506905Y-7765143D02*
X10468809Y-7765143D01*
X10468809Y-7765143D02*
X10449762Y-7774667D01*
X10535476Y-7888952D02*
X10516429Y-7898476D01*
X10516429Y-7898476D02*
X10468809Y-7898476D01*
X10468809Y-7898476D02*
X10449762Y-7888952D01*
X10449762Y-7888952D02*
X10440238Y-7869905D01*
X10440238Y-7869905D02*
X10440238Y-7850857D01*
X10440238Y-7850857D02*
X10449762Y-7831809D01*
X10449762Y-7831809D02*
X10468809Y-7822286D01*
X10468809Y-7822286D02*
X10516429Y-7822286D01*
X10516429Y-7822286D02*
X10535476Y-7812762D01*
X10630714Y-7765143D02*
X10630714Y-7965143D01*
X10630714Y-7774667D02*
X10649762Y-7765143D01*
X10649762Y-7765143D02*
X10687857Y-7765143D01*
X10687857Y-7765143D02*
X10706905Y-7774667D01*
X10706905Y-7774667D02*
X10716429Y-7784190D01*
X10716429Y-7784190D02*
X10725952Y-7803238D01*
X10725952Y-7803238D02*
X10725952Y-7860381D01*
X10725952Y-7860381D02*
X10716429Y-7879428D01*
X10716429Y-7879428D02*
X10706905Y-7888952D01*
X10706905Y-7888952D02*
X10687857Y-7898476D01*
X10687857Y-7898476D02*
X10649762Y-7898476D01*
X10649762Y-7898476D02*
X10630714Y-7888952D01*
X10811667Y-7879428D02*
X10821190Y-7888952D01*
X10821190Y-7888952D02*
X10811667Y-7898476D01*
X10811667Y-7898476D02*
X10802143Y-7888952D01*
X10802143Y-7888952D02*
X10811667Y-7879428D01*
X10811667Y-7879428D02*
X10811667Y-7898476D01*
X10811667Y-7774667D02*
X10821190Y-7784190D01*
X10821190Y-7784190D02*
X10811667Y-7793714D01*
X10811667Y-7793714D02*
X10802143Y-7784190D01*
X10802143Y-7784190D02*
X10811667Y-7774667D01*
X10811667Y-7774667D02*
X10811667Y-7793714D01*
D12*
X9185000Y-8225000D02*
X9225000Y-8265000D01*
X9225000Y-8225000D02*
X9185000Y-8265000D01*
D11*
X9510714Y-8118476D02*
X9529762Y-8118476D01*
X9529762Y-8118476D02*
X9548810Y-8128000D01*
X9548810Y-8128000D02*
X9558333Y-8137524D01*
X9558333Y-8137524D02*
X9567857Y-8156571D01*
X9567857Y-8156571D02*
X9577381Y-8194667D01*
X9577381Y-8194667D02*
X9577381Y-8242286D01*
X9577381Y-8242286D02*
X9567857Y-8280381D01*
X9567857Y-8280381D02*
X9558333Y-8299428D01*
X9558333Y-8299428D02*
X9548810Y-8308952D01*
X9548810Y-8308952D02*
X9529762Y-8318476D01*
X9529762Y-8318476D02*
X9510714Y-8318476D01*
X9510714Y-8318476D02*
X9491667Y-8308952D01*
X9491667Y-8308952D02*
X9482143Y-8299428D01*
X9482143Y-8299428D02*
X9472619Y-8280381D01*
X9472619Y-8280381D02*
X9463095Y-8242286D01*
X9463095Y-8242286D02*
X9463095Y-8194667D01*
X9463095Y-8194667D02*
X9472619Y-8156571D01*
X9472619Y-8156571D02*
X9482143Y-8137524D01*
X9482143Y-8137524D02*
X9491667Y-8128000D01*
X9491667Y-8128000D02*
X9510714Y-8118476D01*
X9663095Y-8299428D02*
X9672619Y-8308952D01*
X9672619Y-8308952D02*
X9663095Y-8318476D01*
X9663095Y-8318476D02*
X9653571Y-8308952D01*
X9653571Y-8308952D02*
X9663095Y-8299428D01*
X9663095Y-8299428D02*
X9663095Y-8318476D01*
X9844048Y-8185143D02*
X9844048Y-8318476D01*
X9796429Y-8108952D02*
X9748810Y-8251809D01*
X9748810Y-8251809D02*
X9872619Y-8251809D01*
X9986905Y-8118476D02*
X10005952Y-8118476D01*
X10005952Y-8118476D02*
X10025000Y-8128000D01*
X10025000Y-8128000D02*
X10034524Y-8137524D01*
X10034524Y-8137524D02*
X10044048Y-8156571D01*
X10044048Y-8156571D02*
X10053571Y-8194667D01*
X10053571Y-8194667D02*
X10053571Y-8242286D01*
X10053571Y-8242286D02*
X10044048Y-8280381D01*
X10044048Y-8280381D02*
X10034524Y-8299428D01*
X10034524Y-8299428D02*
X10025000Y-8308952D01*
X10025000Y-8308952D02*
X10005952Y-8318476D01*
X10005952Y-8318476D02*
X9986905Y-8318476D01*
X9986905Y-8318476D02*
X9967857Y-8308952D01*
X9967857Y-8308952D02*
X9958333Y-8299428D01*
X9958333Y-8299428D02*
X9948810Y-8280381D01*
X9948810Y-8280381D02*
X9939286Y-8242286D01*
X9939286Y-8242286D02*
X9939286Y-8194667D01*
X9939286Y-8194667D02*
X9948810Y-8156571D01*
X9948810Y-8156571D02*
X9958333Y-8137524D01*
X9958333Y-8137524D02*
X9967857Y-8128000D01*
X9967857Y-8128000D02*
X9986905Y-8118476D01*
X10177381Y-8118476D02*
X10196429Y-8118476D01*
X10196429Y-8118476D02*
X10215476Y-8128000D01*
X10215476Y-8128000D02*
X10225000Y-8137524D01*
X10225000Y-8137524D02*
X10234524Y-8156571D01*
X10234524Y-8156571D02*
X10244048Y-8194667D01*
X10244048Y-8194667D02*
X10244048Y-8242286D01*
X10244048Y-8242286D02*
X10234524Y-8280381D01*
X10234524Y-8280381D02*
X10225000Y-8299428D01*
X10225000Y-8299428D02*
X10215476Y-8308952D01*
X10215476Y-8308952D02*
X10196429Y-8318476D01*
X10196429Y-8318476D02*
X10177381Y-8318476D01*
X10177381Y-8318476D02*
X10158333Y-8308952D01*
X10158333Y-8308952D02*
X10148810Y-8299428D01*
X10148810Y-8299428D02*
X10139286Y-8280381D01*
X10139286Y-8280381D02*
X10129762Y-8242286D01*
X10129762Y-8242286D02*
X10129762Y-8194667D01*
X10129762Y-8194667D02*
X10139286Y-8156571D01*
X10139286Y-8156571D02*
X10148810Y-8137524D01*
X10148810Y-8137524D02*
X10158333Y-8128000D01*
X10158333Y-8128000D02*
X10177381Y-8118476D01*
X10329762Y-8318476D02*
X10329762Y-8185143D01*
X10329762Y-8204190D02*
X10339286Y-8194667D01*
X10339286Y-8194667D02*
X10358333Y-8185143D01*
X10358333Y-8185143D02*
X10386905Y-8185143D01*
X10386905Y-8185143D02*
X10405952Y-8194667D01*
X10405952Y-8194667D02*
X10415476Y-8213714D01*
X10415476Y-8213714D02*
X10415476Y-8318476D01*
X10415476Y-8213714D02*
X10425000Y-8194667D01*
X10425000Y-8194667D02*
X10444048Y-8185143D01*
X10444048Y-8185143D02*
X10472619Y-8185143D01*
X10472619Y-8185143D02*
X10491667Y-8194667D01*
X10491667Y-8194667D02*
X10501191Y-8213714D01*
X10501191Y-8213714D02*
X10501191Y-8318476D01*
X10596429Y-8318476D02*
X10596429Y-8185143D01*
X10596429Y-8204190D02*
X10605952Y-8194667D01*
X10605952Y-8194667D02*
X10625000Y-8185143D01*
X10625000Y-8185143D02*
X10653572Y-8185143D01*
X10653572Y-8185143D02*
X10672619Y-8194667D01*
X10672619Y-8194667D02*
X10682143Y-8213714D01*
X10682143Y-8213714D02*
X10682143Y-8318476D01*
X10682143Y-8213714D02*
X10691667Y-8194667D01*
X10691667Y-8194667D02*
X10710714Y-8185143D01*
X10710714Y-8185143D02*
X10739286Y-8185143D01*
X10739286Y-8185143D02*
X10758333Y-8194667D01*
X10758333Y-8194667D02*
X10767857Y-8213714D01*
X10767857Y-8213714D02*
X10767857Y-8318476D01*
X11125952Y-8108952D02*
X10954524Y-8366095D01*
X11350714Y-8118476D02*
X11369762Y-8118476D01*
X11369762Y-8118476D02*
X11388810Y-8128000D01*
X11388810Y-8128000D02*
X11398333Y-8137524D01*
X11398333Y-8137524D02*
X11407857Y-8156571D01*
X11407857Y-8156571D02*
X11417381Y-8194667D01*
X11417381Y-8194667D02*
X11417381Y-8242286D01*
X11417381Y-8242286D02*
X11407857Y-8280381D01*
X11407857Y-8280381D02*
X11398333Y-8299428D01*
X11398333Y-8299428D02*
X11388810Y-8308952D01*
X11388810Y-8308952D02*
X11369762Y-8318476D01*
X11369762Y-8318476D02*
X11350714Y-8318476D01*
X11350714Y-8318476D02*
X11331667Y-8308952D01*
X11331667Y-8308952D02*
X11322143Y-8299428D01*
X11322143Y-8299428D02*
X11312619Y-8280381D01*
X11312619Y-8280381D02*
X11303095Y-8242286D01*
X11303095Y-8242286D02*
X11303095Y-8194667D01*
X11303095Y-8194667D02*
X11312619Y-8156571D01*
X11312619Y-8156571D02*
X11322143Y-8137524D01*
X11322143Y-8137524D02*
X11331667Y-8128000D01*
X11331667Y-8128000D02*
X11350714Y-8118476D01*
X11503095Y-8299428D02*
X11512619Y-8308952D01*
X11512619Y-8308952D02*
X11503095Y-8318476D01*
X11503095Y-8318476D02*
X11493571Y-8308952D01*
X11493571Y-8308952D02*
X11503095Y-8299428D01*
X11503095Y-8299428D02*
X11503095Y-8318476D01*
X11636429Y-8118476D02*
X11655476Y-8118476D01*
X11655476Y-8118476D02*
X11674524Y-8128000D01*
X11674524Y-8128000D02*
X11684048Y-8137524D01*
X11684048Y-8137524D02*
X11693571Y-8156571D01*
X11693571Y-8156571D02*
X11703095Y-8194667D01*
X11703095Y-8194667D02*
X11703095Y-8242286D01*
X11703095Y-8242286D02*
X11693571Y-8280381D01*
X11693571Y-8280381D02*
X11684048Y-8299428D01*
X11684048Y-8299428D02*
X11674524Y-8308952D01*
X11674524Y-8308952D02*
X11655476Y-8318476D01*
X11655476Y-8318476D02*
X11636429Y-8318476D01*
X11636429Y-8318476D02*
X11617381Y-8308952D01*
X11617381Y-8308952D02*
X11607857Y-8299428D01*
X11607857Y-8299428D02*
X11598333Y-8280381D01*
X11598333Y-8280381D02*
X11588810Y-8242286D01*
X11588810Y-8242286D02*
X11588810Y-8194667D01*
X11588810Y-8194667D02*
X11598333Y-8156571D01*
X11598333Y-8156571D02*
X11607857Y-8137524D01*
X11607857Y-8137524D02*
X11617381Y-8128000D01*
X11617381Y-8128000D02*
X11636429Y-8118476D01*
X11893571Y-8318476D02*
X11779286Y-8318476D01*
X11836429Y-8318476D02*
X11836429Y-8118476D01*
X11836429Y-8118476D02*
X11817381Y-8147048D01*
X11817381Y-8147048D02*
X11798333Y-8166095D01*
X11798333Y-8166095D02*
X11779286Y-8175619D01*
X12074524Y-8118476D02*
X11979286Y-8118476D01*
X11979286Y-8118476D02*
X11969762Y-8213714D01*
X11969762Y-8213714D02*
X11979286Y-8204190D01*
X11979286Y-8204190D02*
X11998333Y-8194667D01*
X11998333Y-8194667D02*
X12045952Y-8194667D01*
X12045952Y-8194667D02*
X12065000Y-8204190D01*
X12065000Y-8204190D02*
X12074524Y-8213714D01*
X12074524Y-8213714D02*
X12084048Y-8232762D01*
X12084048Y-8232762D02*
X12084048Y-8280381D01*
X12084048Y-8280381D02*
X12074524Y-8299428D01*
X12074524Y-8299428D02*
X12065000Y-8308952D01*
X12065000Y-8308952D02*
X12045952Y-8318476D01*
X12045952Y-8318476D02*
X11998333Y-8318476D01*
X11998333Y-8318476D02*
X11979286Y-8308952D01*
X11979286Y-8308952D02*
X11969762Y-8299428D01*
X12150714Y-8118476D02*
X12284048Y-8118476D01*
X12284048Y-8118476D02*
X12198333Y-8318476D01*
X12350714Y-8118476D02*
X12350714Y-8156571D01*
X12426905Y-8118476D02*
X12426905Y-8156571D01*
X12689762Y-8394667D02*
X12680238Y-8385143D01*
X12680238Y-8385143D02*
X12661191Y-8356571D01*
X12661191Y-8356571D02*
X12651667Y-8337524D01*
X12651667Y-8337524D02*
X12642143Y-8308952D01*
X12642143Y-8308952D02*
X12632619Y-8261333D01*
X12632619Y-8261333D02*
X12632619Y-8223238D01*
X12632619Y-8223238D02*
X12642143Y-8175619D01*
X12642143Y-8175619D02*
X12651667Y-8147048D01*
X12651667Y-8147048D02*
X12661191Y-8128000D01*
X12661191Y-8128000D02*
X12680238Y-8099428D01*
X12680238Y-8099428D02*
X12689762Y-8089905D01*
X12870714Y-8318476D02*
X12756429Y-8318476D01*
X12813571Y-8318476D02*
X12813571Y-8118476D01*
X12813571Y-8118476D02*
X12794524Y-8147048D01*
X12794524Y-8147048D02*
X12775476Y-8166095D01*
X12775476Y-8166095D02*
X12756429Y-8175619D01*
X12937381Y-8118476D02*
X13061191Y-8118476D01*
X13061191Y-8118476D02*
X12994524Y-8194667D01*
X12994524Y-8194667D02*
X13023095Y-8194667D01*
X13023095Y-8194667D02*
X13042143Y-8204190D01*
X13042143Y-8204190D02*
X13051667Y-8213714D01*
X13051667Y-8213714D02*
X13061191Y-8232762D01*
X13061191Y-8232762D02*
X13061191Y-8280381D01*
X13061191Y-8280381D02*
X13051667Y-8299428D01*
X13051667Y-8299428D02*
X13042143Y-8308952D01*
X13042143Y-8308952D02*
X13023095Y-8318476D01*
X13023095Y-8318476D02*
X12965952Y-8318476D01*
X12965952Y-8318476D02*
X12946905Y-8308952D01*
X12946905Y-8308952D02*
X12937381Y-8299428D01*
X13185000Y-8118476D02*
X13204048Y-8118476D01*
X13204048Y-8118476D02*
X13223095Y-8128000D01*
X13223095Y-8128000D02*
X13232619Y-8137524D01*
X13232619Y-8137524D02*
X13242143Y-8156571D01*
X13242143Y-8156571D02*
X13251667Y-8194667D01*
X13251667Y-8194667D02*
X13251667Y-8242286D01*
X13251667Y-8242286D02*
X13242143Y-8280381D01*
X13242143Y-8280381D02*
X13232619Y-8299428D01*
X13232619Y-8299428D02*
X13223095Y-8308952D01*
X13223095Y-8308952D02*
X13204048Y-8318476D01*
X13204048Y-8318476D02*
X13185000Y-8318476D01*
X13185000Y-8318476D02*
X13165952Y-8308952D01*
X13165952Y-8308952D02*
X13156429Y-8299428D01*
X13156429Y-8299428D02*
X13146905Y-8280381D01*
X13146905Y-8280381D02*
X13137381Y-8242286D01*
X13137381Y-8242286D02*
X13137381Y-8194667D01*
X13137381Y-8194667D02*
X13146905Y-8156571D01*
X13146905Y-8156571D02*
X13156429Y-8137524D01*
X13156429Y-8137524D02*
X13165952Y-8128000D01*
X13165952Y-8128000D02*
X13185000Y-8118476D01*
X13457381Y-8318476D02*
X13457381Y-8118476D01*
X13543095Y-8318476D02*
X13543095Y-8213714D01*
X13543095Y-8213714D02*
X13533572Y-8194667D01*
X13533572Y-8194667D02*
X13514524Y-8185143D01*
X13514524Y-8185143D02*
X13485952Y-8185143D01*
X13485952Y-8185143D02*
X13466905Y-8194667D01*
X13466905Y-8194667D02*
X13457381Y-8204190D01*
X13666905Y-8318476D02*
X13647857Y-8308952D01*
X13647857Y-8308952D02*
X13638333Y-8299428D01*
X13638333Y-8299428D02*
X13628810Y-8280381D01*
X13628810Y-8280381D02*
X13628810Y-8223238D01*
X13628810Y-8223238D02*
X13638333Y-8204190D01*
X13638333Y-8204190D02*
X13647857Y-8194667D01*
X13647857Y-8194667D02*
X13666905Y-8185143D01*
X13666905Y-8185143D02*
X13695476Y-8185143D01*
X13695476Y-8185143D02*
X13714524Y-8194667D01*
X13714524Y-8194667D02*
X13724048Y-8204190D01*
X13724048Y-8204190D02*
X13733572Y-8223238D01*
X13733572Y-8223238D02*
X13733572Y-8280381D01*
X13733572Y-8280381D02*
X13724048Y-8299428D01*
X13724048Y-8299428D02*
X13714524Y-8308952D01*
X13714524Y-8308952D02*
X13695476Y-8318476D01*
X13695476Y-8318476D02*
X13666905Y-8318476D01*
X13847857Y-8318476D02*
X13828810Y-8308952D01*
X13828810Y-8308952D02*
X13819286Y-8289905D01*
X13819286Y-8289905D02*
X13819286Y-8118476D01*
X14000238Y-8308952D02*
X13981191Y-8318476D01*
X13981191Y-8318476D02*
X13943095Y-8318476D01*
X13943095Y-8318476D02*
X13924048Y-8308952D01*
X13924048Y-8308952D02*
X13914524Y-8289905D01*
X13914524Y-8289905D02*
X13914524Y-8213714D01*
X13914524Y-8213714D02*
X13924048Y-8194667D01*
X13924048Y-8194667D02*
X13943095Y-8185143D01*
X13943095Y-8185143D02*
X13981191Y-8185143D01*
X13981191Y-8185143D02*
X14000238Y-8194667D01*
X14000238Y-8194667D02*
X14009762Y-8213714D01*
X14009762Y-8213714D02*
X14009762Y-8232762D01*
X14009762Y-8232762D02*
X13914524Y-8251809D01*
X14085953Y-8308952D02*
X14105000Y-8318476D01*
X14105000Y-8318476D02*
X14143095Y-8318476D01*
X14143095Y-8318476D02*
X14162143Y-8308952D01*
X14162143Y-8308952D02*
X14171667Y-8289905D01*
X14171667Y-8289905D02*
X14171667Y-8280381D01*
X14171667Y-8280381D02*
X14162143Y-8261333D01*
X14162143Y-8261333D02*
X14143095Y-8251809D01*
X14143095Y-8251809D02*
X14114524Y-8251809D01*
X14114524Y-8251809D02*
X14095476Y-8242286D01*
X14095476Y-8242286D02*
X14085953Y-8223238D01*
X14085953Y-8223238D02*
X14085953Y-8213714D01*
X14085953Y-8213714D02*
X14095476Y-8194667D01*
X14095476Y-8194667D02*
X14114524Y-8185143D01*
X14114524Y-8185143D02*
X14143095Y-8185143D01*
X14143095Y-8185143D02*
X14162143Y-8194667D01*
X14238334Y-8394667D02*
X14247857Y-8385143D01*
X14247857Y-8385143D02*
X14266905Y-8356571D01*
X14266905Y-8356571D02*
X14276429Y-8337524D01*
X14276429Y-8337524D02*
X14285953Y-8308952D01*
X14285953Y-8308952D02*
X14295476Y-8261333D01*
X14295476Y-8261333D02*
X14295476Y-8223238D01*
X14295476Y-8223238D02*
X14285953Y-8175619D01*
X14285953Y-8175619D02*
X14276429Y-8147048D01*
X14276429Y-8147048D02*
X14266905Y-8128000D01*
X14266905Y-8128000D02*
X14247857Y-8099428D01*
X14247857Y-8099428D02*
X14238334Y-8089905D01*
D13*
X9225000Y-8509000D02*
G75*
G03*
X9225000Y-8509000I-25000J0D01*
G01*
D11*
X9510714Y-8382476D02*
X9529762Y-8382476D01*
X9529762Y-8382476D02*
X9548810Y-8392000D01*
X9548810Y-8392000D02*
X9558333Y-8401524D01*
X9558333Y-8401524D02*
X9567857Y-8420571D01*
X9567857Y-8420571D02*
X9577381Y-8458667D01*
X9577381Y-8458667D02*
X9577381Y-8506286D01*
X9577381Y-8506286D02*
X9567857Y-8544381D01*
X9567857Y-8544381D02*
X9558333Y-8563429D01*
X9558333Y-8563429D02*
X9548810Y-8572952D01*
X9548810Y-8572952D02*
X9529762Y-8582476D01*
X9529762Y-8582476D02*
X9510714Y-8582476D01*
X9510714Y-8582476D02*
X9491667Y-8572952D01*
X9491667Y-8572952D02*
X9482143Y-8563429D01*
X9482143Y-8563429D02*
X9472619Y-8544381D01*
X9472619Y-8544381D02*
X9463095Y-8506286D01*
X9463095Y-8506286D02*
X9463095Y-8458667D01*
X9463095Y-8458667D02*
X9472619Y-8420571D01*
X9472619Y-8420571D02*
X9482143Y-8401524D01*
X9482143Y-8401524D02*
X9491667Y-8392000D01*
X9491667Y-8392000D02*
X9510714Y-8382476D01*
X9663095Y-8563429D02*
X9672619Y-8572952D01*
X9672619Y-8572952D02*
X9663095Y-8582476D01*
X9663095Y-8582476D02*
X9653571Y-8572952D01*
X9653571Y-8572952D02*
X9663095Y-8563429D01*
X9663095Y-8563429D02*
X9663095Y-8582476D01*
X9853571Y-8382476D02*
X9758333Y-8382476D01*
X9758333Y-8382476D02*
X9748810Y-8477714D01*
X9748810Y-8477714D02*
X9758333Y-8468190D01*
X9758333Y-8468190D02*
X9777381Y-8458667D01*
X9777381Y-8458667D02*
X9825000Y-8458667D01*
X9825000Y-8458667D02*
X9844048Y-8468190D01*
X9844048Y-8468190D02*
X9853571Y-8477714D01*
X9853571Y-8477714D02*
X9863095Y-8496762D01*
X9863095Y-8496762D02*
X9863095Y-8544381D01*
X9863095Y-8544381D02*
X9853571Y-8563429D01*
X9853571Y-8563429D02*
X9844048Y-8572952D01*
X9844048Y-8572952D02*
X9825000Y-8582476D01*
X9825000Y-8582476D02*
X9777381Y-8582476D01*
X9777381Y-8582476D02*
X9758333Y-8572952D01*
X9758333Y-8572952D02*
X9748810Y-8563429D01*
X9986905Y-8382476D02*
X10005952Y-8382476D01*
X10005952Y-8382476D02*
X10025000Y-8392000D01*
X10025000Y-8392000D02*
X10034524Y-8401524D01*
X10034524Y-8401524D02*
X10044048Y-8420571D01*
X10044048Y-8420571D02*
X10053571Y-8458667D01*
X10053571Y-8458667D02*
X10053571Y-8506286D01*
X10053571Y-8506286D02*
X10044048Y-8544381D01*
X10044048Y-8544381D02*
X10034524Y-8563429D01*
X10034524Y-8563429D02*
X10025000Y-8572952D01*
X10025000Y-8572952D02*
X10005952Y-8582476D01*
X10005952Y-8582476D02*
X9986905Y-8582476D01*
X9986905Y-8582476D02*
X9967857Y-8572952D01*
X9967857Y-8572952D02*
X9958333Y-8563429D01*
X9958333Y-8563429D02*
X9948810Y-8544381D01*
X9948810Y-8544381D02*
X9939286Y-8506286D01*
X9939286Y-8506286D02*
X9939286Y-8458667D01*
X9939286Y-8458667D02*
X9948810Y-8420571D01*
X9948810Y-8420571D02*
X9958333Y-8401524D01*
X9958333Y-8401524D02*
X9967857Y-8392000D01*
X9967857Y-8392000D02*
X9986905Y-8382476D01*
X10177381Y-8382476D02*
X10196429Y-8382476D01*
X10196429Y-8382476D02*
X10215476Y-8392000D01*
X10215476Y-8392000D02*
X10225000Y-8401524D01*
X10225000Y-8401524D02*
X10234524Y-8420571D01*
X10234524Y-8420571D02*
X10244048Y-8458667D01*
X10244048Y-8458667D02*
X10244048Y-8506286D01*
X10244048Y-8506286D02*
X10234524Y-8544381D01*
X10234524Y-8544381D02*
X10225000Y-8563429D01*
X10225000Y-8563429D02*
X10215476Y-8572952D01*
X10215476Y-8572952D02*
X10196429Y-8582476D01*
X10196429Y-8582476D02*
X10177381Y-8582476D01*
X10177381Y-8582476D02*
X10158333Y-8572952D01*
X10158333Y-8572952D02*
X10148810Y-8563429D01*
X10148810Y-8563429D02*
X10139286Y-8544381D01*
X10139286Y-8544381D02*
X10129762Y-8506286D01*
X10129762Y-8506286D02*
X10129762Y-8458667D01*
X10129762Y-8458667D02*
X10139286Y-8420571D01*
X10139286Y-8420571D02*
X10148810Y-8401524D01*
X10148810Y-8401524D02*
X10158333Y-8392000D01*
X10158333Y-8392000D02*
X10177381Y-8382476D01*
X10329762Y-8582476D02*
X10329762Y-8449143D01*
X10329762Y-8468190D02*
X10339286Y-8458667D01*
X10339286Y-8458667D02*
X10358333Y-8449143D01*
X10358333Y-8449143D02*
X10386905Y-8449143D01*
X10386905Y-8449143D02*
X10405952Y-8458667D01*
X10405952Y-8458667D02*
X10415476Y-8477714D01*
X10415476Y-8477714D02*
X10415476Y-8582476D01*
X10415476Y-8477714D02*
X10425000Y-8458667D01*
X10425000Y-8458667D02*
X10444048Y-8449143D01*
X10444048Y-8449143D02*
X10472619Y-8449143D01*
X10472619Y-8449143D02*
X10491667Y-8458667D01*
X10491667Y-8458667D02*
X10501191Y-8477714D01*
X10501191Y-8477714D02*
X10501191Y-8582476D01*
X10596429Y-8582476D02*
X10596429Y-8449143D01*
X10596429Y-8468190D02*
X10605952Y-8458667D01*
X10605952Y-8458667D02*
X10625000Y-8449143D01*
X10625000Y-8449143D02*
X10653572Y-8449143D01*
X10653572Y-8449143D02*
X10672619Y-8458667D01*
X10672619Y-8458667D02*
X10682143Y-8477714D01*
X10682143Y-8477714D02*
X10682143Y-8582476D01*
X10682143Y-8477714D02*
X10691667Y-8458667D01*
X10691667Y-8458667D02*
X10710714Y-8449143D01*
X10710714Y-8449143D02*
X10739286Y-8449143D01*
X10739286Y-8449143D02*
X10758333Y-8458667D01*
X10758333Y-8458667D02*
X10767857Y-8477714D01*
X10767857Y-8477714D02*
X10767857Y-8582476D01*
X11125952Y-8372952D02*
X10954524Y-8630095D01*
X11350714Y-8382476D02*
X11369762Y-8382476D01*
X11369762Y-8382476D02*
X11388810Y-8392000D01*
X11388810Y-8392000D02*
X11398333Y-8401524D01*
X11398333Y-8401524D02*
X11407857Y-8420571D01*
X11407857Y-8420571D02*
X11417381Y-8458667D01*
X11417381Y-8458667D02*
X11417381Y-8506286D01*
X11417381Y-8506286D02*
X11407857Y-8544381D01*
X11407857Y-8544381D02*
X11398333Y-8563429D01*
X11398333Y-8563429D02*
X11388810Y-8572952D01*
X11388810Y-8572952D02*
X11369762Y-8582476D01*
X11369762Y-8582476D02*
X11350714Y-8582476D01*
X11350714Y-8582476D02*
X11331667Y-8572952D01*
X11331667Y-8572952D02*
X11322143Y-8563429D01*
X11322143Y-8563429D02*
X11312619Y-8544381D01*
X11312619Y-8544381D02*
X11303095Y-8506286D01*
X11303095Y-8506286D02*
X11303095Y-8458667D01*
X11303095Y-8458667D02*
X11312619Y-8420571D01*
X11312619Y-8420571D02*
X11322143Y-8401524D01*
X11322143Y-8401524D02*
X11331667Y-8392000D01*
X11331667Y-8392000D02*
X11350714Y-8382476D01*
X11503095Y-8563429D02*
X11512619Y-8572952D01*
X11512619Y-8572952D02*
X11503095Y-8582476D01*
X11503095Y-8582476D02*
X11493571Y-8572952D01*
X11493571Y-8572952D02*
X11503095Y-8563429D01*
X11503095Y-8563429D02*
X11503095Y-8582476D01*
X11636429Y-8382476D02*
X11655476Y-8382476D01*
X11655476Y-8382476D02*
X11674524Y-8392000D01*
X11674524Y-8392000D02*
X11684048Y-8401524D01*
X11684048Y-8401524D02*
X11693571Y-8420571D01*
X11693571Y-8420571D02*
X11703095Y-8458667D01*
X11703095Y-8458667D02*
X11703095Y-8506286D01*
X11703095Y-8506286D02*
X11693571Y-8544381D01*
X11693571Y-8544381D02*
X11684048Y-8563429D01*
X11684048Y-8563429D02*
X11674524Y-8572952D01*
X11674524Y-8572952D02*
X11655476Y-8582476D01*
X11655476Y-8582476D02*
X11636429Y-8582476D01*
X11636429Y-8582476D02*
X11617381Y-8572952D01*
X11617381Y-8572952D02*
X11607857Y-8563429D01*
X11607857Y-8563429D02*
X11598333Y-8544381D01*
X11598333Y-8544381D02*
X11588810Y-8506286D01*
X11588810Y-8506286D02*
X11588810Y-8458667D01*
X11588810Y-8458667D02*
X11598333Y-8420571D01*
X11598333Y-8420571D02*
X11607857Y-8401524D01*
X11607857Y-8401524D02*
X11617381Y-8392000D01*
X11617381Y-8392000D02*
X11636429Y-8382476D01*
X11893571Y-8582476D02*
X11779286Y-8582476D01*
X11836429Y-8582476D02*
X11836429Y-8382476D01*
X11836429Y-8382476D02*
X11817381Y-8411048D01*
X11817381Y-8411048D02*
X11798333Y-8430095D01*
X11798333Y-8430095D02*
X11779286Y-8439619D01*
X11988810Y-8582476D02*
X12026905Y-8582476D01*
X12026905Y-8582476D02*
X12045952Y-8572952D01*
X12045952Y-8572952D02*
X12055476Y-8563429D01*
X12055476Y-8563429D02*
X12074524Y-8534857D01*
X12074524Y-8534857D02*
X12084048Y-8496762D01*
X12084048Y-8496762D02*
X12084048Y-8420571D01*
X12084048Y-8420571D02*
X12074524Y-8401524D01*
X12074524Y-8401524D02*
X12065000Y-8392000D01*
X12065000Y-8392000D02*
X12045952Y-8382476D01*
X12045952Y-8382476D02*
X12007857Y-8382476D01*
X12007857Y-8382476D02*
X11988810Y-8392000D01*
X11988810Y-8392000D02*
X11979286Y-8401524D01*
X11979286Y-8401524D02*
X11969762Y-8420571D01*
X11969762Y-8420571D02*
X11969762Y-8468190D01*
X11969762Y-8468190D02*
X11979286Y-8487238D01*
X11979286Y-8487238D02*
X11988810Y-8496762D01*
X11988810Y-8496762D02*
X12007857Y-8506286D01*
X12007857Y-8506286D02*
X12045952Y-8506286D01*
X12045952Y-8506286D02*
X12065000Y-8496762D01*
X12065000Y-8496762D02*
X12074524Y-8487238D01*
X12074524Y-8487238D02*
X12084048Y-8468190D01*
X12150714Y-8382476D02*
X12284048Y-8382476D01*
X12284048Y-8382476D02*
X12198333Y-8582476D01*
X12350714Y-8382476D02*
X12350714Y-8420571D01*
X12426905Y-8382476D02*
X12426905Y-8420571D01*
X12689762Y-8658667D02*
X12680238Y-8649143D01*
X12680238Y-8649143D02*
X12661191Y-8620571D01*
X12661191Y-8620571D02*
X12651667Y-8601524D01*
X12651667Y-8601524D02*
X12642143Y-8572952D01*
X12642143Y-8572952D02*
X12632619Y-8525333D01*
X12632619Y-8525333D02*
X12632619Y-8487238D01*
X12632619Y-8487238D02*
X12642143Y-8439619D01*
X12642143Y-8439619D02*
X12651667Y-8411048D01*
X12651667Y-8411048D02*
X12661191Y-8392000D01*
X12661191Y-8392000D02*
X12680238Y-8363428D01*
X12680238Y-8363428D02*
X12689762Y-8353905D01*
X12746905Y-8382476D02*
X12870714Y-8382476D01*
X12870714Y-8382476D02*
X12804048Y-8458667D01*
X12804048Y-8458667D02*
X12832619Y-8458667D01*
X12832619Y-8458667D02*
X12851667Y-8468190D01*
X12851667Y-8468190D02*
X12861191Y-8477714D01*
X12861191Y-8477714D02*
X12870714Y-8496762D01*
X12870714Y-8496762D02*
X12870714Y-8544381D01*
X12870714Y-8544381D02*
X12861191Y-8563429D01*
X12861191Y-8563429D02*
X12851667Y-8572952D01*
X12851667Y-8572952D02*
X12832619Y-8582476D01*
X12832619Y-8582476D02*
X12775476Y-8582476D01*
X12775476Y-8582476D02*
X12756429Y-8572952D01*
X12756429Y-8572952D02*
X12746905Y-8563429D01*
X12946905Y-8401524D02*
X12956429Y-8392000D01*
X12956429Y-8392000D02*
X12975476Y-8382476D01*
X12975476Y-8382476D02*
X13023095Y-8382476D01*
X13023095Y-8382476D02*
X13042143Y-8392000D01*
X13042143Y-8392000D02*
X13051667Y-8401524D01*
X13051667Y-8401524D02*
X13061191Y-8420571D01*
X13061191Y-8420571D02*
X13061191Y-8439619D01*
X13061191Y-8439619D02*
X13051667Y-8468190D01*
X13051667Y-8468190D02*
X12937381Y-8582476D01*
X12937381Y-8582476D02*
X13061191Y-8582476D01*
X13266905Y-8582476D02*
X13266905Y-8382476D01*
X13352619Y-8582476D02*
X13352619Y-8477714D01*
X13352619Y-8477714D02*
X13343095Y-8458667D01*
X13343095Y-8458667D02*
X13324048Y-8449143D01*
X13324048Y-8449143D02*
X13295476Y-8449143D01*
X13295476Y-8449143D02*
X13276429Y-8458667D01*
X13276429Y-8458667D02*
X13266905Y-8468190D01*
X13476429Y-8582476D02*
X13457381Y-8572952D01*
X13457381Y-8572952D02*
X13447857Y-8563429D01*
X13447857Y-8563429D02*
X13438333Y-8544381D01*
X13438333Y-8544381D02*
X13438333Y-8487238D01*
X13438333Y-8487238D02*
X13447857Y-8468190D01*
X13447857Y-8468190D02*
X13457381Y-8458667D01*
X13457381Y-8458667D02*
X13476429Y-8449143D01*
X13476429Y-8449143D02*
X13505000Y-8449143D01*
X13505000Y-8449143D02*
X13524048Y-8458667D01*
X13524048Y-8458667D02*
X13533572Y-8468190D01*
X13533572Y-8468190D02*
X13543095Y-8487238D01*
X13543095Y-8487238D02*
X13543095Y-8544381D01*
X13543095Y-8544381D02*
X13533572Y-8563429D01*
X13533572Y-8563429D02*
X13524048Y-8572952D01*
X13524048Y-8572952D02*
X13505000Y-8582476D01*
X13505000Y-8582476D02*
X13476429Y-8582476D01*
X13657381Y-8582476D02*
X13638333Y-8572952D01*
X13638333Y-8572952D02*
X13628810Y-8553905D01*
X13628810Y-8553905D02*
X13628810Y-8382476D01*
X13809762Y-8572952D02*
X13790714Y-8582476D01*
X13790714Y-8582476D02*
X13752619Y-8582476D01*
X13752619Y-8582476D02*
X13733572Y-8572952D01*
X13733572Y-8572952D02*
X13724048Y-8553905D01*
X13724048Y-8553905D02*
X13724048Y-8477714D01*
X13724048Y-8477714D02*
X13733572Y-8458667D01*
X13733572Y-8458667D02*
X13752619Y-8449143D01*
X13752619Y-8449143D02*
X13790714Y-8449143D01*
X13790714Y-8449143D02*
X13809762Y-8458667D01*
X13809762Y-8458667D02*
X13819286Y-8477714D01*
X13819286Y-8477714D02*
X13819286Y-8496762D01*
X13819286Y-8496762D02*
X13724048Y-8515810D01*
X13895476Y-8572952D02*
X13914524Y-8582476D01*
X13914524Y-8582476D02*
X13952619Y-8582476D01*
X13952619Y-8582476D02*
X13971667Y-8572952D01*
X13971667Y-8572952D02*
X13981191Y-8553905D01*
X13981191Y-8553905D02*
X13981191Y-8544381D01*
X13981191Y-8544381D02*
X13971667Y-8525333D01*
X13971667Y-8525333D02*
X13952619Y-8515810D01*
X13952619Y-8515810D02*
X13924048Y-8515810D01*
X13924048Y-8515810D02*
X13905000Y-8506286D01*
X13905000Y-8506286D02*
X13895476Y-8487238D01*
X13895476Y-8487238D02*
X13895476Y-8477714D01*
X13895476Y-8477714D02*
X13905000Y-8458667D01*
X13905000Y-8458667D02*
X13924048Y-8449143D01*
X13924048Y-8449143D02*
X13952619Y-8449143D01*
X13952619Y-8449143D02*
X13971667Y-8458667D01*
X14047857Y-8658667D02*
X14057381Y-8649143D01*
X14057381Y-8649143D02*
X14076429Y-8620571D01*
X14076429Y-8620571D02*
X14085953Y-8601524D01*
X14085953Y-8601524D02*
X14095476Y-8572952D01*
X14095476Y-8572952D02*
X14105000Y-8525333D01*
X14105000Y-8525333D02*
X14105000Y-8487238D01*
X14105000Y-8487238D02*
X14095476Y-8439619D01*
X14095476Y-8439619D02*
X14085953Y-8411048D01*
X14085953Y-8411048D02*
X14076429Y-8392000D01*
X14076429Y-8392000D02*
X14057381Y-8363428D01*
X14057381Y-8363428D02*
X14047857Y-8353905D01*
X9125000Y-8673000D02*
X9125000Y-8873000D01*
X9025000Y-8773000D02*
X9225000Y-8773000D01*
X9453571Y-8646476D02*
X9577381Y-8646476D01*
X9577381Y-8646476D02*
X9510714Y-8722667D01*
X9510714Y-8722667D02*
X9539286Y-8722667D01*
X9539286Y-8722667D02*
X9558333Y-8732190D01*
X9558333Y-8732190D02*
X9567857Y-8741714D01*
X9567857Y-8741714D02*
X9577381Y-8760762D01*
X9577381Y-8760762D02*
X9577381Y-8808381D01*
X9577381Y-8808381D02*
X9567857Y-8827429D01*
X9567857Y-8827429D02*
X9558333Y-8836952D01*
X9558333Y-8836952D02*
X9539286Y-8846476D01*
X9539286Y-8846476D02*
X9482143Y-8846476D01*
X9482143Y-8846476D02*
X9463095Y-8836952D01*
X9463095Y-8836952D02*
X9453571Y-8827429D01*
X9663095Y-8827429D02*
X9672619Y-8836952D01*
X9672619Y-8836952D02*
X9663095Y-8846476D01*
X9663095Y-8846476D02*
X9653571Y-8836952D01*
X9653571Y-8836952D02*
X9663095Y-8827429D01*
X9663095Y-8827429D02*
X9663095Y-8846476D01*
X9748810Y-8665524D02*
X9758333Y-8656000D01*
X9758333Y-8656000D02*
X9777381Y-8646476D01*
X9777381Y-8646476D02*
X9825000Y-8646476D01*
X9825000Y-8646476D02*
X9844048Y-8656000D01*
X9844048Y-8656000D02*
X9853571Y-8665524D01*
X9853571Y-8665524D02*
X9863095Y-8684571D01*
X9863095Y-8684571D02*
X9863095Y-8703619D01*
X9863095Y-8703619D02*
X9853571Y-8732190D01*
X9853571Y-8732190D02*
X9739286Y-8846476D01*
X9739286Y-8846476D02*
X9863095Y-8846476D01*
X9986905Y-8646476D02*
X10005952Y-8646476D01*
X10005952Y-8646476D02*
X10025000Y-8656000D01*
X10025000Y-8656000D02*
X10034524Y-8665524D01*
X10034524Y-8665524D02*
X10044048Y-8684571D01*
X10044048Y-8684571D02*
X10053571Y-8722667D01*
X10053571Y-8722667D02*
X10053571Y-8770286D01*
X10053571Y-8770286D02*
X10044048Y-8808381D01*
X10044048Y-8808381D02*
X10034524Y-8827429D01*
X10034524Y-8827429D02*
X10025000Y-8836952D01*
X10025000Y-8836952D02*
X10005952Y-8846476D01*
X10005952Y-8846476D02*
X9986905Y-8846476D01*
X9986905Y-8846476D02*
X9967857Y-8836952D01*
X9967857Y-8836952D02*
X9958333Y-8827429D01*
X9958333Y-8827429D02*
X9948810Y-8808381D01*
X9948810Y-8808381D02*
X9939286Y-8770286D01*
X9939286Y-8770286D02*
X9939286Y-8722667D01*
X9939286Y-8722667D02*
X9948810Y-8684571D01*
X9948810Y-8684571D02*
X9958333Y-8665524D01*
X9958333Y-8665524D02*
X9967857Y-8656000D01*
X9967857Y-8656000D02*
X9986905Y-8646476D01*
X10177381Y-8646476D02*
X10196429Y-8646476D01*
X10196429Y-8646476D02*
X10215476Y-8656000D01*
X10215476Y-8656000D02*
X10225000Y-8665524D01*
X10225000Y-8665524D02*
X10234524Y-8684571D01*
X10234524Y-8684571D02*
X10244048Y-8722667D01*
X10244048Y-8722667D02*
X10244048Y-8770286D01*
X10244048Y-8770286D02*
X10234524Y-8808381D01*
X10234524Y-8808381D02*
X10225000Y-8827429D01*
X10225000Y-8827429D02*
X10215476Y-8836952D01*
X10215476Y-8836952D02*
X10196429Y-8846476D01*
X10196429Y-8846476D02*
X10177381Y-8846476D01*
X10177381Y-8846476D02*
X10158333Y-8836952D01*
X10158333Y-8836952D02*
X10148810Y-8827429D01*
X10148810Y-8827429D02*
X10139286Y-8808381D01*
X10139286Y-8808381D02*
X10129762Y-8770286D01*
X10129762Y-8770286D02*
X10129762Y-8722667D01*
X10129762Y-8722667D02*
X10139286Y-8684571D01*
X10139286Y-8684571D02*
X10148810Y-8665524D01*
X10148810Y-8665524D02*
X10158333Y-8656000D01*
X10158333Y-8656000D02*
X10177381Y-8646476D01*
X10329762Y-8846476D02*
X10329762Y-8713143D01*
X10329762Y-8732190D02*
X10339286Y-8722667D01*
X10339286Y-8722667D02*
X10358333Y-8713143D01*
X10358333Y-8713143D02*
X10386905Y-8713143D01*
X10386905Y-8713143D02*
X10405952Y-8722667D01*
X10405952Y-8722667D02*
X10415476Y-8741714D01*
X10415476Y-8741714D02*
X10415476Y-8846476D01*
X10415476Y-8741714D02*
X10425000Y-8722667D01*
X10425000Y-8722667D02*
X10444048Y-8713143D01*
X10444048Y-8713143D02*
X10472619Y-8713143D01*
X10472619Y-8713143D02*
X10491667Y-8722667D01*
X10491667Y-8722667D02*
X10501191Y-8741714D01*
X10501191Y-8741714D02*
X10501191Y-8846476D01*
X10596429Y-8846476D02*
X10596429Y-8713143D01*
X10596429Y-8732190D02*
X10605952Y-8722667D01*
X10605952Y-8722667D02*
X10625000Y-8713143D01*
X10625000Y-8713143D02*
X10653572Y-8713143D01*
X10653572Y-8713143D02*
X10672619Y-8722667D01*
X10672619Y-8722667D02*
X10682143Y-8741714D01*
X10682143Y-8741714D02*
X10682143Y-8846476D01*
X10682143Y-8741714D02*
X10691667Y-8722667D01*
X10691667Y-8722667D02*
X10710714Y-8713143D01*
X10710714Y-8713143D02*
X10739286Y-8713143D01*
X10739286Y-8713143D02*
X10758333Y-8722667D01*
X10758333Y-8722667D02*
X10767857Y-8741714D01*
X10767857Y-8741714D02*
X10767857Y-8846476D01*
X11125952Y-8636952D02*
X10954524Y-8894095D01*
X11350714Y-8646476D02*
X11369762Y-8646476D01*
X11369762Y-8646476D02*
X11388810Y-8656000D01*
X11388810Y-8656000D02*
X11398333Y-8665524D01*
X11398333Y-8665524D02*
X11407857Y-8684571D01*
X11407857Y-8684571D02*
X11417381Y-8722667D01*
X11417381Y-8722667D02*
X11417381Y-8770286D01*
X11417381Y-8770286D02*
X11407857Y-8808381D01*
X11407857Y-8808381D02*
X11398333Y-8827429D01*
X11398333Y-8827429D02*
X11388810Y-8836952D01*
X11388810Y-8836952D02*
X11369762Y-8846476D01*
X11369762Y-8846476D02*
X11350714Y-8846476D01*
X11350714Y-8846476D02*
X11331667Y-8836952D01*
X11331667Y-8836952D02*
X11322143Y-8827429D01*
X11322143Y-8827429D02*
X11312619Y-8808381D01*
X11312619Y-8808381D02*
X11303095Y-8770286D01*
X11303095Y-8770286D02*
X11303095Y-8722667D01*
X11303095Y-8722667D02*
X11312619Y-8684571D01*
X11312619Y-8684571D02*
X11322143Y-8665524D01*
X11322143Y-8665524D02*
X11331667Y-8656000D01*
X11331667Y-8656000D02*
X11350714Y-8646476D01*
X11503095Y-8827429D02*
X11512619Y-8836952D01*
X11512619Y-8836952D02*
X11503095Y-8846476D01*
X11503095Y-8846476D02*
X11493571Y-8836952D01*
X11493571Y-8836952D02*
X11503095Y-8827429D01*
X11503095Y-8827429D02*
X11503095Y-8846476D01*
X11703095Y-8846476D02*
X11588810Y-8846476D01*
X11645952Y-8846476D02*
X11645952Y-8646476D01*
X11645952Y-8646476D02*
X11626905Y-8675048D01*
X11626905Y-8675048D02*
X11607857Y-8694095D01*
X11607857Y-8694095D02*
X11588810Y-8703619D01*
X11779286Y-8665524D02*
X11788810Y-8656000D01*
X11788810Y-8656000D02*
X11807857Y-8646476D01*
X11807857Y-8646476D02*
X11855476Y-8646476D01*
X11855476Y-8646476D02*
X11874524Y-8656000D01*
X11874524Y-8656000D02*
X11884048Y-8665524D01*
X11884048Y-8665524D02*
X11893571Y-8684571D01*
X11893571Y-8684571D02*
X11893571Y-8703619D01*
X11893571Y-8703619D02*
X11884048Y-8732190D01*
X11884048Y-8732190D02*
X11769762Y-8846476D01*
X11769762Y-8846476D02*
X11893571Y-8846476D01*
X12065000Y-8646476D02*
X12026905Y-8646476D01*
X12026905Y-8646476D02*
X12007857Y-8656000D01*
X12007857Y-8656000D02*
X11998333Y-8665524D01*
X11998333Y-8665524D02*
X11979286Y-8694095D01*
X11979286Y-8694095D02*
X11969762Y-8732190D01*
X11969762Y-8732190D02*
X11969762Y-8808381D01*
X11969762Y-8808381D02*
X11979286Y-8827429D01*
X11979286Y-8827429D02*
X11988810Y-8836952D01*
X11988810Y-8836952D02*
X12007857Y-8846476D01*
X12007857Y-8846476D02*
X12045952Y-8846476D01*
X12045952Y-8846476D02*
X12065000Y-8836952D01*
X12065000Y-8836952D02*
X12074524Y-8827429D01*
X12074524Y-8827429D02*
X12084048Y-8808381D01*
X12084048Y-8808381D02*
X12084048Y-8760762D01*
X12084048Y-8760762D02*
X12074524Y-8741714D01*
X12074524Y-8741714D02*
X12065000Y-8732190D01*
X12065000Y-8732190D02*
X12045952Y-8722667D01*
X12045952Y-8722667D02*
X12007857Y-8722667D01*
X12007857Y-8722667D02*
X11988810Y-8732190D01*
X11988810Y-8732190D02*
X11979286Y-8741714D01*
X11979286Y-8741714D02*
X11969762Y-8760762D01*
X12207857Y-8646476D02*
X12226905Y-8646476D01*
X12226905Y-8646476D02*
X12245952Y-8656000D01*
X12245952Y-8656000D02*
X12255476Y-8665524D01*
X12255476Y-8665524D02*
X12265000Y-8684571D01*
X12265000Y-8684571D02*
X12274524Y-8722667D01*
X12274524Y-8722667D02*
X12274524Y-8770286D01*
X12274524Y-8770286D02*
X12265000Y-8808381D01*
X12265000Y-8808381D02*
X12255476Y-8827429D01*
X12255476Y-8827429D02*
X12245952Y-8836952D01*
X12245952Y-8836952D02*
X12226905Y-8846476D01*
X12226905Y-8846476D02*
X12207857Y-8846476D01*
X12207857Y-8846476D02*
X12188810Y-8836952D01*
X12188810Y-8836952D02*
X12179286Y-8827429D01*
X12179286Y-8827429D02*
X12169762Y-8808381D01*
X12169762Y-8808381D02*
X12160238Y-8770286D01*
X12160238Y-8770286D02*
X12160238Y-8722667D01*
X12160238Y-8722667D02*
X12169762Y-8684571D01*
X12169762Y-8684571D02*
X12179286Y-8665524D01*
X12179286Y-8665524D02*
X12188810Y-8656000D01*
X12188810Y-8656000D02*
X12207857Y-8646476D01*
X12350714Y-8646476D02*
X12350714Y-8684571D01*
X12426905Y-8646476D02*
X12426905Y-8684571D01*
X12689762Y-8922667D02*
X12680238Y-8913143D01*
X12680238Y-8913143D02*
X12661191Y-8884571D01*
X12661191Y-8884571D02*
X12651667Y-8865524D01*
X12651667Y-8865524D02*
X12642143Y-8836952D01*
X12642143Y-8836952D02*
X12632619Y-8789333D01*
X12632619Y-8789333D02*
X12632619Y-8751238D01*
X12632619Y-8751238D02*
X12642143Y-8703619D01*
X12642143Y-8703619D02*
X12651667Y-8675048D01*
X12651667Y-8675048D02*
X12661191Y-8656000D01*
X12661191Y-8656000D02*
X12680238Y-8627429D01*
X12680238Y-8627429D02*
X12689762Y-8617905D01*
X12851667Y-8713143D02*
X12851667Y-8846476D01*
X12804048Y-8636952D02*
X12756429Y-8779810D01*
X12756429Y-8779810D02*
X12880238Y-8779810D01*
X13076429Y-8846476D02*
X13076429Y-8646476D01*
X13162143Y-8846476D02*
X13162143Y-8741714D01*
X13162143Y-8741714D02*
X13152619Y-8722667D01*
X13152619Y-8722667D02*
X13133572Y-8713143D01*
X13133572Y-8713143D02*
X13105000Y-8713143D01*
X13105000Y-8713143D02*
X13085952Y-8722667D01*
X13085952Y-8722667D02*
X13076429Y-8732190D01*
X13285952Y-8846476D02*
X13266905Y-8836952D01*
X13266905Y-8836952D02*
X13257381Y-8827429D01*
X13257381Y-8827429D02*
X13247857Y-8808381D01*
X13247857Y-8808381D02*
X13247857Y-8751238D01*
X13247857Y-8751238D02*
X13257381Y-8732190D01*
X13257381Y-8732190D02*
X13266905Y-8722667D01*
X13266905Y-8722667D02*
X13285952Y-8713143D01*
X13285952Y-8713143D02*
X13314524Y-8713143D01*
X13314524Y-8713143D02*
X13333572Y-8722667D01*
X13333572Y-8722667D02*
X13343095Y-8732190D01*
X13343095Y-8732190D02*
X13352619Y-8751238D01*
X13352619Y-8751238D02*
X13352619Y-8808381D01*
X13352619Y-8808381D02*
X13343095Y-8827429D01*
X13343095Y-8827429D02*
X13333572Y-8836952D01*
X13333572Y-8836952D02*
X13314524Y-8846476D01*
X13314524Y-8846476D02*
X13285952Y-8846476D01*
X13466905Y-8846476D02*
X13447857Y-8836952D01*
X13447857Y-8836952D02*
X13438333Y-8817905D01*
X13438333Y-8817905D02*
X13438333Y-8646476D01*
X13619286Y-8836952D02*
X13600238Y-8846476D01*
X13600238Y-8846476D02*
X13562143Y-8846476D01*
X13562143Y-8846476D02*
X13543095Y-8836952D01*
X13543095Y-8836952D02*
X13533572Y-8817905D01*
X13533572Y-8817905D02*
X13533572Y-8741714D01*
X13533572Y-8741714D02*
X13543095Y-8722667D01*
X13543095Y-8722667D02*
X13562143Y-8713143D01*
X13562143Y-8713143D02*
X13600238Y-8713143D01*
X13600238Y-8713143D02*
X13619286Y-8722667D01*
X13619286Y-8722667D02*
X13628810Y-8741714D01*
X13628810Y-8741714D02*
X13628810Y-8760762D01*
X13628810Y-8760762D02*
X13533572Y-8779810D01*
X13705000Y-8836952D02*
X13724048Y-8846476D01*
X13724048Y-8846476D02*
X13762143Y-8846476D01*
X13762143Y-8846476D02*
X13781191Y-8836952D01*
X13781191Y-8836952D02*
X13790714Y-8817905D01*
X13790714Y-8817905D02*
X13790714Y-8808381D01*
X13790714Y-8808381D02*
X13781191Y-8789333D01*
X13781191Y-8789333D02*
X13762143Y-8779810D01*
X13762143Y-8779810D02*
X13733572Y-8779810D01*
X13733572Y-8779810D02*
X13714524Y-8770286D01*
X13714524Y-8770286D02*
X13705000Y-8751238D01*
X13705000Y-8751238D02*
X13705000Y-8741714D01*
X13705000Y-8741714D02*
X13714524Y-8722667D01*
X13714524Y-8722667D02*
X13733572Y-8713143D01*
X13733572Y-8713143D02*
X13762143Y-8713143D01*
X13762143Y-8713143D02*
X13781191Y-8722667D01*
X13857381Y-8922667D02*
X13866905Y-8913143D01*
X13866905Y-8913143D02*
X13885953Y-8884571D01*
X13885953Y-8884571D02*
X13895476Y-8865524D01*
X13895476Y-8865524D02*
X13905000Y-8836952D01*
X13905000Y-8836952D02*
X13914524Y-8789333D01*
X13914524Y-8789333D02*
X13914524Y-8751238D01*
X13914524Y-8751238D02*
X13905000Y-8703619D01*
X13905000Y-8703619D02*
X13895476Y-8675048D01*
X13895476Y-8675048D02*
X13885953Y-8656000D01*
X13885953Y-8656000D02*
X13866905Y-8627429D01*
X13866905Y-8627429D02*
X13857381Y-8617905D01*
M02*
