%TF.GenerationSoftware,KiCad,Pcbnew,(7.0.0)*%
%TF.CreationDate,2023-05-09T15:07:27+03:00*%
%TF.ProjectId,IoT_sulari,496f545f-7375-46c6-9172-692e6b696361,rev?*%
%TF.SameCoordinates,Original*%
%TF.FileFunction,Soldermask,Bot*%
%TF.FilePolarity,Negative*%
%FSLAX46Y46*%
G04 Gerber Fmt 4.6, Leading zero omitted, Abs format (unit mm)*
G04 Created by KiCad (PCBNEW (7.0.0)) date 2023-05-09 15:07:27*
%MOMM*%
%LPD*%
G01*
G04 APERTURE LIST*
G04 Aperture macros list*
%AMRoundRect*
0 Rectangle with rounded corners*
0 $1 Rounding radius*
0 $2 $3 $4 $5 $6 $7 $8 $9 X,Y pos of 4 corners*
0 Add a 4 corners polygon primitive as box body*
4,1,4,$2,$3,$4,$5,$6,$7,$8,$9,$2,$3,0*
0 Add four circle primitives for the rounded corners*
1,1,$1+$1,$2,$3*
1,1,$1+$1,$4,$5*
1,1,$1+$1,$6,$7*
1,1,$1+$1,$8,$9*
0 Add four rect primitives between the rounded corners*
20,1,$1+$1,$2,$3,$4,$5,0*
20,1,$1+$1,$4,$5,$6,$7,0*
20,1,$1+$1,$6,$7,$8,$9,0*
20,1,$1+$1,$8,$9,$2,$3,0*%
G04 Aperture macros list end*
%ADD10C,0.800000*%
%ADD11C,6.400000*%
%ADD12RoundRect,0.237500X-0.237500X0.250000X-0.237500X-0.250000X0.237500X-0.250000X0.237500X0.250000X0*%
%ADD13RoundRect,0.237500X-0.250000X-0.237500X0.250000X-0.237500X0.250000X0.237500X-0.250000X0.237500X0*%
%ADD14RoundRect,0.237500X0.250000X0.237500X-0.250000X0.237500X-0.250000X-0.237500X0.250000X-0.237500X0*%
%ADD15RoundRect,0.237500X0.237500X-0.287500X0.237500X0.287500X-0.237500X0.287500X-0.237500X-0.287500X0*%
%ADD16R,0.761200X1.512799*%
%ADD17RoundRect,0.237500X0.300000X0.237500X-0.300000X0.237500X-0.300000X-0.237500X0.300000X-0.237500X0*%
G04 APERTURE END LIST*
D10*
%TO.C,H4*%
X93800000Y-72000000D03*
X94502944Y-70302944D03*
X94502944Y-73697056D03*
X96200000Y-69600000D03*
D11*
X96200000Y-72000000D03*
D10*
X96200000Y-74400000D03*
X97897056Y-70302944D03*
X97897056Y-73697056D03*
X98600000Y-72000000D03*
%TD*%
%TO.C,H1*%
X93800000Y-39000000D03*
X94502944Y-37302944D03*
X94502944Y-40697056D03*
X96200000Y-36600000D03*
D11*
X96200000Y-39000000D03*
D10*
X96200000Y-41400000D03*
X97897056Y-37302944D03*
X97897056Y-40697056D03*
X98600000Y-39000000D03*
%TD*%
%TO.C,H2*%
X136600000Y-39000000D03*
X137302944Y-37302944D03*
X137302944Y-40697056D03*
X139000000Y-36600000D03*
D11*
X139000000Y-39000000D03*
D10*
X139000000Y-41400000D03*
X140697056Y-37302944D03*
X140697056Y-40697056D03*
X141400000Y-39000000D03*
%TD*%
%TO.C,H3*%
X136600000Y-72000000D03*
X137302944Y-70302944D03*
X137302944Y-73697056D03*
X139000000Y-69600000D03*
D11*
X139000000Y-72000000D03*
D10*
X139000000Y-74400000D03*
X140697056Y-70302944D03*
X140697056Y-73697056D03*
X141400000Y-72000000D03*
%TD*%
D12*
%TO.C,R2*%
X109500000Y-58487500D03*
X109500000Y-60312500D03*
%TD*%
D13*
%TO.C,R8*%
X103087500Y-47700000D03*
X104912500Y-47700000D03*
%TD*%
D14*
%TO.C,R7*%
X113000000Y-47500000D03*
X111175000Y-47500000D03*
%TD*%
D15*
%TO.C,D1*%
X98100000Y-45175000D03*
X98100000Y-43425000D03*
%TD*%
D16*
%TO.C,SW2*%
X133154758Y-36402599D03*
X128654756Y-36402599D03*
X128654756Y-45597399D03*
X133154758Y-45597399D03*
%TD*%
D17*
%TO.C,C10*%
X109462500Y-56900000D03*
X107737500Y-56900000D03*
%TD*%
D16*
%TO.C,SW3*%
X124154758Y-36402599D03*
X119654756Y-36402599D03*
X119654756Y-45597399D03*
X124154758Y-45597399D03*
%TD*%
D13*
%TO.C,R5*%
X129987500Y-47700000D03*
X131812500Y-47700000D03*
%TD*%
%TO.C,R6*%
X120992258Y-47700000D03*
X122817258Y-47700000D03*
%TD*%
D16*
%TO.C,SW5*%
X106402258Y-36402599D03*
X101902256Y-36402599D03*
X101902256Y-45597399D03*
X106402258Y-45597399D03*
%TD*%
%TO.C,SW4*%
X115154758Y-36402599D03*
X110654756Y-36402599D03*
X110654756Y-45597399D03*
X115154758Y-45597399D03*
%TD*%
D15*
%TO.C,D2*%
X95200000Y-45175000D03*
X95200000Y-43425000D03*
%TD*%
D12*
%TO.C,R3*%
X98125000Y-47187500D03*
X98125000Y-49012500D03*
%TD*%
%TO.C,R4*%
X95210000Y-47170000D03*
X95210000Y-48995000D03*
%TD*%
M02*
