%TF.GenerationSoftware,KiCad,Pcbnew,(7.0.0)*%
%TF.CreationDate,2023-05-09T15:07:43+03:00*%
%TF.ProjectId,IoT_sulari,496f545f-7375-46c6-9172-692e6b696361,rev?*%
%TF.SameCoordinates,Original*%
%TF.FileFunction,Drillmap*%
%TF.FilePolarity,Positive*%
%FSLAX45Y45*%
G04 Gerber Fmt 4.5, Leading zero omitted, Abs format (unit mm)*
G04 Created by KiCad (PCBNEW (7.0.0)) date 2023-05-09 15:07:43*
%MOMM*%
%LPD*%
G01*
G04 APERTURE LIST*
%ADD10C,0.100000*%
%ADD11C,0.200000*%
%ADD12C,0.170180*%
%ADD13C,0.190500*%
G04 APERTURE END LIST*
D10*
X14300000Y-7200000D02*
X14300000Y-3900000D01*
X9230000Y-7200000D02*
G75*
G03*
X9630000Y-7600000I400000J0D01*
G01*
X9230000Y-3900000D02*
X9230000Y-7200000D01*
X13900000Y-7600000D02*
G75*
G03*
X14300000Y-7200000I0J400000D01*
G01*
X14300000Y-3900000D02*
G75*
G03*
X13900000Y-3500000I-400000J0D01*
G01*
X13900000Y-3500000D02*
X9630000Y-3500000D01*
X9630000Y-7600000D02*
X13900000Y-7600000D01*
X9630000Y-3500000D02*
G75*
G03*
X9230000Y-3900000I0J-400000D01*
G01*
D11*
D12*
X9684783Y-5164910D02*
X9854963Y-5335090D01*
X9854963Y-5164910D02*
X9684783Y-5335090D01*
D13*
X10315121Y-5250000D02*
G75*
G03*
X10315121Y-5250000I-95250J0D01*
G01*
D11*
X9472619Y-7898476D02*
X9472619Y-7698476D01*
X9472619Y-7698476D02*
X9520238Y-7698476D01*
X9520238Y-7698476D02*
X9548810Y-7708000D01*
X9548810Y-7708000D02*
X9567857Y-7727048D01*
X9567857Y-7727048D02*
X9577381Y-7746095D01*
X9577381Y-7746095D02*
X9586905Y-7784190D01*
X9586905Y-7784190D02*
X9586905Y-7812762D01*
X9586905Y-7812762D02*
X9577381Y-7850857D01*
X9577381Y-7850857D02*
X9567857Y-7869905D01*
X9567857Y-7869905D02*
X9548810Y-7888952D01*
X9548810Y-7888952D02*
X9520238Y-7898476D01*
X9520238Y-7898476D02*
X9472619Y-7898476D01*
X9672619Y-7898476D02*
X9672619Y-7765143D01*
X9672619Y-7803238D02*
X9682143Y-7784190D01*
X9682143Y-7784190D02*
X9691667Y-7774667D01*
X9691667Y-7774667D02*
X9710714Y-7765143D01*
X9710714Y-7765143D02*
X9729762Y-7765143D01*
X9796429Y-7898476D02*
X9796429Y-7765143D01*
X9796429Y-7698476D02*
X9786905Y-7708000D01*
X9786905Y-7708000D02*
X9796429Y-7717524D01*
X9796429Y-7717524D02*
X9805952Y-7708000D01*
X9805952Y-7708000D02*
X9796429Y-7698476D01*
X9796429Y-7698476D02*
X9796429Y-7717524D01*
X9920238Y-7898476D02*
X9901190Y-7888952D01*
X9901190Y-7888952D02*
X9891667Y-7869905D01*
X9891667Y-7869905D02*
X9891667Y-7698476D01*
X10025000Y-7898476D02*
X10005952Y-7888952D01*
X10005952Y-7888952D02*
X9996429Y-7869905D01*
X9996429Y-7869905D02*
X9996429Y-7698476D01*
X10221190Y-7898476D02*
X10221190Y-7698476D01*
X10221190Y-7698476D02*
X10287857Y-7841333D01*
X10287857Y-7841333D02*
X10354524Y-7698476D01*
X10354524Y-7698476D02*
X10354524Y-7898476D01*
X10535476Y-7898476D02*
X10535476Y-7793714D01*
X10535476Y-7793714D02*
X10525952Y-7774667D01*
X10525952Y-7774667D02*
X10506905Y-7765143D01*
X10506905Y-7765143D02*
X10468809Y-7765143D01*
X10468809Y-7765143D02*
X10449762Y-7774667D01*
X10535476Y-7888952D02*
X10516429Y-7898476D01*
X10516429Y-7898476D02*
X10468809Y-7898476D01*
X10468809Y-7898476D02*
X10449762Y-7888952D01*
X10449762Y-7888952D02*
X10440238Y-7869905D01*
X10440238Y-7869905D02*
X10440238Y-7850857D01*
X10440238Y-7850857D02*
X10449762Y-7831809D01*
X10449762Y-7831809D02*
X10468809Y-7822286D01*
X10468809Y-7822286D02*
X10516429Y-7822286D01*
X10516429Y-7822286D02*
X10535476Y-7812762D01*
X10630714Y-7765143D02*
X10630714Y-7965143D01*
X10630714Y-7774667D02*
X10649762Y-7765143D01*
X10649762Y-7765143D02*
X10687857Y-7765143D01*
X10687857Y-7765143D02*
X10706905Y-7774667D01*
X10706905Y-7774667D02*
X10716429Y-7784190D01*
X10716429Y-7784190D02*
X10725952Y-7803238D01*
X10725952Y-7803238D02*
X10725952Y-7860381D01*
X10725952Y-7860381D02*
X10716429Y-7879428D01*
X10716429Y-7879428D02*
X10706905Y-7888952D01*
X10706905Y-7888952D02*
X10687857Y-7898476D01*
X10687857Y-7898476D02*
X10649762Y-7898476D01*
X10649762Y-7898476D02*
X10630714Y-7888952D01*
X10811667Y-7879428D02*
X10821190Y-7888952D01*
X10821190Y-7888952D02*
X10811667Y-7898476D01*
X10811667Y-7898476D02*
X10802143Y-7888952D01*
X10802143Y-7888952D02*
X10811667Y-7879428D01*
X10811667Y-7879428D02*
X10811667Y-7898476D01*
X10811667Y-7774667D02*
X10821190Y-7784190D01*
X10821190Y-7784190D02*
X10811667Y-7793714D01*
X10811667Y-7793714D02*
X10802143Y-7784190D01*
X10802143Y-7784190D02*
X10811667Y-7774667D01*
X10811667Y-7774667D02*
X10811667Y-7793714D01*
D12*
X9054820Y-8159910D02*
X9225000Y-8330090D01*
X9225000Y-8159910D02*
X9054820Y-8330090D01*
D11*
X9577381Y-8318476D02*
X9463095Y-8318476D01*
X9520238Y-8318476D02*
X9520238Y-8118476D01*
X9520238Y-8118476D02*
X9501190Y-8147048D01*
X9501190Y-8147048D02*
X9482143Y-8166095D01*
X9482143Y-8166095D02*
X9463095Y-8175619D01*
X9663095Y-8299428D02*
X9672619Y-8308952D01*
X9672619Y-8308952D02*
X9663095Y-8318476D01*
X9663095Y-8318476D02*
X9653571Y-8308952D01*
X9653571Y-8308952D02*
X9663095Y-8299428D01*
X9663095Y-8299428D02*
X9663095Y-8318476D01*
X9739286Y-8118476D02*
X9872619Y-8118476D01*
X9872619Y-8118476D02*
X9786905Y-8318476D01*
X9986905Y-8118476D02*
X10005952Y-8118476D01*
X10005952Y-8118476D02*
X10025000Y-8128000D01*
X10025000Y-8128000D02*
X10034524Y-8137524D01*
X10034524Y-8137524D02*
X10044048Y-8156571D01*
X10044048Y-8156571D02*
X10053571Y-8194667D01*
X10053571Y-8194667D02*
X10053571Y-8242286D01*
X10053571Y-8242286D02*
X10044048Y-8280381D01*
X10044048Y-8280381D02*
X10034524Y-8299428D01*
X10034524Y-8299428D02*
X10025000Y-8308952D01*
X10025000Y-8308952D02*
X10005952Y-8318476D01*
X10005952Y-8318476D02*
X9986905Y-8318476D01*
X9986905Y-8318476D02*
X9967857Y-8308952D01*
X9967857Y-8308952D02*
X9958333Y-8299428D01*
X9958333Y-8299428D02*
X9948810Y-8280381D01*
X9948810Y-8280381D02*
X9939286Y-8242286D01*
X9939286Y-8242286D02*
X9939286Y-8194667D01*
X9939286Y-8194667D02*
X9948810Y-8156571D01*
X9948810Y-8156571D02*
X9958333Y-8137524D01*
X9958333Y-8137524D02*
X9967857Y-8128000D01*
X9967857Y-8128000D02*
X9986905Y-8118476D01*
X10129762Y-8137524D02*
X10139286Y-8128000D01*
X10139286Y-8128000D02*
X10158333Y-8118476D01*
X10158333Y-8118476D02*
X10205952Y-8118476D01*
X10205952Y-8118476D02*
X10225000Y-8128000D01*
X10225000Y-8128000D02*
X10234524Y-8137524D01*
X10234524Y-8137524D02*
X10244048Y-8156571D01*
X10244048Y-8156571D02*
X10244048Y-8175619D01*
X10244048Y-8175619D02*
X10234524Y-8204190D01*
X10234524Y-8204190D02*
X10120238Y-8318476D01*
X10120238Y-8318476D02*
X10244048Y-8318476D01*
X10329762Y-8318476D02*
X10329762Y-8185143D01*
X10329762Y-8204190D02*
X10339286Y-8194667D01*
X10339286Y-8194667D02*
X10358333Y-8185143D01*
X10358333Y-8185143D02*
X10386905Y-8185143D01*
X10386905Y-8185143D02*
X10405952Y-8194667D01*
X10405952Y-8194667D02*
X10415476Y-8213714D01*
X10415476Y-8213714D02*
X10415476Y-8318476D01*
X10415476Y-8213714D02*
X10425000Y-8194667D01*
X10425000Y-8194667D02*
X10444048Y-8185143D01*
X10444048Y-8185143D02*
X10472619Y-8185143D01*
X10472619Y-8185143D02*
X10491667Y-8194667D01*
X10491667Y-8194667D02*
X10501191Y-8213714D01*
X10501191Y-8213714D02*
X10501191Y-8318476D01*
X10596429Y-8318476D02*
X10596429Y-8185143D01*
X10596429Y-8204190D02*
X10605952Y-8194667D01*
X10605952Y-8194667D02*
X10625000Y-8185143D01*
X10625000Y-8185143D02*
X10653572Y-8185143D01*
X10653572Y-8185143D02*
X10672619Y-8194667D01*
X10672619Y-8194667D02*
X10682143Y-8213714D01*
X10682143Y-8213714D02*
X10682143Y-8318476D01*
X10682143Y-8213714D02*
X10691667Y-8194667D01*
X10691667Y-8194667D02*
X10710714Y-8185143D01*
X10710714Y-8185143D02*
X10739286Y-8185143D01*
X10739286Y-8185143D02*
X10758333Y-8194667D01*
X10758333Y-8194667D02*
X10767857Y-8213714D01*
X10767857Y-8213714D02*
X10767857Y-8318476D01*
X11125952Y-8108952D02*
X10954524Y-8366095D01*
X11350714Y-8118476D02*
X11369762Y-8118476D01*
X11369762Y-8118476D02*
X11388810Y-8128000D01*
X11388810Y-8128000D02*
X11398333Y-8137524D01*
X11398333Y-8137524D02*
X11407857Y-8156571D01*
X11407857Y-8156571D02*
X11417381Y-8194667D01*
X11417381Y-8194667D02*
X11417381Y-8242286D01*
X11417381Y-8242286D02*
X11407857Y-8280381D01*
X11407857Y-8280381D02*
X11398333Y-8299428D01*
X11398333Y-8299428D02*
X11388810Y-8308952D01*
X11388810Y-8308952D02*
X11369762Y-8318476D01*
X11369762Y-8318476D02*
X11350714Y-8318476D01*
X11350714Y-8318476D02*
X11331667Y-8308952D01*
X11331667Y-8308952D02*
X11322143Y-8299428D01*
X11322143Y-8299428D02*
X11312619Y-8280381D01*
X11312619Y-8280381D02*
X11303095Y-8242286D01*
X11303095Y-8242286D02*
X11303095Y-8194667D01*
X11303095Y-8194667D02*
X11312619Y-8156571D01*
X11312619Y-8156571D02*
X11322143Y-8137524D01*
X11322143Y-8137524D02*
X11331667Y-8128000D01*
X11331667Y-8128000D02*
X11350714Y-8118476D01*
X11503095Y-8299428D02*
X11512619Y-8308952D01*
X11512619Y-8308952D02*
X11503095Y-8318476D01*
X11503095Y-8318476D02*
X11493571Y-8308952D01*
X11493571Y-8308952D02*
X11503095Y-8299428D01*
X11503095Y-8299428D02*
X11503095Y-8318476D01*
X11636429Y-8118476D02*
X11655476Y-8118476D01*
X11655476Y-8118476D02*
X11674524Y-8128000D01*
X11674524Y-8128000D02*
X11684048Y-8137524D01*
X11684048Y-8137524D02*
X11693571Y-8156571D01*
X11693571Y-8156571D02*
X11703095Y-8194667D01*
X11703095Y-8194667D02*
X11703095Y-8242286D01*
X11703095Y-8242286D02*
X11693571Y-8280381D01*
X11693571Y-8280381D02*
X11684048Y-8299428D01*
X11684048Y-8299428D02*
X11674524Y-8308952D01*
X11674524Y-8308952D02*
X11655476Y-8318476D01*
X11655476Y-8318476D02*
X11636429Y-8318476D01*
X11636429Y-8318476D02*
X11617381Y-8308952D01*
X11617381Y-8308952D02*
X11607857Y-8299428D01*
X11607857Y-8299428D02*
X11598333Y-8280381D01*
X11598333Y-8280381D02*
X11588810Y-8242286D01*
X11588810Y-8242286D02*
X11588810Y-8194667D01*
X11588810Y-8194667D02*
X11598333Y-8156571D01*
X11598333Y-8156571D02*
X11607857Y-8137524D01*
X11607857Y-8137524D02*
X11617381Y-8128000D01*
X11617381Y-8128000D02*
X11636429Y-8118476D01*
X11874524Y-8118476D02*
X11836429Y-8118476D01*
X11836429Y-8118476D02*
X11817381Y-8128000D01*
X11817381Y-8128000D02*
X11807857Y-8137524D01*
X11807857Y-8137524D02*
X11788810Y-8166095D01*
X11788810Y-8166095D02*
X11779286Y-8204190D01*
X11779286Y-8204190D02*
X11779286Y-8280381D01*
X11779286Y-8280381D02*
X11788810Y-8299428D01*
X11788810Y-8299428D02*
X11798333Y-8308952D01*
X11798333Y-8308952D02*
X11817381Y-8318476D01*
X11817381Y-8318476D02*
X11855476Y-8318476D01*
X11855476Y-8318476D02*
X11874524Y-8308952D01*
X11874524Y-8308952D02*
X11884048Y-8299428D01*
X11884048Y-8299428D02*
X11893571Y-8280381D01*
X11893571Y-8280381D02*
X11893571Y-8232762D01*
X11893571Y-8232762D02*
X11884048Y-8213714D01*
X11884048Y-8213714D02*
X11874524Y-8204190D01*
X11874524Y-8204190D02*
X11855476Y-8194667D01*
X11855476Y-8194667D02*
X11817381Y-8194667D01*
X11817381Y-8194667D02*
X11798333Y-8204190D01*
X11798333Y-8204190D02*
X11788810Y-8213714D01*
X11788810Y-8213714D02*
X11779286Y-8232762D01*
X11960238Y-8118476D02*
X12093571Y-8118476D01*
X12093571Y-8118476D02*
X12007857Y-8318476D01*
X12207857Y-8118476D02*
X12226905Y-8118476D01*
X12226905Y-8118476D02*
X12245952Y-8128000D01*
X12245952Y-8128000D02*
X12255476Y-8137524D01*
X12255476Y-8137524D02*
X12265000Y-8156571D01*
X12265000Y-8156571D02*
X12274524Y-8194667D01*
X12274524Y-8194667D02*
X12274524Y-8242286D01*
X12274524Y-8242286D02*
X12265000Y-8280381D01*
X12265000Y-8280381D02*
X12255476Y-8299428D01*
X12255476Y-8299428D02*
X12245952Y-8308952D01*
X12245952Y-8308952D02*
X12226905Y-8318476D01*
X12226905Y-8318476D02*
X12207857Y-8318476D01*
X12207857Y-8318476D02*
X12188810Y-8308952D01*
X12188810Y-8308952D02*
X12179286Y-8299428D01*
X12179286Y-8299428D02*
X12169762Y-8280381D01*
X12169762Y-8280381D02*
X12160238Y-8242286D01*
X12160238Y-8242286D02*
X12160238Y-8194667D01*
X12160238Y-8194667D02*
X12169762Y-8156571D01*
X12169762Y-8156571D02*
X12179286Y-8137524D01*
X12179286Y-8137524D02*
X12188810Y-8128000D01*
X12188810Y-8128000D02*
X12207857Y-8118476D01*
X12350714Y-8118476D02*
X12350714Y-8156571D01*
X12426905Y-8118476D02*
X12426905Y-8156571D01*
X12689762Y-8394667D02*
X12680238Y-8385143D01*
X12680238Y-8385143D02*
X12661191Y-8356571D01*
X12661191Y-8356571D02*
X12651667Y-8337524D01*
X12651667Y-8337524D02*
X12642143Y-8308952D01*
X12642143Y-8308952D02*
X12632619Y-8261333D01*
X12632619Y-8261333D02*
X12632619Y-8223238D01*
X12632619Y-8223238D02*
X12642143Y-8175619D01*
X12642143Y-8175619D02*
X12651667Y-8147048D01*
X12651667Y-8147048D02*
X12661191Y-8128000D01*
X12661191Y-8128000D02*
X12680238Y-8099428D01*
X12680238Y-8099428D02*
X12689762Y-8089905D01*
X12870714Y-8318476D02*
X12756429Y-8318476D01*
X12813571Y-8318476D02*
X12813571Y-8118476D01*
X12813571Y-8118476D02*
X12794524Y-8147048D01*
X12794524Y-8147048D02*
X12775476Y-8166095D01*
X12775476Y-8166095D02*
X12756429Y-8175619D01*
X13076429Y-8318476D02*
X13076429Y-8118476D01*
X13162143Y-8318476D02*
X13162143Y-8213714D01*
X13162143Y-8213714D02*
X13152619Y-8194667D01*
X13152619Y-8194667D02*
X13133572Y-8185143D01*
X13133572Y-8185143D02*
X13105000Y-8185143D01*
X13105000Y-8185143D02*
X13085952Y-8194667D01*
X13085952Y-8194667D02*
X13076429Y-8204190D01*
X13285952Y-8318476D02*
X13266905Y-8308952D01*
X13266905Y-8308952D02*
X13257381Y-8299428D01*
X13257381Y-8299428D02*
X13247857Y-8280381D01*
X13247857Y-8280381D02*
X13247857Y-8223238D01*
X13247857Y-8223238D02*
X13257381Y-8204190D01*
X13257381Y-8204190D02*
X13266905Y-8194667D01*
X13266905Y-8194667D02*
X13285952Y-8185143D01*
X13285952Y-8185143D02*
X13314524Y-8185143D01*
X13314524Y-8185143D02*
X13333572Y-8194667D01*
X13333572Y-8194667D02*
X13343095Y-8204190D01*
X13343095Y-8204190D02*
X13352619Y-8223238D01*
X13352619Y-8223238D02*
X13352619Y-8280381D01*
X13352619Y-8280381D02*
X13343095Y-8299428D01*
X13343095Y-8299428D02*
X13333572Y-8308952D01*
X13333572Y-8308952D02*
X13314524Y-8318476D01*
X13314524Y-8318476D02*
X13285952Y-8318476D01*
X13466905Y-8318476D02*
X13447857Y-8308952D01*
X13447857Y-8308952D02*
X13438333Y-8289905D01*
X13438333Y-8289905D02*
X13438333Y-8118476D01*
X13619286Y-8308952D02*
X13600238Y-8318476D01*
X13600238Y-8318476D02*
X13562143Y-8318476D01*
X13562143Y-8318476D02*
X13543095Y-8308952D01*
X13543095Y-8308952D02*
X13533572Y-8289905D01*
X13533572Y-8289905D02*
X13533572Y-8213714D01*
X13533572Y-8213714D02*
X13543095Y-8194667D01*
X13543095Y-8194667D02*
X13562143Y-8185143D01*
X13562143Y-8185143D02*
X13600238Y-8185143D01*
X13600238Y-8185143D02*
X13619286Y-8194667D01*
X13619286Y-8194667D02*
X13628810Y-8213714D01*
X13628810Y-8213714D02*
X13628810Y-8232762D01*
X13628810Y-8232762D02*
X13533572Y-8251809D01*
X13695476Y-8394667D02*
X13705000Y-8385143D01*
X13705000Y-8385143D02*
X13724048Y-8356571D01*
X13724048Y-8356571D02*
X13733572Y-8337524D01*
X13733572Y-8337524D02*
X13743095Y-8308952D01*
X13743095Y-8308952D02*
X13752619Y-8261333D01*
X13752619Y-8261333D02*
X13752619Y-8223238D01*
X13752619Y-8223238D02*
X13743095Y-8175619D01*
X13743095Y-8175619D02*
X13733572Y-8147048D01*
X13733572Y-8147048D02*
X13724048Y-8128000D01*
X13724048Y-8128000D02*
X13705000Y-8099428D01*
X13705000Y-8099428D02*
X13695476Y-8089905D01*
X14025000Y-8394667D02*
X14015476Y-8385143D01*
X14015476Y-8385143D02*
X13996429Y-8356571D01*
X13996429Y-8356571D02*
X13986905Y-8337524D01*
X13986905Y-8337524D02*
X13977381Y-8308952D01*
X13977381Y-8308952D02*
X13967857Y-8261333D01*
X13967857Y-8261333D02*
X13967857Y-8223238D01*
X13967857Y-8223238D02*
X13977381Y-8175619D01*
X13977381Y-8175619D02*
X13986905Y-8147048D01*
X13986905Y-8147048D02*
X13996429Y-8128000D01*
X13996429Y-8128000D02*
X14015476Y-8099428D01*
X14015476Y-8099428D02*
X14025000Y-8089905D01*
X14101191Y-8185143D02*
X14101191Y-8318476D01*
X14101191Y-8204190D02*
X14110714Y-8194667D01*
X14110714Y-8194667D02*
X14129762Y-8185143D01*
X14129762Y-8185143D02*
X14158333Y-8185143D01*
X14158333Y-8185143D02*
X14177381Y-8194667D01*
X14177381Y-8194667D02*
X14186905Y-8213714D01*
X14186905Y-8213714D02*
X14186905Y-8318476D01*
X14310714Y-8318476D02*
X14291667Y-8308952D01*
X14291667Y-8308952D02*
X14282143Y-8299428D01*
X14282143Y-8299428D02*
X14272619Y-8280381D01*
X14272619Y-8280381D02*
X14272619Y-8223238D01*
X14272619Y-8223238D02*
X14282143Y-8204190D01*
X14282143Y-8204190D02*
X14291667Y-8194667D01*
X14291667Y-8194667D02*
X14310714Y-8185143D01*
X14310714Y-8185143D02*
X14339286Y-8185143D01*
X14339286Y-8185143D02*
X14358333Y-8194667D01*
X14358333Y-8194667D02*
X14367857Y-8204190D01*
X14367857Y-8204190D02*
X14377381Y-8223238D01*
X14377381Y-8223238D02*
X14377381Y-8280381D01*
X14377381Y-8280381D02*
X14367857Y-8299428D01*
X14367857Y-8299428D02*
X14358333Y-8308952D01*
X14358333Y-8308952D02*
X14339286Y-8318476D01*
X14339286Y-8318476D02*
X14310714Y-8318476D01*
X14434524Y-8185143D02*
X14510714Y-8185143D01*
X14463095Y-8118476D02*
X14463095Y-8289905D01*
X14463095Y-8289905D02*
X14472619Y-8308952D01*
X14472619Y-8308952D02*
X14491667Y-8318476D01*
X14491667Y-8318476D02*
X14510714Y-8318476D01*
X14697381Y-8185143D02*
X14697381Y-8385143D01*
X14697381Y-8194667D02*
X14716429Y-8185143D01*
X14716429Y-8185143D02*
X14754524Y-8185143D01*
X14754524Y-8185143D02*
X14773572Y-8194667D01*
X14773572Y-8194667D02*
X14783095Y-8204190D01*
X14783095Y-8204190D02*
X14792619Y-8223238D01*
X14792619Y-8223238D02*
X14792619Y-8280381D01*
X14792619Y-8280381D02*
X14783095Y-8299428D01*
X14783095Y-8299428D02*
X14773572Y-8308952D01*
X14773572Y-8308952D02*
X14754524Y-8318476D01*
X14754524Y-8318476D02*
X14716429Y-8318476D01*
X14716429Y-8318476D02*
X14697381Y-8308952D01*
X14906905Y-8318476D02*
X14887857Y-8308952D01*
X14887857Y-8308952D02*
X14878333Y-8289905D01*
X14878333Y-8289905D02*
X14878333Y-8118476D01*
X15068810Y-8318476D02*
X15068810Y-8213714D01*
X15068810Y-8213714D02*
X15059286Y-8194667D01*
X15059286Y-8194667D02*
X15040238Y-8185143D01*
X15040238Y-8185143D02*
X15002143Y-8185143D01*
X15002143Y-8185143D02*
X14983095Y-8194667D01*
X15068810Y-8308952D02*
X15049762Y-8318476D01*
X15049762Y-8318476D02*
X15002143Y-8318476D01*
X15002143Y-8318476D02*
X14983095Y-8308952D01*
X14983095Y-8308952D02*
X14973572Y-8289905D01*
X14973572Y-8289905D02*
X14973572Y-8270857D01*
X14973572Y-8270857D02*
X14983095Y-8251809D01*
X14983095Y-8251809D02*
X15002143Y-8242286D01*
X15002143Y-8242286D02*
X15049762Y-8242286D01*
X15049762Y-8242286D02*
X15068810Y-8232762D01*
X15135476Y-8185143D02*
X15211667Y-8185143D01*
X15164048Y-8118476D02*
X15164048Y-8289905D01*
X15164048Y-8289905D02*
X15173572Y-8308952D01*
X15173572Y-8308952D02*
X15192619Y-8318476D01*
X15192619Y-8318476D02*
X15211667Y-8318476D01*
X15354524Y-8308952D02*
X15335476Y-8318476D01*
X15335476Y-8318476D02*
X15297381Y-8318476D01*
X15297381Y-8318476D02*
X15278333Y-8308952D01*
X15278333Y-8308952D02*
X15268810Y-8289905D01*
X15268810Y-8289905D02*
X15268810Y-8213714D01*
X15268810Y-8213714D02*
X15278333Y-8194667D01*
X15278333Y-8194667D02*
X15297381Y-8185143D01*
X15297381Y-8185143D02*
X15335476Y-8185143D01*
X15335476Y-8185143D02*
X15354524Y-8194667D01*
X15354524Y-8194667D02*
X15364048Y-8213714D01*
X15364048Y-8213714D02*
X15364048Y-8232762D01*
X15364048Y-8232762D02*
X15268810Y-8251809D01*
X15535476Y-8318476D02*
X15535476Y-8118476D01*
X15535476Y-8308952D02*
X15516429Y-8318476D01*
X15516429Y-8318476D02*
X15478333Y-8318476D01*
X15478333Y-8318476D02*
X15459286Y-8308952D01*
X15459286Y-8308952D02*
X15449762Y-8299428D01*
X15449762Y-8299428D02*
X15440238Y-8280381D01*
X15440238Y-8280381D02*
X15440238Y-8223238D01*
X15440238Y-8223238D02*
X15449762Y-8204190D01*
X15449762Y-8204190D02*
X15459286Y-8194667D01*
X15459286Y-8194667D02*
X15478333Y-8185143D01*
X15478333Y-8185143D02*
X15516429Y-8185143D01*
X15516429Y-8185143D02*
X15535476Y-8194667D01*
X15611667Y-8394667D02*
X15621191Y-8385143D01*
X15621191Y-8385143D02*
X15640238Y-8356571D01*
X15640238Y-8356571D02*
X15649762Y-8337524D01*
X15649762Y-8337524D02*
X15659286Y-8308952D01*
X15659286Y-8308952D02*
X15668810Y-8261333D01*
X15668810Y-8261333D02*
X15668810Y-8223238D01*
X15668810Y-8223238D02*
X15659286Y-8175619D01*
X15659286Y-8175619D02*
X15649762Y-8147048D01*
X15649762Y-8147048D02*
X15640238Y-8128000D01*
X15640238Y-8128000D02*
X15621191Y-8099428D01*
X15621191Y-8099428D02*
X15611667Y-8089905D01*
D13*
X9225000Y-8535180D02*
G75*
G03*
X9225000Y-8535180I-95250J0D01*
G01*
D11*
X9577381Y-8608656D02*
X9463095Y-8608656D01*
X9520238Y-8608656D02*
X9520238Y-8408656D01*
X9520238Y-8408656D02*
X9501190Y-8437228D01*
X9501190Y-8437228D02*
X9482143Y-8456275D01*
X9482143Y-8456275D02*
X9463095Y-8465799D01*
X9663095Y-8589609D02*
X9672619Y-8599132D01*
X9672619Y-8599132D02*
X9663095Y-8608656D01*
X9663095Y-8608656D02*
X9653571Y-8599132D01*
X9653571Y-8599132D02*
X9663095Y-8589609D01*
X9663095Y-8589609D02*
X9663095Y-8608656D01*
X9767857Y-8608656D02*
X9805952Y-8608656D01*
X9805952Y-8608656D02*
X9825000Y-8599132D01*
X9825000Y-8599132D02*
X9834524Y-8589609D01*
X9834524Y-8589609D02*
X9853571Y-8561037D01*
X9853571Y-8561037D02*
X9863095Y-8522942D01*
X9863095Y-8522942D02*
X9863095Y-8446751D01*
X9863095Y-8446751D02*
X9853571Y-8427704D01*
X9853571Y-8427704D02*
X9844048Y-8418180D01*
X9844048Y-8418180D02*
X9825000Y-8408656D01*
X9825000Y-8408656D02*
X9786905Y-8408656D01*
X9786905Y-8408656D02*
X9767857Y-8418180D01*
X9767857Y-8418180D02*
X9758333Y-8427704D01*
X9758333Y-8427704D02*
X9748810Y-8446751D01*
X9748810Y-8446751D02*
X9748810Y-8494370D01*
X9748810Y-8494370D02*
X9758333Y-8513418D01*
X9758333Y-8513418D02*
X9767857Y-8522942D01*
X9767857Y-8522942D02*
X9786905Y-8532466D01*
X9786905Y-8532466D02*
X9825000Y-8532466D01*
X9825000Y-8532466D02*
X9844048Y-8522942D01*
X9844048Y-8522942D02*
X9853571Y-8513418D01*
X9853571Y-8513418D02*
X9863095Y-8494370D01*
X9986905Y-8408656D02*
X10005952Y-8408656D01*
X10005952Y-8408656D02*
X10025000Y-8418180D01*
X10025000Y-8418180D02*
X10034524Y-8427704D01*
X10034524Y-8427704D02*
X10044048Y-8446751D01*
X10044048Y-8446751D02*
X10053571Y-8484847D01*
X10053571Y-8484847D02*
X10053571Y-8532466D01*
X10053571Y-8532466D02*
X10044048Y-8570561D01*
X10044048Y-8570561D02*
X10034524Y-8589609D01*
X10034524Y-8589609D02*
X10025000Y-8599132D01*
X10025000Y-8599132D02*
X10005952Y-8608656D01*
X10005952Y-8608656D02*
X9986905Y-8608656D01*
X9986905Y-8608656D02*
X9967857Y-8599132D01*
X9967857Y-8599132D02*
X9958333Y-8589609D01*
X9958333Y-8589609D02*
X9948810Y-8570561D01*
X9948810Y-8570561D02*
X9939286Y-8532466D01*
X9939286Y-8532466D02*
X9939286Y-8484847D01*
X9939286Y-8484847D02*
X9948810Y-8446751D01*
X9948810Y-8446751D02*
X9958333Y-8427704D01*
X9958333Y-8427704D02*
X9967857Y-8418180D01*
X9967857Y-8418180D02*
X9986905Y-8408656D01*
X10234524Y-8408656D02*
X10139286Y-8408656D01*
X10139286Y-8408656D02*
X10129762Y-8503894D01*
X10129762Y-8503894D02*
X10139286Y-8494370D01*
X10139286Y-8494370D02*
X10158333Y-8484847D01*
X10158333Y-8484847D02*
X10205952Y-8484847D01*
X10205952Y-8484847D02*
X10225000Y-8494370D01*
X10225000Y-8494370D02*
X10234524Y-8503894D01*
X10234524Y-8503894D02*
X10244048Y-8522942D01*
X10244048Y-8522942D02*
X10244048Y-8570561D01*
X10244048Y-8570561D02*
X10234524Y-8589609D01*
X10234524Y-8589609D02*
X10225000Y-8599132D01*
X10225000Y-8599132D02*
X10205952Y-8608656D01*
X10205952Y-8608656D02*
X10158333Y-8608656D01*
X10158333Y-8608656D02*
X10139286Y-8599132D01*
X10139286Y-8599132D02*
X10129762Y-8589609D01*
X10329762Y-8608656D02*
X10329762Y-8475323D01*
X10329762Y-8494370D02*
X10339286Y-8484847D01*
X10339286Y-8484847D02*
X10358333Y-8475323D01*
X10358333Y-8475323D02*
X10386905Y-8475323D01*
X10386905Y-8475323D02*
X10405952Y-8484847D01*
X10405952Y-8484847D02*
X10415476Y-8503894D01*
X10415476Y-8503894D02*
X10415476Y-8608656D01*
X10415476Y-8503894D02*
X10425000Y-8484847D01*
X10425000Y-8484847D02*
X10444048Y-8475323D01*
X10444048Y-8475323D02*
X10472619Y-8475323D01*
X10472619Y-8475323D02*
X10491667Y-8484847D01*
X10491667Y-8484847D02*
X10501191Y-8503894D01*
X10501191Y-8503894D02*
X10501191Y-8608656D01*
X10596429Y-8608656D02*
X10596429Y-8475323D01*
X10596429Y-8494370D02*
X10605952Y-8484847D01*
X10605952Y-8484847D02*
X10625000Y-8475323D01*
X10625000Y-8475323D02*
X10653572Y-8475323D01*
X10653572Y-8475323D02*
X10672619Y-8484847D01*
X10672619Y-8484847D02*
X10682143Y-8503894D01*
X10682143Y-8503894D02*
X10682143Y-8608656D01*
X10682143Y-8503894D02*
X10691667Y-8484847D01*
X10691667Y-8484847D02*
X10710714Y-8475323D01*
X10710714Y-8475323D02*
X10739286Y-8475323D01*
X10739286Y-8475323D02*
X10758333Y-8484847D01*
X10758333Y-8484847D02*
X10767857Y-8503894D01*
X10767857Y-8503894D02*
X10767857Y-8608656D01*
X11125952Y-8399132D02*
X10954524Y-8656275D01*
X11350714Y-8408656D02*
X11369762Y-8408656D01*
X11369762Y-8408656D02*
X11388810Y-8418180D01*
X11388810Y-8418180D02*
X11398333Y-8427704D01*
X11398333Y-8427704D02*
X11407857Y-8446751D01*
X11407857Y-8446751D02*
X11417381Y-8484847D01*
X11417381Y-8484847D02*
X11417381Y-8532466D01*
X11417381Y-8532466D02*
X11407857Y-8570561D01*
X11407857Y-8570561D02*
X11398333Y-8589609D01*
X11398333Y-8589609D02*
X11388810Y-8599132D01*
X11388810Y-8599132D02*
X11369762Y-8608656D01*
X11369762Y-8608656D02*
X11350714Y-8608656D01*
X11350714Y-8608656D02*
X11331667Y-8599132D01*
X11331667Y-8599132D02*
X11322143Y-8589609D01*
X11322143Y-8589609D02*
X11312619Y-8570561D01*
X11312619Y-8570561D02*
X11303095Y-8532466D01*
X11303095Y-8532466D02*
X11303095Y-8484847D01*
X11303095Y-8484847D02*
X11312619Y-8446751D01*
X11312619Y-8446751D02*
X11322143Y-8427704D01*
X11322143Y-8427704D02*
X11331667Y-8418180D01*
X11331667Y-8418180D02*
X11350714Y-8408656D01*
X11503095Y-8589609D02*
X11512619Y-8599132D01*
X11512619Y-8599132D02*
X11503095Y-8608656D01*
X11503095Y-8608656D02*
X11493571Y-8599132D01*
X11493571Y-8599132D02*
X11503095Y-8589609D01*
X11503095Y-8589609D02*
X11503095Y-8608656D01*
X11636429Y-8408656D02*
X11655476Y-8408656D01*
X11655476Y-8408656D02*
X11674524Y-8418180D01*
X11674524Y-8418180D02*
X11684048Y-8427704D01*
X11684048Y-8427704D02*
X11693571Y-8446751D01*
X11693571Y-8446751D02*
X11703095Y-8484847D01*
X11703095Y-8484847D02*
X11703095Y-8532466D01*
X11703095Y-8532466D02*
X11693571Y-8570561D01*
X11693571Y-8570561D02*
X11684048Y-8589609D01*
X11684048Y-8589609D02*
X11674524Y-8599132D01*
X11674524Y-8599132D02*
X11655476Y-8608656D01*
X11655476Y-8608656D02*
X11636429Y-8608656D01*
X11636429Y-8608656D02*
X11617381Y-8599132D01*
X11617381Y-8599132D02*
X11607857Y-8589609D01*
X11607857Y-8589609D02*
X11598333Y-8570561D01*
X11598333Y-8570561D02*
X11588810Y-8532466D01*
X11588810Y-8532466D02*
X11588810Y-8484847D01*
X11588810Y-8484847D02*
X11598333Y-8446751D01*
X11598333Y-8446751D02*
X11607857Y-8427704D01*
X11607857Y-8427704D02*
X11617381Y-8418180D01*
X11617381Y-8418180D02*
X11636429Y-8408656D01*
X11769762Y-8408656D02*
X11903095Y-8408656D01*
X11903095Y-8408656D02*
X11817381Y-8608656D01*
X12074524Y-8408656D02*
X11979286Y-8408656D01*
X11979286Y-8408656D02*
X11969762Y-8503894D01*
X11969762Y-8503894D02*
X11979286Y-8494370D01*
X11979286Y-8494370D02*
X11998333Y-8484847D01*
X11998333Y-8484847D02*
X12045952Y-8484847D01*
X12045952Y-8484847D02*
X12065000Y-8494370D01*
X12065000Y-8494370D02*
X12074524Y-8503894D01*
X12074524Y-8503894D02*
X12084048Y-8522942D01*
X12084048Y-8522942D02*
X12084048Y-8570561D01*
X12084048Y-8570561D02*
X12074524Y-8589609D01*
X12074524Y-8589609D02*
X12065000Y-8599132D01*
X12065000Y-8599132D02*
X12045952Y-8608656D01*
X12045952Y-8608656D02*
X11998333Y-8608656D01*
X11998333Y-8608656D02*
X11979286Y-8599132D01*
X11979286Y-8599132D02*
X11969762Y-8589609D01*
X12207857Y-8408656D02*
X12226905Y-8408656D01*
X12226905Y-8408656D02*
X12245952Y-8418180D01*
X12245952Y-8418180D02*
X12255476Y-8427704D01*
X12255476Y-8427704D02*
X12265000Y-8446751D01*
X12265000Y-8446751D02*
X12274524Y-8484847D01*
X12274524Y-8484847D02*
X12274524Y-8532466D01*
X12274524Y-8532466D02*
X12265000Y-8570561D01*
X12265000Y-8570561D02*
X12255476Y-8589609D01*
X12255476Y-8589609D02*
X12245952Y-8599132D01*
X12245952Y-8599132D02*
X12226905Y-8608656D01*
X12226905Y-8608656D02*
X12207857Y-8608656D01*
X12207857Y-8608656D02*
X12188810Y-8599132D01*
X12188810Y-8599132D02*
X12179286Y-8589609D01*
X12179286Y-8589609D02*
X12169762Y-8570561D01*
X12169762Y-8570561D02*
X12160238Y-8532466D01*
X12160238Y-8532466D02*
X12160238Y-8484847D01*
X12160238Y-8484847D02*
X12169762Y-8446751D01*
X12169762Y-8446751D02*
X12179286Y-8427704D01*
X12179286Y-8427704D02*
X12188810Y-8418180D01*
X12188810Y-8418180D02*
X12207857Y-8408656D01*
X12350714Y-8408656D02*
X12350714Y-8446751D01*
X12426905Y-8408656D02*
X12426905Y-8446751D01*
X12689762Y-8684847D02*
X12680238Y-8675323D01*
X12680238Y-8675323D02*
X12661191Y-8646751D01*
X12661191Y-8646751D02*
X12651667Y-8627704D01*
X12651667Y-8627704D02*
X12642143Y-8599132D01*
X12642143Y-8599132D02*
X12632619Y-8551513D01*
X12632619Y-8551513D02*
X12632619Y-8513418D01*
X12632619Y-8513418D02*
X12642143Y-8465799D01*
X12642143Y-8465799D02*
X12651667Y-8437228D01*
X12651667Y-8437228D02*
X12661191Y-8418180D01*
X12661191Y-8418180D02*
X12680238Y-8389609D01*
X12680238Y-8389609D02*
X12689762Y-8380085D01*
X12870714Y-8608656D02*
X12756429Y-8608656D01*
X12813571Y-8608656D02*
X12813571Y-8408656D01*
X12813571Y-8408656D02*
X12794524Y-8437228D01*
X12794524Y-8437228D02*
X12775476Y-8456275D01*
X12775476Y-8456275D02*
X12756429Y-8465799D01*
X13076429Y-8608656D02*
X13076429Y-8408656D01*
X13162143Y-8608656D02*
X13162143Y-8503894D01*
X13162143Y-8503894D02*
X13152619Y-8484847D01*
X13152619Y-8484847D02*
X13133572Y-8475323D01*
X13133572Y-8475323D02*
X13105000Y-8475323D01*
X13105000Y-8475323D02*
X13085952Y-8484847D01*
X13085952Y-8484847D02*
X13076429Y-8494370D01*
X13285952Y-8608656D02*
X13266905Y-8599132D01*
X13266905Y-8599132D02*
X13257381Y-8589609D01*
X13257381Y-8589609D02*
X13247857Y-8570561D01*
X13247857Y-8570561D02*
X13247857Y-8513418D01*
X13247857Y-8513418D02*
X13257381Y-8494370D01*
X13257381Y-8494370D02*
X13266905Y-8484847D01*
X13266905Y-8484847D02*
X13285952Y-8475323D01*
X13285952Y-8475323D02*
X13314524Y-8475323D01*
X13314524Y-8475323D02*
X13333572Y-8484847D01*
X13333572Y-8484847D02*
X13343095Y-8494370D01*
X13343095Y-8494370D02*
X13352619Y-8513418D01*
X13352619Y-8513418D02*
X13352619Y-8570561D01*
X13352619Y-8570561D02*
X13343095Y-8589609D01*
X13343095Y-8589609D02*
X13333572Y-8599132D01*
X13333572Y-8599132D02*
X13314524Y-8608656D01*
X13314524Y-8608656D02*
X13285952Y-8608656D01*
X13466905Y-8608656D02*
X13447857Y-8599132D01*
X13447857Y-8599132D02*
X13438333Y-8580085D01*
X13438333Y-8580085D02*
X13438333Y-8408656D01*
X13619286Y-8599132D02*
X13600238Y-8608656D01*
X13600238Y-8608656D02*
X13562143Y-8608656D01*
X13562143Y-8608656D02*
X13543095Y-8599132D01*
X13543095Y-8599132D02*
X13533572Y-8580085D01*
X13533572Y-8580085D02*
X13533572Y-8503894D01*
X13533572Y-8503894D02*
X13543095Y-8484847D01*
X13543095Y-8484847D02*
X13562143Y-8475323D01*
X13562143Y-8475323D02*
X13600238Y-8475323D01*
X13600238Y-8475323D02*
X13619286Y-8484847D01*
X13619286Y-8484847D02*
X13628810Y-8503894D01*
X13628810Y-8503894D02*
X13628810Y-8522942D01*
X13628810Y-8522942D02*
X13533572Y-8541990D01*
X13695476Y-8684847D02*
X13705000Y-8675323D01*
X13705000Y-8675323D02*
X13724048Y-8646751D01*
X13724048Y-8646751D02*
X13733572Y-8627704D01*
X13733572Y-8627704D02*
X13743095Y-8599132D01*
X13743095Y-8599132D02*
X13752619Y-8551513D01*
X13752619Y-8551513D02*
X13752619Y-8513418D01*
X13752619Y-8513418D02*
X13743095Y-8465799D01*
X13743095Y-8465799D02*
X13733572Y-8437228D01*
X13733572Y-8437228D02*
X13724048Y-8418180D01*
X13724048Y-8418180D02*
X13705000Y-8389609D01*
X13705000Y-8389609D02*
X13695476Y-8380085D01*
X14025000Y-8684847D02*
X14015476Y-8675323D01*
X14015476Y-8675323D02*
X13996429Y-8646751D01*
X13996429Y-8646751D02*
X13986905Y-8627704D01*
X13986905Y-8627704D02*
X13977381Y-8599132D01*
X13977381Y-8599132D02*
X13967857Y-8551513D01*
X13967857Y-8551513D02*
X13967857Y-8513418D01*
X13967857Y-8513418D02*
X13977381Y-8465799D01*
X13977381Y-8465799D02*
X13986905Y-8437228D01*
X13986905Y-8437228D02*
X13996429Y-8418180D01*
X13996429Y-8418180D02*
X14015476Y-8389609D01*
X14015476Y-8389609D02*
X14025000Y-8380085D01*
X14101191Y-8475323D02*
X14101191Y-8608656D01*
X14101191Y-8494370D02*
X14110714Y-8484847D01*
X14110714Y-8484847D02*
X14129762Y-8475323D01*
X14129762Y-8475323D02*
X14158333Y-8475323D01*
X14158333Y-8475323D02*
X14177381Y-8484847D01*
X14177381Y-8484847D02*
X14186905Y-8503894D01*
X14186905Y-8503894D02*
X14186905Y-8608656D01*
X14310714Y-8608656D02*
X14291667Y-8599132D01*
X14291667Y-8599132D02*
X14282143Y-8589609D01*
X14282143Y-8589609D02*
X14272619Y-8570561D01*
X14272619Y-8570561D02*
X14272619Y-8513418D01*
X14272619Y-8513418D02*
X14282143Y-8494370D01*
X14282143Y-8494370D02*
X14291667Y-8484847D01*
X14291667Y-8484847D02*
X14310714Y-8475323D01*
X14310714Y-8475323D02*
X14339286Y-8475323D01*
X14339286Y-8475323D02*
X14358333Y-8484847D01*
X14358333Y-8484847D02*
X14367857Y-8494370D01*
X14367857Y-8494370D02*
X14377381Y-8513418D01*
X14377381Y-8513418D02*
X14377381Y-8570561D01*
X14377381Y-8570561D02*
X14367857Y-8589609D01*
X14367857Y-8589609D02*
X14358333Y-8599132D01*
X14358333Y-8599132D02*
X14339286Y-8608656D01*
X14339286Y-8608656D02*
X14310714Y-8608656D01*
X14434524Y-8475323D02*
X14510714Y-8475323D01*
X14463095Y-8408656D02*
X14463095Y-8580085D01*
X14463095Y-8580085D02*
X14472619Y-8599132D01*
X14472619Y-8599132D02*
X14491667Y-8608656D01*
X14491667Y-8608656D02*
X14510714Y-8608656D01*
X14697381Y-8475323D02*
X14697381Y-8675323D01*
X14697381Y-8484847D02*
X14716429Y-8475323D01*
X14716429Y-8475323D02*
X14754524Y-8475323D01*
X14754524Y-8475323D02*
X14773572Y-8484847D01*
X14773572Y-8484847D02*
X14783095Y-8494370D01*
X14783095Y-8494370D02*
X14792619Y-8513418D01*
X14792619Y-8513418D02*
X14792619Y-8570561D01*
X14792619Y-8570561D02*
X14783095Y-8589609D01*
X14783095Y-8589609D02*
X14773572Y-8599132D01*
X14773572Y-8599132D02*
X14754524Y-8608656D01*
X14754524Y-8608656D02*
X14716429Y-8608656D01*
X14716429Y-8608656D02*
X14697381Y-8599132D01*
X14906905Y-8608656D02*
X14887857Y-8599132D01*
X14887857Y-8599132D02*
X14878333Y-8580085D01*
X14878333Y-8580085D02*
X14878333Y-8408656D01*
X15068810Y-8608656D02*
X15068810Y-8503894D01*
X15068810Y-8503894D02*
X15059286Y-8484847D01*
X15059286Y-8484847D02*
X15040238Y-8475323D01*
X15040238Y-8475323D02*
X15002143Y-8475323D01*
X15002143Y-8475323D02*
X14983095Y-8484847D01*
X15068810Y-8599132D02*
X15049762Y-8608656D01*
X15049762Y-8608656D02*
X15002143Y-8608656D01*
X15002143Y-8608656D02*
X14983095Y-8599132D01*
X14983095Y-8599132D02*
X14973572Y-8580085D01*
X14973572Y-8580085D02*
X14973572Y-8561037D01*
X14973572Y-8561037D02*
X14983095Y-8541990D01*
X14983095Y-8541990D02*
X15002143Y-8532466D01*
X15002143Y-8532466D02*
X15049762Y-8532466D01*
X15049762Y-8532466D02*
X15068810Y-8522942D01*
X15135476Y-8475323D02*
X15211667Y-8475323D01*
X15164048Y-8408656D02*
X15164048Y-8580085D01*
X15164048Y-8580085D02*
X15173572Y-8599132D01*
X15173572Y-8599132D02*
X15192619Y-8608656D01*
X15192619Y-8608656D02*
X15211667Y-8608656D01*
X15354524Y-8599132D02*
X15335476Y-8608656D01*
X15335476Y-8608656D02*
X15297381Y-8608656D01*
X15297381Y-8608656D02*
X15278333Y-8599132D01*
X15278333Y-8599132D02*
X15268810Y-8580085D01*
X15268810Y-8580085D02*
X15268810Y-8503894D01*
X15268810Y-8503894D02*
X15278333Y-8484847D01*
X15278333Y-8484847D02*
X15297381Y-8475323D01*
X15297381Y-8475323D02*
X15335476Y-8475323D01*
X15335476Y-8475323D02*
X15354524Y-8484847D01*
X15354524Y-8484847D02*
X15364048Y-8503894D01*
X15364048Y-8503894D02*
X15364048Y-8522942D01*
X15364048Y-8522942D02*
X15268810Y-8541990D01*
X15535476Y-8608656D02*
X15535476Y-8408656D01*
X15535476Y-8599132D02*
X15516429Y-8608656D01*
X15516429Y-8608656D02*
X15478333Y-8608656D01*
X15478333Y-8608656D02*
X15459286Y-8599132D01*
X15459286Y-8599132D02*
X15449762Y-8589609D01*
X15449762Y-8589609D02*
X15440238Y-8570561D01*
X15440238Y-8570561D02*
X15440238Y-8513418D01*
X15440238Y-8513418D02*
X15449762Y-8494370D01*
X15449762Y-8494370D02*
X15459286Y-8484847D01*
X15459286Y-8484847D02*
X15478333Y-8475323D01*
X15478333Y-8475323D02*
X15516429Y-8475323D01*
X15516429Y-8475323D02*
X15535476Y-8484847D01*
X15611667Y-8684847D02*
X15621191Y-8675323D01*
X15621191Y-8675323D02*
X15640238Y-8646751D01*
X15640238Y-8646751D02*
X15649762Y-8627704D01*
X15649762Y-8627704D02*
X15659286Y-8599132D01*
X15659286Y-8599132D02*
X15668810Y-8551513D01*
X15668810Y-8551513D02*
X15668810Y-8513418D01*
X15668810Y-8513418D02*
X15659286Y-8465799D01*
X15659286Y-8465799D02*
X15649762Y-8437228D01*
X15649762Y-8437228D02*
X15640238Y-8418180D01*
X15640238Y-8418180D02*
X15621191Y-8389609D01*
X15621191Y-8389609D02*
X15611667Y-8380085D01*
M02*
