M48
; DRILL file {KiCad (7.0.0)} date Tue May  9 15:07:42 2023
; FORMAT={-:-/ absolute / metric / decimal}
; #@! TF.CreationDate,2023-05-09T15:07:42+03:00
; #@! TF.GenerationSoftware,Kicad,Pcbnew,(7.0.0)
; #@! TF.FileFunction,Plated,1,4,PTH
FMAT,2
METRIC
; #@! TA.AperFunction,Plated,PTH,ViaDrill
T1C0.400
; #@! TA.AperFunction,Plated,PTH,ComponentDrill
T2C0.500
; #@! TA.AperFunction,Plated,PTH,ComponentDrill
T3C3.200
%
G90
G05
T1
X94.0Y-61.5
X94.0Y-64.7
X94.3Y-49.0
X95.6Y-61.5
X95.6Y-64.8
X96.2Y-57.6
X96.2Y-58.5
X96.6Y-48.995
X99.1Y-49.0
X99.2Y-57.6
X99.2Y-58.5
X102.1Y-48.1
X102.2Y-41.9
X102.3Y-57.6
X102.3Y-58.5
X103.1Y-48.8
X103.7Y-65.5
X103.7Y-68.3
X104.175Y-41.9
X104.4Y-69.9
X104.4Y-71.2
X104.5Y-73.5
X105.4Y-57.6
X105.4Y-58.5
X106.4Y-41.0
X107.3Y-37.8
X107.3Y-43.621
X107.3Y-61.5
X107.4Y-36.4
X107.4Y-66.9
X107.928Y-45.372
X108.4Y-36.8
X108.4Y-38.7
X108.4Y-41.0
X109.1Y-46.4
X109.128Y-39.528
X110.112Y-39.0
X111.2Y-39.1
X111.2Y-40.1
X112.5Y-44.3
X114.2Y-47.7
X114.2Y-48.8
X114.2Y-50.0
X114.2Y-51.1
X114.2Y-56.2
X114.2Y-57.1
X114.2Y-58.0
X114.2Y-58.9
X114.2Y-59.8
X114.4Y-39.1
X114.4Y-40.0
X114.4Y-40.9
X114.4Y-41.8
X114.4Y-43.4
X115.1Y-70.5
X115.3Y-66.1
X117.1Y-40.0
X117.1Y-42.0
X117.1Y-46.8
X117.7Y-36.4
X117.7Y-54.8
X118.0Y-40.0
X118.0Y-42.0
X118.1Y-47.8
X118.1Y-48.7
X118.27Y-43.36
X118.4Y-56.1
X118.4Y-57.0
X118.4Y-57.9
X118.4Y-58.8
X118.4Y-59.8
X120.4Y-69.9
X120.7Y-67.3
X121.7Y-46.6
X121.7Y-48.5
X121.7Y-50.1
X121.7Y-51.6
X122.35Y-56.51
X122.952Y-41.467
X123.0Y-58.3
X123.626Y-48.527
X123.7Y-50.0
X123.7Y-51.6
X124.0Y-57.7
X124.272Y-40.478
X124.5Y-55.4
X125.054Y-41.1
X125.5Y-43.4
X125.6Y-56.7
X125.7Y-46.0
X125.7Y-47.2
X125.7Y-48.4
X125.7Y-50.0
X125.7Y-51.6
X126.2Y-36.6
X126.4Y-58.05
X126.557Y-54.888
X127.1Y-42.8
X127.4Y-59.2
X127.7Y-47.1
X127.7Y-48.5
X127.7Y-50.0
X127.7Y-51.7
X129.7Y-48.4
X129.7Y-50.0
X129.7Y-51.7
X129.8Y-46.8
X129.9Y-57.2
X130.2Y-59.2
X130.6Y-55.2
X131.7Y-46.6
X131.7Y-50.0
X131.7Y-51.6
X132.4Y-60.7
X132.8Y-57.2
X133.62Y-47.058
X133.7Y-49.3
X134.55Y-58.5
X135.4Y-54.3
X135.4Y-56.7
X137.0Y-57.0
X139.1Y-61.5
X139.1Y-62.8
X140.0Y-43.4
X140.0Y-48.8
X140.0Y-50.9
X140.0Y-56.2
X140.4Y-46.0
X140.4Y-53.5
X140.9Y-65.0
T2
X93.8Y-39.0
X93.8Y-72.0
X94.503Y-37.303
X94.503Y-40.697
X94.503Y-70.303
X94.503Y-73.697
X96.2Y-36.6
X96.2Y-41.4
X96.2Y-69.6
X96.2Y-74.4
X97.897Y-37.303
X97.897Y-40.697
X97.897Y-70.303
X97.897Y-73.697
X98.6Y-39.0
X98.6Y-72.0
X136.6Y-39.0
X136.6Y-72.0
X137.303Y-37.303
X137.303Y-40.697
X137.303Y-70.303
X137.303Y-73.697
X139.0Y-36.6
X139.0Y-41.4
X139.0Y-69.6
X139.0Y-74.4
X140.697Y-37.303
X140.697Y-40.697
X140.697Y-70.303
X140.697Y-73.697
X141.4Y-39.0
X141.4Y-72.0
T3
X96.2Y-39.0
X96.2Y-72.0
X139.0Y-39.0
X139.0Y-72.0
T0
M30
