%TF.GenerationSoftware,KiCad,Pcbnew,(7.0.0)*%
%TF.CreationDate,2023-05-09T15:07:27+03:00*%
%TF.ProjectId,IoT_sulari,496f545f-7375-46c6-9172-692e6b696361,rev?*%
%TF.SameCoordinates,Original*%
%TF.FileFunction,Copper,L3,Inr*%
%TF.FilePolarity,Positive*%
%FSLAX46Y46*%
G04 Gerber Fmt 4.6, Leading zero omitted, Abs format (unit mm)*
G04 Created by KiCad (PCBNEW (7.0.0)) date 2023-05-09 15:07:27*
%MOMM*%
%LPD*%
G01*
G04 APERTURE LIST*
%TA.AperFunction,ComponentPad*%
%ADD10C,0.800000*%
%TD*%
%TA.AperFunction,ComponentPad*%
%ADD11C,6.400000*%
%TD*%
%TA.AperFunction,ViaPad*%
%ADD12C,0.800000*%
%TD*%
G04 APERTURE END LIST*
D10*
%TO.N,GND*%
%TO.C,H4*%
X93800000Y-72000000D03*
X94502944Y-70302944D03*
X94502944Y-73697056D03*
X96200000Y-69600000D03*
D11*
X96200000Y-72000000D03*
D10*
X96200000Y-74400000D03*
X97897056Y-70302944D03*
X97897056Y-73697056D03*
X98600000Y-72000000D03*
%TD*%
%TO.N,GND*%
%TO.C,H1*%
X93800000Y-39000000D03*
X94502944Y-37302944D03*
X94502944Y-40697056D03*
X96200000Y-36600000D03*
D11*
X96200000Y-39000000D03*
D10*
X96200000Y-41400000D03*
X97897056Y-37302944D03*
X97897056Y-40697056D03*
X98600000Y-39000000D03*
%TD*%
%TO.N,GND*%
%TO.C,H2*%
X136600000Y-39000000D03*
X137302944Y-37302944D03*
X137302944Y-40697056D03*
X139000000Y-36600000D03*
D11*
X139000000Y-39000000D03*
D10*
X139000000Y-41400000D03*
X140697056Y-37302944D03*
X140697056Y-40697056D03*
X141400000Y-39000000D03*
%TD*%
%TO.N,GND*%
%TO.C,H3*%
X136600000Y-72000000D03*
X137302944Y-70302944D03*
X137302944Y-73697056D03*
X139000000Y-69600000D03*
D11*
X139000000Y-72000000D03*
D10*
X139000000Y-74400000D03*
X140697056Y-70302944D03*
X140697056Y-73697056D03*
X141400000Y-72000000D03*
%TD*%
D12*
%TO.N,GND*%
X102200000Y-41900000D03*
X114200000Y-57100000D03*
X96200000Y-58500000D03*
X140400000Y-53500000D03*
X96600000Y-48995000D03*
X94000000Y-61500000D03*
X94000000Y-64700000D03*
X114400000Y-39100000D03*
X114400000Y-40900000D03*
X114200000Y-58000000D03*
X94300000Y-49000000D03*
X131700000Y-46600000D03*
X102100000Y-48100000D03*
X125700000Y-51600000D03*
X129700000Y-50000000D03*
X114400000Y-40000000D03*
X129800000Y-46800000D03*
X125700000Y-48400000D03*
X120700000Y-67300000D03*
X118270000Y-43360000D03*
X122350000Y-56510000D03*
X126200000Y-36600000D03*
X131700000Y-51600000D03*
X107300000Y-37800000D03*
X133700000Y-49300000D03*
X121700000Y-46600000D03*
X125700000Y-47200000D03*
X108400000Y-41000000D03*
X121700000Y-48500000D03*
X133620110Y-47058411D03*
X105400000Y-57600000D03*
X123625623Y-48527054D03*
X121700000Y-51600000D03*
X105400000Y-58500000D03*
X117700000Y-54800000D03*
X125500000Y-43400000D03*
X129700000Y-51700000D03*
X126556827Y-54888000D03*
X140000000Y-56200000D03*
X96200000Y-57600000D03*
X99200000Y-58500000D03*
X121700000Y-50100000D03*
X107300000Y-43621185D03*
X114200000Y-50000000D03*
X102300000Y-57600000D03*
X99200000Y-57600000D03*
X107927633Y-45372367D03*
X139100000Y-61500000D03*
X103100000Y-48800000D03*
X102300000Y-58500000D03*
X114200000Y-59800000D03*
X140000000Y-48800000D03*
X129700000Y-48400000D03*
X104500000Y-73500000D03*
X140000000Y-43400000D03*
X123700000Y-51600000D03*
X99100000Y-49000000D03*
X129900000Y-57200000D03*
X131700000Y-50000000D03*
X132400000Y-60700000D03*
X127700000Y-50000000D03*
X127700000Y-51700000D03*
X139100000Y-62800000D03*
X132800000Y-57200000D03*
X114400000Y-41800000D03*
X114400000Y-43400000D03*
X114200000Y-48800000D03*
X106400000Y-41000000D03*
X108400000Y-36800000D03*
X140000000Y-50900000D03*
X127700000Y-48500000D03*
X114200000Y-58900000D03*
X130600000Y-55200000D03*
X95600000Y-64800000D03*
X122952362Y-41466867D03*
X114200000Y-56200000D03*
X123700000Y-50000000D03*
X95600000Y-61500000D03*
X140400000Y-46000000D03*
X108400000Y-38700000D03*
X104175500Y-41900000D03*
X125700000Y-46000000D03*
X127700000Y-47100000D03*
X114200000Y-51100000D03*
X114200000Y-47700000D03*
X135400000Y-54300000D03*
X125700000Y-50000000D03*
%TO.N,Net-(U40-DATA2_OUT)*%
X130200000Y-59200000D03*
X127400000Y-59200000D03*
%TO.N,+3.3V*%
X118000000Y-40000000D03*
X118400000Y-58800000D03*
X118100000Y-47800000D03*
X103700000Y-65500000D03*
X127100000Y-42800000D03*
X110112451Y-39000000D03*
X118000000Y-42000000D03*
X117100000Y-40000000D03*
X118400000Y-57000000D03*
X118400000Y-56100000D03*
X111200000Y-39100000D03*
X117100000Y-42000000D03*
X118100000Y-48700000D03*
X104400000Y-71200000D03*
X118400000Y-57900000D03*
X111200000Y-40100000D03*
X140900000Y-65000000D03*
X103700000Y-68300000D03*
X118400000Y-59800000D03*
X109127817Y-39527817D03*
X117100000Y-46800000D03*
X104400000Y-69900000D03*
%TO.N,NRESET*%
X137000000Y-57000000D03*
X124500000Y-55400000D03*
%TO.N,Net-(SW1-B)*%
X107300000Y-61500000D03*
%TO.N,STATUS_LED_RED*%
X112500000Y-44300000D03*
%TO.N,STATUS_LED_GREEN*%
X109100000Y-46400000D03*
%TO.N,BUTTON1*%
X125053815Y-41100000D03*
%TO.N,BUTTON2*%
X124271792Y-40477548D03*
%TO.N,BUTTON3*%
X117700000Y-36400000D03*
%TO.N,BUTTON4*%
X107400000Y-36400000D03*
%TO.N,CS*%
X123000000Y-58300000D03*
X115100000Y-70500000D03*
%TO.N,RST*%
X120400000Y-69900000D03*
X124000000Y-57700000D03*
%TO.N,SWDCLK*%
X125600000Y-56700000D03*
X135400000Y-56700000D03*
%TO.N,SWDIO*%
X126400000Y-58050000D03*
X134550000Y-58500000D03*
%TO.N,Net-(J7-Pad3)*%
X115300000Y-66100000D03*
X107400000Y-66900000D03*
%TD*%
%TA.AperFunction,Conductor*%
%TO.N,+3.3V*%
G36*
X139001200Y-35200558D02*
G01*
X139370020Y-35218678D01*
X139374781Y-35219146D01*
X139738877Y-35273154D01*
X139743567Y-35274087D01*
X140036935Y-35347572D01*
X140100601Y-35363520D01*
X140105203Y-35364916D01*
X140218677Y-35405517D01*
X140451756Y-35488915D01*
X140456183Y-35490749D01*
X140788897Y-35648111D01*
X140793122Y-35650368D01*
X140947977Y-35743185D01*
X141108828Y-35839596D01*
X141112826Y-35842268D01*
X141185374Y-35896073D01*
X141408445Y-36061514D01*
X141412153Y-36064557D01*
X141462035Y-36109767D01*
X141684867Y-36311731D01*
X141688268Y-36315132D01*
X141935439Y-36587842D01*
X141938487Y-36591556D01*
X141944749Y-36600000D01*
X142157731Y-36887173D01*
X142160403Y-36891171D01*
X142349626Y-37206869D01*
X142351892Y-37211110D01*
X142509246Y-37543808D01*
X142511087Y-37548250D01*
X142635083Y-37894796D01*
X142636479Y-37899398D01*
X142725909Y-38256419D01*
X142726847Y-38261135D01*
X142780851Y-38625206D01*
X142781322Y-38629992D01*
X142799441Y-38998799D01*
X142799500Y-39001203D01*
X142799500Y-71998797D01*
X142799441Y-72001201D01*
X142781322Y-72370007D01*
X142780851Y-72374793D01*
X142726847Y-72738864D01*
X142725909Y-72743580D01*
X142636479Y-73100601D01*
X142635083Y-73105203D01*
X142511087Y-73451749D01*
X142509246Y-73456191D01*
X142351892Y-73788889D01*
X142349626Y-73793130D01*
X142160403Y-74108828D01*
X142157731Y-74112826D01*
X141938489Y-74408440D01*
X141935439Y-74412157D01*
X141688268Y-74684867D01*
X141684867Y-74688268D01*
X141412157Y-74935439D01*
X141408440Y-74938489D01*
X141112826Y-75157731D01*
X141108828Y-75160403D01*
X140793130Y-75349626D01*
X140788889Y-75351892D01*
X140456191Y-75509246D01*
X140451749Y-75511087D01*
X140105203Y-75635083D01*
X140100601Y-75636479D01*
X139743580Y-75725909D01*
X139738864Y-75726847D01*
X139374793Y-75780851D01*
X139370007Y-75781322D01*
X139001201Y-75799441D01*
X138998797Y-75799500D01*
X96301203Y-75799500D01*
X96298799Y-75799441D01*
X95929992Y-75781322D01*
X95925206Y-75780851D01*
X95561135Y-75726847D01*
X95556419Y-75725909D01*
X95199398Y-75636479D01*
X95194796Y-75635083D01*
X94848250Y-75511087D01*
X94843808Y-75509246D01*
X94511110Y-75351892D01*
X94506869Y-75349626D01*
X94191171Y-75160403D01*
X94187173Y-75157731D01*
X93891559Y-74938489D01*
X93887842Y-74935439D01*
X93615132Y-74688268D01*
X93611731Y-74684867D01*
X93364560Y-74412157D01*
X93361510Y-74408440D01*
X93142268Y-74112826D01*
X93139596Y-74108828D01*
X93019165Y-73907902D01*
X92950368Y-73793122D01*
X92948111Y-73788897D01*
X92790749Y-73456183D01*
X92788912Y-73451749D01*
X92777762Y-73420588D01*
X92664916Y-73105203D01*
X92663520Y-73100601D01*
X92618165Y-72919534D01*
X92574087Y-72743567D01*
X92573154Y-72738877D01*
X92519146Y-72374781D01*
X92518678Y-72370020D01*
X92500558Y-72001200D01*
X92500529Y-72000000D01*
X92819542Y-72000000D01*
X92839358Y-72365492D01*
X92839572Y-72366802D01*
X92839573Y-72366804D01*
X92898357Y-72725375D01*
X92898360Y-72725391D01*
X92898575Y-72726699D01*
X92898931Y-72727984D01*
X92898932Y-72727985D01*
X92996144Y-73078112D01*
X92996147Y-73078121D01*
X92996498Y-73079385D01*
X93131979Y-73419417D01*
X93303430Y-73742808D01*
X93304172Y-73743902D01*
X93304176Y-73743909D01*
X93508090Y-74044659D01*
X93508841Y-74045766D01*
X93509701Y-74046778D01*
X93509706Y-74046785D01*
X93538315Y-74080466D01*
X93745803Y-74324739D01*
X93746758Y-74325643D01*
X93746765Y-74325651D01*
X93838089Y-74412157D01*
X94011538Y-74576457D01*
X94302931Y-74797968D01*
X94616565Y-74986675D01*
X94948764Y-75140367D01*
X95295632Y-75257240D01*
X95653103Y-75335926D01*
X96016986Y-75375500D01*
X96381692Y-75375500D01*
X96383014Y-75375500D01*
X96746897Y-75335926D01*
X97104368Y-75257240D01*
X97451236Y-75140367D01*
X97783435Y-74986675D01*
X98097069Y-74797968D01*
X98388462Y-74576457D01*
X98654197Y-74324739D01*
X98891159Y-74045766D01*
X99096570Y-73742808D01*
X99225299Y-73500000D01*
X103919534Y-73500000D01*
X103939313Y-73650236D01*
X103997302Y-73790233D01*
X104089549Y-73910451D01*
X104209767Y-74002698D01*
X104349764Y-74060687D01*
X104500000Y-74080466D01*
X104650236Y-74060687D01*
X104790233Y-74002698D01*
X104910451Y-73910451D01*
X105002698Y-73790233D01*
X105060687Y-73650236D01*
X105080466Y-73500000D01*
X105060687Y-73349764D01*
X105002698Y-73209767D01*
X104910451Y-73089549D01*
X104790233Y-72997302D01*
X104650236Y-72939313D01*
X104647054Y-72938894D01*
X104503183Y-72919953D01*
X104500000Y-72919534D01*
X104496817Y-72919953D01*
X104352945Y-72938894D01*
X104352943Y-72938894D01*
X104349764Y-72939313D01*
X104346801Y-72940539D01*
X104346798Y-72940541D01*
X104212733Y-72996073D01*
X104212730Y-72996074D01*
X104209767Y-72997302D01*
X104207220Y-72999255D01*
X104207217Y-72999258D01*
X104092097Y-73087593D01*
X104092093Y-73087596D01*
X104089549Y-73089549D01*
X104087596Y-73092093D01*
X104087593Y-73092097D01*
X103999258Y-73207217D01*
X103999255Y-73207220D01*
X103997302Y-73209767D01*
X103996074Y-73212730D01*
X103996073Y-73212733D01*
X103940541Y-73346798D01*
X103940539Y-73346801D01*
X103939313Y-73349764D01*
X103938894Y-73352943D01*
X103938894Y-73352945D01*
X103919953Y-73496817D01*
X103919534Y-73500000D01*
X99225299Y-73500000D01*
X99268021Y-73419417D01*
X99403502Y-73079385D01*
X99501425Y-72726699D01*
X99560642Y-72365492D01*
X99580458Y-72000000D01*
X135619542Y-72000000D01*
X135639358Y-72365492D01*
X135639572Y-72366802D01*
X135639573Y-72366804D01*
X135698357Y-72725375D01*
X135698360Y-72725391D01*
X135698575Y-72726699D01*
X135698931Y-72727984D01*
X135698932Y-72727985D01*
X135796144Y-73078112D01*
X135796147Y-73078121D01*
X135796498Y-73079385D01*
X135931979Y-73419417D01*
X136103430Y-73742808D01*
X136104172Y-73743902D01*
X136104176Y-73743909D01*
X136308090Y-74044659D01*
X136308841Y-74045766D01*
X136309701Y-74046778D01*
X136309706Y-74046785D01*
X136338315Y-74080466D01*
X136545803Y-74324739D01*
X136546758Y-74325643D01*
X136546765Y-74325651D01*
X136638089Y-74412157D01*
X136811538Y-74576457D01*
X137102931Y-74797968D01*
X137416565Y-74986675D01*
X137748764Y-75140367D01*
X138095632Y-75257240D01*
X138453103Y-75335926D01*
X138816986Y-75375500D01*
X139181692Y-75375500D01*
X139183014Y-75375500D01*
X139546897Y-75335926D01*
X139904368Y-75257240D01*
X140251236Y-75140367D01*
X140583435Y-74986675D01*
X140897069Y-74797968D01*
X141188462Y-74576457D01*
X141454197Y-74324739D01*
X141691159Y-74045766D01*
X141896570Y-73742808D01*
X142068021Y-73419417D01*
X142203502Y-73079385D01*
X142301425Y-72726699D01*
X142360642Y-72365492D01*
X142380458Y-72000000D01*
X142360642Y-71634508D01*
X142301425Y-71273301D01*
X142203502Y-70920615D01*
X142068021Y-70580583D01*
X141896570Y-70257192D01*
X141758260Y-70053201D01*
X141691909Y-69955340D01*
X141691907Y-69955338D01*
X141691159Y-69954234D01*
X141662040Y-69919953D01*
X141455054Y-69676270D01*
X141454197Y-69675261D01*
X141453241Y-69674355D01*
X141453234Y-69674348D01*
X141260833Y-69492097D01*
X141188462Y-69423543D01*
X140897069Y-69202032D01*
X140895936Y-69201350D01*
X140584579Y-69014013D01*
X140584574Y-69014010D01*
X140583435Y-69013325D01*
X140582226Y-69012766D01*
X140582223Y-69012764D01*
X140252450Y-68860194D01*
X140252439Y-68860189D01*
X140251236Y-68859633D01*
X140069580Y-68798426D01*
X139905630Y-68743185D01*
X139905626Y-68743183D01*
X139904368Y-68742760D01*
X139903075Y-68742475D01*
X139903063Y-68742472D01*
X139548204Y-68664361D01*
X139548191Y-68664358D01*
X139546897Y-68664074D01*
X139545585Y-68663931D01*
X139545571Y-68663929D01*
X139184325Y-68624642D01*
X139184314Y-68624641D01*
X139183014Y-68624500D01*
X138816986Y-68624500D01*
X138815686Y-68624641D01*
X138815674Y-68624642D01*
X138454428Y-68663929D01*
X138454411Y-68663931D01*
X138453103Y-68664074D01*
X138451811Y-68664358D01*
X138451795Y-68664361D01*
X138096936Y-68742472D01*
X138096919Y-68742476D01*
X138095632Y-68742760D01*
X138094378Y-68743182D01*
X138094369Y-68743185D01*
X137750031Y-68859206D01*
X137748764Y-68859633D01*
X137747566Y-68860187D01*
X137747549Y-68860194D01*
X137417776Y-69012764D01*
X137417765Y-69012769D01*
X137416565Y-69013325D01*
X137415432Y-69014006D01*
X137415420Y-69014013D01*
X137104063Y-69201350D01*
X137104051Y-69201358D01*
X137102931Y-69202032D01*
X137101895Y-69202819D01*
X137101884Y-69202827D01*
X136920725Y-69340541D01*
X136811538Y-69423543D01*
X136810586Y-69424444D01*
X136810581Y-69424449D01*
X136546765Y-69674348D01*
X136546748Y-69674364D01*
X136545803Y-69675261D01*
X136544954Y-69676260D01*
X136544945Y-69676270D01*
X136309706Y-69953214D01*
X136309694Y-69953229D01*
X136308841Y-69954234D01*
X136308100Y-69955326D01*
X136308090Y-69955340D01*
X136104176Y-70256090D01*
X136104166Y-70256105D01*
X136103430Y-70257192D01*
X136102813Y-70258355D01*
X136102805Y-70258369D01*
X135932600Y-70579411D01*
X135931979Y-70580583D01*
X135931491Y-70581806D01*
X135931489Y-70581812D01*
X135799769Y-70912406D01*
X135796498Y-70920615D01*
X135796148Y-70921873D01*
X135796144Y-70921887D01*
X135752115Y-71080466D01*
X135698575Y-71273301D01*
X135698361Y-71274604D01*
X135698357Y-71274624D01*
X135639573Y-71633195D01*
X135639358Y-71634508D01*
X135619542Y-72000000D01*
X99580458Y-72000000D01*
X99560642Y-71634508D01*
X99501425Y-71273301D01*
X99403502Y-70920615D01*
X99268021Y-70580583D01*
X99225299Y-70500000D01*
X114519534Y-70500000D01*
X114539313Y-70650236D01*
X114597302Y-70790233D01*
X114689549Y-70910451D01*
X114809767Y-71002698D01*
X114949764Y-71060687D01*
X115100000Y-71080466D01*
X115250236Y-71060687D01*
X115390233Y-71002698D01*
X115510451Y-70910451D01*
X115602698Y-70790233D01*
X115660687Y-70650236D01*
X115680466Y-70500000D01*
X115660687Y-70349764D01*
X115602698Y-70209767D01*
X115510451Y-70089549D01*
X115390233Y-69997302D01*
X115387266Y-69996073D01*
X115253201Y-69940541D01*
X115253199Y-69940540D01*
X115250236Y-69939313D01*
X115247054Y-69938894D01*
X115103183Y-69919953D01*
X115100000Y-69919534D01*
X115096817Y-69919953D01*
X114952945Y-69938894D01*
X114952943Y-69938894D01*
X114949764Y-69939313D01*
X114946801Y-69940539D01*
X114946798Y-69940541D01*
X114812733Y-69996073D01*
X114812730Y-69996074D01*
X114809767Y-69997302D01*
X114807220Y-69999255D01*
X114807217Y-69999258D01*
X114692097Y-70087593D01*
X114692093Y-70087596D01*
X114689549Y-70089549D01*
X114687596Y-70092093D01*
X114687593Y-70092097D01*
X114599258Y-70207217D01*
X114599255Y-70207220D01*
X114597302Y-70209767D01*
X114596074Y-70212730D01*
X114596073Y-70212733D01*
X114540541Y-70346798D01*
X114540539Y-70346801D01*
X114539313Y-70349764D01*
X114519534Y-70500000D01*
X99225299Y-70500000D01*
X99096570Y-70257192D01*
X98958260Y-70053201D01*
X98891909Y-69955340D01*
X98891907Y-69955338D01*
X98891159Y-69954234D01*
X98862040Y-69919953D01*
X98845092Y-69900000D01*
X119819534Y-69900000D01*
X119819953Y-69903183D01*
X119824654Y-69938894D01*
X119839313Y-70050236D01*
X119897302Y-70190233D01*
X119989549Y-70310451D01*
X120109767Y-70402698D01*
X120249764Y-70460687D01*
X120400000Y-70480466D01*
X120550236Y-70460687D01*
X120690233Y-70402698D01*
X120810451Y-70310451D01*
X120902698Y-70190233D01*
X120960687Y-70050236D01*
X120980466Y-69900000D01*
X120960687Y-69749764D01*
X120902698Y-69609767D01*
X120810451Y-69489549D01*
X120690233Y-69397302D01*
X120550236Y-69339313D01*
X120547054Y-69338894D01*
X120403183Y-69319953D01*
X120400000Y-69319534D01*
X120396817Y-69319953D01*
X120252945Y-69338894D01*
X120252943Y-69338894D01*
X120249764Y-69339313D01*
X120246801Y-69340539D01*
X120246798Y-69340541D01*
X120112733Y-69396073D01*
X120112730Y-69396074D01*
X120109767Y-69397302D01*
X120107220Y-69399255D01*
X120107217Y-69399258D01*
X119992097Y-69487593D01*
X119992093Y-69487596D01*
X119989549Y-69489549D01*
X119987596Y-69492093D01*
X119987593Y-69492097D01*
X119899258Y-69607217D01*
X119899255Y-69607220D01*
X119897302Y-69609767D01*
X119896074Y-69612730D01*
X119896073Y-69612733D01*
X119840541Y-69746798D01*
X119840539Y-69746801D01*
X119839313Y-69749764D01*
X119819534Y-69900000D01*
X98845092Y-69900000D01*
X98655054Y-69676270D01*
X98654197Y-69675261D01*
X98653241Y-69674355D01*
X98653234Y-69674348D01*
X98460833Y-69492097D01*
X98388462Y-69423543D01*
X98097069Y-69202032D01*
X98095936Y-69201350D01*
X97784579Y-69014013D01*
X97784574Y-69014010D01*
X97783435Y-69013325D01*
X97782226Y-69012766D01*
X97782223Y-69012764D01*
X97452450Y-68860194D01*
X97452439Y-68860189D01*
X97451236Y-68859633D01*
X97269580Y-68798426D01*
X97105630Y-68743185D01*
X97105626Y-68743183D01*
X97104368Y-68742760D01*
X97103075Y-68742475D01*
X97103063Y-68742472D01*
X96748204Y-68664361D01*
X96748191Y-68664358D01*
X96746897Y-68664074D01*
X96745585Y-68663931D01*
X96745571Y-68663929D01*
X96384325Y-68624642D01*
X96384314Y-68624641D01*
X96383014Y-68624500D01*
X96016986Y-68624500D01*
X96015686Y-68624641D01*
X96015674Y-68624642D01*
X95654428Y-68663929D01*
X95654411Y-68663931D01*
X95653103Y-68664074D01*
X95651811Y-68664358D01*
X95651795Y-68664361D01*
X95296936Y-68742472D01*
X95296919Y-68742476D01*
X95295632Y-68742760D01*
X95294378Y-68743182D01*
X95294369Y-68743185D01*
X94950031Y-68859206D01*
X94948764Y-68859633D01*
X94947566Y-68860187D01*
X94947549Y-68860194D01*
X94617776Y-69012764D01*
X94617765Y-69012769D01*
X94616565Y-69013325D01*
X94615432Y-69014006D01*
X94615420Y-69014013D01*
X94304063Y-69201350D01*
X94304051Y-69201358D01*
X94302931Y-69202032D01*
X94301895Y-69202819D01*
X94301884Y-69202827D01*
X94120725Y-69340541D01*
X94011538Y-69423543D01*
X94010586Y-69424444D01*
X94010581Y-69424449D01*
X93746765Y-69674348D01*
X93746748Y-69674364D01*
X93745803Y-69675261D01*
X93744954Y-69676260D01*
X93744945Y-69676270D01*
X93509706Y-69953214D01*
X93509694Y-69953229D01*
X93508841Y-69954234D01*
X93508100Y-69955326D01*
X93508090Y-69955340D01*
X93304176Y-70256090D01*
X93304166Y-70256105D01*
X93303430Y-70257192D01*
X93302813Y-70258355D01*
X93302805Y-70258369D01*
X93132600Y-70579411D01*
X93131979Y-70580583D01*
X93131491Y-70581806D01*
X93131489Y-70581812D01*
X92999769Y-70912406D01*
X92996498Y-70920615D01*
X92996148Y-70921873D01*
X92996144Y-70921887D01*
X92952115Y-71080466D01*
X92898575Y-71273301D01*
X92898361Y-71274604D01*
X92898357Y-71274624D01*
X92839573Y-71633195D01*
X92839358Y-71634508D01*
X92819542Y-72000000D01*
X92500529Y-72000000D01*
X92500500Y-71998797D01*
X92500500Y-66900000D01*
X106819534Y-66900000D01*
X106839313Y-67050236D01*
X106840540Y-67053199D01*
X106840541Y-67053201D01*
X106880539Y-67149764D01*
X106897302Y-67190233D01*
X106989549Y-67310451D01*
X107109767Y-67402698D01*
X107249764Y-67460687D01*
X107400000Y-67480466D01*
X107550236Y-67460687D01*
X107690233Y-67402698D01*
X107810451Y-67310451D01*
X107818470Y-67300000D01*
X120119534Y-67300000D01*
X120139313Y-67450236D01*
X120197302Y-67590233D01*
X120289549Y-67710451D01*
X120409767Y-67802698D01*
X120549764Y-67860687D01*
X120700000Y-67880466D01*
X120850236Y-67860687D01*
X120990233Y-67802698D01*
X121110451Y-67710451D01*
X121202698Y-67590233D01*
X121260687Y-67450236D01*
X121280466Y-67300000D01*
X121260687Y-67149764D01*
X121202698Y-67009767D01*
X121110451Y-66889549D01*
X120990233Y-66797302D01*
X120987266Y-66796073D01*
X120853201Y-66740541D01*
X120853199Y-66740540D01*
X120850236Y-66739313D01*
X120847054Y-66738894D01*
X120703183Y-66719953D01*
X120700000Y-66719534D01*
X120696817Y-66719953D01*
X120552945Y-66738894D01*
X120552943Y-66738894D01*
X120549764Y-66739313D01*
X120546801Y-66740539D01*
X120546798Y-66740541D01*
X120412733Y-66796073D01*
X120412730Y-66796074D01*
X120409767Y-66797302D01*
X120407220Y-66799255D01*
X120407217Y-66799258D01*
X120292097Y-66887593D01*
X120292093Y-66887596D01*
X120289549Y-66889549D01*
X120287596Y-66892093D01*
X120287593Y-66892097D01*
X120199258Y-67007217D01*
X120199255Y-67007220D01*
X120197302Y-67009767D01*
X120196074Y-67012730D01*
X120196073Y-67012733D01*
X120140541Y-67146798D01*
X120140539Y-67146801D01*
X120139313Y-67149764D01*
X120138894Y-67152943D01*
X120138894Y-67152945D01*
X120119953Y-67296817D01*
X120119534Y-67300000D01*
X107818470Y-67300000D01*
X107902698Y-67190233D01*
X107960687Y-67050236D01*
X107980466Y-66900000D01*
X107960687Y-66749764D01*
X107902698Y-66609767D01*
X107810451Y-66489549D01*
X107690233Y-66397302D01*
X107550236Y-66339313D01*
X107547054Y-66338894D01*
X107403183Y-66319953D01*
X107400000Y-66319534D01*
X107396817Y-66319953D01*
X107252945Y-66338894D01*
X107252943Y-66338894D01*
X107249764Y-66339313D01*
X107246801Y-66340539D01*
X107246798Y-66340541D01*
X107112733Y-66396073D01*
X107112730Y-66396074D01*
X107109767Y-66397302D01*
X107107220Y-66399255D01*
X107107217Y-66399258D01*
X106992097Y-66487593D01*
X106992093Y-66487596D01*
X106989549Y-66489549D01*
X106987596Y-66492093D01*
X106987593Y-66492097D01*
X106899258Y-66607217D01*
X106899255Y-66607220D01*
X106897302Y-66609767D01*
X106896074Y-66612730D01*
X106896073Y-66612733D01*
X106840541Y-66746798D01*
X106840539Y-66746801D01*
X106839313Y-66749764D01*
X106819534Y-66900000D01*
X92500500Y-66900000D01*
X92500500Y-66100000D01*
X114719534Y-66100000D01*
X114739313Y-66250236D01*
X114740540Y-66253199D01*
X114740541Y-66253201D01*
X114776210Y-66339313D01*
X114797302Y-66390233D01*
X114889549Y-66510451D01*
X115009767Y-66602698D01*
X115149764Y-66660687D01*
X115300000Y-66680466D01*
X115450236Y-66660687D01*
X115590233Y-66602698D01*
X115710451Y-66510451D01*
X115802698Y-66390233D01*
X115860687Y-66250236D01*
X115880466Y-66100000D01*
X115860687Y-65949764D01*
X115802698Y-65809767D01*
X115710451Y-65689549D01*
X115590233Y-65597302D01*
X115450236Y-65539313D01*
X115447054Y-65538894D01*
X115303183Y-65519953D01*
X115300000Y-65519534D01*
X115296817Y-65519953D01*
X115152945Y-65538894D01*
X115152943Y-65538894D01*
X115149764Y-65539313D01*
X115146801Y-65540539D01*
X115146798Y-65540541D01*
X115012733Y-65596073D01*
X115012730Y-65596074D01*
X115009767Y-65597302D01*
X115007220Y-65599255D01*
X115007217Y-65599258D01*
X114892097Y-65687593D01*
X114892093Y-65687596D01*
X114889549Y-65689549D01*
X114887596Y-65692093D01*
X114887593Y-65692097D01*
X114799258Y-65807217D01*
X114799255Y-65807220D01*
X114797302Y-65809767D01*
X114796074Y-65812730D01*
X114796073Y-65812733D01*
X114740541Y-65946798D01*
X114740539Y-65946801D01*
X114739313Y-65949764D01*
X114719534Y-66100000D01*
X92500500Y-66100000D01*
X92500500Y-64700000D01*
X93419534Y-64700000D01*
X93439313Y-64850236D01*
X93497302Y-64990233D01*
X93589549Y-65110451D01*
X93709767Y-65202698D01*
X93849764Y-65260687D01*
X94000000Y-65280466D01*
X94150236Y-65260687D01*
X94290233Y-65202698D01*
X94410451Y-65110451D01*
X94502698Y-64990233D01*
X94560687Y-64850236D01*
X94567301Y-64800000D01*
X95019534Y-64800000D01*
X95039313Y-64950236D01*
X95097302Y-65090233D01*
X95189549Y-65210451D01*
X95309767Y-65302698D01*
X95449764Y-65360687D01*
X95600000Y-65380466D01*
X95750236Y-65360687D01*
X95890233Y-65302698D01*
X96010451Y-65210451D01*
X96102698Y-65090233D01*
X96160687Y-64950236D01*
X96180466Y-64800000D01*
X96160687Y-64649764D01*
X96102698Y-64509767D01*
X96010451Y-64389549D01*
X95890233Y-64297302D01*
X95750236Y-64239313D01*
X95747054Y-64238894D01*
X95603183Y-64219953D01*
X95600000Y-64219534D01*
X95596817Y-64219953D01*
X95452945Y-64238894D01*
X95452943Y-64238894D01*
X95449764Y-64239313D01*
X95446801Y-64240539D01*
X95446798Y-64240541D01*
X95312733Y-64296073D01*
X95312730Y-64296074D01*
X95309767Y-64297302D01*
X95307220Y-64299255D01*
X95307217Y-64299258D01*
X95192097Y-64387593D01*
X95192093Y-64387596D01*
X95189549Y-64389549D01*
X95187596Y-64392093D01*
X95187593Y-64392097D01*
X95099258Y-64507217D01*
X95099255Y-64507220D01*
X95097302Y-64509767D01*
X95096074Y-64512730D01*
X95096073Y-64512733D01*
X95040541Y-64646798D01*
X95040539Y-64646801D01*
X95039313Y-64649764D01*
X95019534Y-64800000D01*
X94567301Y-64800000D01*
X94580466Y-64700000D01*
X94560687Y-64549764D01*
X94502698Y-64409767D01*
X94410451Y-64289549D01*
X94290233Y-64197302D01*
X94150236Y-64139313D01*
X94147054Y-64138894D01*
X94003183Y-64119953D01*
X94000000Y-64119534D01*
X93996817Y-64119953D01*
X93852945Y-64138894D01*
X93852943Y-64138894D01*
X93849764Y-64139313D01*
X93846801Y-64140539D01*
X93846798Y-64140541D01*
X93712733Y-64196073D01*
X93712730Y-64196074D01*
X93709767Y-64197302D01*
X93707220Y-64199255D01*
X93707217Y-64199258D01*
X93592097Y-64287593D01*
X93592093Y-64287596D01*
X93589549Y-64289549D01*
X93587596Y-64292093D01*
X93587593Y-64292097D01*
X93499258Y-64407217D01*
X93499255Y-64407220D01*
X93497302Y-64409767D01*
X93496074Y-64412730D01*
X93496073Y-64412733D01*
X93440541Y-64546798D01*
X93440539Y-64546801D01*
X93439313Y-64549764D01*
X93419534Y-64700000D01*
X92500500Y-64700000D01*
X92500500Y-62800000D01*
X138519534Y-62800000D01*
X138539313Y-62950236D01*
X138597302Y-63090233D01*
X138689549Y-63210451D01*
X138809767Y-63302698D01*
X138949764Y-63360687D01*
X139100000Y-63380466D01*
X139250236Y-63360687D01*
X139390233Y-63302698D01*
X139510451Y-63210451D01*
X139602698Y-63090233D01*
X139660687Y-62950236D01*
X139680466Y-62800000D01*
X139660687Y-62649764D01*
X139602698Y-62509767D01*
X139510451Y-62389549D01*
X139390233Y-62297302D01*
X139250236Y-62239313D01*
X139247054Y-62238894D01*
X139103183Y-62219953D01*
X139100000Y-62219534D01*
X139096817Y-62219953D01*
X138952945Y-62238894D01*
X138952943Y-62238894D01*
X138949764Y-62239313D01*
X138946801Y-62240539D01*
X138946798Y-62240541D01*
X138812733Y-62296073D01*
X138812730Y-62296074D01*
X138809767Y-62297302D01*
X138807220Y-62299255D01*
X138807217Y-62299258D01*
X138692097Y-62387593D01*
X138692093Y-62387596D01*
X138689549Y-62389549D01*
X138687596Y-62392093D01*
X138687593Y-62392097D01*
X138599258Y-62507217D01*
X138599255Y-62507220D01*
X138597302Y-62509767D01*
X138596074Y-62512730D01*
X138596073Y-62512733D01*
X138540541Y-62646798D01*
X138540539Y-62646801D01*
X138539313Y-62649764D01*
X138519534Y-62800000D01*
X92500500Y-62800000D01*
X92500500Y-61500000D01*
X93419534Y-61500000D01*
X93439313Y-61650236D01*
X93497302Y-61790233D01*
X93589549Y-61910451D01*
X93709767Y-62002698D01*
X93849764Y-62060687D01*
X94000000Y-62080466D01*
X94150236Y-62060687D01*
X94290233Y-62002698D01*
X94410451Y-61910451D01*
X94502698Y-61790233D01*
X94560687Y-61650236D01*
X94580466Y-61500000D01*
X95019534Y-61500000D01*
X95039313Y-61650236D01*
X95097302Y-61790233D01*
X95189549Y-61910451D01*
X95309767Y-62002698D01*
X95449764Y-62060687D01*
X95600000Y-62080466D01*
X95750236Y-62060687D01*
X95890233Y-62002698D01*
X96010451Y-61910451D01*
X96102698Y-61790233D01*
X96160687Y-61650236D01*
X96180466Y-61500000D01*
X106719534Y-61500000D01*
X106739313Y-61650236D01*
X106797302Y-61790233D01*
X106889549Y-61910451D01*
X107009767Y-62002698D01*
X107149764Y-62060687D01*
X107300000Y-62080466D01*
X107450236Y-62060687D01*
X107590233Y-62002698D01*
X107710451Y-61910451D01*
X107802698Y-61790233D01*
X107860687Y-61650236D01*
X107880466Y-61500000D01*
X138519534Y-61500000D01*
X138539313Y-61650236D01*
X138597302Y-61790233D01*
X138689549Y-61910451D01*
X138809767Y-62002698D01*
X138949764Y-62060687D01*
X139100000Y-62080466D01*
X139250236Y-62060687D01*
X139390233Y-62002698D01*
X139510451Y-61910451D01*
X139602698Y-61790233D01*
X139660687Y-61650236D01*
X139680466Y-61500000D01*
X139660687Y-61349764D01*
X139602698Y-61209767D01*
X139510451Y-61089549D01*
X139390233Y-60997302D01*
X139250236Y-60939313D01*
X139247054Y-60938894D01*
X139103183Y-60919953D01*
X139100000Y-60919534D01*
X139096817Y-60919953D01*
X138952945Y-60938894D01*
X138952943Y-60938894D01*
X138949764Y-60939313D01*
X138946801Y-60940539D01*
X138946798Y-60940541D01*
X138812733Y-60996073D01*
X138812730Y-60996074D01*
X138809767Y-60997302D01*
X138807220Y-60999255D01*
X138807217Y-60999258D01*
X138692097Y-61087593D01*
X138692093Y-61087596D01*
X138689549Y-61089549D01*
X138687596Y-61092093D01*
X138687593Y-61092097D01*
X138599258Y-61207217D01*
X138599255Y-61207220D01*
X138597302Y-61209767D01*
X138596074Y-61212730D01*
X138596073Y-61212733D01*
X138540541Y-61346798D01*
X138540539Y-61346801D01*
X138539313Y-61349764D01*
X138519534Y-61500000D01*
X107880466Y-61500000D01*
X107860687Y-61349764D01*
X107802698Y-61209767D01*
X107710451Y-61089549D01*
X107590233Y-60997302D01*
X107450236Y-60939313D01*
X107447054Y-60938894D01*
X107303183Y-60919953D01*
X107300000Y-60919534D01*
X107296817Y-60919953D01*
X107152945Y-60938894D01*
X107152943Y-60938894D01*
X107149764Y-60939313D01*
X107146801Y-60940539D01*
X107146798Y-60940541D01*
X107012733Y-60996073D01*
X107012730Y-60996074D01*
X107009767Y-60997302D01*
X107007220Y-60999255D01*
X107007217Y-60999258D01*
X106892097Y-61087593D01*
X106892093Y-61087596D01*
X106889549Y-61089549D01*
X106887596Y-61092093D01*
X106887593Y-61092097D01*
X106799258Y-61207217D01*
X106799255Y-61207220D01*
X106797302Y-61209767D01*
X106796074Y-61212730D01*
X106796073Y-61212733D01*
X106740541Y-61346798D01*
X106740539Y-61346801D01*
X106739313Y-61349764D01*
X106719534Y-61500000D01*
X96180466Y-61500000D01*
X96160687Y-61349764D01*
X96102698Y-61209767D01*
X96010451Y-61089549D01*
X95890233Y-60997302D01*
X95750236Y-60939313D01*
X95747054Y-60938894D01*
X95603183Y-60919953D01*
X95600000Y-60919534D01*
X95596817Y-60919953D01*
X95452945Y-60938894D01*
X95452943Y-60938894D01*
X95449764Y-60939313D01*
X95446801Y-60940539D01*
X95446798Y-60940541D01*
X95312733Y-60996073D01*
X95312730Y-60996074D01*
X95309767Y-60997302D01*
X95307220Y-60999255D01*
X95307217Y-60999258D01*
X95192097Y-61087593D01*
X95192093Y-61087596D01*
X95189549Y-61089549D01*
X95187596Y-61092093D01*
X95187593Y-61092097D01*
X95099258Y-61207217D01*
X95099255Y-61207220D01*
X95097302Y-61209767D01*
X95096074Y-61212730D01*
X95096073Y-61212733D01*
X95040541Y-61346798D01*
X95040539Y-61346801D01*
X95039313Y-61349764D01*
X95019534Y-61500000D01*
X94580466Y-61500000D01*
X94560687Y-61349764D01*
X94502698Y-61209767D01*
X94410451Y-61089549D01*
X94290233Y-60997302D01*
X94150236Y-60939313D01*
X94147054Y-60938894D01*
X94003183Y-60919953D01*
X94000000Y-60919534D01*
X93996817Y-60919953D01*
X93852945Y-60938894D01*
X93852943Y-60938894D01*
X93849764Y-60939313D01*
X93846801Y-60940539D01*
X93846798Y-60940541D01*
X93712733Y-60996073D01*
X93712730Y-60996074D01*
X93709767Y-60997302D01*
X93707220Y-60999255D01*
X93707217Y-60999258D01*
X93592097Y-61087593D01*
X93592093Y-61087596D01*
X93589549Y-61089549D01*
X93587596Y-61092093D01*
X93587593Y-61092097D01*
X93499258Y-61207217D01*
X93499255Y-61207220D01*
X93497302Y-61209767D01*
X93496074Y-61212730D01*
X93496073Y-61212733D01*
X93440541Y-61346798D01*
X93440539Y-61346801D01*
X93439313Y-61349764D01*
X93419534Y-61500000D01*
X92500500Y-61500000D01*
X92500500Y-60700000D01*
X131819534Y-60700000D01*
X131839313Y-60850236D01*
X131840540Y-60853199D01*
X131840541Y-60853201D01*
X131876210Y-60939313D01*
X131897302Y-60990233D01*
X131989549Y-61110451D01*
X132109767Y-61202698D01*
X132249764Y-61260687D01*
X132400000Y-61280466D01*
X132550236Y-61260687D01*
X132690233Y-61202698D01*
X132810451Y-61110451D01*
X132902698Y-60990233D01*
X132960687Y-60850236D01*
X132980466Y-60700000D01*
X132960687Y-60549764D01*
X132902698Y-60409767D01*
X132810451Y-60289549D01*
X132690233Y-60197302D01*
X132550236Y-60139313D01*
X132547054Y-60138894D01*
X132403183Y-60119953D01*
X132400000Y-60119534D01*
X132396817Y-60119953D01*
X132252945Y-60138894D01*
X132252943Y-60138894D01*
X132249764Y-60139313D01*
X132246801Y-60140539D01*
X132246798Y-60140541D01*
X132112733Y-60196073D01*
X132112730Y-60196074D01*
X132109767Y-60197302D01*
X132107220Y-60199255D01*
X132107217Y-60199258D01*
X131992097Y-60287593D01*
X131992093Y-60287596D01*
X131989549Y-60289549D01*
X131987596Y-60292093D01*
X131987593Y-60292097D01*
X131899258Y-60407217D01*
X131899255Y-60407220D01*
X131897302Y-60409767D01*
X131896074Y-60412730D01*
X131896073Y-60412733D01*
X131840541Y-60546798D01*
X131840539Y-60546801D01*
X131839313Y-60549764D01*
X131819534Y-60700000D01*
X92500500Y-60700000D01*
X92500500Y-59800000D01*
X113619534Y-59800000D01*
X113639313Y-59950236D01*
X113697302Y-60090233D01*
X113789549Y-60210451D01*
X113909767Y-60302698D01*
X114049764Y-60360687D01*
X114200000Y-60380466D01*
X114350236Y-60360687D01*
X114490233Y-60302698D01*
X114610451Y-60210451D01*
X114702698Y-60090233D01*
X114760687Y-59950236D01*
X114780466Y-59800000D01*
X114760687Y-59649764D01*
X114702698Y-59509767D01*
X114610451Y-59389549D01*
X114607902Y-59387593D01*
X114605632Y-59385323D01*
X114606487Y-59384467D01*
X114592669Y-59364737D01*
X114592669Y-59335263D01*
X114606487Y-59315532D01*
X114605632Y-59314677D01*
X114607900Y-59312407D01*
X114610451Y-59310451D01*
X114695203Y-59200000D01*
X126819534Y-59200000D01*
X126819953Y-59203183D01*
X126834744Y-59315535D01*
X126839313Y-59350236D01*
X126840540Y-59353199D01*
X126840541Y-59353201D01*
X126855597Y-59389549D01*
X126897302Y-59490233D01*
X126989549Y-59610451D01*
X127109767Y-59702698D01*
X127249764Y-59760687D01*
X127400000Y-59780466D01*
X127550236Y-59760687D01*
X127690233Y-59702698D01*
X127810451Y-59610451D01*
X127902698Y-59490233D01*
X127960687Y-59350236D01*
X127980466Y-59200000D01*
X129619534Y-59200000D01*
X129619953Y-59203183D01*
X129634744Y-59315535D01*
X129639313Y-59350236D01*
X129640540Y-59353199D01*
X129640541Y-59353201D01*
X129655597Y-59389549D01*
X129697302Y-59490233D01*
X129789549Y-59610451D01*
X129909767Y-59702698D01*
X130049764Y-59760687D01*
X130200000Y-59780466D01*
X130350236Y-59760687D01*
X130490233Y-59702698D01*
X130610451Y-59610451D01*
X130702698Y-59490233D01*
X130760687Y-59350236D01*
X130780466Y-59200000D01*
X130760687Y-59049764D01*
X130702698Y-58909767D01*
X130610451Y-58789549D01*
X130490233Y-58697302D01*
X130487266Y-58696073D01*
X130353201Y-58640541D01*
X130353199Y-58640540D01*
X130350236Y-58639313D01*
X130347054Y-58638894D01*
X130203183Y-58619953D01*
X130200000Y-58619534D01*
X130196817Y-58619953D01*
X130052945Y-58638894D01*
X130052943Y-58638894D01*
X130049764Y-58639313D01*
X130046801Y-58640539D01*
X130046798Y-58640541D01*
X129912733Y-58696073D01*
X129912730Y-58696074D01*
X129909767Y-58697302D01*
X129907220Y-58699255D01*
X129907217Y-58699258D01*
X129792097Y-58787593D01*
X129792093Y-58787596D01*
X129789549Y-58789549D01*
X129787596Y-58792093D01*
X129787593Y-58792097D01*
X129699258Y-58907217D01*
X129699255Y-58907220D01*
X129697302Y-58909767D01*
X129696074Y-58912730D01*
X129696073Y-58912733D01*
X129640541Y-59046798D01*
X129640539Y-59046801D01*
X129639313Y-59049764D01*
X129638894Y-59052943D01*
X129638894Y-59052945D01*
X129638037Y-59059458D01*
X129619534Y-59200000D01*
X127980466Y-59200000D01*
X127960687Y-59049764D01*
X127902698Y-58909767D01*
X127810451Y-58789549D01*
X127690233Y-58697302D01*
X127687266Y-58696073D01*
X127553201Y-58640541D01*
X127553199Y-58640540D01*
X127550236Y-58639313D01*
X127547054Y-58638894D01*
X127403183Y-58619953D01*
X127400000Y-58619534D01*
X127396817Y-58619953D01*
X127252945Y-58638894D01*
X127252943Y-58638894D01*
X127249764Y-58639313D01*
X127246801Y-58640539D01*
X127246798Y-58640541D01*
X127112733Y-58696073D01*
X127112730Y-58696074D01*
X127109767Y-58697302D01*
X127107220Y-58699255D01*
X127107217Y-58699258D01*
X126992097Y-58787593D01*
X126992093Y-58787596D01*
X126989549Y-58789549D01*
X126987596Y-58792093D01*
X126987593Y-58792097D01*
X126899258Y-58907217D01*
X126899255Y-58907220D01*
X126897302Y-58909767D01*
X126896074Y-58912730D01*
X126896073Y-58912733D01*
X126840541Y-59046798D01*
X126840539Y-59046801D01*
X126839313Y-59049764D01*
X126838894Y-59052943D01*
X126838894Y-59052945D01*
X126838037Y-59059458D01*
X126819534Y-59200000D01*
X114695203Y-59200000D01*
X114702698Y-59190233D01*
X114760687Y-59050236D01*
X114780466Y-58900000D01*
X114760687Y-58749764D01*
X114702698Y-58609767D01*
X114610451Y-58489549D01*
X114607902Y-58487593D01*
X114605632Y-58485323D01*
X114606487Y-58484467D01*
X114592669Y-58464737D01*
X114592669Y-58435263D01*
X114606487Y-58415532D01*
X114605632Y-58414677D01*
X114607900Y-58412407D01*
X114610451Y-58410451D01*
X114695203Y-58300000D01*
X122419534Y-58300000D01*
X122419953Y-58303183D01*
X122434744Y-58415535D01*
X122439313Y-58450236D01*
X122440540Y-58453199D01*
X122440541Y-58453201D01*
X122459926Y-58500000D01*
X122497302Y-58590233D01*
X122589549Y-58710451D01*
X122709767Y-58802698D01*
X122849764Y-58860687D01*
X123000000Y-58880466D01*
X123150236Y-58860687D01*
X123290233Y-58802698D01*
X123410451Y-58710451D01*
X123502698Y-58590233D01*
X123560687Y-58450236D01*
X123580466Y-58300000D01*
X123567127Y-58198681D01*
X123571761Y-58170614D01*
X123591208Y-58149851D01*
X123618913Y-58143391D01*
X123645535Y-58153410D01*
X123709767Y-58202698D01*
X123849764Y-58260687D01*
X124000000Y-58280466D01*
X124150236Y-58260687D01*
X124290233Y-58202698D01*
X124410451Y-58110451D01*
X124456837Y-58050000D01*
X125819534Y-58050000D01*
X125819953Y-58053183D01*
X125827492Y-58110451D01*
X125839313Y-58200236D01*
X125840540Y-58203199D01*
X125840541Y-58203201D01*
X125875362Y-58287266D01*
X125897302Y-58340233D01*
X125899258Y-58342782D01*
X125970201Y-58435237D01*
X125989549Y-58460451D01*
X126109767Y-58552698D01*
X126249764Y-58610687D01*
X126400000Y-58630466D01*
X126550236Y-58610687D01*
X126690233Y-58552698D01*
X126758910Y-58500000D01*
X133969534Y-58500000D01*
X133969953Y-58503183D01*
X133976633Y-58553926D01*
X133989313Y-58650236D01*
X133990540Y-58653199D01*
X133990541Y-58653201D01*
X134030539Y-58749764D01*
X134047302Y-58790233D01*
X134139549Y-58910451D01*
X134259767Y-59002698D01*
X134399764Y-59060687D01*
X134550000Y-59080466D01*
X134700236Y-59060687D01*
X134840233Y-59002698D01*
X134960451Y-58910451D01*
X135052698Y-58790233D01*
X135110687Y-58650236D01*
X135130466Y-58500000D01*
X135110687Y-58349764D01*
X135052698Y-58209767D01*
X134960451Y-58089549D01*
X134953825Y-58084465D01*
X134842782Y-57999258D01*
X134840233Y-57997302D01*
X134700236Y-57939313D01*
X134697054Y-57938894D01*
X134553183Y-57919953D01*
X134550000Y-57919534D01*
X134546817Y-57919953D01*
X134402945Y-57938894D01*
X134402943Y-57938894D01*
X134399764Y-57939313D01*
X134396801Y-57940539D01*
X134396798Y-57940541D01*
X134262733Y-57996073D01*
X134262730Y-57996074D01*
X134259767Y-57997302D01*
X134257220Y-57999255D01*
X134257217Y-57999258D01*
X134142097Y-58087593D01*
X134142093Y-58087596D01*
X134139549Y-58089549D01*
X134137596Y-58092093D01*
X134137593Y-58092097D01*
X134049258Y-58207217D01*
X134049255Y-58207220D01*
X134047302Y-58209767D01*
X134046074Y-58212730D01*
X134046073Y-58212733D01*
X133990541Y-58346798D01*
X133990539Y-58346801D01*
X133989313Y-58349764D01*
X133988894Y-58352943D01*
X133988894Y-58352945D01*
X133971466Y-58485323D01*
X133969534Y-58500000D01*
X126758910Y-58500000D01*
X126810451Y-58460451D01*
X126902698Y-58340233D01*
X126960687Y-58200236D01*
X126980466Y-58050000D01*
X126960687Y-57899764D01*
X126902698Y-57759767D01*
X126810451Y-57639549D01*
X126690233Y-57547302D01*
X126611470Y-57514677D01*
X126553201Y-57490541D01*
X126553199Y-57490540D01*
X126550236Y-57489313D01*
X126547054Y-57488894D01*
X126403183Y-57469953D01*
X126400000Y-57469534D01*
X126396817Y-57469953D01*
X126252945Y-57488894D01*
X126252943Y-57488894D01*
X126249764Y-57489313D01*
X126246801Y-57490539D01*
X126246798Y-57490541D01*
X126112733Y-57546073D01*
X126112730Y-57546074D01*
X126109767Y-57547302D01*
X126107220Y-57549255D01*
X126107217Y-57549258D01*
X125992097Y-57637593D01*
X125992093Y-57637596D01*
X125989549Y-57639549D01*
X125987596Y-57642093D01*
X125987593Y-57642097D01*
X125899258Y-57757217D01*
X125899255Y-57757220D01*
X125897302Y-57759767D01*
X125896074Y-57762730D01*
X125896073Y-57762733D01*
X125840541Y-57896798D01*
X125840539Y-57896801D01*
X125839313Y-57899764D01*
X125838894Y-57902943D01*
X125838894Y-57902945D01*
X125821475Y-58035257D01*
X125819534Y-58050000D01*
X124456837Y-58050000D01*
X124502698Y-57990233D01*
X124560687Y-57850236D01*
X124580466Y-57700000D01*
X124560687Y-57549764D01*
X124502698Y-57409767D01*
X124410451Y-57289549D01*
X124290233Y-57197302D01*
X124266794Y-57187593D01*
X124153201Y-57140541D01*
X124153199Y-57140540D01*
X124150236Y-57139313D01*
X124147054Y-57138894D01*
X124003183Y-57119953D01*
X124000000Y-57119534D01*
X123996817Y-57119953D01*
X123852945Y-57138894D01*
X123852943Y-57138894D01*
X123849764Y-57139313D01*
X123846801Y-57140539D01*
X123846798Y-57140541D01*
X123712733Y-57196073D01*
X123712730Y-57196074D01*
X123709767Y-57197302D01*
X123707220Y-57199255D01*
X123707217Y-57199258D01*
X123592097Y-57287593D01*
X123592093Y-57287596D01*
X123589549Y-57289549D01*
X123587596Y-57292093D01*
X123587593Y-57292097D01*
X123499258Y-57407217D01*
X123499255Y-57407220D01*
X123497302Y-57409767D01*
X123496074Y-57412730D01*
X123496073Y-57412733D01*
X123440541Y-57546798D01*
X123440539Y-57546801D01*
X123439313Y-57549764D01*
X123438894Y-57552943D01*
X123438894Y-57552945D01*
X123427157Y-57642097D01*
X123419534Y-57700000D01*
X123419953Y-57703183D01*
X123419953Y-57703184D01*
X123432872Y-57801318D01*
X123423165Y-57837543D01*
X123390687Y-57856294D01*
X123354462Y-57846587D01*
X123292782Y-57799257D01*
X123292777Y-57799254D01*
X123290233Y-57797302D01*
X123193460Y-57757217D01*
X123153201Y-57740541D01*
X123153199Y-57740540D01*
X123150236Y-57739313D01*
X123147054Y-57738894D01*
X123003183Y-57719953D01*
X123000000Y-57719534D01*
X122996817Y-57719953D01*
X122852945Y-57738894D01*
X122852943Y-57738894D01*
X122849764Y-57739313D01*
X122846801Y-57740539D01*
X122846798Y-57740541D01*
X122712733Y-57796073D01*
X122712730Y-57796074D01*
X122709767Y-57797302D01*
X122707220Y-57799255D01*
X122707217Y-57799258D01*
X122592097Y-57887593D01*
X122592093Y-57887596D01*
X122589549Y-57889549D01*
X122587596Y-57892093D01*
X122587593Y-57892097D01*
X122499258Y-58007217D01*
X122499255Y-58007220D01*
X122497302Y-58009767D01*
X122496074Y-58012730D01*
X122496073Y-58012733D01*
X122440541Y-58146798D01*
X122440539Y-58146801D01*
X122439313Y-58149764D01*
X122438894Y-58152943D01*
X122438894Y-58152945D01*
X122438833Y-58153412D01*
X122419534Y-58300000D01*
X114695203Y-58300000D01*
X114702698Y-58290233D01*
X114760687Y-58150236D01*
X114780466Y-58000000D01*
X114760687Y-57849764D01*
X114702698Y-57709767D01*
X114610451Y-57589549D01*
X114607902Y-57587593D01*
X114605632Y-57585323D01*
X114606483Y-57584471D01*
X114592658Y-57564703D01*
X114592679Y-57535228D01*
X114606491Y-57515536D01*
X114605632Y-57514677D01*
X114607900Y-57512407D01*
X114610451Y-57510451D01*
X114702698Y-57390233D01*
X114760687Y-57250236D01*
X114780466Y-57100000D01*
X114760687Y-56949764D01*
X114702698Y-56809767D01*
X114610451Y-56689549D01*
X114607902Y-56687593D01*
X114605632Y-56685323D01*
X114606483Y-56684471D01*
X114592658Y-56664703D01*
X114592679Y-56635228D01*
X114606491Y-56615536D01*
X114605632Y-56614677D01*
X114607903Y-56612406D01*
X114610451Y-56610451D01*
X114687530Y-56510000D01*
X121769534Y-56510000D01*
X121789313Y-56660236D01*
X121790540Y-56663199D01*
X121790541Y-56663201D01*
X121843932Y-56792097D01*
X121847302Y-56800233D01*
X121939549Y-56920451D01*
X122059767Y-57012698D01*
X122199764Y-57070687D01*
X122350000Y-57090466D01*
X122500236Y-57070687D01*
X122640233Y-57012698D01*
X122760451Y-56920451D01*
X122852698Y-56800233D01*
X122894216Y-56700000D01*
X125019534Y-56700000D01*
X125019953Y-56703183D01*
X125033065Y-56802782D01*
X125039313Y-56850236D01*
X125040540Y-56853199D01*
X125040541Y-56853201D01*
X125080539Y-56949764D01*
X125097302Y-56990233D01*
X125189549Y-57110451D01*
X125309767Y-57202698D01*
X125449764Y-57260687D01*
X125600000Y-57280466D01*
X125750236Y-57260687D01*
X125890233Y-57202698D01*
X125893749Y-57200000D01*
X129319534Y-57200000D01*
X129339313Y-57350236D01*
X129340540Y-57353199D01*
X129340541Y-57353201D01*
X129380539Y-57449764D01*
X129397302Y-57490233D01*
X129399258Y-57492782D01*
X129470267Y-57585323D01*
X129489549Y-57610451D01*
X129609767Y-57702698D01*
X129749764Y-57760687D01*
X129900000Y-57780466D01*
X130050236Y-57760687D01*
X130190233Y-57702698D01*
X130310451Y-57610451D01*
X130402698Y-57490233D01*
X130460687Y-57350236D01*
X130480466Y-57200000D01*
X132219534Y-57200000D01*
X132239313Y-57350236D01*
X132240540Y-57353199D01*
X132240541Y-57353201D01*
X132280539Y-57449764D01*
X132297302Y-57490233D01*
X132299258Y-57492782D01*
X132370267Y-57585323D01*
X132389549Y-57610451D01*
X132509767Y-57702698D01*
X132649764Y-57760687D01*
X132800000Y-57780466D01*
X132950236Y-57760687D01*
X133090233Y-57702698D01*
X133210451Y-57610451D01*
X133302698Y-57490233D01*
X133360687Y-57350236D01*
X133380466Y-57200000D01*
X133360687Y-57049764D01*
X133302698Y-56909767D01*
X133210451Y-56789549D01*
X133093749Y-56700000D01*
X134819534Y-56700000D01*
X134819953Y-56703183D01*
X134833065Y-56802782D01*
X134839313Y-56850236D01*
X134840540Y-56853199D01*
X134840541Y-56853201D01*
X134880539Y-56949764D01*
X134897302Y-56990233D01*
X134989549Y-57110451D01*
X135109767Y-57202698D01*
X135249764Y-57260687D01*
X135400000Y-57280466D01*
X135550236Y-57260687D01*
X135690233Y-57202698D01*
X135810451Y-57110451D01*
X135895203Y-57000000D01*
X136419534Y-57000000D01*
X136419953Y-57003183D01*
X136434332Y-57112406D01*
X136439313Y-57150236D01*
X136440540Y-57153199D01*
X136440541Y-57153201D01*
X136485064Y-57260687D01*
X136497302Y-57290233D01*
X136589549Y-57410451D01*
X136709767Y-57502698D01*
X136849764Y-57560687D01*
X137000000Y-57580466D01*
X137150236Y-57560687D01*
X137290233Y-57502698D01*
X137410451Y-57410451D01*
X137502698Y-57290233D01*
X137560687Y-57150236D01*
X137580466Y-57000000D01*
X137560687Y-56849764D01*
X137502698Y-56709767D01*
X137410451Y-56589549D01*
X137290233Y-56497302D01*
X137150236Y-56439313D01*
X137147054Y-56438894D01*
X137003183Y-56419953D01*
X137000000Y-56419534D01*
X136996817Y-56419953D01*
X136852945Y-56438894D01*
X136852943Y-56438894D01*
X136849764Y-56439313D01*
X136846801Y-56440539D01*
X136846798Y-56440541D01*
X136712733Y-56496073D01*
X136712730Y-56496074D01*
X136709767Y-56497302D01*
X136707220Y-56499255D01*
X136707217Y-56499258D01*
X136592097Y-56587593D01*
X136592093Y-56587596D01*
X136589549Y-56589549D01*
X136587596Y-56592093D01*
X136587593Y-56592097D01*
X136499258Y-56707217D01*
X136499255Y-56707220D01*
X136497302Y-56709767D01*
X136496074Y-56712730D01*
X136496073Y-56712733D01*
X136440541Y-56846798D01*
X136440539Y-56846801D01*
X136439313Y-56849764D01*
X136438894Y-56852943D01*
X136438894Y-56852945D01*
X136431749Y-56907217D01*
X136419534Y-57000000D01*
X135895203Y-57000000D01*
X135902698Y-56990233D01*
X135960687Y-56850236D01*
X135980466Y-56700000D01*
X135960687Y-56549764D01*
X135902698Y-56409767D01*
X135810451Y-56289549D01*
X135693749Y-56200000D01*
X139419534Y-56200000D01*
X139439313Y-56350236D01*
X139440540Y-56353199D01*
X139440541Y-56353201D01*
X139476210Y-56439313D01*
X139497302Y-56490233D01*
X139589549Y-56610451D01*
X139709767Y-56702698D01*
X139849764Y-56760687D01*
X140000000Y-56780466D01*
X140150236Y-56760687D01*
X140290233Y-56702698D01*
X140410451Y-56610451D01*
X140502698Y-56490233D01*
X140560687Y-56350236D01*
X140580466Y-56200000D01*
X140560687Y-56049764D01*
X140502698Y-55909767D01*
X140410451Y-55789549D01*
X140290233Y-55697302D01*
X140150236Y-55639313D01*
X140147054Y-55638894D01*
X140003183Y-55619953D01*
X140000000Y-55619534D01*
X139996817Y-55619953D01*
X139852945Y-55638894D01*
X139852943Y-55638894D01*
X139849764Y-55639313D01*
X139846801Y-55640539D01*
X139846798Y-55640541D01*
X139712733Y-55696073D01*
X139712730Y-55696074D01*
X139709767Y-55697302D01*
X139707220Y-55699255D01*
X139707217Y-55699258D01*
X139592097Y-55787593D01*
X139592093Y-55787596D01*
X139589549Y-55789549D01*
X139587596Y-55792093D01*
X139587593Y-55792097D01*
X139499258Y-55907217D01*
X139499255Y-55907220D01*
X139497302Y-55909767D01*
X139496074Y-55912730D01*
X139496073Y-55912733D01*
X139440541Y-56046798D01*
X139440539Y-56046801D01*
X139439313Y-56049764D01*
X139438894Y-56052943D01*
X139438894Y-56052945D01*
X139430072Y-56119953D01*
X139419534Y-56200000D01*
X135693749Y-56200000D01*
X135690233Y-56197302D01*
X135550236Y-56139313D01*
X135547054Y-56138894D01*
X135403183Y-56119953D01*
X135400000Y-56119534D01*
X135396817Y-56119953D01*
X135252945Y-56138894D01*
X135252943Y-56138894D01*
X135249764Y-56139313D01*
X135246801Y-56140539D01*
X135246798Y-56140541D01*
X135112733Y-56196073D01*
X135112730Y-56196074D01*
X135109767Y-56197302D01*
X135107220Y-56199255D01*
X135107217Y-56199258D01*
X134992097Y-56287593D01*
X134992093Y-56287596D01*
X134989549Y-56289549D01*
X134987596Y-56292093D01*
X134987593Y-56292097D01*
X134899258Y-56407217D01*
X134899255Y-56407220D01*
X134897302Y-56409767D01*
X134896074Y-56412730D01*
X134896073Y-56412733D01*
X134840541Y-56546798D01*
X134840539Y-56546801D01*
X134839313Y-56549764D01*
X134838894Y-56552943D01*
X134838894Y-56552945D01*
X134821466Y-56685323D01*
X134819534Y-56700000D01*
X133093749Y-56700000D01*
X133090233Y-56697302D01*
X133061313Y-56685323D01*
X132953201Y-56640541D01*
X132953199Y-56640540D01*
X132950236Y-56639313D01*
X132947054Y-56638894D01*
X132803183Y-56619953D01*
X132800000Y-56619534D01*
X132796817Y-56619953D01*
X132652945Y-56638894D01*
X132652943Y-56638894D01*
X132649764Y-56639313D01*
X132646801Y-56640539D01*
X132646798Y-56640541D01*
X132512733Y-56696073D01*
X132512730Y-56696074D01*
X132509767Y-56697302D01*
X132507220Y-56699255D01*
X132507217Y-56699258D01*
X132392097Y-56787593D01*
X132392093Y-56787596D01*
X132389549Y-56789549D01*
X132387596Y-56792093D01*
X132387593Y-56792097D01*
X132299258Y-56907217D01*
X132299255Y-56907220D01*
X132297302Y-56909767D01*
X132296074Y-56912730D01*
X132296073Y-56912733D01*
X132240541Y-57046798D01*
X132240539Y-57046801D01*
X132239313Y-57049764D01*
X132238894Y-57052943D01*
X132238894Y-57052945D01*
X132225695Y-57153201D01*
X132219534Y-57200000D01*
X130480466Y-57200000D01*
X130460687Y-57049764D01*
X130402698Y-56909767D01*
X130310451Y-56789549D01*
X130190233Y-56697302D01*
X130161313Y-56685323D01*
X130053201Y-56640541D01*
X130053199Y-56640540D01*
X130050236Y-56639313D01*
X130047054Y-56638894D01*
X129903183Y-56619953D01*
X129900000Y-56619534D01*
X129896817Y-56619953D01*
X129752945Y-56638894D01*
X129752943Y-56638894D01*
X129749764Y-56639313D01*
X129746801Y-56640539D01*
X129746798Y-56640541D01*
X129612733Y-56696073D01*
X129612730Y-56696074D01*
X129609767Y-56697302D01*
X129607220Y-56699255D01*
X129607217Y-56699258D01*
X129492097Y-56787593D01*
X129492093Y-56787596D01*
X129489549Y-56789549D01*
X129487596Y-56792093D01*
X129487593Y-56792097D01*
X129399258Y-56907217D01*
X129399255Y-56907220D01*
X129397302Y-56909767D01*
X129396074Y-56912730D01*
X129396073Y-56912733D01*
X129340541Y-57046798D01*
X129340539Y-57046801D01*
X129339313Y-57049764D01*
X129338894Y-57052943D01*
X129338894Y-57052945D01*
X129325695Y-57153201D01*
X129319534Y-57200000D01*
X125893749Y-57200000D01*
X126010451Y-57110451D01*
X126102698Y-56990233D01*
X126160687Y-56850236D01*
X126180466Y-56700000D01*
X126160687Y-56549764D01*
X126102698Y-56409767D01*
X126010451Y-56289549D01*
X125890233Y-56197302D01*
X125750236Y-56139313D01*
X125747054Y-56138894D01*
X125603183Y-56119953D01*
X125600000Y-56119534D01*
X125596817Y-56119953D01*
X125452945Y-56138894D01*
X125452943Y-56138894D01*
X125449764Y-56139313D01*
X125446801Y-56140539D01*
X125446798Y-56140541D01*
X125312733Y-56196073D01*
X125312730Y-56196074D01*
X125309767Y-56197302D01*
X125307220Y-56199255D01*
X125307217Y-56199258D01*
X125192097Y-56287593D01*
X125192093Y-56287596D01*
X125189549Y-56289549D01*
X125187596Y-56292093D01*
X125187593Y-56292097D01*
X125099258Y-56407217D01*
X125099255Y-56407220D01*
X125097302Y-56409767D01*
X125096074Y-56412730D01*
X125096073Y-56412733D01*
X125040541Y-56546798D01*
X125040539Y-56546801D01*
X125039313Y-56549764D01*
X125038894Y-56552943D01*
X125038894Y-56552945D01*
X125021466Y-56685323D01*
X125019534Y-56700000D01*
X122894216Y-56700000D01*
X122910687Y-56660236D01*
X122930466Y-56510000D01*
X122910687Y-56359764D01*
X122852698Y-56219767D01*
X122760451Y-56099549D01*
X122640233Y-56007302D01*
X122574434Y-55980047D01*
X122503201Y-55950541D01*
X122503199Y-55950540D01*
X122500236Y-55949313D01*
X122497054Y-55948894D01*
X122353183Y-55929953D01*
X122350000Y-55929534D01*
X122346817Y-55929953D01*
X122202945Y-55948894D01*
X122202943Y-55948894D01*
X122199764Y-55949313D01*
X122196801Y-55950539D01*
X122196798Y-55950541D01*
X122062733Y-56006073D01*
X122062730Y-56006074D01*
X122059767Y-56007302D01*
X122057220Y-56009255D01*
X122057217Y-56009258D01*
X121942097Y-56097593D01*
X121942093Y-56097596D01*
X121939549Y-56099549D01*
X121937596Y-56102093D01*
X121937593Y-56102097D01*
X121849258Y-56217217D01*
X121849255Y-56217220D01*
X121847302Y-56219767D01*
X121846074Y-56222730D01*
X121846073Y-56222733D01*
X121790541Y-56356798D01*
X121790539Y-56356801D01*
X121789313Y-56359764D01*
X121788894Y-56362943D01*
X121788894Y-56362945D01*
X121771206Y-56497302D01*
X121769534Y-56510000D01*
X114687530Y-56510000D01*
X114702698Y-56490233D01*
X114760687Y-56350236D01*
X114780466Y-56200000D01*
X114760687Y-56049764D01*
X114702698Y-55909767D01*
X114610451Y-55789549D01*
X114490233Y-55697302D01*
X114350236Y-55639313D01*
X114347054Y-55638894D01*
X114203183Y-55619953D01*
X114200000Y-55619534D01*
X114196817Y-55619953D01*
X114052945Y-55638894D01*
X114052943Y-55638894D01*
X114049764Y-55639313D01*
X114046801Y-55640539D01*
X114046798Y-55640541D01*
X113912733Y-55696073D01*
X113912730Y-55696074D01*
X113909767Y-55697302D01*
X113907220Y-55699255D01*
X113907217Y-55699258D01*
X113792097Y-55787593D01*
X113792093Y-55787596D01*
X113789549Y-55789549D01*
X113787596Y-55792093D01*
X113787593Y-55792097D01*
X113699258Y-55907217D01*
X113699255Y-55907220D01*
X113697302Y-55909767D01*
X113696074Y-55912730D01*
X113696073Y-55912733D01*
X113640541Y-56046798D01*
X113640539Y-56046801D01*
X113639313Y-56049764D01*
X113638894Y-56052943D01*
X113638894Y-56052945D01*
X113630072Y-56119953D01*
X113619534Y-56200000D01*
X113639313Y-56350236D01*
X113640540Y-56353199D01*
X113640541Y-56353201D01*
X113676210Y-56439313D01*
X113697302Y-56490233D01*
X113789549Y-56610451D01*
X113792094Y-56612404D01*
X113794369Y-56614679D01*
X113793517Y-56615530D01*
X113807332Y-56635271D01*
X113807332Y-56664729D01*
X113793517Y-56684469D01*
X113794369Y-56685321D01*
X113792093Y-56687596D01*
X113789549Y-56689549D01*
X113787596Y-56692093D01*
X113787594Y-56692096D01*
X113699258Y-56807217D01*
X113699255Y-56807220D01*
X113697302Y-56809767D01*
X113696074Y-56812730D01*
X113696073Y-56812733D01*
X113640541Y-56946798D01*
X113640539Y-56946801D01*
X113639313Y-56949764D01*
X113638894Y-56952943D01*
X113638894Y-56952945D01*
X113630072Y-57019953D01*
X113619534Y-57100000D01*
X113619953Y-57103183D01*
X113624654Y-57138894D01*
X113639313Y-57250236D01*
X113697302Y-57390233D01*
X113789549Y-57510451D01*
X113792094Y-57512404D01*
X113794369Y-57514679D01*
X113793512Y-57515535D01*
X113807321Y-57535237D01*
X113807342Y-57564694D01*
X113793521Y-57584473D01*
X113794369Y-57585321D01*
X113792093Y-57587596D01*
X113789549Y-57589549D01*
X113787596Y-57592093D01*
X113787594Y-57592096D01*
X113699258Y-57707217D01*
X113699255Y-57707220D01*
X113697302Y-57709767D01*
X113696074Y-57712730D01*
X113696073Y-57712733D01*
X113640541Y-57846798D01*
X113640539Y-57846801D01*
X113639313Y-57849764D01*
X113638894Y-57852943D01*
X113638894Y-57852945D01*
X113630072Y-57919953D01*
X113619534Y-58000000D01*
X113619953Y-58003183D01*
X113634332Y-58112406D01*
X113639313Y-58150236D01*
X113640540Y-58153199D01*
X113640541Y-58153201D01*
X113685064Y-58260687D01*
X113697302Y-58290233D01*
X113789549Y-58410451D01*
X113792094Y-58412404D01*
X113794369Y-58414679D01*
X113793512Y-58415535D01*
X113807321Y-58435237D01*
X113807342Y-58464694D01*
X113793521Y-58484473D01*
X113794369Y-58485321D01*
X113792093Y-58487596D01*
X113789549Y-58489549D01*
X113787596Y-58492093D01*
X113787594Y-58492096D01*
X113699258Y-58607217D01*
X113699255Y-58607220D01*
X113697302Y-58609767D01*
X113696074Y-58612730D01*
X113696073Y-58612733D01*
X113640541Y-58746798D01*
X113640539Y-58746801D01*
X113639313Y-58749764D01*
X113638894Y-58752943D01*
X113638894Y-58752945D01*
X113632602Y-58800741D01*
X113619534Y-58900000D01*
X113639313Y-59050236D01*
X113697302Y-59190233D01*
X113789549Y-59310451D01*
X113792094Y-59312404D01*
X113794369Y-59314679D01*
X113793512Y-59315535D01*
X113807321Y-59335237D01*
X113807342Y-59364694D01*
X113793521Y-59384473D01*
X113794369Y-59385321D01*
X113792093Y-59387596D01*
X113789549Y-59389549D01*
X113787596Y-59392093D01*
X113787594Y-59392096D01*
X113699258Y-59507217D01*
X113699255Y-59507220D01*
X113697302Y-59509767D01*
X113696074Y-59512730D01*
X113696073Y-59512733D01*
X113640541Y-59646798D01*
X113640539Y-59646801D01*
X113639313Y-59649764D01*
X113619534Y-59800000D01*
X92500500Y-59800000D01*
X92500500Y-58500000D01*
X95619534Y-58500000D01*
X95619953Y-58503183D01*
X95626633Y-58553926D01*
X95639313Y-58650236D01*
X95640540Y-58653199D01*
X95640541Y-58653201D01*
X95680539Y-58749764D01*
X95697302Y-58790233D01*
X95789549Y-58910451D01*
X95909767Y-59002698D01*
X96049764Y-59060687D01*
X96200000Y-59080466D01*
X96350236Y-59060687D01*
X96490233Y-59002698D01*
X96610451Y-58910451D01*
X96702698Y-58790233D01*
X96760687Y-58650236D01*
X96780466Y-58500000D01*
X98619534Y-58500000D01*
X98619953Y-58503183D01*
X98626633Y-58553926D01*
X98639313Y-58650236D01*
X98640540Y-58653199D01*
X98640541Y-58653201D01*
X98680539Y-58749764D01*
X98697302Y-58790233D01*
X98789549Y-58910451D01*
X98909767Y-59002698D01*
X99049764Y-59060687D01*
X99200000Y-59080466D01*
X99350236Y-59060687D01*
X99490233Y-59002698D01*
X99610451Y-58910451D01*
X99702698Y-58790233D01*
X99760687Y-58650236D01*
X99780466Y-58500000D01*
X101719534Y-58500000D01*
X101719953Y-58503183D01*
X101726633Y-58553926D01*
X101739313Y-58650236D01*
X101740540Y-58653199D01*
X101740541Y-58653201D01*
X101780539Y-58749764D01*
X101797302Y-58790233D01*
X101889549Y-58910451D01*
X102009767Y-59002698D01*
X102149764Y-59060687D01*
X102300000Y-59080466D01*
X102450236Y-59060687D01*
X102590233Y-59002698D01*
X102710451Y-58910451D01*
X102802698Y-58790233D01*
X102860687Y-58650236D01*
X102880466Y-58500000D01*
X104819534Y-58500000D01*
X104819953Y-58503183D01*
X104826633Y-58553926D01*
X104839313Y-58650236D01*
X104840540Y-58653199D01*
X104840541Y-58653201D01*
X104880539Y-58749764D01*
X104897302Y-58790233D01*
X104989549Y-58910451D01*
X105109767Y-59002698D01*
X105249764Y-59060687D01*
X105400000Y-59080466D01*
X105550236Y-59060687D01*
X105690233Y-59002698D01*
X105810451Y-58910451D01*
X105902698Y-58790233D01*
X105960687Y-58650236D01*
X105980466Y-58500000D01*
X105960687Y-58349764D01*
X105902698Y-58209767D01*
X105810451Y-58089549D01*
X105807904Y-58087595D01*
X105805631Y-58085321D01*
X105806487Y-58084465D01*
X105792669Y-58064735D01*
X105792671Y-58035257D01*
X105806486Y-58015536D01*
X105805630Y-58014680D01*
X105807903Y-58012405D01*
X105810451Y-58010451D01*
X105902698Y-57890233D01*
X105960687Y-57750236D01*
X105980466Y-57600000D01*
X105960687Y-57449764D01*
X105902698Y-57309767D01*
X105810451Y-57189549D01*
X105690233Y-57097302D01*
X105623012Y-57069458D01*
X105553201Y-57040541D01*
X105553199Y-57040540D01*
X105550236Y-57039313D01*
X105547054Y-57038894D01*
X105403183Y-57019953D01*
X105400000Y-57019534D01*
X105396817Y-57019953D01*
X105252945Y-57038894D01*
X105252943Y-57038894D01*
X105249764Y-57039313D01*
X105246801Y-57040539D01*
X105246798Y-57040541D01*
X105112733Y-57096073D01*
X105112730Y-57096074D01*
X105109767Y-57097302D01*
X105107220Y-57099255D01*
X105107217Y-57099258D01*
X104992097Y-57187593D01*
X104992093Y-57187596D01*
X104989549Y-57189549D01*
X104987596Y-57192093D01*
X104987593Y-57192097D01*
X104899258Y-57307217D01*
X104899255Y-57307220D01*
X104897302Y-57309767D01*
X104896074Y-57312730D01*
X104896073Y-57312733D01*
X104840541Y-57446798D01*
X104840539Y-57446801D01*
X104839313Y-57449764D01*
X104838894Y-57452943D01*
X104838894Y-57452945D01*
X104821466Y-57585323D01*
X104819534Y-57600000D01*
X104839313Y-57750236D01*
X104840540Y-57753199D01*
X104840541Y-57753201D01*
X104879417Y-57847054D01*
X104897302Y-57890233D01*
X104989549Y-58010451D01*
X104992097Y-58012406D01*
X104994368Y-58014677D01*
X104993511Y-58015533D01*
X105007325Y-58035245D01*
X105007338Y-58064711D01*
X104993517Y-58084469D01*
X104994369Y-58085321D01*
X104992093Y-58087596D01*
X104989549Y-58089549D01*
X104987596Y-58092093D01*
X104987594Y-58092096D01*
X104899258Y-58207217D01*
X104899255Y-58207220D01*
X104897302Y-58209767D01*
X104896074Y-58212730D01*
X104896073Y-58212733D01*
X104840541Y-58346798D01*
X104840539Y-58346801D01*
X104839313Y-58349764D01*
X104838894Y-58352943D01*
X104838894Y-58352945D01*
X104821466Y-58485323D01*
X104819534Y-58500000D01*
X102880466Y-58500000D01*
X102860687Y-58349764D01*
X102802698Y-58209767D01*
X102710451Y-58089549D01*
X102707904Y-58087595D01*
X102705631Y-58085321D01*
X102706487Y-58084465D01*
X102692669Y-58064735D01*
X102692671Y-58035257D01*
X102706486Y-58015536D01*
X102705630Y-58014680D01*
X102707903Y-58012405D01*
X102710451Y-58010451D01*
X102802698Y-57890233D01*
X102860687Y-57750236D01*
X102880466Y-57600000D01*
X102860687Y-57449764D01*
X102802698Y-57309767D01*
X102710451Y-57189549D01*
X102590233Y-57097302D01*
X102523012Y-57069458D01*
X102453201Y-57040541D01*
X102453199Y-57040540D01*
X102450236Y-57039313D01*
X102447054Y-57038894D01*
X102303183Y-57019953D01*
X102300000Y-57019534D01*
X102296817Y-57019953D01*
X102152945Y-57038894D01*
X102152943Y-57038894D01*
X102149764Y-57039313D01*
X102146801Y-57040539D01*
X102146798Y-57040541D01*
X102012733Y-57096073D01*
X102012730Y-57096074D01*
X102009767Y-57097302D01*
X102007220Y-57099255D01*
X102007217Y-57099258D01*
X101892097Y-57187593D01*
X101892093Y-57187596D01*
X101889549Y-57189549D01*
X101887596Y-57192093D01*
X101887593Y-57192097D01*
X101799258Y-57307217D01*
X101799255Y-57307220D01*
X101797302Y-57309767D01*
X101796074Y-57312730D01*
X101796073Y-57312733D01*
X101740541Y-57446798D01*
X101740539Y-57446801D01*
X101739313Y-57449764D01*
X101738894Y-57452943D01*
X101738894Y-57452945D01*
X101721466Y-57585323D01*
X101719534Y-57600000D01*
X101739313Y-57750236D01*
X101740540Y-57753199D01*
X101740541Y-57753201D01*
X101779417Y-57847054D01*
X101797302Y-57890233D01*
X101889549Y-58010451D01*
X101892097Y-58012406D01*
X101894368Y-58014677D01*
X101893511Y-58015533D01*
X101907325Y-58035245D01*
X101907338Y-58064711D01*
X101893517Y-58084469D01*
X101894369Y-58085321D01*
X101892093Y-58087596D01*
X101889549Y-58089549D01*
X101887596Y-58092093D01*
X101887594Y-58092096D01*
X101799258Y-58207217D01*
X101799255Y-58207220D01*
X101797302Y-58209767D01*
X101796074Y-58212730D01*
X101796073Y-58212733D01*
X101740541Y-58346798D01*
X101740539Y-58346801D01*
X101739313Y-58349764D01*
X101738894Y-58352943D01*
X101738894Y-58352945D01*
X101721466Y-58485323D01*
X101719534Y-58500000D01*
X99780466Y-58500000D01*
X99760687Y-58349764D01*
X99702698Y-58209767D01*
X99610451Y-58089549D01*
X99607904Y-58087595D01*
X99605631Y-58085321D01*
X99606487Y-58084465D01*
X99592669Y-58064735D01*
X99592671Y-58035257D01*
X99606486Y-58015536D01*
X99605630Y-58014680D01*
X99607903Y-58012405D01*
X99610451Y-58010451D01*
X99702698Y-57890233D01*
X99760687Y-57750236D01*
X99780466Y-57600000D01*
X99760687Y-57449764D01*
X99702698Y-57309767D01*
X99610451Y-57189549D01*
X99490233Y-57097302D01*
X99423012Y-57069458D01*
X99353201Y-57040541D01*
X99353199Y-57040540D01*
X99350236Y-57039313D01*
X99347054Y-57038894D01*
X99203183Y-57019953D01*
X99200000Y-57019534D01*
X99196817Y-57019953D01*
X99052945Y-57038894D01*
X99052943Y-57038894D01*
X99049764Y-57039313D01*
X99046801Y-57040539D01*
X99046798Y-57040541D01*
X98912733Y-57096073D01*
X98912730Y-57096074D01*
X98909767Y-57097302D01*
X98907220Y-57099255D01*
X98907217Y-57099258D01*
X98792097Y-57187593D01*
X98792093Y-57187596D01*
X98789549Y-57189549D01*
X98787596Y-57192093D01*
X98787593Y-57192097D01*
X98699258Y-57307217D01*
X98699255Y-57307220D01*
X98697302Y-57309767D01*
X98696074Y-57312730D01*
X98696073Y-57312733D01*
X98640541Y-57446798D01*
X98640539Y-57446801D01*
X98639313Y-57449764D01*
X98638894Y-57452943D01*
X98638894Y-57452945D01*
X98621466Y-57585323D01*
X98619534Y-57600000D01*
X98639313Y-57750236D01*
X98640540Y-57753199D01*
X98640541Y-57753201D01*
X98679417Y-57847054D01*
X98697302Y-57890233D01*
X98789549Y-58010451D01*
X98792097Y-58012406D01*
X98794368Y-58014677D01*
X98793511Y-58015533D01*
X98807325Y-58035245D01*
X98807338Y-58064711D01*
X98793517Y-58084469D01*
X98794369Y-58085321D01*
X98792093Y-58087596D01*
X98789549Y-58089549D01*
X98787596Y-58092093D01*
X98787594Y-58092096D01*
X98699258Y-58207217D01*
X98699255Y-58207220D01*
X98697302Y-58209767D01*
X98696074Y-58212730D01*
X98696073Y-58212733D01*
X98640541Y-58346798D01*
X98640539Y-58346801D01*
X98639313Y-58349764D01*
X98638894Y-58352943D01*
X98638894Y-58352945D01*
X98621466Y-58485323D01*
X98619534Y-58500000D01*
X96780466Y-58500000D01*
X96760687Y-58349764D01*
X96702698Y-58209767D01*
X96610451Y-58089549D01*
X96607904Y-58087595D01*
X96605631Y-58085321D01*
X96606487Y-58084465D01*
X96592669Y-58064735D01*
X96592671Y-58035257D01*
X96606486Y-58015536D01*
X96605630Y-58014680D01*
X96607903Y-58012405D01*
X96610451Y-58010451D01*
X96702698Y-57890233D01*
X96760687Y-57750236D01*
X96780466Y-57600000D01*
X96760687Y-57449764D01*
X96702698Y-57309767D01*
X96610451Y-57189549D01*
X96490233Y-57097302D01*
X96423012Y-57069458D01*
X96353201Y-57040541D01*
X96353199Y-57040540D01*
X96350236Y-57039313D01*
X96347054Y-57038894D01*
X96203183Y-57019953D01*
X96200000Y-57019534D01*
X96196817Y-57019953D01*
X96052945Y-57038894D01*
X96052943Y-57038894D01*
X96049764Y-57039313D01*
X96046801Y-57040539D01*
X96046798Y-57040541D01*
X95912733Y-57096073D01*
X95912730Y-57096074D01*
X95909767Y-57097302D01*
X95907220Y-57099255D01*
X95907217Y-57099258D01*
X95792097Y-57187593D01*
X95792093Y-57187596D01*
X95789549Y-57189549D01*
X95787596Y-57192093D01*
X95787593Y-57192097D01*
X95699258Y-57307217D01*
X95699255Y-57307220D01*
X95697302Y-57309767D01*
X95696074Y-57312730D01*
X95696073Y-57312733D01*
X95640541Y-57446798D01*
X95640539Y-57446801D01*
X95639313Y-57449764D01*
X95638894Y-57452943D01*
X95638894Y-57452945D01*
X95621466Y-57585323D01*
X95619534Y-57600000D01*
X95639313Y-57750236D01*
X95640540Y-57753199D01*
X95640541Y-57753201D01*
X95679417Y-57847054D01*
X95697302Y-57890233D01*
X95789549Y-58010451D01*
X95792097Y-58012406D01*
X95794368Y-58014677D01*
X95793511Y-58015533D01*
X95807325Y-58035245D01*
X95807338Y-58064711D01*
X95793517Y-58084469D01*
X95794369Y-58085321D01*
X95792093Y-58087596D01*
X95789549Y-58089549D01*
X95787596Y-58092093D01*
X95787594Y-58092096D01*
X95699258Y-58207217D01*
X95699255Y-58207220D01*
X95697302Y-58209767D01*
X95696074Y-58212730D01*
X95696073Y-58212733D01*
X95640541Y-58346798D01*
X95640539Y-58346801D01*
X95639313Y-58349764D01*
X95638894Y-58352943D01*
X95638894Y-58352945D01*
X95621466Y-58485323D01*
X95619534Y-58500000D01*
X92500500Y-58500000D01*
X92500500Y-55400000D01*
X123919534Y-55400000D01*
X123939313Y-55550236D01*
X123940540Y-55553199D01*
X123940541Y-55553201D01*
X123976210Y-55639313D01*
X123997302Y-55690233D01*
X124089549Y-55810451D01*
X124209767Y-55902698D01*
X124349764Y-55960687D01*
X124500000Y-55980466D01*
X124650236Y-55960687D01*
X124790233Y-55902698D01*
X124910451Y-55810451D01*
X125002698Y-55690233D01*
X125060687Y-55550236D01*
X125080466Y-55400000D01*
X125060687Y-55249764D01*
X125002698Y-55109767D01*
X124910451Y-54989549D01*
X124790233Y-54897302D01*
X124767776Y-54888000D01*
X125976361Y-54888000D01*
X125976780Y-54891183D01*
X125984554Y-54950236D01*
X125996140Y-55038236D01*
X125997367Y-55041199D01*
X125997368Y-55041201D01*
X126000915Y-55049764D01*
X126054129Y-55178233D01*
X126146376Y-55298451D01*
X126266594Y-55390698D01*
X126406591Y-55448687D01*
X126556827Y-55468466D01*
X126707063Y-55448687D01*
X126847060Y-55390698D01*
X126967278Y-55298451D01*
X127042823Y-55200000D01*
X130019534Y-55200000D01*
X130039313Y-55350236D01*
X130040540Y-55353199D01*
X130040541Y-55353201D01*
X130059926Y-55400000D01*
X130097302Y-55490233D01*
X130189549Y-55610451D01*
X130309767Y-55702698D01*
X130449764Y-55760687D01*
X130600000Y-55780466D01*
X130750236Y-55760687D01*
X130890233Y-55702698D01*
X131010451Y-55610451D01*
X131102698Y-55490233D01*
X131160687Y-55350236D01*
X131180466Y-55200000D01*
X131160687Y-55049764D01*
X131102698Y-54909767D01*
X131010451Y-54789549D01*
X130890233Y-54697302D01*
X130887266Y-54696073D01*
X130753201Y-54640541D01*
X130753199Y-54640540D01*
X130750236Y-54639313D01*
X130747054Y-54638894D01*
X130603183Y-54619953D01*
X130600000Y-54619534D01*
X130596817Y-54619953D01*
X130452945Y-54638894D01*
X130452943Y-54638894D01*
X130449764Y-54639313D01*
X130446801Y-54640539D01*
X130446798Y-54640541D01*
X130312733Y-54696073D01*
X130312730Y-54696074D01*
X130309767Y-54697302D01*
X130307220Y-54699255D01*
X130307217Y-54699258D01*
X130192097Y-54787593D01*
X130192093Y-54787596D01*
X130189549Y-54789549D01*
X130187596Y-54792093D01*
X130187593Y-54792097D01*
X130099258Y-54907217D01*
X130099255Y-54907220D01*
X130097302Y-54909767D01*
X130096074Y-54912730D01*
X130096073Y-54912733D01*
X130040541Y-55046798D01*
X130040539Y-55046801D01*
X130039313Y-55049764D01*
X130038894Y-55052943D01*
X130038894Y-55052945D01*
X130031749Y-55107217D01*
X130019534Y-55200000D01*
X127042823Y-55200000D01*
X127059525Y-55178233D01*
X127117514Y-55038236D01*
X127137293Y-54888000D01*
X127117514Y-54737764D01*
X127059525Y-54597767D01*
X126967278Y-54477549D01*
X126847060Y-54385302D01*
X126707063Y-54327313D01*
X126703881Y-54326894D01*
X126560010Y-54307953D01*
X126556827Y-54307534D01*
X126553644Y-54307953D01*
X126409772Y-54326894D01*
X126409770Y-54326894D01*
X126406591Y-54327313D01*
X126403628Y-54328539D01*
X126403625Y-54328541D01*
X126269560Y-54384073D01*
X126269557Y-54384074D01*
X126266594Y-54385302D01*
X126264047Y-54387255D01*
X126264044Y-54387258D01*
X126148924Y-54475593D01*
X126148920Y-54475596D01*
X126146376Y-54477549D01*
X126144423Y-54480093D01*
X126144420Y-54480097D01*
X126056085Y-54595217D01*
X126056082Y-54595220D01*
X126054129Y-54597767D01*
X126052901Y-54600730D01*
X126052900Y-54600733D01*
X125997368Y-54734798D01*
X125997366Y-54734801D01*
X125996140Y-54737764D01*
X125995721Y-54740943D01*
X125995721Y-54740945D01*
X125982826Y-54838894D01*
X125976361Y-54888000D01*
X124767776Y-54888000D01*
X124650236Y-54839313D01*
X124647054Y-54838894D01*
X124503183Y-54819953D01*
X124500000Y-54819534D01*
X124496817Y-54819953D01*
X124352945Y-54838894D01*
X124352943Y-54838894D01*
X124349764Y-54839313D01*
X124346801Y-54840539D01*
X124346798Y-54840541D01*
X124212733Y-54896073D01*
X124212730Y-54896074D01*
X124209767Y-54897302D01*
X124207220Y-54899255D01*
X124207217Y-54899258D01*
X124092097Y-54987593D01*
X124092093Y-54987596D01*
X124089549Y-54989549D01*
X124087596Y-54992093D01*
X124087593Y-54992097D01*
X123999258Y-55107217D01*
X123999255Y-55107220D01*
X123997302Y-55109767D01*
X123996074Y-55112730D01*
X123996073Y-55112733D01*
X123940541Y-55246798D01*
X123940539Y-55246801D01*
X123939313Y-55249764D01*
X123938894Y-55252943D01*
X123938894Y-55252945D01*
X123925695Y-55353201D01*
X123919534Y-55400000D01*
X92500500Y-55400000D01*
X92500500Y-54800000D01*
X117119534Y-54800000D01*
X117119953Y-54803183D01*
X117131538Y-54891183D01*
X117139313Y-54950236D01*
X117140540Y-54953199D01*
X117140541Y-54953201D01*
X117180539Y-55049764D01*
X117197302Y-55090233D01*
X117289549Y-55210451D01*
X117409767Y-55302698D01*
X117549764Y-55360687D01*
X117700000Y-55380466D01*
X117850236Y-55360687D01*
X117990233Y-55302698D01*
X118110451Y-55210451D01*
X118202698Y-55090233D01*
X118260687Y-54950236D01*
X118280466Y-54800000D01*
X118260687Y-54649764D01*
X118202698Y-54509767D01*
X118110451Y-54389549D01*
X117993749Y-54300000D01*
X134819534Y-54300000D01*
X134819953Y-54303183D01*
X134823291Y-54328541D01*
X134839313Y-54450236D01*
X134897302Y-54590233D01*
X134989549Y-54710451D01*
X135109767Y-54802698D01*
X135249764Y-54860687D01*
X135400000Y-54880466D01*
X135550236Y-54860687D01*
X135690233Y-54802698D01*
X135810451Y-54710451D01*
X135902698Y-54590233D01*
X135960687Y-54450236D01*
X135980466Y-54300000D01*
X135960687Y-54149764D01*
X135902698Y-54009767D01*
X135810451Y-53889549D01*
X135690233Y-53797302D01*
X135655481Y-53782907D01*
X135553201Y-53740541D01*
X135553199Y-53740540D01*
X135550236Y-53739313D01*
X135547054Y-53738894D01*
X135403183Y-53719953D01*
X135400000Y-53719534D01*
X135396817Y-53719953D01*
X135252945Y-53738894D01*
X135252943Y-53738894D01*
X135249764Y-53739313D01*
X135246801Y-53740539D01*
X135246798Y-53740541D01*
X135112733Y-53796073D01*
X135112730Y-53796074D01*
X135109767Y-53797302D01*
X135107220Y-53799255D01*
X135107217Y-53799258D01*
X134992097Y-53887593D01*
X134992093Y-53887596D01*
X134989549Y-53889549D01*
X134987596Y-53892093D01*
X134987593Y-53892097D01*
X134899258Y-54007217D01*
X134899255Y-54007220D01*
X134897302Y-54009767D01*
X134896074Y-54012730D01*
X134896073Y-54012733D01*
X134840541Y-54146798D01*
X134840539Y-54146801D01*
X134839313Y-54149764D01*
X134838894Y-54152943D01*
X134838894Y-54152945D01*
X134830072Y-54219953D01*
X134819534Y-54300000D01*
X117993749Y-54300000D01*
X117990233Y-54297302D01*
X117850236Y-54239313D01*
X117847054Y-54238894D01*
X117703183Y-54219953D01*
X117700000Y-54219534D01*
X117696817Y-54219953D01*
X117552945Y-54238894D01*
X117552943Y-54238894D01*
X117549764Y-54239313D01*
X117546801Y-54240539D01*
X117546798Y-54240541D01*
X117412733Y-54296073D01*
X117412730Y-54296074D01*
X117409767Y-54297302D01*
X117407220Y-54299255D01*
X117407217Y-54299258D01*
X117292097Y-54387593D01*
X117292093Y-54387596D01*
X117289549Y-54389549D01*
X117287596Y-54392093D01*
X117287593Y-54392097D01*
X117199258Y-54507217D01*
X117199255Y-54507220D01*
X117197302Y-54509767D01*
X117196074Y-54512730D01*
X117196073Y-54512733D01*
X117140541Y-54646798D01*
X117140539Y-54646801D01*
X117139313Y-54649764D01*
X117138894Y-54652943D01*
X117138894Y-54652945D01*
X117127309Y-54740945D01*
X117119534Y-54800000D01*
X92500500Y-54800000D01*
X92500500Y-52609474D01*
X96517330Y-52609474D01*
X96517744Y-52611692D01*
X96517745Y-52611696D01*
X96557144Y-52822464D01*
X96557146Y-52822471D01*
X96557561Y-52824691D01*
X96636654Y-53028852D01*
X96751914Y-53215003D01*
X96753438Y-53216675D01*
X96753439Y-53216676D01*
X96897893Y-53375136D01*
X96897896Y-53375139D01*
X96899416Y-53376806D01*
X97074139Y-53508750D01*
X97270131Y-53606343D01*
X97480718Y-53666260D01*
X97544563Y-53672176D01*
X97642980Y-53681296D01*
X97642981Y-53681296D01*
X97644114Y-53681401D01*
X97752208Y-53681401D01*
X97753346Y-53681401D01*
X97916742Y-53666260D01*
X98127329Y-53606343D01*
X98323321Y-53508750D01*
X98498044Y-53376806D01*
X98645546Y-53215003D01*
X98760806Y-53028852D01*
X98839899Y-52824691D01*
X98880130Y-52609474D01*
X98880130Y-52500001D01*
X100910809Y-52500001D01*
X100910995Y-52502127D01*
X100920386Y-52609474D01*
X100930375Y-52723643D01*
X100988479Y-52940489D01*
X100989379Y-52942420D01*
X100989382Y-52942427D01*
X101057987Y-53089549D01*
X101083355Y-53143951D01*
X101212121Y-53327848D01*
X101370863Y-53486590D01*
X101554760Y-53615356D01*
X101758222Y-53710232D01*
X101975068Y-53768336D01*
X102142691Y-53783001D01*
X102253653Y-53783001D01*
X102254729Y-53783001D01*
X102422352Y-53768336D01*
X102639198Y-53710232D01*
X102842660Y-53615356D01*
X103007406Y-53500000D01*
X139819534Y-53500000D01*
X139819953Y-53503183D01*
X139820506Y-53507387D01*
X139839313Y-53650236D01*
X139840540Y-53653199D01*
X139840541Y-53653201D01*
X139876210Y-53739313D01*
X139897302Y-53790233D01*
X139989549Y-53910451D01*
X140109767Y-54002698D01*
X140249764Y-54060687D01*
X140400000Y-54080466D01*
X140550236Y-54060687D01*
X140690233Y-54002698D01*
X140810451Y-53910451D01*
X140902698Y-53790233D01*
X140960687Y-53650236D01*
X140979314Y-53508750D01*
X140980047Y-53503183D01*
X140980466Y-53500000D01*
X140960687Y-53349764D01*
X140902698Y-53209767D01*
X140810451Y-53089549D01*
X140690233Y-52997302D01*
X140550236Y-52939313D01*
X140547054Y-52938894D01*
X140403183Y-52919953D01*
X140400000Y-52919534D01*
X140396817Y-52919953D01*
X140252945Y-52938894D01*
X140252943Y-52938894D01*
X140249764Y-52939313D01*
X140246801Y-52940539D01*
X140246798Y-52940541D01*
X140112733Y-52996073D01*
X140112730Y-52996074D01*
X140109767Y-52997302D01*
X140107220Y-52999255D01*
X140107217Y-52999258D01*
X139992097Y-53087593D01*
X139992093Y-53087596D01*
X139989549Y-53089549D01*
X139987596Y-53092093D01*
X139987593Y-53092097D01*
X139899258Y-53207217D01*
X139899255Y-53207220D01*
X139897302Y-53209767D01*
X139896074Y-53212730D01*
X139896073Y-53212733D01*
X139840541Y-53346798D01*
X139840539Y-53346801D01*
X139839313Y-53349764D01*
X139838894Y-53352943D01*
X139838894Y-53352945D01*
X139821499Y-53485072D01*
X139819534Y-53500000D01*
X103007406Y-53500000D01*
X103026557Y-53486590D01*
X103185299Y-53327848D01*
X103314065Y-53143952D01*
X103408941Y-52940489D01*
X103467045Y-52723643D01*
X103486611Y-52500001D01*
X103467045Y-52276359D01*
X103408941Y-52059513D01*
X103314065Y-51856051D01*
X103185299Y-51672154D01*
X103026557Y-51513412D01*
X102842660Y-51384646D01*
X102840724Y-51383743D01*
X102641136Y-51290673D01*
X102641129Y-51290670D01*
X102639198Y-51289770D01*
X102422352Y-51231666D01*
X102420225Y-51231479D01*
X102420220Y-51231479D01*
X102255795Y-51217094D01*
X102255789Y-51217093D01*
X102254729Y-51217001D01*
X102142691Y-51217001D01*
X102141631Y-51217093D01*
X102141624Y-51217094D01*
X101977199Y-51231479D01*
X101977192Y-51231480D01*
X101975068Y-51231666D01*
X101972998Y-51232220D01*
X101972996Y-51232221D01*
X101760289Y-51289216D01*
X101760287Y-51289216D01*
X101758222Y-51289770D01*
X101756294Y-51290668D01*
X101756283Y-51290673D01*
X101556695Y-51383743D01*
X101556688Y-51383746D01*
X101554760Y-51384646D01*
X101553014Y-51385868D01*
X101553008Y-51385872D01*
X101372622Y-51512180D01*
X101370863Y-51513412D01*
X101369351Y-51514923D01*
X101369345Y-51514929D01*
X101213638Y-51670636D01*
X101213632Y-51670642D01*
X101212121Y-51672154D01*
X101210890Y-51673910D01*
X101210889Y-51673913D01*
X101084581Y-51854298D01*
X101084577Y-51854304D01*
X101083355Y-51856050D01*
X101082455Y-51857978D01*
X101082452Y-51857985D01*
X100989382Y-52057574D01*
X100989377Y-52057585D01*
X100988479Y-52059513D01*
X100987925Y-52061578D01*
X100987925Y-52061580D01*
X100934904Y-52259458D01*
X100930375Y-52276359D01*
X100930189Y-52278483D01*
X100930188Y-52278490D01*
X100911009Y-52497707D01*
X100910809Y-52500001D01*
X98880130Y-52500001D01*
X98880130Y-52390528D01*
X98839899Y-52175311D01*
X98760806Y-51971150D01*
X98645546Y-51784999D01*
X98644020Y-51783325D01*
X98499566Y-51624865D01*
X98499562Y-51624862D01*
X98498044Y-51623196D01*
X98351334Y-51512406D01*
X98325125Y-51492614D01*
X98325122Y-51492612D01*
X98323321Y-51491252D01*
X98301660Y-51480466D01*
X98129356Y-51394668D01*
X98129352Y-51394666D01*
X98127329Y-51393659D01*
X98125148Y-51393038D01*
X98125147Y-51393038D01*
X97918924Y-51334362D01*
X97918915Y-51334360D01*
X97916742Y-51333742D01*
X97914494Y-51333533D01*
X97914485Y-51333532D01*
X97754479Y-51318705D01*
X97754457Y-51318704D01*
X97753346Y-51318601D01*
X97644114Y-51318601D01*
X97643003Y-51318703D01*
X97642980Y-51318705D01*
X97482974Y-51333532D01*
X97482963Y-51333533D01*
X97480718Y-51333742D01*
X97478546Y-51334359D01*
X97478535Y-51334362D01*
X97272312Y-51393038D01*
X97272307Y-51393039D01*
X97270131Y-51393659D01*
X97268110Y-51394665D01*
X97268103Y-51394668D01*
X97076164Y-51490243D01*
X97076158Y-51490246D01*
X97074139Y-51491252D01*
X97072341Y-51492609D01*
X97072334Y-51492614D01*
X96901220Y-51621833D01*
X96901215Y-51621837D01*
X96899416Y-51623196D01*
X96897901Y-51624856D01*
X96897893Y-51624865D01*
X96753439Y-51783325D01*
X96753433Y-51783331D01*
X96751914Y-51784999D01*
X96750723Y-51786921D01*
X96750721Y-51786925D01*
X96637847Y-51969222D01*
X96637843Y-51969228D01*
X96636654Y-51971150D01*
X96635835Y-51973263D01*
X96635834Y-51973266D01*
X96563703Y-52159458D01*
X96557561Y-52175311D01*
X96557146Y-52177527D01*
X96557144Y-52177537D01*
X96517745Y-52388305D01*
X96517744Y-52388310D01*
X96517330Y-52390528D01*
X96517330Y-52609474D01*
X92500500Y-52609474D01*
X92500500Y-51100000D01*
X113619534Y-51100000D01*
X113619953Y-51103183D01*
X113634937Y-51217001D01*
X113639313Y-51250236D01*
X113640540Y-51253199D01*
X113640541Y-51253201D01*
X113674159Y-51334362D01*
X113697302Y-51390233D01*
X113789549Y-51510451D01*
X113909767Y-51602698D01*
X114049764Y-51660687D01*
X114200000Y-51680466D01*
X114350236Y-51660687D01*
X114490233Y-51602698D01*
X114493749Y-51600000D01*
X121119534Y-51600000D01*
X121119953Y-51603183D01*
X121122807Y-51624865D01*
X121139313Y-51750236D01*
X121197302Y-51890233D01*
X121289549Y-52010451D01*
X121409767Y-52102698D01*
X121549764Y-52160687D01*
X121700000Y-52180466D01*
X121850236Y-52160687D01*
X121990233Y-52102698D01*
X122110451Y-52010451D01*
X122202698Y-51890233D01*
X122260687Y-51750236D01*
X122280466Y-51600000D01*
X123119534Y-51600000D01*
X123119953Y-51603183D01*
X123122807Y-51624865D01*
X123139313Y-51750236D01*
X123197302Y-51890233D01*
X123289549Y-52010451D01*
X123409767Y-52102698D01*
X123549764Y-52160687D01*
X123700000Y-52180466D01*
X123850236Y-52160687D01*
X123990233Y-52102698D01*
X124110451Y-52010451D01*
X124202698Y-51890233D01*
X124260687Y-51750236D01*
X124280466Y-51600000D01*
X125119534Y-51600000D01*
X125119953Y-51603183D01*
X125122807Y-51624865D01*
X125139313Y-51750236D01*
X125197302Y-51890233D01*
X125289549Y-52010451D01*
X125409767Y-52102698D01*
X125549764Y-52160687D01*
X125700000Y-52180466D01*
X125850236Y-52160687D01*
X125990233Y-52102698D01*
X126110451Y-52010451D01*
X126202698Y-51890233D01*
X126260687Y-51750236D01*
X126267301Y-51700000D01*
X127119534Y-51700000D01*
X127139313Y-51850236D01*
X127140540Y-51853199D01*
X127140541Y-51853201D01*
X127190274Y-51973266D01*
X127197302Y-51990233D01*
X127289549Y-52110451D01*
X127409767Y-52202698D01*
X127549764Y-52260687D01*
X127700000Y-52280466D01*
X127850236Y-52260687D01*
X127990233Y-52202698D01*
X128110451Y-52110451D01*
X128202698Y-51990233D01*
X128260687Y-51850236D01*
X128280466Y-51700000D01*
X129119534Y-51700000D01*
X129139313Y-51850236D01*
X129140540Y-51853199D01*
X129140541Y-51853201D01*
X129190274Y-51973266D01*
X129197302Y-51990233D01*
X129289549Y-52110451D01*
X129409767Y-52202698D01*
X129549764Y-52260687D01*
X129700000Y-52280466D01*
X129850236Y-52260687D01*
X129990233Y-52202698D01*
X130110451Y-52110451D01*
X130202698Y-51990233D01*
X130260687Y-51850236D01*
X130280466Y-51700000D01*
X130267301Y-51600000D01*
X131119534Y-51600000D01*
X131119953Y-51603183D01*
X131122807Y-51624865D01*
X131139313Y-51750236D01*
X131197302Y-51890233D01*
X131289549Y-52010451D01*
X131409767Y-52102698D01*
X131549764Y-52160687D01*
X131700000Y-52180466D01*
X131850236Y-52160687D01*
X131990233Y-52102698D01*
X132110451Y-52010451D01*
X132202698Y-51890233D01*
X132260687Y-51750236D01*
X132280466Y-51600000D01*
X132260687Y-51449764D01*
X132202698Y-51309767D01*
X132110451Y-51189549D01*
X131990233Y-51097302D01*
X131987266Y-51096073D01*
X131853201Y-51040541D01*
X131853199Y-51040540D01*
X131850236Y-51039313D01*
X131847054Y-51038894D01*
X131703183Y-51019953D01*
X131700000Y-51019534D01*
X131696817Y-51019953D01*
X131552945Y-51038894D01*
X131552943Y-51038894D01*
X131549764Y-51039313D01*
X131546801Y-51040539D01*
X131546798Y-51040541D01*
X131412733Y-51096073D01*
X131412730Y-51096074D01*
X131409767Y-51097302D01*
X131407220Y-51099255D01*
X131407217Y-51099258D01*
X131292097Y-51187593D01*
X131292093Y-51187596D01*
X131289549Y-51189549D01*
X131287596Y-51192093D01*
X131287593Y-51192097D01*
X131199258Y-51307217D01*
X131199255Y-51307220D01*
X131197302Y-51309767D01*
X131196074Y-51312730D01*
X131196073Y-51312733D01*
X131140541Y-51446798D01*
X131140539Y-51446801D01*
X131139313Y-51449764D01*
X131138894Y-51452943D01*
X131138894Y-51452945D01*
X131130734Y-51514929D01*
X131119534Y-51600000D01*
X130267301Y-51600000D01*
X130260687Y-51549764D01*
X130202698Y-51409767D01*
X130110451Y-51289549D01*
X129990233Y-51197302D01*
X129850236Y-51139313D01*
X129847054Y-51138894D01*
X129703183Y-51119953D01*
X129700000Y-51119534D01*
X129696817Y-51119953D01*
X129552945Y-51138894D01*
X129552943Y-51138894D01*
X129549764Y-51139313D01*
X129546801Y-51140539D01*
X129546798Y-51140541D01*
X129412733Y-51196073D01*
X129412730Y-51196074D01*
X129409767Y-51197302D01*
X129407220Y-51199255D01*
X129407217Y-51199258D01*
X129292097Y-51287593D01*
X129292093Y-51287596D01*
X129289549Y-51289549D01*
X129287596Y-51292093D01*
X129287593Y-51292097D01*
X129199258Y-51407217D01*
X129199255Y-51407220D01*
X129197302Y-51409767D01*
X129196074Y-51412730D01*
X129196073Y-51412733D01*
X129140541Y-51546798D01*
X129140539Y-51546801D01*
X129139313Y-51549764D01*
X129119534Y-51700000D01*
X128280466Y-51700000D01*
X128260687Y-51549764D01*
X128202698Y-51409767D01*
X128110451Y-51289549D01*
X127990233Y-51197302D01*
X127850236Y-51139313D01*
X127847054Y-51138894D01*
X127703183Y-51119953D01*
X127700000Y-51119534D01*
X127696817Y-51119953D01*
X127552945Y-51138894D01*
X127552943Y-51138894D01*
X127549764Y-51139313D01*
X127546801Y-51140539D01*
X127546798Y-51140541D01*
X127412733Y-51196073D01*
X127412730Y-51196074D01*
X127409767Y-51197302D01*
X127407220Y-51199255D01*
X127407217Y-51199258D01*
X127292097Y-51287593D01*
X127292093Y-51287596D01*
X127289549Y-51289549D01*
X127287596Y-51292093D01*
X127287593Y-51292097D01*
X127199258Y-51407217D01*
X127199255Y-51407220D01*
X127197302Y-51409767D01*
X127196074Y-51412730D01*
X127196073Y-51412733D01*
X127140541Y-51546798D01*
X127140539Y-51546801D01*
X127139313Y-51549764D01*
X127119534Y-51700000D01*
X126267301Y-51700000D01*
X126280466Y-51600000D01*
X126260687Y-51449764D01*
X126202698Y-51309767D01*
X126110451Y-51189549D01*
X125990233Y-51097302D01*
X125987266Y-51096073D01*
X125853201Y-51040541D01*
X125853199Y-51040540D01*
X125850236Y-51039313D01*
X125847054Y-51038894D01*
X125703183Y-51019953D01*
X125700000Y-51019534D01*
X125696817Y-51019953D01*
X125552945Y-51038894D01*
X125552943Y-51038894D01*
X125549764Y-51039313D01*
X125546801Y-51040539D01*
X125546798Y-51040541D01*
X125412733Y-51096073D01*
X125412730Y-51096074D01*
X125409767Y-51097302D01*
X125407220Y-51099255D01*
X125407217Y-51099258D01*
X125292097Y-51187593D01*
X125292093Y-51187596D01*
X125289549Y-51189549D01*
X125287596Y-51192093D01*
X125287593Y-51192097D01*
X125199258Y-51307217D01*
X125199255Y-51307220D01*
X125197302Y-51309767D01*
X125196074Y-51312730D01*
X125196073Y-51312733D01*
X125140541Y-51446798D01*
X125140539Y-51446801D01*
X125139313Y-51449764D01*
X125138894Y-51452943D01*
X125138894Y-51452945D01*
X125130734Y-51514929D01*
X125119534Y-51600000D01*
X124280466Y-51600000D01*
X124260687Y-51449764D01*
X124202698Y-51309767D01*
X124110451Y-51189549D01*
X123990233Y-51097302D01*
X123987266Y-51096073D01*
X123853201Y-51040541D01*
X123853199Y-51040540D01*
X123850236Y-51039313D01*
X123847054Y-51038894D01*
X123703183Y-51019953D01*
X123700000Y-51019534D01*
X123696817Y-51019953D01*
X123552945Y-51038894D01*
X123552943Y-51038894D01*
X123549764Y-51039313D01*
X123546801Y-51040539D01*
X123546798Y-51040541D01*
X123412733Y-51096073D01*
X123412730Y-51096074D01*
X123409767Y-51097302D01*
X123407220Y-51099255D01*
X123407217Y-51099258D01*
X123292097Y-51187593D01*
X123292093Y-51187596D01*
X123289549Y-51189549D01*
X123287596Y-51192093D01*
X123287593Y-51192097D01*
X123199258Y-51307217D01*
X123199255Y-51307220D01*
X123197302Y-51309767D01*
X123196074Y-51312730D01*
X123196073Y-51312733D01*
X123140541Y-51446798D01*
X123140539Y-51446801D01*
X123139313Y-51449764D01*
X123138894Y-51452943D01*
X123138894Y-51452945D01*
X123130734Y-51514929D01*
X123119534Y-51600000D01*
X122280466Y-51600000D01*
X122260687Y-51449764D01*
X122202698Y-51309767D01*
X122110451Y-51189549D01*
X121990233Y-51097302D01*
X121987266Y-51096073D01*
X121853201Y-51040541D01*
X121853199Y-51040540D01*
X121850236Y-51039313D01*
X121847054Y-51038894D01*
X121703183Y-51019953D01*
X121700000Y-51019534D01*
X121696817Y-51019953D01*
X121552945Y-51038894D01*
X121552943Y-51038894D01*
X121549764Y-51039313D01*
X121546801Y-51040539D01*
X121546798Y-51040541D01*
X121412733Y-51096073D01*
X121412730Y-51096074D01*
X121409767Y-51097302D01*
X121407220Y-51099255D01*
X121407217Y-51099258D01*
X121292097Y-51187593D01*
X121292093Y-51187596D01*
X121289549Y-51189549D01*
X121287596Y-51192093D01*
X121287593Y-51192097D01*
X121199258Y-51307217D01*
X121199255Y-51307220D01*
X121197302Y-51309767D01*
X121196074Y-51312730D01*
X121196073Y-51312733D01*
X121140541Y-51446798D01*
X121140539Y-51446801D01*
X121139313Y-51449764D01*
X121138894Y-51452943D01*
X121138894Y-51452945D01*
X121130734Y-51514929D01*
X121119534Y-51600000D01*
X114493749Y-51600000D01*
X114610451Y-51510451D01*
X114702698Y-51390233D01*
X114760687Y-51250236D01*
X114780466Y-51100000D01*
X114760687Y-50949764D01*
X114740074Y-50900000D01*
X139419534Y-50900000D01*
X139439313Y-51050236D01*
X139440540Y-51053199D01*
X139440541Y-51053201D01*
X139476210Y-51139313D01*
X139497302Y-51190233D01*
X139589549Y-51310451D01*
X139709767Y-51402698D01*
X139849764Y-51460687D01*
X140000000Y-51480466D01*
X140150236Y-51460687D01*
X140290233Y-51402698D01*
X140410451Y-51310451D01*
X140502698Y-51190233D01*
X140560687Y-51050236D01*
X140580466Y-50900000D01*
X140560687Y-50749764D01*
X140502698Y-50609767D01*
X140410451Y-50489549D01*
X140290233Y-50397302D01*
X140150236Y-50339313D01*
X140147054Y-50338894D01*
X140003183Y-50319953D01*
X140000000Y-50319534D01*
X139996817Y-50319953D01*
X139852945Y-50338894D01*
X139852943Y-50338894D01*
X139849764Y-50339313D01*
X139846801Y-50340539D01*
X139846798Y-50340541D01*
X139712733Y-50396073D01*
X139712730Y-50396074D01*
X139709767Y-50397302D01*
X139707220Y-50399255D01*
X139707217Y-50399258D01*
X139592097Y-50487593D01*
X139592093Y-50487596D01*
X139589549Y-50489549D01*
X139587596Y-50492093D01*
X139587593Y-50492097D01*
X139499258Y-50607217D01*
X139499255Y-50607220D01*
X139497302Y-50609767D01*
X139496074Y-50612730D01*
X139496073Y-50612733D01*
X139440541Y-50746798D01*
X139440539Y-50746801D01*
X139439313Y-50749764D01*
X139419534Y-50900000D01*
X114740074Y-50900000D01*
X114702698Y-50809767D01*
X114610451Y-50689549D01*
X114490233Y-50597302D01*
X114485328Y-50595270D01*
X114463337Y-50577223D01*
X114455079Y-50550000D01*
X114463337Y-50522777D01*
X114485328Y-50504729D01*
X114490233Y-50502698D01*
X114610451Y-50410451D01*
X114702698Y-50290233D01*
X114760687Y-50150236D01*
X114767301Y-50100000D01*
X121119534Y-50100000D01*
X121139313Y-50250236D01*
X121140540Y-50253199D01*
X121140541Y-50253201D01*
X121176210Y-50339313D01*
X121197302Y-50390233D01*
X121289549Y-50510451D01*
X121409767Y-50602698D01*
X121549764Y-50660687D01*
X121700000Y-50680466D01*
X121850236Y-50660687D01*
X121990233Y-50602698D01*
X122110451Y-50510451D01*
X122202698Y-50390233D01*
X122260687Y-50250236D01*
X122280466Y-50100000D01*
X122267301Y-50000000D01*
X123119534Y-50000000D01*
X123139313Y-50150236D01*
X123197302Y-50290233D01*
X123289549Y-50410451D01*
X123409767Y-50502698D01*
X123549764Y-50560687D01*
X123700000Y-50580466D01*
X123850236Y-50560687D01*
X123990233Y-50502698D01*
X124110451Y-50410451D01*
X124202698Y-50290233D01*
X124260687Y-50150236D01*
X124280466Y-50000000D01*
X125119534Y-50000000D01*
X125139313Y-50150236D01*
X125197302Y-50290233D01*
X125289549Y-50410451D01*
X125409767Y-50502698D01*
X125549764Y-50560687D01*
X125700000Y-50580466D01*
X125850236Y-50560687D01*
X125990233Y-50502698D01*
X126110451Y-50410451D01*
X126202698Y-50290233D01*
X126260687Y-50150236D01*
X126280466Y-50000000D01*
X127119534Y-50000000D01*
X127139313Y-50150236D01*
X127197302Y-50290233D01*
X127289549Y-50410451D01*
X127409767Y-50502698D01*
X127549764Y-50560687D01*
X127700000Y-50580466D01*
X127850236Y-50560687D01*
X127990233Y-50502698D01*
X128110451Y-50410451D01*
X128202698Y-50290233D01*
X128260687Y-50150236D01*
X128280466Y-50000000D01*
X129119534Y-50000000D01*
X129139313Y-50150236D01*
X129197302Y-50290233D01*
X129289549Y-50410451D01*
X129409767Y-50502698D01*
X129549764Y-50560687D01*
X129700000Y-50580466D01*
X129850236Y-50560687D01*
X129990233Y-50502698D01*
X130110451Y-50410451D01*
X130202698Y-50290233D01*
X130260687Y-50150236D01*
X130280466Y-50000000D01*
X131119534Y-50000000D01*
X131139313Y-50150236D01*
X131197302Y-50290233D01*
X131289549Y-50410451D01*
X131409767Y-50502698D01*
X131549764Y-50560687D01*
X131700000Y-50580466D01*
X131850236Y-50560687D01*
X131990233Y-50502698D01*
X132110451Y-50410451D01*
X132202698Y-50290233D01*
X132260687Y-50150236D01*
X132280466Y-50000000D01*
X132260687Y-49849764D01*
X132202698Y-49709767D01*
X132110451Y-49589549D01*
X131990233Y-49497302D01*
X131986464Y-49495741D01*
X131853201Y-49440541D01*
X131853199Y-49440540D01*
X131850236Y-49439313D01*
X131847054Y-49438894D01*
X131703183Y-49419953D01*
X131700000Y-49419534D01*
X131696817Y-49419953D01*
X131552945Y-49438894D01*
X131552943Y-49438894D01*
X131549764Y-49439313D01*
X131546801Y-49440539D01*
X131546798Y-49440541D01*
X131412733Y-49496073D01*
X131412730Y-49496074D01*
X131409767Y-49497302D01*
X131407220Y-49499255D01*
X131407217Y-49499258D01*
X131292097Y-49587593D01*
X131292093Y-49587596D01*
X131289549Y-49589549D01*
X131287596Y-49592093D01*
X131287593Y-49592097D01*
X131199258Y-49707217D01*
X131199255Y-49707220D01*
X131197302Y-49709767D01*
X131196074Y-49712730D01*
X131196073Y-49712733D01*
X131140541Y-49846798D01*
X131140539Y-49846801D01*
X131139313Y-49849764D01*
X131119534Y-50000000D01*
X130280466Y-50000000D01*
X130260687Y-49849764D01*
X130202698Y-49709767D01*
X130110451Y-49589549D01*
X129990233Y-49497302D01*
X129986464Y-49495741D01*
X129853201Y-49440541D01*
X129853199Y-49440540D01*
X129850236Y-49439313D01*
X129847054Y-49438894D01*
X129703183Y-49419953D01*
X129700000Y-49419534D01*
X129696817Y-49419953D01*
X129552945Y-49438894D01*
X129552943Y-49438894D01*
X129549764Y-49439313D01*
X129546801Y-49440539D01*
X129546798Y-49440541D01*
X129412733Y-49496073D01*
X129412730Y-49496074D01*
X129409767Y-49497302D01*
X129407220Y-49499255D01*
X129407217Y-49499258D01*
X129292097Y-49587593D01*
X129292093Y-49587596D01*
X129289549Y-49589549D01*
X129287596Y-49592093D01*
X129287593Y-49592097D01*
X129199258Y-49707217D01*
X129199255Y-49707220D01*
X129197302Y-49709767D01*
X129196074Y-49712730D01*
X129196073Y-49712733D01*
X129140541Y-49846798D01*
X129140539Y-49846801D01*
X129139313Y-49849764D01*
X129119534Y-50000000D01*
X128280466Y-50000000D01*
X128260687Y-49849764D01*
X128202698Y-49709767D01*
X128110451Y-49589549D01*
X127990233Y-49497302D01*
X127986464Y-49495741D01*
X127853201Y-49440541D01*
X127853199Y-49440540D01*
X127850236Y-49439313D01*
X127847054Y-49438894D01*
X127703183Y-49419953D01*
X127700000Y-49419534D01*
X127696817Y-49419953D01*
X127552945Y-49438894D01*
X127552943Y-49438894D01*
X127549764Y-49439313D01*
X127546801Y-49440539D01*
X127546798Y-49440541D01*
X127412733Y-49496073D01*
X127412730Y-49496074D01*
X127409767Y-49497302D01*
X127407220Y-49499255D01*
X127407217Y-49499258D01*
X127292097Y-49587593D01*
X127292093Y-49587596D01*
X127289549Y-49589549D01*
X127287596Y-49592093D01*
X127287593Y-49592097D01*
X127199258Y-49707217D01*
X127199255Y-49707220D01*
X127197302Y-49709767D01*
X127196074Y-49712730D01*
X127196073Y-49712733D01*
X127140541Y-49846798D01*
X127140539Y-49846801D01*
X127139313Y-49849764D01*
X127119534Y-50000000D01*
X126280466Y-50000000D01*
X126260687Y-49849764D01*
X126202698Y-49709767D01*
X126110451Y-49589549D01*
X125990233Y-49497302D01*
X125986464Y-49495741D01*
X125853201Y-49440541D01*
X125853199Y-49440540D01*
X125850236Y-49439313D01*
X125847054Y-49438894D01*
X125703183Y-49419953D01*
X125700000Y-49419534D01*
X125696817Y-49419953D01*
X125552945Y-49438894D01*
X125552943Y-49438894D01*
X125549764Y-49439313D01*
X125546801Y-49440539D01*
X125546798Y-49440541D01*
X125412733Y-49496073D01*
X125412730Y-49496074D01*
X125409767Y-49497302D01*
X125407220Y-49499255D01*
X125407217Y-49499258D01*
X125292097Y-49587593D01*
X125292093Y-49587596D01*
X125289549Y-49589549D01*
X125287596Y-49592093D01*
X125287593Y-49592097D01*
X125199258Y-49707217D01*
X125199255Y-49707220D01*
X125197302Y-49709767D01*
X125196074Y-49712730D01*
X125196073Y-49712733D01*
X125140541Y-49846798D01*
X125140539Y-49846801D01*
X125139313Y-49849764D01*
X125119534Y-50000000D01*
X124280466Y-50000000D01*
X124260687Y-49849764D01*
X124202698Y-49709767D01*
X124110451Y-49589549D01*
X123990233Y-49497302D01*
X123986464Y-49495741D01*
X123853201Y-49440541D01*
X123853199Y-49440540D01*
X123850236Y-49439313D01*
X123847054Y-49438894D01*
X123703183Y-49419953D01*
X123700000Y-49419534D01*
X123696817Y-49419953D01*
X123552945Y-49438894D01*
X123552943Y-49438894D01*
X123549764Y-49439313D01*
X123546801Y-49440539D01*
X123546798Y-49440541D01*
X123412733Y-49496073D01*
X123412730Y-49496074D01*
X123409767Y-49497302D01*
X123407220Y-49499255D01*
X123407217Y-49499258D01*
X123292097Y-49587593D01*
X123292093Y-49587596D01*
X123289549Y-49589549D01*
X123287596Y-49592093D01*
X123287593Y-49592097D01*
X123199258Y-49707217D01*
X123199255Y-49707220D01*
X123197302Y-49709767D01*
X123196074Y-49712730D01*
X123196073Y-49712733D01*
X123140541Y-49846798D01*
X123140539Y-49846801D01*
X123139313Y-49849764D01*
X123119534Y-50000000D01*
X122267301Y-50000000D01*
X122260687Y-49949764D01*
X122202698Y-49809767D01*
X122110451Y-49689549D01*
X121990233Y-49597302D01*
X121898870Y-49559458D01*
X121853201Y-49540541D01*
X121853199Y-49540540D01*
X121850236Y-49539313D01*
X121847054Y-49538894D01*
X121703183Y-49519953D01*
X121700000Y-49519534D01*
X121696817Y-49519953D01*
X121552945Y-49538894D01*
X121552943Y-49538894D01*
X121549764Y-49539313D01*
X121546801Y-49540539D01*
X121546798Y-49540541D01*
X121412733Y-49596073D01*
X121412730Y-49596074D01*
X121409767Y-49597302D01*
X121407220Y-49599255D01*
X121407217Y-49599258D01*
X121292097Y-49687593D01*
X121292093Y-49687596D01*
X121289549Y-49689549D01*
X121287596Y-49692093D01*
X121287593Y-49692097D01*
X121199258Y-49807217D01*
X121199255Y-49807220D01*
X121197302Y-49809767D01*
X121196074Y-49812730D01*
X121196073Y-49812733D01*
X121140541Y-49946798D01*
X121140539Y-49946801D01*
X121139313Y-49949764D01*
X121119534Y-50100000D01*
X114767301Y-50100000D01*
X114780466Y-50000000D01*
X114760687Y-49849764D01*
X114702698Y-49709767D01*
X114610451Y-49589549D01*
X114490233Y-49497302D01*
X114364616Y-49445269D01*
X114338099Y-49418751D01*
X114338099Y-49381249D01*
X114364617Y-49354730D01*
X114490233Y-49302698D01*
X114493749Y-49300000D01*
X133119534Y-49300000D01*
X133119953Y-49303183D01*
X133134332Y-49412406D01*
X133139313Y-49450236D01*
X133140540Y-49453199D01*
X133140541Y-49453201D01*
X133185064Y-49560687D01*
X133197302Y-49590233D01*
X133289549Y-49710451D01*
X133409767Y-49802698D01*
X133549764Y-49860687D01*
X133700000Y-49880466D01*
X133850236Y-49860687D01*
X133990233Y-49802698D01*
X134110451Y-49710451D01*
X134202698Y-49590233D01*
X134260687Y-49450236D01*
X134280466Y-49300000D01*
X134260687Y-49149764D01*
X134202698Y-49009767D01*
X134110451Y-48889549D01*
X133993749Y-48800000D01*
X139419534Y-48800000D01*
X139419953Y-48803183D01*
X139434332Y-48912406D01*
X139439313Y-48950236D01*
X139440540Y-48953199D01*
X139440541Y-48953201D01*
X139485064Y-49060687D01*
X139497302Y-49090233D01*
X139589549Y-49210451D01*
X139709767Y-49302698D01*
X139849764Y-49360687D01*
X140000000Y-49380466D01*
X140150236Y-49360687D01*
X140290233Y-49302698D01*
X140410451Y-49210451D01*
X140502698Y-49090233D01*
X140560687Y-48950236D01*
X140580466Y-48800000D01*
X140560687Y-48649764D01*
X140502698Y-48509767D01*
X140410451Y-48389549D01*
X140405467Y-48385725D01*
X140292782Y-48299258D01*
X140290233Y-48297302D01*
X140221305Y-48268751D01*
X140153201Y-48240541D01*
X140153199Y-48240540D01*
X140150236Y-48239313D01*
X140147054Y-48238894D01*
X140003183Y-48219953D01*
X140000000Y-48219534D01*
X139996817Y-48219953D01*
X139852945Y-48238894D01*
X139852943Y-48238894D01*
X139849764Y-48239313D01*
X139846801Y-48240539D01*
X139846798Y-48240541D01*
X139712733Y-48296073D01*
X139712730Y-48296074D01*
X139709767Y-48297302D01*
X139707220Y-48299255D01*
X139707217Y-48299258D01*
X139592097Y-48387593D01*
X139592093Y-48387596D01*
X139589549Y-48389549D01*
X139587596Y-48392093D01*
X139587593Y-48392097D01*
X139499258Y-48507217D01*
X139499255Y-48507220D01*
X139497302Y-48509767D01*
X139496074Y-48512730D01*
X139496073Y-48512733D01*
X139440541Y-48646798D01*
X139440539Y-48646801D01*
X139439313Y-48649764D01*
X139438894Y-48652943D01*
X139438894Y-48652945D01*
X139430072Y-48719953D01*
X139419534Y-48800000D01*
X133993749Y-48800000D01*
X133990233Y-48797302D01*
X133850236Y-48739313D01*
X133847054Y-48738894D01*
X133703183Y-48719953D01*
X133700000Y-48719534D01*
X133696817Y-48719953D01*
X133552945Y-48738894D01*
X133552943Y-48738894D01*
X133549764Y-48739313D01*
X133546801Y-48740539D01*
X133546798Y-48740541D01*
X133412733Y-48796073D01*
X133412730Y-48796074D01*
X133409767Y-48797302D01*
X133407220Y-48799255D01*
X133407217Y-48799258D01*
X133292097Y-48887593D01*
X133292093Y-48887596D01*
X133289549Y-48889549D01*
X133287596Y-48892093D01*
X133287593Y-48892097D01*
X133199258Y-49007217D01*
X133199255Y-49007220D01*
X133197302Y-49009767D01*
X133196074Y-49012730D01*
X133196073Y-49012733D01*
X133140541Y-49146798D01*
X133140539Y-49146801D01*
X133139313Y-49149764D01*
X133138894Y-49152943D01*
X133138894Y-49152945D01*
X133120820Y-49290233D01*
X133119534Y-49300000D01*
X114493749Y-49300000D01*
X114610451Y-49210451D01*
X114702698Y-49090233D01*
X114760687Y-48950236D01*
X114780466Y-48800000D01*
X114760687Y-48649764D01*
X114702698Y-48509767D01*
X114695203Y-48500000D01*
X121119534Y-48500000D01*
X121139313Y-48650236D01*
X121140540Y-48653199D01*
X121140541Y-48653201D01*
X121176210Y-48739313D01*
X121197302Y-48790233D01*
X121289549Y-48910451D01*
X121409767Y-49002698D01*
X121549764Y-49060687D01*
X121700000Y-49080466D01*
X121850236Y-49060687D01*
X121990233Y-49002698D01*
X122110451Y-48910451D01*
X122202698Y-48790233D01*
X122260687Y-48650236D01*
X122276904Y-48527054D01*
X123045157Y-48527054D01*
X123064936Y-48677290D01*
X123066163Y-48680253D01*
X123066164Y-48680255D01*
X123110490Y-48787266D01*
X123122925Y-48817287D01*
X123169048Y-48877395D01*
X123188463Y-48902698D01*
X123215172Y-48937505D01*
X123335390Y-49029752D01*
X123475387Y-49087741D01*
X123625623Y-49107520D01*
X123775859Y-49087741D01*
X123915856Y-49029752D01*
X124036074Y-48937505D01*
X124128321Y-48817287D01*
X124186310Y-48677290D01*
X124206089Y-48527054D01*
X124189362Y-48400000D01*
X125119534Y-48400000D01*
X125119953Y-48403183D01*
X125134332Y-48512406D01*
X125139313Y-48550236D01*
X125140540Y-48553199D01*
X125140541Y-48553201D01*
X125185064Y-48660687D01*
X125197302Y-48690233D01*
X125289549Y-48810451D01*
X125409767Y-48902698D01*
X125549764Y-48960687D01*
X125700000Y-48980466D01*
X125850236Y-48960687D01*
X125990233Y-48902698D01*
X126110451Y-48810451D01*
X126202698Y-48690233D01*
X126260687Y-48550236D01*
X126267301Y-48500000D01*
X127119534Y-48500000D01*
X127139313Y-48650236D01*
X127140540Y-48653199D01*
X127140541Y-48653201D01*
X127176210Y-48739313D01*
X127197302Y-48790233D01*
X127289549Y-48910451D01*
X127409767Y-49002698D01*
X127549764Y-49060687D01*
X127700000Y-49080466D01*
X127850236Y-49060687D01*
X127990233Y-49002698D01*
X128110451Y-48910451D01*
X128202698Y-48790233D01*
X128260687Y-48650236D01*
X128280466Y-48500000D01*
X128267301Y-48400000D01*
X129119534Y-48400000D01*
X129119953Y-48403183D01*
X129134332Y-48512406D01*
X129139313Y-48550236D01*
X129140540Y-48553199D01*
X129140541Y-48553201D01*
X129185064Y-48660687D01*
X129197302Y-48690233D01*
X129289549Y-48810451D01*
X129409767Y-48902698D01*
X129549764Y-48960687D01*
X129700000Y-48980466D01*
X129850236Y-48960687D01*
X129990233Y-48902698D01*
X130110451Y-48810451D01*
X130202698Y-48690233D01*
X130260687Y-48550236D01*
X130280466Y-48400000D01*
X130260687Y-48249764D01*
X130202698Y-48109767D01*
X130110451Y-47989549D01*
X129990233Y-47897302D01*
X129987266Y-47896073D01*
X129853201Y-47840541D01*
X129853199Y-47840540D01*
X129850236Y-47839313D01*
X129847054Y-47838894D01*
X129703183Y-47819953D01*
X129700000Y-47819534D01*
X129696817Y-47819953D01*
X129552945Y-47838894D01*
X129552943Y-47838894D01*
X129549764Y-47839313D01*
X129546801Y-47840539D01*
X129546798Y-47840541D01*
X129412733Y-47896073D01*
X129412730Y-47896074D01*
X129409767Y-47897302D01*
X129407220Y-47899255D01*
X129407217Y-47899258D01*
X129292097Y-47987593D01*
X129292093Y-47987596D01*
X129289549Y-47989549D01*
X129287596Y-47992093D01*
X129287593Y-47992097D01*
X129199258Y-48107217D01*
X129199255Y-48107220D01*
X129197302Y-48109767D01*
X129196074Y-48112730D01*
X129196073Y-48112733D01*
X129140541Y-48246798D01*
X129140539Y-48246801D01*
X129139313Y-48249764D01*
X129138894Y-48252943D01*
X129138894Y-48252945D01*
X129136813Y-48268751D01*
X129119534Y-48400000D01*
X128267301Y-48400000D01*
X128260687Y-48349764D01*
X128202698Y-48209767D01*
X128110451Y-48089549D01*
X127990233Y-47997302D01*
X127966004Y-47987266D01*
X127853201Y-47940541D01*
X127853199Y-47940540D01*
X127850236Y-47939313D01*
X127847054Y-47938894D01*
X127703183Y-47919953D01*
X127700000Y-47919534D01*
X127696817Y-47919953D01*
X127552945Y-47938894D01*
X127552943Y-47938894D01*
X127549764Y-47939313D01*
X127546801Y-47940539D01*
X127546798Y-47940541D01*
X127412733Y-47996073D01*
X127412730Y-47996074D01*
X127409767Y-47997302D01*
X127407220Y-47999255D01*
X127407217Y-47999258D01*
X127292097Y-48087593D01*
X127292093Y-48087596D01*
X127289549Y-48089549D01*
X127287596Y-48092093D01*
X127287593Y-48092097D01*
X127199258Y-48207217D01*
X127199255Y-48207220D01*
X127197302Y-48209767D01*
X127196074Y-48212730D01*
X127196073Y-48212733D01*
X127140541Y-48346798D01*
X127140539Y-48346801D01*
X127139313Y-48349764D01*
X127138894Y-48352943D01*
X127138894Y-48352945D01*
X127130072Y-48419953D01*
X127119534Y-48500000D01*
X126267301Y-48500000D01*
X126280466Y-48400000D01*
X126260687Y-48249764D01*
X126202698Y-48109767D01*
X126110451Y-47989549D01*
X125990233Y-47897302D01*
X125864616Y-47845269D01*
X125838099Y-47818751D01*
X125838099Y-47781249D01*
X125864617Y-47754730D01*
X125990233Y-47702698D01*
X126110451Y-47610451D01*
X126202698Y-47490233D01*
X126260687Y-47350236D01*
X126280466Y-47200000D01*
X126267301Y-47100000D01*
X127119534Y-47100000D01*
X127119953Y-47103183D01*
X127134332Y-47212406D01*
X127139313Y-47250236D01*
X127140540Y-47253199D01*
X127140541Y-47253201D01*
X127185064Y-47360687D01*
X127197302Y-47390233D01*
X127289549Y-47510451D01*
X127409767Y-47602698D01*
X127549764Y-47660687D01*
X127700000Y-47680466D01*
X127850236Y-47660687D01*
X127990233Y-47602698D01*
X128110451Y-47510451D01*
X128202698Y-47390233D01*
X128260687Y-47250236D01*
X128280466Y-47100000D01*
X128260687Y-46949764D01*
X128202698Y-46809767D01*
X128195203Y-46800000D01*
X129219534Y-46800000D01*
X129219953Y-46803183D01*
X129233775Y-46908175D01*
X129239313Y-46950236D01*
X129240540Y-46953199D01*
X129240541Y-46953201D01*
X129280539Y-47049764D01*
X129297302Y-47090233D01*
X129389549Y-47210451D01*
X129509767Y-47302698D01*
X129649764Y-47360687D01*
X129800000Y-47380466D01*
X129950236Y-47360687D01*
X130090233Y-47302698D01*
X130210451Y-47210451D01*
X130302698Y-47090233D01*
X130360687Y-46950236D01*
X130380466Y-46800000D01*
X130360687Y-46649764D01*
X130340074Y-46600000D01*
X131119534Y-46600000D01*
X131119953Y-46603183D01*
X131126183Y-46650508D01*
X131139313Y-46750236D01*
X131140540Y-46753199D01*
X131140541Y-46753201D01*
X131159926Y-46800000D01*
X131197302Y-46890233D01*
X131289549Y-47010451D01*
X131409767Y-47102698D01*
X131549764Y-47160687D01*
X131700000Y-47180466D01*
X131850236Y-47160687D01*
X131990233Y-47102698D01*
X132047949Y-47058411D01*
X133039644Y-47058411D01*
X133040063Y-47061594D01*
X133057865Y-47196817D01*
X133059423Y-47208647D01*
X133117412Y-47348644D01*
X133209659Y-47468862D01*
X133329877Y-47561109D01*
X133469874Y-47619098D01*
X133620110Y-47638877D01*
X133770346Y-47619098D01*
X133910343Y-47561109D01*
X134030561Y-47468862D01*
X134122808Y-47348644D01*
X134180797Y-47208647D01*
X134200576Y-47058411D01*
X134180797Y-46908175D01*
X134122808Y-46768178D01*
X134030561Y-46647960D01*
X133910343Y-46555713D01*
X133904279Y-46553201D01*
X133773311Y-46498952D01*
X133773309Y-46498951D01*
X133770346Y-46497724D01*
X133767164Y-46497305D01*
X133623293Y-46478364D01*
X133620110Y-46477945D01*
X133616927Y-46478364D01*
X133473055Y-46497305D01*
X133473053Y-46497305D01*
X133469874Y-46497724D01*
X133466911Y-46498950D01*
X133466908Y-46498952D01*
X133332843Y-46554484D01*
X133332840Y-46554485D01*
X133329877Y-46555713D01*
X133327330Y-46557666D01*
X133327327Y-46557669D01*
X133212207Y-46646004D01*
X133212203Y-46646007D01*
X133209659Y-46647960D01*
X133207706Y-46650504D01*
X133207703Y-46650508D01*
X133119368Y-46765628D01*
X133119365Y-46765631D01*
X133117412Y-46768178D01*
X133116184Y-46771141D01*
X133116183Y-46771144D01*
X133060651Y-46905209D01*
X133060649Y-46905212D01*
X133059423Y-46908175D01*
X133059004Y-46911354D01*
X133059004Y-46911356D01*
X133049961Y-46980047D01*
X133039644Y-47058411D01*
X132047949Y-47058411D01*
X132110451Y-47010451D01*
X132202698Y-46890233D01*
X132260687Y-46750236D01*
X132280466Y-46600000D01*
X132260687Y-46449764D01*
X132202698Y-46309767D01*
X132110451Y-46189549D01*
X131990233Y-46097302D01*
X131850236Y-46039313D01*
X131847054Y-46038894D01*
X131703183Y-46019953D01*
X131700000Y-46019534D01*
X131696817Y-46019953D01*
X131552945Y-46038894D01*
X131552943Y-46038894D01*
X131549764Y-46039313D01*
X131546801Y-46040539D01*
X131546798Y-46040541D01*
X131412733Y-46096073D01*
X131412730Y-46096074D01*
X131409767Y-46097302D01*
X131407220Y-46099255D01*
X131407217Y-46099258D01*
X131292097Y-46187593D01*
X131292093Y-46187596D01*
X131289549Y-46189549D01*
X131287596Y-46192093D01*
X131287593Y-46192097D01*
X131199258Y-46307217D01*
X131199255Y-46307220D01*
X131197302Y-46309767D01*
X131196074Y-46312730D01*
X131196073Y-46312733D01*
X131140541Y-46446798D01*
X131140539Y-46446801D01*
X131139313Y-46449764D01*
X131138894Y-46452943D01*
X131138894Y-46452945D01*
X131125107Y-46557669D01*
X131119534Y-46600000D01*
X130340074Y-46600000D01*
X130302698Y-46509767D01*
X130210451Y-46389549D01*
X130090233Y-46297302D01*
X130066004Y-46287266D01*
X129953201Y-46240541D01*
X129953199Y-46240540D01*
X129950236Y-46239313D01*
X129947054Y-46238894D01*
X129803183Y-46219953D01*
X129800000Y-46219534D01*
X129796817Y-46219953D01*
X129652945Y-46238894D01*
X129652943Y-46238894D01*
X129649764Y-46239313D01*
X129646801Y-46240539D01*
X129646798Y-46240541D01*
X129512733Y-46296073D01*
X129512730Y-46296074D01*
X129509767Y-46297302D01*
X129507220Y-46299255D01*
X129507217Y-46299258D01*
X129392097Y-46387593D01*
X129392093Y-46387596D01*
X129389549Y-46389549D01*
X129387596Y-46392093D01*
X129387593Y-46392097D01*
X129299258Y-46507217D01*
X129299255Y-46507220D01*
X129297302Y-46509767D01*
X129296074Y-46512730D01*
X129296073Y-46512733D01*
X129240541Y-46646798D01*
X129240539Y-46646801D01*
X129239313Y-46649764D01*
X129238894Y-46652943D01*
X129238894Y-46652945D01*
X129225695Y-46753201D01*
X129219534Y-46800000D01*
X128195203Y-46800000D01*
X128110451Y-46689549D01*
X127990233Y-46597302D01*
X127886862Y-46554484D01*
X127853201Y-46540541D01*
X127853199Y-46540540D01*
X127850236Y-46539313D01*
X127847054Y-46538894D01*
X127703183Y-46519953D01*
X127700000Y-46519534D01*
X127696817Y-46519953D01*
X127552945Y-46538894D01*
X127552943Y-46538894D01*
X127549764Y-46539313D01*
X127546801Y-46540539D01*
X127546798Y-46540541D01*
X127412733Y-46596073D01*
X127412730Y-46596074D01*
X127409767Y-46597302D01*
X127407220Y-46599255D01*
X127407217Y-46599258D01*
X127292097Y-46687593D01*
X127292093Y-46687596D01*
X127289549Y-46689549D01*
X127287596Y-46692093D01*
X127287593Y-46692097D01*
X127199258Y-46807217D01*
X127199255Y-46807220D01*
X127197302Y-46809767D01*
X127196074Y-46812730D01*
X127196073Y-46812733D01*
X127140541Y-46946798D01*
X127140539Y-46946801D01*
X127139313Y-46949764D01*
X127138894Y-46952943D01*
X127138894Y-46952945D01*
X127138037Y-46959458D01*
X127119534Y-47100000D01*
X126267301Y-47100000D01*
X126260687Y-47049764D01*
X126202698Y-46909767D01*
X126110451Y-46789549D01*
X125990233Y-46697302D01*
X125864616Y-46645269D01*
X125838099Y-46618751D01*
X125838099Y-46581249D01*
X125864617Y-46554730D01*
X125865211Y-46554484D01*
X125990233Y-46502698D01*
X126110451Y-46410451D01*
X126202698Y-46290233D01*
X126260687Y-46150236D01*
X126280466Y-46000000D01*
X139819534Y-46000000D01*
X139819953Y-46003183D01*
X139824654Y-46038894D01*
X139839313Y-46150236D01*
X139840540Y-46153199D01*
X139840541Y-46153201D01*
X139880539Y-46249764D01*
X139897302Y-46290233D01*
X139989549Y-46410451D01*
X140109767Y-46502698D01*
X140249764Y-46560687D01*
X140400000Y-46580466D01*
X140550236Y-46560687D01*
X140690233Y-46502698D01*
X140810451Y-46410451D01*
X140902698Y-46290233D01*
X140960687Y-46150236D01*
X140980466Y-46000000D01*
X140960687Y-45849764D01*
X140902698Y-45709767D01*
X140810451Y-45589549D01*
X140690233Y-45497302D01*
X140550236Y-45439313D01*
X140547054Y-45438894D01*
X140403183Y-45419953D01*
X140400000Y-45419534D01*
X140396817Y-45419953D01*
X140252945Y-45438894D01*
X140252943Y-45438894D01*
X140249764Y-45439313D01*
X140246801Y-45440539D01*
X140246798Y-45440541D01*
X140112733Y-45496073D01*
X140112730Y-45496074D01*
X140109767Y-45497302D01*
X140107220Y-45499255D01*
X140107217Y-45499258D01*
X139992097Y-45587593D01*
X139992093Y-45587596D01*
X139989549Y-45589549D01*
X139987596Y-45592093D01*
X139987593Y-45592097D01*
X139899258Y-45707217D01*
X139899255Y-45707220D01*
X139897302Y-45709767D01*
X139896074Y-45712730D01*
X139896073Y-45712733D01*
X139840541Y-45846798D01*
X139840539Y-45846801D01*
X139839313Y-45849764D01*
X139838894Y-45852943D01*
X139838894Y-45852945D01*
X139825799Y-45952414D01*
X139819534Y-46000000D01*
X126280466Y-46000000D01*
X126260687Y-45849764D01*
X126202698Y-45709767D01*
X126110451Y-45589549D01*
X125990233Y-45497302D01*
X125850236Y-45439313D01*
X125847054Y-45438894D01*
X125703183Y-45419953D01*
X125700000Y-45419534D01*
X125696817Y-45419953D01*
X125552945Y-45438894D01*
X125552943Y-45438894D01*
X125549764Y-45439313D01*
X125546801Y-45440539D01*
X125546798Y-45440541D01*
X125412733Y-45496073D01*
X125412730Y-45496074D01*
X125409767Y-45497302D01*
X125407220Y-45499255D01*
X125407217Y-45499258D01*
X125292097Y-45587593D01*
X125292093Y-45587596D01*
X125289549Y-45589549D01*
X125287596Y-45592093D01*
X125287593Y-45592097D01*
X125199258Y-45707217D01*
X125199255Y-45707220D01*
X125197302Y-45709767D01*
X125196074Y-45712730D01*
X125196073Y-45712733D01*
X125140541Y-45846798D01*
X125140539Y-45846801D01*
X125139313Y-45849764D01*
X125138894Y-45852943D01*
X125138894Y-45852945D01*
X125125799Y-45952414D01*
X125119534Y-46000000D01*
X125119953Y-46003183D01*
X125124654Y-46038894D01*
X125139313Y-46150236D01*
X125140540Y-46153199D01*
X125140541Y-46153201D01*
X125180539Y-46249764D01*
X125197302Y-46290233D01*
X125289549Y-46410451D01*
X125409767Y-46502698D01*
X125497151Y-46538894D01*
X125535382Y-46554730D01*
X125561900Y-46581249D01*
X125561900Y-46618751D01*
X125535382Y-46645270D01*
X125412733Y-46696073D01*
X125412730Y-46696074D01*
X125409767Y-46697302D01*
X125407220Y-46699255D01*
X125407217Y-46699258D01*
X125292097Y-46787593D01*
X125292093Y-46787596D01*
X125289549Y-46789549D01*
X125287596Y-46792093D01*
X125287593Y-46792097D01*
X125199258Y-46907217D01*
X125199255Y-46907220D01*
X125197302Y-46909767D01*
X125196074Y-46912730D01*
X125196073Y-46912733D01*
X125140541Y-47046798D01*
X125140539Y-47046801D01*
X125139313Y-47049764D01*
X125138894Y-47052943D01*
X125138894Y-47052945D01*
X125130072Y-47119953D01*
X125119534Y-47200000D01*
X125139313Y-47350236D01*
X125197302Y-47490233D01*
X125289549Y-47610451D01*
X125409767Y-47702698D01*
X125497250Y-47738934D01*
X125535382Y-47754730D01*
X125561900Y-47781249D01*
X125561900Y-47818751D01*
X125535382Y-47845270D01*
X125412733Y-47896073D01*
X125412730Y-47896074D01*
X125409767Y-47897302D01*
X125407220Y-47899255D01*
X125407217Y-47899258D01*
X125292097Y-47987593D01*
X125292093Y-47987596D01*
X125289549Y-47989549D01*
X125287596Y-47992093D01*
X125287593Y-47992097D01*
X125199258Y-48107217D01*
X125199255Y-48107220D01*
X125197302Y-48109767D01*
X125196074Y-48112730D01*
X125196073Y-48112733D01*
X125140541Y-48246798D01*
X125140539Y-48246801D01*
X125139313Y-48249764D01*
X125138894Y-48252943D01*
X125138894Y-48252945D01*
X125136813Y-48268751D01*
X125119534Y-48400000D01*
X124189362Y-48400000D01*
X124186310Y-48376818D01*
X124128321Y-48236821D01*
X124036074Y-48116603D01*
X123915856Y-48024356D01*
X123912889Y-48023127D01*
X123778824Y-47967595D01*
X123778822Y-47967594D01*
X123775859Y-47966367D01*
X123772677Y-47965948D01*
X123628806Y-47947007D01*
X123625623Y-47946588D01*
X123622440Y-47947007D01*
X123478568Y-47965948D01*
X123478566Y-47965948D01*
X123475387Y-47966367D01*
X123472424Y-47967593D01*
X123472421Y-47967595D01*
X123338356Y-48023127D01*
X123338353Y-48023128D01*
X123335390Y-48024356D01*
X123332843Y-48026309D01*
X123332840Y-48026312D01*
X123217720Y-48114647D01*
X123217716Y-48114650D01*
X123215172Y-48116603D01*
X123213219Y-48119147D01*
X123213216Y-48119151D01*
X123124881Y-48234271D01*
X123124878Y-48234274D01*
X123122925Y-48236821D01*
X123121697Y-48239784D01*
X123121696Y-48239787D01*
X123066164Y-48373852D01*
X123066162Y-48373855D01*
X123064936Y-48376818D01*
X123064517Y-48379997D01*
X123064517Y-48379999D01*
X123045576Y-48523871D01*
X123045157Y-48527054D01*
X122276904Y-48527054D01*
X122280466Y-48500000D01*
X122260687Y-48349764D01*
X122202698Y-48209767D01*
X122110451Y-48089549D01*
X121990233Y-47997302D01*
X121966004Y-47987266D01*
X121853201Y-47940541D01*
X121853199Y-47940540D01*
X121850236Y-47939313D01*
X121847054Y-47938894D01*
X121703183Y-47919953D01*
X121700000Y-47919534D01*
X121696817Y-47919953D01*
X121552945Y-47938894D01*
X121552943Y-47938894D01*
X121549764Y-47939313D01*
X121546801Y-47940539D01*
X121546798Y-47940541D01*
X121412733Y-47996073D01*
X121412730Y-47996074D01*
X121409767Y-47997302D01*
X121407220Y-47999255D01*
X121407217Y-47999258D01*
X121292097Y-48087593D01*
X121292093Y-48087596D01*
X121289549Y-48089549D01*
X121287596Y-48092093D01*
X121287593Y-48092097D01*
X121199258Y-48207217D01*
X121199255Y-48207220D01*
X121197302Y-48209767D01*
X121196074Y-48212730D01*
X121196073Y-48212733D01*
X121140541Y-48346798D01*
X121140539Y-48346801D01*
X121139313Y-48349764D01*
X121138894Y-48352943D01*
X121138894Y-48352945D01*
X121130072Y-48419953D01*
X121119534Y-48500000D01*
X114695203Y-48500000D01*
X114610451Y-48389549D01*
X114605467Y-48385725D01*
X114492782Y-48299258D01*
X114490233Y-48297302D01*
X114485328Y-48295270D01*
X114463337Y-48277223D01*
X114455079Y-48250000D01*
X114463337Y-48222777D01*
X114485328Y-48204729D01*
X114490233Y-48202698D01*
X114610451Y-48110451D01*
X114702698Y-47990233D01*
X114760687Y-47850236D01*
X114780466Y-47700000D01*
X114760687Y-47549764D01*
X114702698Y-47409767D01*
X114610451Y-47289549D01*
X114490233Y-47197302D01*
X114350236Y-47139313D01*
X114347054Y-47138894D01*
X114203183Y-47119953D01*
X114200000Y-47119534D01*
X114196817Y-47119953D01*
X114052945Y-47138894D01*
X114052943Y-47138894D01*
X114049764Y-47139313D01*
X114046801Y-47140539D01*
X114046798Y-47140541D01*
X113912733Y-47196073D01*
X113912730Y-47196074D01*
X113909767Y-47197302D01*
X113907220Y-47199255D01*
X113907217Y-47199258D01*
X113792097Y-47287593D01*
X113792093Y-47287596D01*
X113789549Y-47289549D01*
X113787596Y-47292093D01*
X113787593Y-47292097D01*
X113699258Y-47407217D01*
X113699255Y-47407220D01*
X113697302Y-47409767D01*
X113696074Y-47412730D01*
X113696073Y-47412733D01*
X113640541Y-47546798D01*
X113640539Y-47546801D01*
X113639313Y-47549764D01*
X113619534Y-47700000D01*
X113639313Y-47850236D01*
X113640540Y-47853199D01*
X113640541Y-47853201D01*
X113679397Y-47947007D01*
X113697302Y-47990233D01*
X113789549Y-48110451D01*
X113909767Y-48202698D01*
X113913662Y-48204311D01*
X113914674Y-48204731D01*
X113915422Y-48205479D01*
X113915517Y-48205534D01*
X113915502Y-48205559D01*
X113941190Y-48231249D01*
X113941190Y-48268751D01*
X113915502Y-48294440D01*
X113915517Y-48294466D01*
X113915422Y-48294520D01*
X113914674Y-48295269D01*
X113912735Y-48296072D01*
X113912731Y-48296074D01*
X113909767Y-48297302D01*
X113907220Y-48299255D01*
X113907217Y-48299258D01*
X113792097Y-48387593D01*
X113792093Y-48387596D01*
X113789549Y-48389549D01*
X113787596Y-48392093D01*
X113787593Y-48392097D01*
X113699258Y-48507217D01*
X113699255Y-48507220D01*
X113697302Y-48509767D01*
X113696074Y-48512730D01*
X113696073Y-48512733D01*
X113640541Y-48646798D01*
X113640539Y-48646801D01*
X113639313Y-48649764D01*
X113638894Y-48652943D01*
X113638894Y-48652945D01*
X113630072Y-48719953D01*
X113619534Y-48800000D01*
X113619953Y-48803183D01*
X113634332Y-48912406D01*
X113639313Y-48950236D01*
X113640540Y-48953199D01*
X113640541Y-48953201D01*
X113685064Y-49060687D01*
X113697302Y-49090233D01*
X113789549Y-49210451D01*
X113909767Y-49302698D01*
X113997250Y-49338934D01*
X114035382Y-49354730D01*
X114061900Y-49381249D01*
X114061900Y-49418751D01*
X114035382Y-49445270D01*
X113912733Y-49496073D01*
X113912730Y-49496074D01*
X113909767Y-49497302D01*
X113907220Y-49499255D01*
X113907217Y-49499258D01*
X113792097Y-49587593D01*
X113792093Y-49587596D01*
X113789549Y-49589549D01*
X113787596Y-49592093D01*
X113787593Y-49592097D01*
X113699258Y-49707217D01*
X113699255Y-49707220D01*
X113697302Y-49709767D01*
X113696074Y-49712730D01*
X113696073Y-49712733D01*
X113640541Y-49846798D01*
X113640539Y-49846801D01*
X113639313Y-49849764D01*
X113619534Y-50000000D01*
X113639313Y-50150236D01*
X113697302Y-50290233D01*
X113789549Y-50410451D01*
X113909767Y-50502698D01*
X113913662Y-50504311D01*
X113914674Y-50504731D01*
X113915422Y-50505479D01*
X113915517Y-50505534D01*
X113915502Y-50505559D01*
X113941190Y-50531249D01*
X113941190Y-50568751D01*
X113915502Y-50594440D01*
X113915517Y-50594466D01*
X113915422Y-50594520D01*
X113914674Y-50595269D01*
X113912735Y-50596072D01*
X113912731Y-50596074D01*
X113909767Y-50597302D01*
X113907220Y-50599255D01*
X113907217Y-50599258D01*
X113792097Y-50687593D01*
X113792093Y-50687596D01*
X113789549Y-50689549D01*
X113787596Y-50692093D01*
X113787593Y-50692097D01*
X113699258Y-50807217D01*
X113699255Y-50807220D01*
X113697302Y-50809767D01*
X113696074Y-50812730D01*
X113696073Y-50812733D01*
X113640541Y-50946798D01*
X113640539Y-50946801D01*
X113639313Y-50949764D01*
X113638894Y-50952943D01*
X113638894Y-50952945D01*
X113625695Y-51053201D01*
X113619534Y-51100000D01*
X92500500Y-51100000D01*
X92500500Y-49000000D01*
X93719534Y-49000000D01*
X93719953Y-49003183D01*
X93730923Y-49086512D01*
X93739313Y-49150236D01*
X93797302Y-49290233D01*
X93889549Y-49410451D01*
X94009767Y-49502698D01*
X94149764Y-49560687D01*
X94300000Y-49580466D01*
X94450236Y-49560687D01*
X94590233Y-49502698D01*
X94710451Y-49410451D01*
X94802698Y-49290233D01*
X94860687Y-49150236D01*
X94880466Y-49000000D01*
X94879808Y-48995000D01*
X96019534Y-48995000D01*
X96019953Y-48998183D01*
X96023851Y-49027795D01*
X96039313Y-49145236D01*
X96040540Y-49148199D01*
X96040541Y-49148201D01*
X96041384Y-49150236D01*
X96097302Y-49285233D01*
X96189549Y-49405451D01*
X96309767Y-49497698D01*
X96449764Y-49555687D01*
X96600000Y-49575466D01*
X96750236Y-49555687D01*
X96890233Y-49497698D01*
X97010451Y-49405451D01*
X97102698Y-49285233D01*
X97160687Y-49145236D01*
X97179808Y-49000000D01*
X98519534Y-49000000D01*
X98519953Y-49003183D01*
X98530923Y-49086512D01*
X98539313Y-49150236D01*
X98597302Y-49290233D01*
X98689549Y-49410451D01*
X98809767Y-49502698D01*
X98949764Y-49560687D01*
X99100000Y-49580466D01*
X99250236Y-49560687D01*
X99390233Y-49502698D01*
X99510451Y-49410451D01*
X99602698Y-49290233D01*
X99660687Y-49150236D01*
X99680466Y-49000000D01*
X99660687Y-48849764D01*
X99602698Y-48709767D01*
X99510451Y-48589549D01*
X99390233Y-48497302D01*
X99250236Y-48439313D01*
X99247054Y-48438894D01*
X99103183Y-48419953D01*
X99100000Y-48419534D01*
X99096817Y-48419953D01*
X98952945Y-48438894D01*
X98952943Y-48438894D01*
X98949764Y-48439313D01*
X98946801Y-48440539D01*
X98946798Y-48440541D01*
X98812733Y-48496073D01*
X98812730Y-48496074D01*
X98809767Y-48497302D01*
X98807220Y-48499255D01*
X98807217Y-48499258D01*
X98692097Y-48587593D01*
X98692093Y-48587596D01*
X98689549Y-48589549D01*
X98687596Y-48592093D01*
X98687593Y-48592097D01*
X98599258Y-48707217D01*
X98599255Y-48707220D01*
X98597302Y-48709767D01*
X98596074Y-48712730D01*
X98596073Y-48712733D01*
X98540541Y-48846798D01*
X98540539Y-48846801D01*
X98539313Y-48849764D01*
X98538894Y-48852943D01*
X98538894Y-48852945D01*
X98525695Y-48953201D01*
X98519534Y-49000000D01*
X97179808Y-49000000D01*
X97180466Y-48995000D01*
X97160687Y-48844764D01*
X97102698Y-48704767D01*
X97010451Y-48584549D01*
X96890233Y-48492302D01*
X96762307Y-48439313D01*
X96753201Y-48435541D01*
X96753199Y-48435540D01*
X96750236Y-48434313D01*
X96747054Y-48433894D01*
X96603183Y-48414953D01*
X96600000Y-48414534D01*
X96596817Y-48414953D01*
X96452945Y-48433894D01*
X96452943Y-48433894D01*
X96449764Y-48434313D01*
X96446801Y-48435539D01*
X96446798Y-48435541D01*
X96312733Y-48491073D01*
X96312730Y-48491074D01*
X96309767Y-48492302D01*
X96307220Y-48494255D01*
X96307217Y-48494258D01*
X96192097Y-48582593D01*
X96192093Y-48582596D01*
X96189549Y-48584549D01*
X96187596Y-48587093D01*
X96187593Y-48587097D01*
X96099258Y-48702217D01*
X96099255Y-48702220D01*
X96097302Y-48704767D01*
X96096074Y-48707730D01*
X96096073Y-48707733D01*
X96040541Y-48841798D01*
X96040539Y-48841801D01*
X96039313Y-48844764D01*
X96019534Y-48995000D01*
X94879808Y-48995000D01*
X94860687Y-48849764D01*
X94802698Y-48709767D01*
X94710451Y-48589549D01*
X94590233Y-48497302D01*
X94450236Y-48439313D01*
X94447054Y-48438894D01*
X94303183Y-48419953D01*
X94300000Y-48419534D01*
X94296817Y-48419953D01*
X94152945Y-48438894D01*
X94152943Y-48438894D01*
X94149764Y-48439313D01*
X94146801Y-48440539D01*
X94146798Y-48440541D01*
X94012733Y-48496073D01*
X94012730Y-48496074D01*
X94009767Y-48497302D01*
X94007220Y-48499255D01*
X94007217Y-48499258D01*
X93892097Y-48587593D01*
X93892093Y-48587596D01*
X93889549Y-48589549D01*
X93887596Y-48592093D01*
X93887593Y-48592097D01*
X93799258Y-48707217D01*
X93799255Y-48707220D01*
X93797302Y-48709767D01*
X93796074Y-48712730D01*
X93796073Y-48712733D01*
X93740541Y-48846798D01*
X93740539Y-48846801D01*
X93739313Y-48849764D01*
X93738894Y-48852943D01*
X93738894Y-48852945D01*
X93725695Y-48953201D01*
X93719534Y-49000000D01*
X92500500Y-49000000D01*
X92500500Y-48100000D01*
X101519534Y-48100000D01*
X101539313Y-48250236D01*
X101540540Y-48253199D01*
X101540541Y-48253201D01*
X101580391Y-48349406D01*
X101597302Y-48390233D01*
X101689549Y-48510451D01*
X101809767Y-48602698D01*
X101949764Y-48660687D01*
X102100000Y-48680466D01*
X102250236Y-48660687D01*
X102390233Y-48602698D01*
X102492272Y-48524399D01*
X102522101Y-48514274D01*
X102551930Y-48524400D01*
X102569431Y-48550592D01*
X102567371Y-48582025D01*
X102540542Y-48646795D01*
X102540540Y-48646800D01*
X102539313Y-48649764D01*
X102538894Y-48652943D01*
X102538894Y-48652945D01*
X102530072Y-48719953D01*
X102519534Y-48800000D01*
X102519953Y-48803183D01*
X102534332Y-48912406D01*
X102539313Y-48950236D01*
X102540540Y-48953199D01*
X102540541Y-48953201D01*
X102585064Y-49060687D01*
X102597302Y-49090233D01*
X102689549Y-49210451D01*
X102809767Y-49302698D01*
X102949764Y-49360687D01*
X103100000Y-49380466D01*
X103250236Y-49360687D01*
X103390233Y-49302698D01*
X103510451Y-49210451D01*
X103602698Y-49090233D01*
X103660687Y-48950236D01*
X103680466Y-48800000D01*
X103660687Y-48649764D01*
X103602698Y-48509767D01*
X103510451Y-48389549D01*
X103505467Y-48385725D01*
X103392782Y-48299258D01*
X103390233Y-48297302D01*
X103321305Y-48268751D01*
X103253201Y-48240541D01*
X103253199Y-48240540D01*
X103250236Y-48239313D01*
X103247054Y-48238894D01*
X103103183Y-48219953D01*
X103100000Y-48219534D01*
X103096817Y-48219953D01*
X102952945Y-48238894D01*
X102952943Y-48238894D01*
X102949764Y-48239313D01*
X102946801Y-48240539D01*
X102946798Y-48240541D01*
X102812733Y-48296073D01*
X102812730Y-48296074D01*
X102809767Y-48297302D01*
X102807221Y-48299255D01*
X102807222Y-48299255D01*
X102707727Y-48375600D01*
X102677898Y-48385725D01*
X102648068Y-48375599D01*
X102630567Y-48349406D01*
X102632627Y-48317976D01*
X102660687Y-48250236D01*
X102680466Y-48100000D01*
X102660687Y-47949764D01*
X102602698Y-47809767D01*
X102510451Y-47689549D01*
X102390233Y-47597302D01*
X102302856Y-47561109D01*
X102253201Y-47540541D01*
X102253199Y-47540540D01*
X102250236Y-47539313D01*
X102247054Y-47538894D01*
X102103183Y-47519953D01*
X102100000Y-47519534D01*
X102096817Y-47519953D01*
X101952945Y-47538894D01*
X101952943Y-47538894D01*
X101949764Y-47539313D01*
X101946801Y-47540539D01*
X101946798Y-47540541D01*
X101812733Y-47596073D01*
X101812730Y-47596074D01*
X101809767Y-47597302D01*
X101807220Y-47599255D01*
X101807217Y-47599258D01*
X101692097Y-47687593D01*
X101692093Y-47687596D01*
X101689549Y-47689549D01*
X101687596Y-47692093D01*
X101687593Y-47692097D01*
X101599258Y-47807217D01*
X101599255Y-47807220D01*
X101597302Y-47809767D01*
X101596074Y-47812730D01*
X101596073Y-47812733D01*
X101540541Y-47946798D01*
X101540539Y-47946801D01*
X101539313Y-47949764D01*
X101538894Y-47952943D01*
X101538894Y-47952945D01*
X101529493Y-48024356D01*
X101519534Y-48100000D01*
X92500500Y-48100000D01*
X92500500Y-46400000D01*
X108519534Y-46400000D01*
X108539313Y-46550236D01*
X108540540Y-46553199D01*
X108540541Y-46553201D01*
X108579792Y-46647960D01*
X108597302Y-46690233D01*
X108599258Y-46692782D01*
X108659387Y-46771144D01*
X108689549Y-46810451D01*
X108809767Y-46902698D01*
X108949764Y-46960687D01*
X109100000Y-46980466D01*
X109250236Y-46960687D01*
X109390233Y-46902698D01*
X109510451Y-46810451D01*
X109602698Y-46690233D01*
X109640074Y-46600000D01*
X121119534Y-46600000D01*
X121119953Y-46603183D01*
X121126183Y-46650508D01*
X121139313Y-46750236D01*
X121140540Y-46753199D01*
X121140541Y-46753201D01*
X121159926Y-46800000D01*
X121197302Y-46890233D01*
X121289549Y-47010451D01*
X121409767Y-47102698D01*
X121549764Y-47160687D01*
X121700000Y-47180466D01*
X121850236Y-47160687D01*
X121990233Y-47102698D01*
X122110451Y-47010451D01*
X122202698Y-46890233D01*
X122260687Y-46750236D01*
X122280466Y-46600000D01*
X122260687Y-46449764D01*
X122202698Y-46309767D01*
X122110451Y-46189549D01*
X121990233Y-46097302D01*
X121850236Y-46039313D01*
X121847054Y-46038894D01*
X121703183Y-46019953D01*
X121700000Y-46019534D01*
X121696817Y-46019953D01*
X121552945Y-46038894D01*
X121552943Y-46038894D01*
X121549764Y-46039313D01*
X121546801Y-46040539D01*
X121546798Y-46040541D01*
X121412733Y-46096073D01*
X121412730Y-46096074D01*
X121409767Y-46097302D01*
X121407220Y-46099255D01*
X121407217Y-46099258D01*
X121292097Y-46187593D01*
X121292093Y-46187596D01*
X121289549Y-46189549D01*
X121287596Y-46192093D01*
X121287593Y-46192097D01*
X121199258Y-46307217D01*
X121199255Y-46307220D01*
X121197302Y-46309767D01*
X121196074Y-46312730D01*
X121196073Y-46312733D01*
X121140541Y-46446798D01*
X121140539Y-46446801D01*
X121139313Y-46449764D01*
X121138894Y-46452943D01*
X121138894Y-46452945D01*
X121125107Y-46557669D01*
X121119534Y-46600000D01*
X109640074Y-46600000D01*
X109660687Y-46550236D01*
X109680466Y-46400000D01*
X109660687Y-46249764D01*
X109602698Y-46109767D01*
X109510451Y-45989549D01*
X109390233Y-45897302D01*
X109339513Y-45876293D01*
X109253201Y-45840541D01*
X109253199Y-45840540D01*
X109250236Y-45839313D01*
X109247054Y-45838894D01*
X109103183Y-45819953D01*
X109100000Y-45819534D01*
X109096817Y-45819953D01*
X108952945Y-45838894D01*
X108952943Y-45838894D01*
X108949764Y-45839313D01*
X108946801Y-45840539D01*
X108946798Y-45840541D01*
X108812733Y-45896073D01*
X108812730Y-45896074D01*
X108809767Y-45897302D01*
X108807220Y-45899255D01*
X108807217Y-45899258D01*
X108692097Y-45987593D01*
X108692093Y-45987596D01*
X108689549Y-45989549D01*
X108687596Y-45992093D01*
X108687593Y-45992097D01*
X108599258Y-46107217D01*
X108599255Y-46107220D01*
X108597302Y-46109767D01*
X108596074Y-46112730D01*
X108596073Y-46112733D01*
X108540541Y-46246798D01*
X108540539Y-46246801D01*
X108539313Y-46249764D01*
X108538894Y-46252943D01*
X108538894Y-46252945D01*
X108533216Y-46296073D01*
X108519534Y-46400000D01*
X92500500Y-46400000D01*
X92500500Y-45372367D01*
X107347167Y-45372367D01*
X107347586Y-45375550D01*
X107363872Y-45499258D01*
X107366946Y-45522603D01*
X107368173Y-45525566D01*
X107368174Y-45525568D01*
X107423706Y-45659633D01*
X107424935Y-45662600D01*
X107517182Y-45782818D01*
X107637400Y-45875065D01*
X107777397Y-45933054D01*
X107927633Y-45952833D01*
X108077869Y-45933054D01*
X108217866Y-45875065D01*
X108338084Y-45782818D01*
X108430331Y-45662600D01*
X108488320Y-45522603D01*
X108508099Y-45372367D01*
X108488320Y-45222131D01*
X108430331Y-45082134D01*
X108338084Y-44961916D01*
X108217866Y-44869669D01*
X108077869Y-44811680D01*
X108074687Y-44811261D01*
X107930816Y-44792320D01*
X107927633Y-44791901D01*
X107924450Y-44792320D01*
X107780578Y-44811261D01*
X107780576Y-44811261D01*
X107777397Y-44811680D01*
X107774434Y-44812906D01*
X107774431Y-44812908D01*
X107640366Y-44868440D01*
X107640363Y-44868441D01*
X107637400Y-44869669D01*
X107634853Y-44871622D01*
X107634850Y-44871625D01*
X107519730Y-44959960D01*
X107519726Y-44959963D01*
X107517182Y-44961916D01*
X107515229Y-44964460D01*
X107515226Y-44964464D01*
X107426891Y-45079584D01*
X107426888Y-45079587D01*
X107424935Y-45082134D01*
X107423707Y-45085097D01*
X107423706Y-45085100D01*
X107368174Y-45219165D01*
X107368172Y-45219168D01*
X107366946Y-45222131D01*
X107347167Y-45372367D01*
X92500500Y-45372367D01*
X92500500Y-44300000D01*
X111919534Y-44300000D01*
X111939313Y-44450236D01*
X111997302Y-44590233D01*
X112089549Y-44710451D01*
X112209767Y-44802698D01*
X112349764Y-44860687D01*
X112500000Y-44880466D01*
X112650236Y-44860687D01*
X112790233Y-44802698D01*
X112910451Y-44710451D01*
X113002698Y-44590233D01*
X113060687Y-44450236D01*
X113080466Y-44300000D01*
X113060687Y-44149764D01*
X113002698Y-44009767D01*
X112910451Y-43889549D01*
X112790233Y-43797302D01*
X112727751Y-43771421D01*
X112653201Y-43740541D01*
X112653199Y-43740540D01*
X112650236Y-43739313D01*
X112647054Y-43738894D01*
X112503183Y-43719953D01*
X112500000Y-43719534D01*
X112496817Y-43719953D01*
X112352945Y-43738894D01*
X112352943Y-43738894D01*
X112349764Y-43739313D01*
X112346801Y-43740539D01*
X112346798Y-43740541D01*
X112212733Y-43796073D01*
X112212730Y-43796074D01*
X112209767Y-43797302D01*
X112207220Y-43799255D01*
X112207217Y-43799258D01*
X112092097Y-43887593D01*
X112092093Y-43887596D01*
X112089549Y-43889549D01*
X112087596Y-43892093D01*
X112087593Y-43892097D01*
X111999258Y-44007217D01*
X111999255Y-44007220D01*
X111997302Y-44009767D01*
X111996074Y-44012730D01*
X111996073Y-44012733D01*
X111940541Y-44146798D01*
X111940539Y-44146801D01*
X111939313Y-44149764D01*
X111919534Y-44300000D01*
X92500500Y-44300000D01*
X92500500Y-43621185D01*
X106719534Y-43621185D01*
X106719953Y-43624368D01*
X106735247Y-43740541D01*
X106739313Y-43771421D01*
X106740540Y-43774384D01*
X106740541Y-43774386D01*
X106789299Y-43892097D01*
X106797302Y-43911418D01*
X106799258Y-43913967D01*
X106870811Y-44007217D01*
X106889549Y-44031636D01*
X107009767Y-44123883D01*
X107149764Y-44181872D01*
X107300000Y-44201651D01*
X107450236Y-44181872D01*
X107590233Y-44123883D01*
X107710451Y-44031636D01*
X107802698Y-43911418D01*
X107860687Y-43771421D01*
X107880466Y-43621185D01*
X107860687Y-43470949D01*
X107831299Y-43400000D01*
X113819534Y-43400000D01*
X113839313Y-43550236D01*
X113897302Y-43690233D01*
X113989549Y-43810451D01*
X114109767Y-43902698D01*
X114249764Y-43960687D01*
X114400000Y-43980466D01*
X114550236Y-43960687D01*
X114690233Y-43902698D01*
X114810451Y-43810451D01*
X114902698Y-43690233D01*
X114960687Y-43550236D01*
X114980466Y-43400000D01*
X114975200Y-43360000D01*
X117689534Y-43360000D01*
X117689953Y-43363183D01*
X117704559Y-43474130D01*
X117709313Y-43510236D01*
X117710540Y-43513199D01*
X117710541Y-43513201D01*
X117725882Y-43550236D01*
X117767302Y-43650233D01*
X117859549Y-43770451D01*
X117979767Y-43862698D01*
X118119764Y-43920687D01*
X118270000Y-43940466D01*
X118420236Y-43920687D01*
X118560233Y-43862698D01*
X118680451Y-43770451D01*
X118772698Y-43650233D01*
X118830687Y-43510236D01*
X118845200Y-43400000D01*
X124919534Y-43400000D01*
X124939313Y-43550236D01*
X124997302Y-43690233D01*
X125089549Y-43810451D01*
X125209767Y-43902698D01*
X125349764Y-43960687D01*
X125500000Y-43980466D01*
X125650236Y-43960687D01*
X125790233Y-43902698D01*
X125910451Y-43810451D01*
X126002698Y-43690233D01*
X126060687Y-43550236D01*
X126080466Y-43400000D01*
X139419534Y-43400000D01*
X139439313Y-43550236D01*
X139497302Y-43690233D01*
X139589549Y-43810451D01*
X139709767Y-43902698D01*
X139849764Y-43960687D01*
X140000000Y-43980466D01*
X140150236Y-43960687D01*
X140290233Y-43902698D01*
X140410451Y-43810451D01*
X140502698Y-43690233D01*
X140560687Y-43550236D01*
X140580466Y-43400000D01*
X140560687Y-43249764D01*
X140502698Y-43109767D01*
X140410451Y-42989549D01*
X140290233Y-42897302D01*
X140150236Y-42839313D01*
X140147054Y-42838894D01*
X140003183Y-42819953D01*
X140000000Y-42819534D01*
X139996817Y-42819953D01*
X139852945Y-42838894D01*
X139852943Y-42838894D01*
X139849764Y-42839313D01*
X139846801Y-42840539D01*
X139846798Y-42840541D01*
X139712733Y-42896073D01*
X139712730Y-42896074D01*
X139709767Y-42897302D01*
X139707220Y-42899255D01*
X139707217Y-42899258D01*
X139592097Y-42987593D01*
X139592093Y-42987596D01*
X139589549Y-42989549D01*
X139587596Y-42992093D01*
X139587593Y-42992097D01*
X139499258Y-43107217D01*
X139499255Y-43107220D01*
X139497302Y-43109767D01*
X139496074Y-43112730D01*
X139496073Y-43112733D01*
X139440541Y-43246798D01*
X139440539Y-43246801D01*
X139439313Y-43249764D01*
X139419534Y-43400000D01*
X126080466Y-43400000D01*
X126060687Y-43249764D01*
X126002698Y-43109767D01*
X125910451Y-42989549D01*
X125790233Y-42897302D01*
X125650236Y-42839313D01*
X125647054Y-42838894D01*
X125503183Y-42819953D01*
X125500000Y-42819534D01*
X125496817Y-42819953D01*
X125352945Y-42838894D01*
X125352943Y-42838894D01*
X125349764Y-42839313D01*
X125346801Y-42840539D01*
X125346798Y-42840541D01*
X125212733Y-42896073D01*
X125212730Y-42896074D01*
X125209767Y-42897302D01*
X125207220Y-42899255D01*
X125207217Y-42899258D01*
X125092097Y-42987593D01*
X125092093Y-42987596D01*
X125089549Y-42989549D01*
X125087596Y-42992093D01*
X125087593Y-42992097D01*
X124999258Y-43107217D01*
X124999255Y-43107220D01*
X124997302Y-43109767D01*
X124996074Y-43112730D01*
X124996073Y-43112733D01*
X124940541Y-43246798D01*
X124940539Y-43246801D01*
X124939313Y-43249764D01*
X124919534Y-43400000D01*
X118845200Y-43400000D01*
X118850466Y-43360000D01*
X118830687Y-43209764D01*
X118772698Y-43069767D01*
X118680451Y-42949549D01*
X118560233Y-42857302D01*
X118516804Y-42839313D01*
X118423201Y-42800541D01*
X118423199Y-42800540D01*
X118420236Y-42799313D01*
X118417054Y-42798894D01*
X118273183Y-42779953D01*
X118270000Y-42779534D01*
X118266817Y-42779953D01*
X118122945Y-42798894D01*
X118122943Y-42798894D01*
X118119764Y-42799313D01*
X118116801Y-42800539D01*
X118116798Y-42800541D01*
X117982733Y-42856073D01*
X117982730Y-42856074D01*
X117979767Y-42857302D01*
X117977220Y-42859255D01*
X117977217Y-42859258D01*
X117862097Y-42947593D01*
X117862093Y-42947596D01*
X117859549Y-42949549D01*
X117857596Y-42952093D01*
X117857593Y-42952097D01*
X117769258Y-43067217D01*
X117769255Y-43067220D01*
X117767302Y-43069767D01*
X117766074Y-43072730D01*
X117766073Y-43072733D01*
X117710541Y-43206798D01*
X117710539Y-43206801D01*
X117709313Y-43209764D01*
X117689534Y-43360000D01*
X114975200Y-43360000D01*
X114960687Y-43249764D01*
X114902698Y-43109767D01*
X114810451Y-42989549D01*
X114690233Y-42897302D01*
X114550236Y-42839313D01*
X114547054Y-42838894D01*
X114403183Y-42819953D01*
X114400000Y-42819534D01*
X114396817Y-42819953D01*
X114252945Y-42838894D01*
X114252943Y-42838894D01*
X114249764Y-42839313D01*
X114246801Y-42840539D01*
X114246798Y-42840541D01*
X114112733Y-42896073D01*
X114112730Y-42896074D01*
X114109767Y-42897302D01*
X114107220Y-42899255D01*
X114107217Y-42899258D01*
X113992097Y-42987593D01*
X113992093Y-42987596D01*
X113989549Y-42989549D01*
X113987596Y-42992093D01*
X113987593Y-42992097D01*
X113899258Y-43107217D01*
X113899255Y-43107220D01*
X113897302Y-43109767D01*
X113896074Y-43112730D01*
X113896073Y-43112733D01*
X113840541Y-43246798D01*
X113840539Y-43246801D01*
X113839313Y-43249764D01*
X113819534Y-43400000D01*
X107831299Y-43400000D01*
X107802698Y-43330952D01*
X107710451Y-43210734D01*
X107590233Y-43118487D01*
X107479774Y-43072733D01*
X107453201Y-43061726D01*
X107453199Y-43061725D01*
X107450236Y-43060498D01*
X107447054Y-43060079D01*
X107303183Y-43041138D01*
X107300000Y-43040719D01*
X107296817Y-43041138D01*
X107152945Y-43060079D01*
X107152943Y-43060079D01*
X107149764Y-43060498D01*
X107146801Y-43061724D01*
X107146798Y-43061726D01*
X107012733Y-43117258D01*
X107012730Y-43117259D01*
X107009767Y-43118487D01*
X107007220Y-43120440D01*
X107007217Y-43120443D01*
X106892097Y-43208778D01*
X106892093Y-43208781D01*
X106889549Y-43210734D01*
X106887596Y-43213278D01*
X106887593Y-43213282D01*
X106799258Y-43328402D01*
X106799255Y-43328405D01*
X106797302Y-43330952D01*
X106796074Y-43333915D01*
X106796073Y-43333918D01*
X106740541Y-43467983D01*
X106740539Y-43467986D01*
X106739313Y-43470949D01*
X106738894Y-43474128D01*
X106738894Y-43474130D01*
X106728875Y-43550236D01*
X106719534Y-43621185D01*
X92500500Y-43621185D01*
X92500500Y-39001203D01*
X92500530Y-39000000D01*
X92819542Y-39000000D01*
X92819614Y-39001328D01*
X92832936Y-39247054D01*
X92839358Y-39365492D01*
X92839572Y-39366802D01*
X92839573Y-39366804D01*
X92898357Y-39725375D01*
X92898360Y-39725391D01*
X92898575Y-39726699D01*
X92898931Y-39727984D01*
X92898932Y-39727985D01*
X92996144Y-40078112D01*
X92996147Y-40078121D01*
X92996498Y-40079385D01*
X93131979Y-40419417D01*
X93172619Y-40496073D01*
X93285912Y-40709767D01*
X93303430Y-40742808D01*
X93304172Y-40743902D01*
X93304176Y-40743909D01*
X93504018Y-41038653D01*
X93508841Y-41045766D01*
X93509701Y-41046778D01*
X93509706Y-41046785D01*
X93731502Y-41307903D01*
X93745803Y-41324739D01*
X93746758Y-41325643D01*
X93746765Y-41325651D01*
X93892485Y-41463684D01*
X94011538Y-41576457D01*
X94302931Y-41797968D01*
X94616565Y-41986675D01*
X94948764Y-42140367D01*
X95295632Y-42257240D01*
X95653103Y-42335926D01*
X96016986Y-42375500D01*
X96381692Y-42375500D01*
X96383014Y-42375500D01*
X96746897Y-42335926D01*
X97104368Y-42257240D01*
X97451236Y-42140367D01*
X97783435Y-41986675D01*
X97927490Y-41900000D01*
X101619534Y-41900000D01*
X101639313Y-42050236D01*
X101697302Y-42190233D01*
X101789549Y-42310451D01*
X101909767Y-42402698D01*
X102049764Y-42460687D01*
X102200000Y-42480466D01*
X102350236Y-42460687D01*
X102490233Y-42402698D01*
X102610451Y-42310451D01*
X102702698Y-42190233D01*
X102760687Y-42050236D01*
X102780466Y-41900000D01*
X103595034Y-41900000D01*
X103614813Y-42050236D01*
X103672802Y-42190233D01*
X103765049Y-42310451D01*
X103885267Y-42402698D01*
X104025264Y-42460687D01*
X104175500Y-42480466D01*
X104325736Y-42460687D01*
X104465733Y-42402698D01*
X104585951Y-42310451D01*
X104678198Y-42190233D01*
X104736187Y-42050236D01*
X104755966Y-41900000D01*
X104742801Y-41800000D01*
X113819534Y-41800000D01*
X113819953Y-41803183D01*
X113829970Y-41879273D01*
X113839313Y-41950236D01*
X113840540Y-41953199D01*
X113840541Y-41953201D01*
X113870830Y-42026325D01*
X113897302Y-42090233D01*
X113989549Y-42210451D01*
X114109767Y-42302698D01*
X114249764Y-42360687D01*
X114400000Y-42380466D01*
X114550236Y-42360687D01*
X114690233Y-42302698D01*
X114810451Y-42210451D01*
X114902698Y-42090233D01*
X114960687Y-41950236D01*
X114980466Y-41800000D01*
X114960687Y-41649764D01*
X114902698Y-41509767D01*
X114869779Y-41466867D01*
X122371896Y-41466867D01*
X122372315Y-41470050D01*
X122389778Y-41602698D01*
X122391675Y-41617103D01*
X122449664Y-41757100D01*
X122541911Y-41877318D01*
X122662129Y-41969565D01*
X122802126Y-42027554D01*
X122952362Y-42047333D01*
X123102598Y-42027554D01*
X123242595Y-41969565D01*
X123362813Y-41877318D01*
X123455060Y-41757100D01*
X123513049Y-41617103D01*
X123532828Y-41466867D01*
X123513049Y-41316631D01*
X123455060Y-41176634D01*
X123362813Y-41056416D01*
X123242595Y-40964169D01*
X123215498Y-40952945D01*
X123105563Y-40907408D01*
X123105561Y-40907407D01*
X123102598Y-40906180D01*
X123099416Y-40905761D01*
X122955545Y-40886820D01*
X122952362Y-40886401D01*
X122949179Y-40886820D01*
X122805307Y-40905761D01*
X122805305Y-40905761D01*
X122802126Y-40906180D01*
X122799163Y-40907406D01*
X122799160Y-40907408D01*
X122665095Y-40962940D01*
X122665092Y-40962941D01*
X122662129Y-40964169D01*
X122659582Y-40966122D01*
X122659579Y-40966125D01*
X122544459Y-41054460D01*
X122544455Y-41054463D01*
X122541911Y-41056416D01*
X122539958Y-41058960D01*
X122539955Y-41058964D01*
X122451620Y-41174084D01*
X122451617Y-41174087D01*
X122449664Y-41176634D01*
X122448436Y-41179597D01*
X122448435Y-41179600D01*
X122392903Y-41313665D01*
X122392901Y-41313668D01*
X122391675Y-41316631D01*
X122391256Y-41319810D01*
X122391256Y-41319812D01*
X122381216Y-41396073D01*
X122371896Y-41466867D01*
X114869779Y-41466867D01*
X114810451Y-41389549D01*
X114807902Y-41387593D01*
X114805632Y-41385323D01*
X114806487Y-41384467D01*
X114792669Y-41364737D01*
X114792669Y-41335263D01*
X114806487Y-41315532D01*
X114805632Y-41314677D01*
X114807900Y-41312407D01*
X114810451Y-41310451D01*
X114902698Y-41190233D01*
X114960687Y-41050236D01*
X114980466Y-40900000D01*
X114960687Y-40749764D01*
X114902698Y-40609767D01*
X114810451Y-40489549D01*
X114807902Y-40487593D01*
X114805632Y-40485323D01*
X114806483Y-40484471D01*
X114801641Y-40477548D01*
X123691326Y-40477548D01*
X123691745Y-40480729D01*
X123691745Y-40480731D01*
X123699457Y-40539313D01*
X123711105Y-40627784D01*
X123712332Y-40630747D01*
X123712333Y-40630749D01*
X123761631Y-40749764D01*
X123769094Y-40767781D01*
X123861341Y-40887999D01*
X123981559Y-40980246D01*
X124121556Y-41038235D01*
X124271792Y-41058014D01*
X124419217Y-41038605D01*
X124448238Y-41043722D01*
X124469076Y-41064560D01*
X124474194Y-41093581D01*
X124473349Y-41100000D01*
X124493128Y-41250236D01*
X124494355Y-41253199D01*
X124494356Y-41253201D01*
X124530025Y-41339313D01*
X124551117Y-41390233D01*
X124643364Y-41510451D01*
X124763582Y-41602698D01*
X124903579Y-41660687D01*
X125053815Y-41680466D01*
X125204051Y-41660687D01*
X125344048Y-41602698D01*
X125464266Y-41510451D01*
X125556513Y-41390233D01*
X125614502Y-41250236D01*
X125634281Y-41100000D01*
X125614502Y-40949764D01*
X125556513Y-40809767D01*
X125464266Y-40689549D01*
X125344048Y-40597302D01*
X125204051Y-40539313D01*
X125200869Y-40538894D01*
X125056998Y-40519953D01*
X125053815Y-40519534D01*
X125050632Y-40519953D01*
X124906390Y-40538942D01*
X124877368Y-40533824D01*
X124856530Y-40512986D01*
X124851413Y-40483964D01*
X124851839Y-40480729D01*
X124852258Y-40477548D01*
X124832479Y-40327312D01*
X124774490Y-40187315D01*
X124682243Y-40067097D01*
X124562025Y-39974850D01*
X124422028Y-39916861D01*
X124418846Y-39916442D01*
X124274975Y-39897501D01*
X124271792Y-39897082D01*
X124268609Y-39897501D01*
X124124737Y-39916442D01*
X124124735Y-39916442D01*
X124121556Y-39916861D01*
X124118593Y-39918087D01*
X124118590Y-39918089D01*
X123984525Y-39973621D01*
X123984522Y-39973622D01*
X123981559Y-39974850D01*
X123979012Y-39976803D01*
X123979009Y-39976806D01*
X123863889Y-40065141D01*
X123863885Y-40065144D01*
X123861341Y-40067097D01*
X123859388Y-40069641D01*
X123859385Y-40069645D01*
X123771050Y-40184765D01*
X123771047Y-40184768D01*
X123769094Y-40187315D01*
X123767866Y-40190278D01*
X123767865Y-40190281D01*
X123712333Y-40324346D01*
X123712331Y-40324349D01*
X123711105Y-40327312D01*
X123710686Y-40330491D01*
X123710686Y-40330493D01*
X123696895Y-40435245D01*
X123691326Y-40477548D01*
X114801641Y-40477548D01*
X114792658Y-40464703D01*
X114792679Y-40435228D01*
X114806491Y-40415536D01*
X114805632Y-40414677D01*
X114807900Y-40412407D01*
X114810451Y-40410451D01*
X114902698Y-40290233D01*
X114960687Y-40150236D01*
X114980466Y-40000000D01*
X114960687Y-39849764D01*
X114902698Y-39709767D01*
X114810451Y-39589549D01*
X114807902Y-39587593D01*
X114805632Y-39585323D01*
X114806483Y-39584471D01*
X114792658Y-39564703D01*
X114792679Y-39535228D01*
X114806491Y-39515536D01*
X114805632Y-39514677D01*
X114807900Y-39512407D01*
X114810451Y-39510451D01*
X114902698Y-39390233D01*
X114960687Y-39250236D01*
X114980466Y-39100000D01*
X114967301Y-39000000D01*
X135619542Y-39000000D01*
X135619614Y-39001328D01*
X135632936Y-39247054D01*
X135639358Y-39365492D01*
X135639572Y-39366802D01*
X135639573Y-39366804D01*
X135698357Y-39725375D01*
X135698360Y-39725391D01*
X135698575Y-39726699D01*
X135698931Y-39727984D01*
X135698932Y-39727985D01*
X135796144Y-40078112D01*
X135796147Y-40078121D01*
X135796498Y-40079385D01*
X135931979Y-40419417D01*
X135972619Y-40496073D01*
X136085912Y-40709767D01*
X136103430Y-40742808D01*
X136104172Y-40743902D01*
X136104176Y-40743909D01*
X136304018Y-41038653D01*
X136308841Y-41045766D01*
X136309701Y-41046778D01*
X136309706Y-41046785D01*
X136531502Y-41307903D01*
X136545803Y-41324739D01*
X136546758Y-41325643D01*
X136546765Y-41325651D01*
X136692485Y-41463684D01*
X136811538Y-41576457D01*
X137102931Y-41797968D01*
X137416565Y-41986675D01*
X137748764Y-42140367D01*
X138095632Y-42257240D01*
X138453103Y-42335926D01*
X138816986Y-42375500D01*
X139181692Y-42375500D01*
X139183014Y-42375500D01*
X139546897Y-42335926D01*
X139904368Y-42257240D01*
X140251236Y-42140367D01*
X140583435Y-41986675D01*
X140897069Y-41797968D01*
X141188462Y-41576457D01*
X141454197Y-41324739D01*
X141691159Y-41045766D01*
X141896570Y-40742808D01*
X142068021Y-40419417D01*
X142203502Y-40079385D01*
X142301425Y-39726699D01*
X142360642Y-39365492D01*
X142380458Y-39000000D01*
X142360642Y-38634508D01*
X142305924Y-38300741D01*
X142301642Y-38274624D01*
X142301641Y-38274622D01*
X142301425Y-38273301D01*
X142203502Y-37920615D01*
X142068021Y-37580583D01*
X141896570Y-37257192D01*
X141863150Y-37207902D01*
X141691909Y-36955340D01*
X141691907Y-36955338D01*
X141691159Y-36954234D01*
X141685060Y-36947054D01*
X141455054Y-36676270D01*
X141454197Y-36675261D01*
X141453241Y-36674355D01*
X141453234Y-36674348D01*
X141189418Y-36424449D01*
X141188462Y-36423543D01*
X140897069Y-36202032D01*
X140880557Y-36192097D01*
X140584579Y-36014013D01*
X140584574Y-36014010D01*
X140583435Y-36013325D01*
X140582226Y-36012766D01*
X140582223Y-36012764D01*
X140252450Y-35860194D01*
X140252439Y-35860189D01*
X140251236Y-35859633D01*
X140069580Y-35798426D01*
X139905630Y-35743185D01*
X139905626Y-35743183D01*
X139904368Y-35742760D01*
X139903075Y-35742475D01*
X139903063Y-35742472D01*
X139548204Y-35664361D01*
X139548191Y-35664358D01*
X139546897Y-35664074D01*
X139545585Y-35663931D01*
X139545571Y-35663929D01*
X139184325Y-35624642D01*
X139184314Y-35624641D01*
X139183014Y-35624500D01*
X138816986Y-35624500D01*
X138815686Y-35624641D01*
X138815674Y-35624642D01*
X138454428Y-35663929D01*
X138454411Y-35663931D01*
X138453103Y-35664074D01*
X138451811Y-35664358D01*
X138451795Y-35664361D01*
X138096936Y-35742472D01*
X138096919Y-35742476D01*
X138095632Y-35742760D01*
X138094378Y-35743182D01*
X138094369Y-35743185D01*
X137750031Y-35859206D01*
X137748764Y-35859633D01*
X137747566Y-35860187D01*
X137747549Y-35860194D01*
X137417776Y-36012764D01*
X137417765Y-36012769D01*
X137416565Y-36013325D01*
X137415432Y-36014006D01*
X137415420Y-36014013D01*
X137104063Y-36201350D01*
X137104051Y-36201358D01*
X137102931Y-36202032D01*
X137101895Y-36202819D01*
X137101884Y-36202827D01*
X136838321Y-36403183D01*
X136811538Y-36423543D01*
X136810586Y-36424444D01*
X136810581Y-36424449D01*
X136546765Y-36674348D01*
X136546748Y-36674364D01*
X136545803Y-36675261D01*
X136544954Y-36676260D01*
X136544945Y-36676270D01*
X136309706Y-36953214D01*
X136309694Y-36953229D01*
X136308841Y-36954234D01*
X136308100Y-36955326D01*
X136308090Y-36955340D01*
X136104176Y-37256090D01*
X136104166Y-37256105D01*
X136103430Y-37257192D01*
X136102813Y-37258355D01*
X136102805Y-37258369D01*
X135932600Y-37579411D01*
X135931979Y-37580583D01*
X135931491Y-37581806D01*
X135931489Y-37581812D01*
X135804952Y-37899398D01*
X135796498Y-37920615D01*
X135796148Y-37921873D01*
X135796144Y-37921887D01*
X135720017Y-38196073D01*
X135698575Y-38273301D01*
X135698361Y-38274604D01*
X135698357Y-38274624D01*
X135645137Y-38599258D01*
X135639358Y-38634508D01*
X135639286Y-38635826D01*
X135639286Y-38635831D01*
X135630071Y-38805799D01*
X135619542Y-39000000D01*
X114967301Y-39000000D01*
X114960687Y-38949764D01*
X114902698Y-38809767D01*
X114810451Y-38689549D01*
X114690233Y-38597302D01*
X114687266Y-38596073D01*
X114553201Y-38540541D01*
X114553199Y-38540540D01*
X114550236Y-38539313D01*
X114547054Y-38538894D01*
X114403183Y-38519953D01*
X114400000Y-38519534D01*
X114396817Y-38519953D01*
X114252945Y-38538894D01*
X114252943Y-38538894D01*
X114249764Y-38539313D01*
X114246801Y-38540539D01*
X114246798Y-38540541D01*
X114112733Y-38596073D01*
X114112730Y-38596074D01*
X114109767Y-38597302D01*
X114107220Y-38599255D01*
X114107217Y-38599258D01*
X113992097Y-38687593D01*
X113992093Y-38687596D01*
X113989549Y-38689549D01*
X113987596Y-38692093D01*
X113987593Y-38692097D01*
X113899258Y-38807217D01*
X113899255Y-38807220D01*
X113897302Y-38809767D01*
X113896074Y-38812730D01*
X113896073Y-38812733D01*
X113840541Y-38946798D01*
X113840539Y-38946801D01*
X113839313Y-38949764D01*
X113838894Y-38952943D01*
X113838894Y-38952945D01*
X113832874Y-38998672D01*
X113819534Y-39100000D01*
X113839313Y-39250236D01*
X113897302Y-39390233D01*
X113989549Y-39510451D01*
X113992094Y-39512404D01*
X113994369Y-39514679D01*
X113993517Y-39515530D01*
X114007332Y-39535271D01*
X114007332Y-39564729D01*
X113993517Y-39584469D01*
X113994369Y-39585321D01*
X113992093Y-39587596D01*
X113989549Y-39589549D01*
X113987596Y-39592093D01*
X113987594Y-39592096D01*
X113899258Y-39707217D01*
X113899255Y-39707220D01*
X113897302Y-39709767D01*
X113896074Y-39712730D01*
X113896073Y-39712733D01*
X113840541Y-39846798D01*
X113840539Y-39846801D01*
X113839313Y-39849764D01*
X113838894Y-39852943D01*
X113838894Y-39852945D01*
X113819953Y-39996817D01*
X113819534Y-40000000D01*
X113819953Y-40003183D01*
X113830146Y-40080610D01*
X113839313Y-40150236D01*
X113897302Y-40290233D01*
X113989549Y-40410451D01*
X113992097Y-40412406D01*
X113994368Y-40414677D01*
X113993511Y-40415533D01*
X114007325Y-40435245D01*
X114007338Y-40464711D01*
X113993517Y-40484469D01*
X113994369Y-40485321D01*
X113992093Y-40487596D01*
X113989549Y-40489549D01*
X113987596Y-40492093D01*
X113987594Y-40492096D01*
X113899258Y-40607217D01*
X113899255Y-40607220D01*
X113897302Y-40609767D01*
X113896074Y-40612730D01*
X113896073Y-40612733D01*
X113840541Y-40746798D01*
X113840539Y-40746801D01*
X113839313Y-40749764D01*
X113838894Y-40752943D01*
X113838894Y-40752945D01*
X113821324Y-40886401D01*
X113819534Y-40900000D01*
X113819953Y-40903183D01*
X113838724Y-41045766D01*
X113839313Y-41050236D01*
X113840540Y-41053199D01*
X113840541Y-41053201D01*
X113859926Y-41100000D01*
X113897302Y-41190233D01*
X113989549Y-41310451D01*
X113992094Y-41312404D01*
X113994369Y-41314679D01*
X113993517Y-41315530D01*
X114007332Y-41335271D01*
X114007332Y-41364729D01*
X113993517Y-41384469D01*
X113994369Y-41385321D01*
X113992093Y-41387596D01*
X113989549Y-41389549D01*
X113987596Y-41392093D01*
X113987594Y-41392096D01*
X113899258Y-41507217D01*
X113899255Y-41507220D01*
X113897302Y-41509767D01*
X113896074Y-41512730D01*
X113896073Y-41512733D01*
X113840541Y-41646798D01*
X113840539Y-41646801D01*
X113839313Y-41649764D01*
X113838894Y-41652943D01*
X113838894Y-41652945D01*
X113825182Y-41757100D01*
X113819534Y-41800000D01*
X104742801Y-41800000D01*
X104736187Y-41749764D01*
X104678198Y-41609767D01*
X104585951Y-41489549D01*
X104465733Y-41397302D01*
X104436813Y-41385323D01*
X104328701Y-41340541D01*
X104328699Y-41340540D01*
X104325736Y-41339313D01*
X104322554Y-41338894D01*
X104178683Y-41319953D01*
X104175500Y-41319534D01*
X104172317Y-41319953D01*
X104028445Y-41338894D01*
X104028443Y-41338894D01*
X104025264Y-41339313D01*
X104022301Y-41340539D01*
X104022298Y-41340541D01*
X103888233Y-41396073D01*
X103888230Y-41396074D01*
X103885267Y-41397302D01*
X103882720Y-41399255D01*
X103882717Y-41399258D01*
X103767597Y-41487593D01*
X103767593Y-41487596D01*
X103765049Y-41489549D01*
X103763096Y-41492093D01*
X103763093Y-41492097D01*
X103674758Y-41607217D01*
X103674755Y-41607220D01*
X103672802Y-41609767D01*
X103671574Y-41612730D01*
X103671573Y-41612733D01*
X103616041Y-41746798D01*
X103616039Y-41746801D01*
X103614813Y-41749764D01*
X103614394Y-41752943D01*
X103614394Y-41752945D01*
X103608467Y-41797968D01*
X103595034Y-41900000D01*
X102780466Y-41900000D01*
X102760687Y-41749764D01*
X102702698Y-41609767D01*
X102610451Y-41489549D01*
X102490233Y-41397302D01*
X102461313Y-41385323D01*
X102353201Y-41340541D01*
X102353199Y-41340540D01*
X102350236Y-41339313D01*
X102347054Y-41338894D01*
X102203183Y-41319953D01*
X102200000Y-41319534D01*
X102196817Y-41319953D01*
X102052945Y-41338894D01*
X102052943Y-41338894D01*
X102049764Y-41339313D01*
X102046801Y-41340539D01*
X102046798Y-41340541D01*
X101912733Y-41396073D01*
X101912730Y-41396074D01*
X101909767Y-41397302D01*
X101907220Y-41399255D01*
X101907217Y-41399258D01*
X101792097Y-41487593D01*
X101792093Y-41487596D01*
X101789549Y-41489549D01*
X101787596Y-41492093D01*
X101787593Y-41492097D01*
X101699258Y-41607217D01*
X101699255Y-41607220D01*
X101697302Y-41609767D01*
X101696074Y-41612730D01*
X101696073Y-41612733D01*
X101640541Y-41746798D01*
X101640539Y-41746801D01*
X101639313Y-41749764D01*
X101638894Y-41752943D01*
X101638894Y-41752945D01*
X101632967Y-41797968D01*
X101619534Y-41900000D01*
X97927490Y-41900000D01*
X98097069Y-41797968D01*
X98388462Y-41576457D01*
X98654197Y-41324739D01*
X98891159Y-41045766D01*
X98922189Y-41000000D01*
X105819534Y-41000000D01*
X105819953Y-41003183D01*
X105828033Y-41064560D01*
X105839313Y-41150236D01*
X105897302Y-41290233D01*
X105899258Y-41292782D01*
X105970267Y-41385323D01*
X105989549Y-41410451D01*
X106109767Y-41502698D01*
X106249764Y-41560687D01*
X106400000Y-41580466D01*
X106550236Y-41560687D01*
X106690233Y-41502698D01*
X106810451Y-41410451D01*
X106902698Y-41290233D01*
X106960687Y-41150236D01*
X106980466Y-41000000D01*
X107819534Y-41000000D01*
X107819953Y-41003183D01*
X107828033Y-41064560D01*
X107839313Y-41150236D01*
X107897302Y-41290233D01*
X107899258Y-41292782D01*
X107970267Y-41385323D01*
X107989549Y-41410451D01*
X108109767Y-41502698D01*
X108249764Y-41560687D01*
X108400000Y-41580466D01*
X108550236Y-41560687D01*
X108690233Y-41502698D01*
X108810451Y-41410451D01*
X108902698Y-41290233D01*
X108960687Y-41150236D01*
X108980466Y-41000000D01*
X108960687Y-40849764D01*
X108902698Y-40709767D01*
X108810451Y-40589549D01*
X108690233Y-40497302D01*
X108661313Y-40485323D01*
X108553201Y-40440541D01*
X108553199Y-40440540D01*
X108550236Y-40439313D01*
X108547054Y-40438894D01*
X108403183Y-40419953D01*
X108400000Y-40419534D01*
X108396817Y-40419953D01*
X108252945Y-40438894D01*
X108252943Y-40438894D01*
X108249764Y-40439313D01*
X108246801Y-40440539D01*
X108246798Y-40440541D01*
X108112733Y-40496073D01*
X108112730Y-40496074D01*
X108109767Y-40497302D01*
X108107220Y-40499255D01*
X108107217Y-40499258D01*
X107992097Y-40587593D01*
X107992093Y-40587596D01*
X107989549Y-40589549D01*
X107987596Y-40592093D01*
X107987593Y-40592097D01*
X107899258Y-40707217D01*
X107899255Y-40707220D01*
X107897302Y-40709767D01*
X107896074Y-40712730D01*
X107896073Y-40712733D01*
X107840541Y-40846798D01*
X107840539Y-40846801D01*
X107839313Y-40849764D01*
X107838894Y-40852943D01*
X107838894Y-40852945D01*
X107834434Y-40886820D01*
X107819534Y-41000000D01*
X106980466Y-41000000D01*
X106960687Y-40849764D01*
X106902698Y-40709767D01*
X106810451Y-40589549D01*
X106690233Y-40497302D01*
X106661313Y-40485323D01*
X106553201Y-40440541D01*
X106553199Y-40440540D01*
X106550236Y-40439313D01*
X106547054Y-40438894D01*
X106403183Y-40419953D01*
X106400000Y-40419534D01*
X106396817Y-40419953D01*
X106252945Y-40438894D01*
X106252943Y-40438894D01*
X106249764Y-40439313D01*
X106246801Y-40440539D01*
X106246798Y-40440541D01*
X106112733Y-40496073D01*
X106112730Y-40496074D01*
X106109767Y-40497302D01*
X106107220Y-40499255D01*
X106107217Y-40499258D01*
X105992097Y-40587593D01*
X105992093Y-40587596D01*
X105989549Y-40589549D01*
X105987596Y-40592093D01*
X105987593Y-40592097D01*
X105899258Y-40707217D01*
X105899255Y-40707220D01*
X105897302Y-40709767D01*
X105896074Y-40712730D01*
X105896073Y-40712733D01*
X105840541Y-40846798D01*
X105840539Y-40846801D01*
X105839313Y-40849764D01*
X105838894Y-40852943D01*
X105838894Y-40852945D01*
X105834434Y-40886820D01*
X105819534Y-41000000D01*
X98922189Y-41000000D01*
X99096570Y-40742808D01*
X99268021Y-40419417D01*
X99403502Y-40079385D01*
X99501425Y-39726699D01*
X99560642Y-39365492D01*
X99580458Y-39000000D01*
X99564193Y-38700000D01*
X107819534Y-38700000D01*
X107839313Y-38850236D01*
X107840540Y-38853199D01*
X107840541Y-38853201D01*
X107896073Y-38987266D01*
X107897302Y-38990233D01*
X107989549Y-39110451D01*
X108109767Y-39202698D01*
X108249764Y-39260687D01*
X108400000Y-39280466D01*
X108550236Y-39260687D01*
X108690233Y-39202698D01*
X108810451Y-39110451D01*
X108902698Y-38990233D01*
X108960687Y-38850236D01*
X108980466Y-38700000D01*
X108960687Y-38549764D01*
X108902698Y-38409767D01*
X108810451Y-38289549D01*
X108791000Y-38274624D01*
X108692782Y-38199258D01*
X108690233Y-38197302D01*
X108550236Y-38139313D01*
X108547054Y-38138894D01*
X108403183Y-38119953D01*
X108400000Y-38119534D01*
X108396817Y-38119953D01*
X108252945Y-38138894D01*
X108252943Y-38138894D01*
X108249764Y-38139313D01*
X108246801Y-38140539D01*
X108246798Y-38140541D01*
X108112733Y-38196073D01*
X108112730Y-38196074D01*
X108109767Y-38197302D01*
X108107220Y-38199255D01*
X108107217Y-38199258D01*
X107992097Y-38287593D01*
X107992093Y-38287596D01*
X107989549Y-38289549D01*
X107987596Y-38292093D01*
X107987593Y-38292097D01*
X107899258Y-38407217D01*
X107899255Y-38407220D01*
X107897302Y-38409767D01*
X107896074Y-38412730D01*
X107896073Y-38412733D01*
X107840541Y-38546798D01*
X107840539Y-38546801D01*
X107839313Y-38549764D01*
X107819534Y-38700000D01*
X99564193Y-38700000D01*
X99560642Y-38634508D01*
X99505924Y-38300741D01*
X99501642Y-38274624D01*
X99501641Y-38274622D01*
X99501425Y-38273301D01*
X99403502Y-37920615D01*
X99355445Y-37800000D01*
X106719534Y-37800000D01*
X106739313Y-37950236D01*
X106797302Y-38090233D01*
X106889549Y-38210451D01*
X107009767Y-38302698D01*
X107149764Y-38360687D01*
X107300000Y-38380466D01*
X107450236Y-38360687D01*
X107590233Y-38302698D01*
X107710451Y-38210451D01*
X107802698Y-38090233D01*
X107860687Y-37950236D01*
X107880466Y-37800000D01*
X107860687Y-37649764D01*
X107802698Y-37509767D01*
X107710451Y-37389549D01*
X107590233Y-37297302D01*
X107496241Y-37258369D01*
X107453201Y-37240541D01*
X107453199Y-37240540D01*
X107450236Y-37239313D01*
X107447054Y-37238894D01*
X107303183Y-37219953D01*
X107300000Y-37219534D01*
X107296817Y-37219953D01*
X107152945Y-37238894D01*
X107152943Y-37238894D01*
X107149764Y-37239313D01*
X107146801Y-37240539D01*
X107146798Y-37240541D01*
X107012733Y-37296073D01*
X107012730Y-37296074D01*
X107009767Y-37297302D01*
X107007220Y-37299255D01*
X107007217Y-37299258D01*
X106892097Y-37387593D01*
X106892093Y-37387596D01*
X106889549Y-37389549D01*
X106887596Y-37392093D01*
X106887593Y-37392097D01*
X106799258Y-37507217D01*
X106799255Y-37507220D01*
X106797302Y-37509767D01*
X106796074Y-37512730D01*
X106796073Y-37512733D01*
X106740541Y-37646798D01*
X106740539Y-37646801D01*
X106739313Y-37649764D01*
X106719534Y-37800000D01*
X99355445Y-37800000D01*
X99268021Y-37580583D01*
X99096570Y-37257192D01*
X99063150Y-37207902D01*
X98891909Y-36955340D01*
X98891907Y-36955338D01*
X98891159Y-36954234D01*
X98885060Y-36947054D01*
X98655054Y-36676270D01*
X98654197Y-36675261D01*
X98653241Y-36674355D01*
X98653234Y-36674348D01*
X98389418Y-36424449D01*
X98388462Y-36423543D01*
X98357492Y-36400000D01*
X106819534Y-36400000D01*
X106819953Y-36403183D01*
X106822633Y-36423543D01*
X106839313Y-36550236D01*
X106840540Y-36553199D01*
X106840541Y-36553201D01*
X106880539Y-36649764D01*
X106897302Y-36690233D01*
X106989549Y-36810451D01*
X107109767Y-36902698D01*
X107249764Y-36960687D01*
X107400000Y-36980466D01*
X107550236Y-36960687D01*
X107690233Y-36902698D01*
X107752621Y-36854825D01*
X107784584Y-36844748D01*
X107815551Y-36857574D01*
X107831027Y-36887304D01*
X107839313Y-36950236D01*
X107840540Y-36953199D01*
X107840541Y-36953201D01*
X107840803Y-36953834D01*
X107897302Y-37090233D01*
X107989549Y-37210451D01*
X108109767Y-37302698D01*
X108249764Y-37360687D01*
X108400000Y-37380466D01*
X108550236Y-37360687D01*
X108690233Y-37302698D01*
X108810451Y-37210451D01*
X108902698Y-37090233D01*
X108960687Y-36950236D01*
X108980466Y-36800000D01*
X108960687Y-36649764D01*
X108902698Y-36509767D01*
X108818470Y-36400000D01*
X117119534Y-36400000D01*
X117119953Y-36403183D01*
X117122633Y-36423543D01*
X117139313Y-36550236D01*
X117140540Y-36553199D01*
X117140541Y-36553201D01*
X117180539Y-36649764D01*
X117197302Y-36690233D01*
X117289549Y-36810451D01*
X117409767Y-36902698D01*
X117549764Y-36960687D01*
X117700000Y-36980466D01*
X117850236Y-36960687D01*
X117990233Y-36902698D01*
X118110451Y-36810451D01*
X118202698Y-36690233D01*
X118240074Y-36600000D01*
X125619534Y-36600000D01*
X125639313Y-36750236D01*
X125640540Y-36753199D01*
X125640541Y-36753201D01*
X125659233Y-36798326D01*
X125697302Y-36890233D01*
X125789549Y-37010451D01*
X125909767Y-37102698D01*
X126049764Y-37160687D01*
X126200000Y-37180466D01*
X126350236Y-37160687D01*
X126490233Y-37102698D01*
X126610451Y-37010451D01*
X126702698Y-36890233D01*
X126760687Y-36750236D01*
X126780466Y-36600000D01*
X126760687Y-36449764D01*
X126702698Y-36309767D01*
X126610451Y-36189549D01*
X126490233Y-36097302D01*
X126487266Y-36096073D01*
X126353201Y-36040541D01*
X126353199Y-36040540D01*
X126350236Y-36039313D01*
X126347054Y-36038894D01*
X126203183Y-36019953D01*
X126200000Y-36019534D01*
X126196817Y-36019953D01*
X126052945Y-36038894D01*
X126052943Y-36038894D01*
X126049764Y-36039313D01*
X126046801Y-36040539D01*
X126046798Y-36040541D01*
X125912733Y-36096073D01*
X125912730Y-36096074D01*
X125909767Y-36097302D01*
X125907220Y-36099255D01*
X125907217Y-36099258D01*
X125792097Y-36187593D01*
X125792093Y-36187596D01*
X125789549Y-36189549D01*
X125787596Y-36192093D01*
X125787593Y-36192097D01*
X125699258Y-36307217D01*
X125699255Y-36307220D01*
X125697302Y-36309767D01*
X125696074Y-36312730D01*
X125696073Y-36312733D01*
X125640541Y-36446798D01*
X125640539Y-36446801D01*
X125639313Y-36449764D01*
X125638894Y-36452943D01*
X125638894Y-36452945D01*
X125625695Y-36553201D01*
X125619534Y-36600000D01*
X118240074Y-36600000D01*
X118260687Y-36550236D01*
X118280466Y-36400000D01*
X118260687Y-36249764D01*
X118202698Y-36109767D01*
X118110451Y-35989549D01*
X117990233Y-35897302D01*
X117850236Y-35839313D01*
X117847054Y-35838894D01*
X117703183Y-35819953D01*
X117700000Y-35819534D01*
X117696817Y-35819953D01*
X117552945Y-35838894D01*
X117552943Y-35838894D01*
X117549764Y-35839313D01*
X117546801Y-35840539D01*
X117546798Y-35840541D01*
X117412733Y-35896073D01*
X117412730Y-35896074D01*
X117409767Y-35897302D01*
X117407220Y-35899255D01*
X117407217Y-35899258D01*
X117292097Y-35987593D01*
X117292093Y-35987596D01*
X117289549Y-35989549D01*
X117287596Y-35992093D01*
X117287593Y-35992097D01*
X117199258Y-36107217D01*
X117199255Y-36107220D01*
X117197302Y-36109767D01*
X117196074Y-36112730D01*
X117196073Y-36112733D01*
X117140541Y-36246798D01*
X117140539Y-36246801D01*
X117139313Y-36249764D01*
X117119534Y-36400000D01*
X108818470Y-36400000D01*
X108810451Y-36389549D01*
X108690233Y-36297302D01*
X108583149Y-36252946D01*
X108553201Y-36240541D01*
X108553199Y-36240540D01*
X108550236Y-36239313D01*
X108547054Y-36238894D01*
X108403183Y-36219953D01*
X108400000Y-36219534D01*
X108396817Y-36219953D01*
X108252945Y-36238894D01*
X108252943Y-36238894D01*
X108249764Y-36239313D01*
X108246801Y-36240539D01*
X108246798Y-36240541D01*
X108112733Y-36296073D01*
X108112730Y-36296074D01*
X108109767Y-36297302D01*
X108107220Y-36299255D01*
X108107217Y-36299258D01*
X108047381Y-36345172D01*
X108015414Y-36355251D01*
X107984448Y-36342424D01*
X107968972Y-36312695D01*
X107960687Y-36249764D01*
X107902698Y-36109767D01*
X107810451Y-35989549D01*
X107690233Y-35897302D01*
X107550236Y-35839313D01*
X107547054Y-35838894D01*
X107403183Y-35819953D01*
X107400000Y-35819534D01*
X107396817Y-35819953D01*
X107252945Y-35838894D01*
X107252943Y-35838894D01*
X107249764Y-35839313D01*
X107246801Y-35840539D01*
X107246798Y-35840541D01*
X107112733Y-35896073D01*
X107112730Y-35896074D01*
X107109767Y-35897302D01*
X107107220Y-35899255D01*
X107107217Y-35899258D01*
X106992097Y-35987593D01*
X106992093Y-35987596D01*
X106989549Y-35989549D01*
X106987596Y-35992093D01*
X106987593Y-35992097D01*
X106899258Y-36107217D01*
X106899255Y-36107220D01*
X106897302Y-36109767D01*
X106896074Y-36112730D01*
X106896073Y-36112733D01*
X106840541Y-36246798D01*
X106840539Y-36246801D01*
X106839313Y-36249764D01*
X106819534Y-36400000D01*
X98357492Y-36400000D01*
X98097069Y-36202032D01*
X98080557Y-36192097D01*
X97784579Y-36014013D01*
X97784574Y-36014010D01*
X97783435Y-36013325D01*
X97782226Y-36012766D01*
X97782223Y-36012764D01*
X97452450Y-35860194D01*
X97452439Y-35860189D01*
X97451236Y-35859633D01*
X97269580Y-35798426D01*
X97105630Y-35743185D01*
X97105626Y-35743183D01*
X97104368Y-35742760D01*
X97103075Y-35742475D01*
X97103063Y-35742472D01*
X96748204Y-35664361D01*
X96748191Y-35664358D01*
X96746897Y-35664074D01*
X96745585Y-35663931D01*
X96745571Y-35663929D01*
X96384325Y-35624642D01*
X96384314Y-35624641D01*
X96383014Y-35624500D01*
X96016986Y-35624500D01*
X96015686Y-35624641D01*
X96015674Y-35624642D01*
X95654428Y-35663929D01*
X95654411Y-35663931D01*
X95653103Y-35664074D01*
X95651811Y-35664358D01*
X95651795Y-35664361D01*
X95296936Y-35742472D01*
X95296919Y-35742476D01*
X95295632Y-35742760D01*
X95294378Y-35743182D01*
X95294369Y-35743185D01*
X94950031Y-35859206D01*
X94948764Y-35859633D01*
X94947566Y-35860187D01*
X94947549Y-35860194D01*
X94617776Y-36012764D01*
X94617765Y-36012769D01*
X94616565Y-36013325D01*
X94615432Y-36014006D01*
X94615420Y-36014013D01*
X94304063Y-36201350D01*
X94304051Y-36201358D01*
X94302931Y-36202032D01*
X94301895Y-36202819D01*
X94301884Y-36202827D01*
X94038321Y-36403183D01*
X94011538Y-36423543D01*
X94010586Y-36424444D01*
X94010581Y-36424449D01*
X93746765Y-36674348D01*
X93746748Y-36674364D01*
X93745803Y-36675261D01*
X93744954Y-36676260D01*
X93744945Y-36676270D01*
X93509706Y-36953214D01*
X93509694Y-36953229D01*
X93508841Y-36954234D01*
X93508100Y-36955326D01*
X93508090Y-36955340D01*
X93304176Y-37256090D01*
X93304166Y-37256105D01*
X93303430Y-37257192D01*
X93302813Y-37258355D01*
X93302805Y-37258369D01*
X93132600Y-37579411D01*
X93131979Y-37580583D01*
X93131491Y-37581806D01*
X93131489Y-37581812D01*
X93004952Y-37899398D01*
X92996498Y-37920615D01*
X92996148Y-37921873D01*
X92996144Y-37921887D01*
X92920017Y-38196073D01*
X92898575Y-38273301D01*
X92898361Y-38274604D01*
X92898357Y-38274624D01*
X92845137Y-38599258D01*
X92839358Y-38634508D01*
X92839286Y-38635826D01*
X92839286Y-38635831D01*
X92830071Y-38805799D01*
X92819542Y-39000000D01*
X92500530Y-39000000D01*
X92500559Y-38998799D01*
X92507712Y-38853201D01*
X92518678Y-38629977D01*
X92519146Y-38625220D01*
X92573155Y-38261118D01*
X92574086Y-38256436D01*
X92663520Y-37899395D01*
X92664916Y-37894796D01*
X92698835Y-37800000D01*
X92788917Y-37548236D01*
X92790746Y-37543823D01*
X92948115Y-37211093D01*
X92950363Y-37206886D01*
X93139598Y-36891166D01*
X93142268Y-36887173D01*
X93164220Y-36857574D01*
X93361522Y-36591544D01*
X93364548Y-36587856D01*
X93611731Y-36315131D01*
X93615132Y-36311731D01*
X93617299Y-36309767D01*
X93887856Y-36064548D01*
X93891544Y-36061522D01*
X94187177Y-35842265D01*
X94191171Y-35839596D01*
X94506886Y-35650363D01*
X94511093Y-35648115D01*
X94843823Y-35490746D01*
X94848236Y-35488917D01*
X95194798Y-35364915D01*
X95199398Y-35363520D01*
X95556436Y-35274086D01*
X95561118Y-35273155D01*
X95925220Y-35219146D01*
X95929977Y-35218678D01*
X96298799Y-35200558D01*
X96301203Y-35200500D01*
X96339882Y-35200500D01*
X138960118Y-35200500D01*
X138998797Y-35200500D01*
X139001200Y-35200558D01*
G37*
%TD.AperFunction*%
%TD*%
M02*
