%TF.GenerationSoftware,KiCad,Pcbnew,(7.0.0)*%
%TF.CreationDate,2023-05-09T15:07:27+03:00*%
%TF.ProjectId,IoT_sulari,496f545f-7375-46c6-9172-692e6b696361,rev?*%
%TF.SameCoordinates,Original*%
%TF.FileFunction,Legend,Top*%
%TF.FilePolarity,Positive*%
%FSLAX46Y46*%
G04 Gerber Fmt 4.6, Leading zero omitted, Abs format (unit mm)*
G04 Created by KiCad (PCBNEW (7.0.0)) date 2023-05-09 15:07:27*
%MOMM*%
%LPD*%
G01*
G04 APERTURE LIST*
G04 Aperture macros list*
%AMRoundRect*
0 Rectangle with rounded corners*
0 $1 Rounding radius*
0 $2 $3 $4 $5 $6 $7 $8 $9 X,Y pos of 4 corners*
0 Add a 4 corners polygon primitive as box body*
4,1,4,$2,$3,$4,$5,$6,$7,$8,$9,$2,$3,0*
0 Add four circle primitives for the rounded corners*
1,1,$1+$1,$2,$3*
1,1,$1+$1,$4,$5*
1,1,$1+$1,$6,$7*
1,1,$1+$1,$8,$9*
0 Add four rect primitives between the rounded corners*
20,1,$1+$1,$2,$3,$4,$5,0*
20,1,$1+$1,$4,$5,$6,$7,0*
20,1,$1+$1,$6,$7,$8,$9,0*
20,1,$1+$1,$8,$9,$2,$3,0*%
G04 Aperture macros list end*
%ADD10C,0.241421*%
%ADD11C,0.153000*%
%ADD12C,0.127000*%
%ADD13C,0.120000*%
%ADD14C,0.100000*%
%ADD15R,1.000000X1.000000*%
%ADD16R,2.200000X1.050000*%
%ADD17R,0.972299X0.508000*%
%ADD18RoundRect,0.237500X-0.237500X0.300000X-0.237500X-0.300000X0.237500X-0.300000X0.237500X0.300000X0*%
%ADD19RoundRect,0.237500X0.300000X0.237500X-0.300000X0.237500X-0.300000X-0.237500X0.300000X-0.237500X0*%
%ADD20RoundRect,0.237500X-0.237500X0.250000X-0.237500X-0.250000X0.237500X-0.250000X0.237500X0.250000X0*%
%ADD21C,0.800000*%
%ADD22C,6.400000*%
%ADD23R,3.350000X2.160000*%
%ADD24R,1.000000X3.000000*%
%ADD25R,0.482600X1.803400*%
%ADD26R,1.030000X0.990600*%
%ADD27R,0.660400X1.295400*%
%ADD28RoundRect,0.250000X-0.350000X-0.450000X0.350000X-0.450000X0.350000X0.450000X-0.350000X0.450000X0*%
%ADD29RoundRect,0.160000X0.160000X-0.197500X0.160000X0.197500X-0.160000X0.197500X-0.160000X-0.197500X0*%
%ADD30R,0.300000X0.380000*%
%ADD31R,1.700000X0.400000*%
%ADD32R,2.006600X2.006600*%
%ADD33R,2.387600X0.762000*%
%ADD34R,0.762000X2.387600*%
%ADD35R,0.304800X0.304800*%
%ADD36R,0.812800X0.812800*%
G04 APERTURE END LIST*
D10*
X142620710Y-64058579D02*
G75*
G03*
X142620710Y-64058579I-120710J0D01*
G01*
X102320710Y-70500000D02*
G75*
G03*
X102320710Y-70500000I-120710J0D01*
G01*
X131220710Y-60558579D02*
G75*
G03*
X131220710Y-60558579I-120710J0D01*
G01*
X122120710Y-68100000D02*
G75*
G03*
X122120710Y-68100000I-120710J0D01*
G01*
X127120710Y-42758579D02*
G75*
G03*
X127120710Y-42758579I-120710J0D01*
G01*
X130620710Y-58358579D02*
G75*
G03*
X130620710Y-58358579I-120710J0D01*
G01*
X107420710Y-39358579D02*
G75*
G03*
X107420710Y-39358579I-120710J0D01*
G01*
X119120710Y-43200000D02*
G75*
G03*
X119120710Y-43200000I-120710J0D01*
G01*
D11*
X98309523Y-60682380D02*
X97976190Y-60206190D01*
X97738095Y-60682380D02*
X97738095Y-59682380D01*
X97738095Y-59682380D02*
X98119047Y-59682380D01*
X98119047Y-59682380D02*
X98214285Y-59730000D01*
X98214285Y-59730000D02*
X98261904Y-59777619D01*
X98261904Y-59777619D02*
X98309523Y-59872857D01*
X98309523Y-59872857D02*
X98309523Y-60015714D01*
X98309523Y-60015714D02*
X98261904Y-60110952D01*
X98261904Y-60110952D02*
X98214285Y-60158571D01*
X98214285Y-60158571D02*
X98119047Y-60206190D01*
X98119047Y-60206190D02*
X97738095Y-60206190D01*
X98738095Y-60158571D02*
X99071428Y-60158571D01*
X99214285Y-60682380D02*
X98738095Y-60682380D01*
X98738095Y-60682380D02*
X98738095Y-59682380D01*
X98738095Y-59682380D02*
X99214285Y-59682380D01*
X99595238Y-60634761D02*
X99738095Y-60682380D01*
X99738095Y-60682380D02*
X99976190Y-60682380D01*
X99976190Y-60682380D02*
X100071428Y-60634761D01*
X100071428Y-60634761D02*
X100119047Y-60587142D01*
X100119047Y-60587142D02*
X100166666Y-60491904D01*
X100166666Y-60491904D02*
X100166666Y-60396666D01*
X100166666Y-60396666D02*
X100119047Y-60301428D01*
X100119047Y-60301428D02*
X100071428Y-60253809D01*
X100071428Y-60253809D02*
X99976190Y-60206190D01*
X99976190Y-60206190D02*
X99785714Y-60158571D01*
X99785714Y-60158571D02*
X99690476Y-60110952D01*
X99690476Y-60110952D02*
X99642857Y-60063333D01*
X99642857Y-60063333D02*
X99595238Y-59968095D01*
X99595238Y-59968095D02*
X99595238Y-59872857D01*
X99595238Y-59872857D02*
X99642857Y-59777619D01*
X99642857Y-59777619D02*
X99690476Y-59730000D01*
X99690476Y-59730000D02*
X99785714Y-59682380D01*
X99785714Y-59682380D02*
X100023809Y-59682380D01*
X100023809Y-59682380D02*
X100166666Y-59730000D01*
X100595238Y-60158571D02*
X100928571Y-60158571D01*
X101071428Y-60682380D02*
X100595238Y-60682380D01*
X100595238Y-60682380D02*
X100595238Y-59682380D01*
X100595238Y-59682380D02*
X101071428Y-59682380D01*
X101357143Y-59682380D02*
X101928571Y-59682380D01*
X101642857Y-60682380D02*
X101642857Y-59682380D01*
X134334761Y-40109523D02*
X134382380Y-39966666D01*
X134382380Y-39966666D02*
X134382380Y-39728571D01*
X134382380Y-39728571D02*
X134334761Y-39633333D01*
X134334761Y-39633333D02*
X134287142Y-39585714D01*
X134287142Y-39585714D02*
X134191904Y-39538095D01*
X134191904Y-39538095D02*
X134096666Y-39538095D01*
X134096666Y-39538095D02*
X134001428Y-39585714D01*
X134001428Y-39585714D02*
X133953809Y-39633333D01*
X133953809Y-39633333D02*
X133906190Y-39728571D01*
X133906190Y-39728571D02*
X133858571Y-39919047D01*
X133858571Y-39919047D02*
X133810952Y-40014285D01*
X133810952Y-40014285D02*
X133763333Y-40061904D01*
X133763333Y-40061904D02*
X133668095Y-40109523D01*
X133668095Y-40109523D02*
X133572857Y-40109523D01*
X133572857Y-40109523D02*
X133477619Y-40061904D01*
X133477619Y-40061904D02*
X133430000Y-40014285D01*
X133430000Y-40014285D02*
X133382380Y-39919047D01*
X133382380Y-39919047D02*
X133382380Y-39680952D01*
X133382380Y-39680952D02*
X133430000Y-39538095D01*
X133858571Y-38776190D02*
X133906190Y-38633333D01*
X133906190Y-38633333D02*
X133953809Y-38585714D01*
X133953809Y-38585714D02*
X134049047Y-38538095D01*
X134049047Y-38538095D02*
X134191904Y-38538095D01*
X134191904Y-38538095D02*
X134287142Y-38585714D01*
X134287142Y-38585714D02*
X134334761Y-38633333D01*
X134334761Y-38633333D02*
X134382380Y-38728571D01*
X134382380Y-38728571D02*
X134382380Y-39109523D01*
X134382380Y-39109523D02*
X133382380Y-39109523D01*
X133382380Y-39109523D02*
X133382380Y-38776190D01*
X133382380Y-38776190D02*
X133430000Y-38680952D01*
X133430000Y-38680952D02*
X133477619Y-38633333D01*
X133477619Y-38633333D02*
X133572857Y-38585714D01*
X133572857Y-38585714D02*
X133668095Y-38585714D01*
X133668095Y-38585714D02*
X133763333Y-38633333D01*
X133763333Y-38633333D02*
X133810952Y-38680952D01*
X133810952Y-38680952D02*
X133858571Y-38776190D01*
X133858571Y-38776190D02*
X133858571Y-39109523D01*
X137690476Y-66334761D02*
X137833333Y-66382380D01*
X137833333Y-66382380D02*
X138071428Y-66382380D01*
X138071428Y-66382380D02*
X138166666Y-66334761D01*
X138166666Y-66334761D02*
X138214285Y-66287142D01*
X138214285Y-66287142D02*
X138261904Y-66191904D01*
X138261904Y-66191904D02*
X138261904Y-66096666D01*
X138261904Y-66096666D02*
X138214285Y-66001428D01*
X138214285Y-66001428D02*
X138166666Y-65953809D01*
X138166666Y-65953809D02*
X138071428Y-65906190D01*
X138071428Y-65906190D02*
X137880952Y-65858571D01*
X137880952Y-65858571D02*
X137785714Y-65810952D01*
X137785714Y-65810952D02*
X137738095Y-65763333D01*
X137738095Y-65763333D02*
X137690476Y-65668095D01*
X137690476Y-65668095D02*
X137690476Y-65572857D01*
X137690476Y-65572857D02*
X137738095Y-65477619D01*
X137738095Y-65477619D02*
X137785714Y-65430000D01*
X137785714Y-65430000D02*
X137880952Y-65382380D01*
X137880952Y-65382380D02*
X138119047Y-65382380D01*
X138119047Y-65382380D02*
X138261904Y-65430000D01*
X138595238Y-65382380D02*
X138833333Y-66382380D01*
X138833333Y-66382380D02*
X139023809Y-65668095D01*
X139023809Y-65668095D02*
X139214285Y-66382380D01*
X139214285Y-66382380D02*
X139452381Y-65382380D01*
X139833333Y-66382380D02*
X139833333Y-65382380D01*
X139833333Y-65382380D02*
X140071428Y-65382380D01*
X140071428Y-65382380D02*
X140214285Y-65430000D01*
X140214285Y-65430000D02*
X140309523Y-65525238D01*
X140309523Y-65525238D02*
X140357142Y-65620476D01*
X140357142Y-65620476D02*
X140404761Y-65810952D01*
X140404761Y-65810952D02*
X140404761Y-65953809D01*
X140404761Y-65953809D02*
X140357142Y-66144285D01*
X140357142Y-66144285D02*
X140309523Y-66239523D01*
X140309523Y-66239523D02*
X140214285Y-66334761D01*
X140214285Y-66334761D02*
X140071428Y-66382380D01*
X140071428Y-66382380D02*
X139833333Y-66382380D01*
X109282380Y-54161904D02*
X108282380Y-54161904D01*
X108282380Y-54161904D02*
X108282380Y-53780952D01*
X108282380Y-53780952D02*
X108330000Y-53685714D01*
X108330000Y-53685714D02*
X108377619Y-53638095D01*
X108377619Y-53638095D02*
X108472857Y-53590476D01*
X108472857Y-53590476D02*
X108615714Y-53590476D01*
X108615714Y-53590476D02*
X108710952Y-53638095D01*
X108710952Y-53638095D02*
X108758571Y-53685714D01*
X108758571Y-53685714D02*
X108806190Y-53780952D01*
X108806190Y-53780952D02*
X108806190Y-54161904D01*
X108282380Y-52971428D02*
X108282380Y-52780952D01*
X108282380Y-52780952D02*
X108330000Y-52685714D01*
X108330000Y-52685714D02*
X108425238Y-52590476D01*
X108425238Y-52590476D02*
X108615714Y-52542857D01*
X108615714Y-52542857D02*
X108949047Y-52542857D01*
X108949047Y-52542857D02*
X109139523Y-52590476D01*
X109139523Y-52590476D02*
X109234761Y-52685714D01*
X109234761Y-52685714D02*
X109282380Y-52780952D01*
X109282380Y-52780952D02*
X109282380Y-52971428D01*
X109282380Y-52971428D02*
X109234761Y-53066666D01*
X109234761Y-53066666D02*
X109139523Y-53161904D01*
X109139523Y-53161904D02*
X108949047Y-53209523D01*
X108949047Y-53209523D02*
X108615714Y-53209523D01*
X108615714Y-53209523D02*
X108425238Y-53161904D01*
X108425238Y-53161904D02*
X108330000Y-53066666D01*
X108330000Y-53066666D02*
X108282380Y-52971428D01*
X108282380Y-52209523D02*
X109282380Y-51971428D01*
X109282380Y-51971428D02*
X108568095Y-51780952D01*
X108568095Y-51780952D02*
X109282380Y-51590476D01*
X109282380Y-51590476D02*
X108282380Y-51352381D01*
X108758571Y-50971428D02*
X108758571Y-50638095D01*
X109282380Y-50495238D02*
X109282380Y-50971428D01*
X109282380Y-50971428D02*
X108282380Y-50971428D01*
X108282380Y-50971428D02*
X108282380Y-50495238D01*
X109282380Y-49495238D02*
X108806190Y-49828571D01*
X109282380Y-50066666D02*
X108282380Y-50066666D01*
X108282380Y-50066666D02*
X108282380Y-49685714D01*
X108282380Y-49685714D02*
X108330000Y-49590476D01*
X108330000Y-49590476D02*
X108377619Y-49542857D01*
X108377619Y-49542857D02*
X108472857Y-49495238D01*
X108472857Y-49495238D02*
X108615714Y-49495238D01*
X108615714Y-49495238D02*
X108710952Y-49542857D01*
X108710952Y-49542857D02*
X108758571Y-49590476D01*
X108758571Y-49590476D02*
X108806190Y-49685714D01*
X108806190Y-49685714D02*
X108806190Y-50066666D01*
X101782380Y-74761904D02*
X100782380Y-74761904D01*
X100782380Y-74761904D02*
X100782380Y-74523809D01*
X100782380Y-74523809D02*
X100830000Y-74380952D01*
X100830000Y-74380952D02*
X100925238Y-74285714D01*
X100925238Y-74285714D02*
X101020476Y-74238095D01*
X101020476Y-74238095D02*
X101210952Y-74190476D01*
X101210952Y-74190476D02*
X101353809Y-74190476D01*
X101353809Y-74190476D02*
X101544285Y-74238095D01*
X101544285Y-74238095D02*
X101639523Y-74285714D01*
X101639523Y-74285714D02*
X101734761Y-74380952D01*
X101734761Y-74380952D02*
X101782380Y-74523809D01*
X101782380Y-74523809D02*
X101782380Y-74761904D01*
X101782380Y-73761904D02*
X100782380Y-73761904D01*
X101734761Y-73333333D02*
X101782380Y-73190476D01*
X101782380Y-73190476D02*
X101782380Y-72952381D01*
X101782380Y-72952381D02*
X101734761Y-72857143D01*
X101734761Y-72857143D02*
X101687142Y-72809524D01*
X101687142Y-72809524D02*
X101591904Y-72761905D01*
X101591904Y-72761905D02*
X101496666Y-72761905D01*
X101496666Y-72761905D02*
X101401428Y-72809524D01*
X101401428Y-72809524D02*
X101353809Y-72857143D01*
X101353809Y-72857143D02*
X101306190Y-72952381D01*
X101306190Y-72952381D02*
X101258571Y-73142857D01*
X101258571Y-73142857D02*
X101210952Y-73238095D01*
X101210952Y-73238095D02*
X101163333Y-73285714D01*
X101163333Y-73285714D02*
X101068095Y-73333333D01*
X101068095Y-73333333D02*
X100972857Y-73333333D01*
X100972857Y-73333333D02*
X100877619Y-73285714D01*
X100877619Y-73285714D02*
X100830000Y-73238095D01*
X100830000Y-73238095D02*
X100782380Y-73142857D01*
X100782380Y-73142857D02*
X100782380Y-72904762D01*
X100782380Y-72904762D02*
X100830000Y-72761905D01*
X101782380Y-72333333D02*
X100782380Y-72333333D01*
X100782380Y-72333333D02*
X100782380Y-71952381D01*
X100782380Y-71952381D02*
X100830000Y-71857143D01*
X100830000Y-71857143D02*
X100877619Y-71809524D01*
X100877619Y-71809524D02*
X100972857Y-71761905D01*
X100972857Y-71761905D02*
X101115714Y-71761905D01*
X101115714Y-71761905D02*
X101210952Y-71809524D01*
X101210952Y-71809524D02*
X101258571Y-71857143D01*
X101258571Y-71857143D02*
X101306190Y-71952381D01*
X101306190Y-71952381D02*
X101306190Y-72333333D01*
X101782380Y-70857143D02*
X101782380Y-71333333D01*
X101782380Y-71333333D02*
X100782380Y-71333333D01*
X101496666Y-70571428D02*
X101496666Y-70095238D01*
X101782380Y-70666666D02*
X100782380Y-70333333D01*
X100782380Y-70333333D02*
X101782380Y-70000000D01*
X101306190Y-69476190D02*
X101782380Y-69476190D01*
X100782380Y-69809523D02*
X101306190Y-69476190D01*
X101306190Y-69476190D02*
X100782380Y-69142857D01*
X139161904Y-48630000D02*
X139066666Y-48582380D01*
X139066666Y-48582380D02*
X138923809Y-48582380D01*
X138923809Y-48582380D02*
X138780952Y-48630000D01*
X138780952Y-48630000D02*
X138685714Y-48725238D01*
X138685714Y-48725238D02*
X138638095Y-48820476D01*
X138638095Y-48820476D02*
X138590476Y-49010952D01*
X138590476Y-49010952D02*
X138590476Y-49153809D01*
X138590476Y-49153809D02*
X138638095Y-49344285D01*
X138638095Y-49344285D02*
X138685714Y-49439523D01*
X138685714Y-49439523D02*
X138780952Y-49534761D01*
X138780952Y-49534761D02*
X138923809Y-49582380D01*
X138923809Y-49582380D02*
X139019047Y-49582380D01*
X139019047Y-49582380D02*
X139161904Y-49534761D01*
X139161904Y-49534761D02*
X139209523Y-49487142D01*
X139209523Y-49487142D02*
X139209523Y-49153809D01*
X139209523Y-49153809D02*
X139019047Y-49153809D01*
X139638095Y-49582380D02*
X139638095Y-48582380D01*
X139638095Y-48582380D02*
X140019047Y-48582380D01*
X140019047Y-48582380D02*
X140114285Y-48630000D01*
X140114285Y-48630000D02*
X140161904Y-48677619D01*
X140161904Y-48677619D02*
X140209523Y-48772857D01*
X140209523Y-48772857D02*
X140209523Y-48915714D01*
X140209523Y-48915714D02*
X140161904Y-49010952D01*
X140161904Y-49010952D02*
X140114285Y-49058571D01*
X140114285Y-49058571D02*
X140019047Y-49106190D01*
X140019047Y-49106190D02*
X139638095Y-49106190D01*
X140590476Y-49534761D02*
X140733333Y-49582380D01*
X140733333Y-49582380D02*
X140971428Y-49582380D01*
X140971428Y-49582380D02*
X141066666Y-49534761D01*
X141066666Y-49534761D02*
X141114285Y-49487142D01*
X141114285Y-49487142D02*
X141161904Y-49391904D01*
X141161904Y-49391904D02*
X141161904Y-49296666D01*
X141161904Y-49296666D02*
X141114285Y-49201428D01*
X141114285Y-49201428D02*
X141066666Y-49153809D01*
X141066666Y-49153809D02*
X140971428Y-49106190D01*
X140971428Y-49106190D02*
X140780952Y-49058571D01*
X140780952Y-49058571D02*
X140685714Y-49010952D01*
X140685714Y-49010952D02*
X140638095Y-48963333D01*
X140638095Y-48963333D02*
X140590476Y-48868095D01*
X140590476Y-48868095D02*
X140590476Y-48772857D01*
X140590476Y-48772857D02*
X140638095Y-48677619D01*
X140638095Y-48677619D02*
X140685714Y-48630000D01*
X140685714Y-48630000D02*
X140780952Y-48582380D01*
X140780952Y-48582380D02*
X141019047Y-48582380D01*
X141019047Y-48582380D02*
X141161904Y-48630000D01*
X127990476Y-69234761D02*
X128133333Y-69282380D01*
X128133333Y-69282380D02*
X128371428Y-69282380D01*
X128371428Y-69282380D02*
X128466666Y-69234761D01*
X128466666Y-69234761D02*
X128514285Y-69187142D01*
X128514285Y-69187142D02*
X128561904Y-69091904D01*
X128561904Y-69091904D02*
X128561904Y-68996666D01*
X128561904Y-68996666D02*
X128514285Y-68901428D01*
X128514285Y-68901428D02*
X128466666Y-68853809D01*
X128466666Y-68853809D02*
X128371428Y-68806190D01*
X128371428Y-68806190D02*
X128180952Y-68758571D01*
X128180952Y-68758571D02*
X128085714Y-68710952D01*
X128085714Y-68710952D02*
X128038095Y-68663333D01*
X128038095Y-68663333D02*
X127990476Y-68568095D01*
X127990476Y-68568095D02*
X127990476Y-68472857D01*
X127990476Y-68472857D02*
X128038095Y-68377619D01*
X128038095Y-68377619D02*
X128085714Y-68330000D01*
X128085714Y-68330000D02*
X128180952Y-68282380D01*
X128180952Y-68282380D02*
X128419047Y-68282380D01*
X128419047Y-68282380D02*
X128561904Y-68330000D01*
X128990476Y-69282380D02*
X128990476Y-68282380D01*
X129466666Y-69282380D02*
X129466666Y-68282380D01*
X129466666Y-68282380D02*
X129799999Y-68996666D01*
X129799999Y-68996666D02*
X130133332Y-68282380D01*
X130133332Y-68282380D02*
X130133332Y-69282380D01*
X107182380Y-65961904D02*
X107991904Y-65961904D01*
X107991904Y-65961904D02*
X108087142Y-65914285D01*
X108087142Y-65914285D02*
X108134761Y-65866666D01*
X108134761Y-65866666D02*
X108182380Y-65771428D01*
X108182380Y-65771428D02*
X108182380Y-65580952D01*
X108182380Y-65580952D02*
X108134761Y-65485714D01*
X108134761Y-65485714D02*
X108087142Y-65438095D01*
X108087142Y-65438095D02*
X107991904Y-65390476D01*
X107991904Y-65390476D02*
X107182380Y-65390476D01*
X107896666Y-64961904D02*
X107896666Y-64485714D01*
X108182380Y-65057142D02*
X107182380Y-64723809D01*
X107182380Y-64723809D02*
X108182380Y-64390476D01*
X108182380Y-63485714D02*
X107706190Y-63819047D01*
X108182380Y-64057142D02*
X107182380Y-64057142D01*
X107182380Y-64057142D02*
X107182380Y-63676190D01*
X107182380Y-63676190D02*
X107230000Y-63580952D01*
X107230000Y-63580952D02*
X107277619Y-63533333D01*
X107277619Y-63533333D02*
X107372857Y-63485714D01*
X107372857Y-63485714D02*
X107515714Y-63485714D01*
X107515714Y-63485714D02*
X107610952Y-63533333D01*
X107610952Y-63533333D02*
X107658571Y-63580952D01*
X107658571Y-63580952D02*
X107706190Y-63676190D01*
X107706190Y-63676190D02*
X107706190Y-64057142D01*
X107182380Y-63199999D02*
X107182380Y-62628571D01*
X108182380Y-62914285D02*
X107182380Y-62914285D01*
X138790476Y-56896666D02*
X139266666Y-56896666D01*
X138695238Y-57182380D02*
X139028571Y-56182380D01*
X139028571Y-56182380D02*
X139361904Y-57182380D01*
X139695238Y-57182380D02*
X139695238Y-56182380D01*
X139695238Y-56182380D02*
X140266666Y-57182380D01*
X140266666Y-57182380D02*
X140266666Y-56182380D01*
X140600000Y-56182380D02*
X141171428Y-56182380D01*
X140885714Y-57182380D02*
X140885714Y-56182380D01*
%TO.C,C22*%
X105469593Y-44772142D02*
X105421974Y-44819761D01*
X105421974Y-44819761D02*
X105279117Y-44867380D01*
X105279117Y-44867380D02*
X105183879Y-44867380D01*
X105183879Y-44867380D02*
X105041022Y-44819761D01*
X105041022Y-44819761D02*
X104945784Y-44724523D01*
X104945784Y-44724523D02*
X104898165Y-44629285D01*
X104898165Y-44629285D02*
X104850546Y-44438809D01*
X104850546Y-44438809D02*
X104850546Y-44295952D01*
X104850546Y-44295952D02*
X104898165Y-44105476D01*
X104898165Y-44105476D02*
X104945784Y-44010238D01*
X104945784Y-44010238D02*
X105041022Y-43915000D01*
X105041022Y-43915000D02*
X105183879Y-43867380D01*
X105183879Y-43867380D02*
X105279117Y-43867380D01*
X105279117Y-43867380D02*
X105421974Y-43915000D01*
X105421974Y-43915000D02*
X105469593Y-43962619D01*
X105850546Y-43962619D02*
X105898165Y-43915000D01*
X105898165Y-43915000D02*
X105993403Y-43867380D01*
X105993403Y-43867380D02*
X106231498Y-43867380D01*
X106231498Y-43867380D02*
X106326736Y-43915000D01*
X106326736Y-43915000D02*
X106374355Y-43962619D01*
X106374355Y-43962619D02*
X106421974Y-44057857D01*
X106421974Y-44057857D02*
X106421974Y-44153095D01*
X106421974Y-44153095D02*
X106374355Y-44295952D01*
X106374355Y-44295952D02*
X105802927Y-44867380D01*
X105802927Y-44867380D02*
X106421974Y-44867380D01*
X106802927Y-43962619D02*
X106850546Y-43915000D01*
X106850546Y-43915000D02*
X106945784Y-43867380D01*
X106945784Y-43867380D02*
X107183879Y-43867380D01*
X107183879Y-43867380D02*
X107279117Y-43915000D01*
X107279117Y-43915000D02*
X107326736Y-43962619D01*
X107326736Y-43962619D02*
X107374355Y-44057857D01*
X107374355Y-44057857D02*
X107374355Y-44153095D01*
X107374355Y-44153095D02*
X107326736Y-44295952D01*
X107326736Y-44295952D02*
X106755308Y-44867380D01*
X106755308Y-44867380D02*
X107374355Y-44867380D01*
%TO.C,R1*%
X121667380Y-37866666D02*
X121191190Y-38199999D01*
X121667380Y-38438094D02*
X120667380Y-38438094D01*
X120667380Y-38438094D02*
X120667380Y-38057142D01*
X120667380Y-38057142D02*
X120715000Y-37961904D01*
X120715000Y-37961904D02*
X120762619Y-37914285D01*
X120762619Y-37914285D02*
X120857857Y-37866666D01*
X120857857Y-37866666D02*
X121000714Y-37866666D01*
X121000714Y-37866666D02*
X121095952Y-37914285D01*
X121095952Y-37914285D02*
X121143571Y-37961904D01*
X121143571Y-37961904D02*
X121191190Y-38057142D01*
X121191190Y-38057142D02*
X121191190Y-38438094D01*
X121667380Y-36914285D02*
X121667380Y-37485713D01*
X121667380Y-37199999D02*
X120667380Y-37199999D01*
X120667380Y-37199999D02*
X120810238Y-37295237D01*
X120810238Y-37295237D02*
X120905476Y-37390475D01*
X120905476Y-37390475D02*
X120953095Y-37485713D01*
%TO.C,SW1*%
X98491667Y-63669761D02*
X98634524Y-63717380D01*
X98634524Y-63717380D02*
X98872619Y-63717380D01*
X98872619Y-63717380D02*
X98967857Y-63669761D01*
X98967857Y-63669761D02*
X99015476Y-63622142D01*
X99015476Y-63622142D02*
X99063095Y-63526904D01*
X99063095Y-63526904D02*
X99063095Y-63431666D01*
X99063095Y-63431666D02*
X99015476Y-63336428D01*
X99015476Y-63336428D02*
X98967857Y-63288809D01*
X98967857Y-63288809D02*
X98872619Y-63241190D01*
X98872619Y-63241190D02*
X98682143Y-63193571D01*
X98682143Y-63193571D02*
X98586905Y-63145952D01*
X98586905Y-63145952D02*
X98539286Y-63098333D01*
X98539286Y-63098333D02*
X98491667Y-63003095D01*
X98491667Y-63003095D02*
X98491667Y-62907857D01*
X98491667Y-62907857D02*
X98539286Y-62812619D01*
X98539286Y-62812619D02*
X98586905Y-62765000D01*
X98586905Y-62765000D02*
X98682143Y-62717380D01*
X98682143Y-62717380D02*
X98920238Y-62717380D01*
X98920238Y-62717380D02*
X99063095Y-62765000D01*
X99396429Y-62717380D02*
X99634524Y-63717380D01*
X99634524Y-63717380D02*
X99825000Y-63003095D01*
X99825000Y-63003095D02*
X100015476Y-63717380D01*
X100015476Y-63717380D02*
X100253572Y-62717380D01*
X101158333Y-63717380D02*
X100586905Y-63717380D01*
X100872619Y-63717380D02*
X100872619Y-62717380D01*
X100872619Y-62717380D02*
X100777381Y-62860238D01*
X100777381Y-62860238D02*
X100682143Y-62955476D01*
X100682143Y-62955476D02*
X100586905Y-63003095D01*
%TO.C,J7*%
X113926666Y-65717380D02*
X113926666Y-66431666D01*
X113926666Y-66431666D02*
X113879047Y-66574523D01*
X113879047Y-66574523D02*
X113783809Y-66669761D01*
X113783809Y-66669761D02*
X113640952Y-66717380D01*
X113640952Y-66717380D02*
X113545714Y-66717380D01*
X114307619Y-65717380D02*
X114974285Y-65717380D01*
X114974285Y-65717380D02*
X114545714Y-66717380D01*
%TO.C,J40*%
X128355476Y-63372379D02*
X128355476Y-64086665D01*
X128355476Y-64086665D02*
X128307857Y-64229522D01*
X128307857Y-64229522D02*
X128212619Y-64324760D01*
X128212619Y-64324760D02*
X128069762Y-64372379D01*
X128069762Y-64372379D02*
X127974524Y-64372379D01*
X129260238Y-63705713D02*
X129260238Y-64372379D01*
X129022143Y-63324760D02*
X128784048Y-64039046D01*
X128784048Y-64039046D02*
X129403095Y-64039046D01*
X129974524Y-63372379D02*
X130069762Y-63372379D01*
X130069762Y-63372379D02*
X130165000Y-63419999D01*
X130165000Y-63419999D02*
X130212619Y-63467618D01*
X130212619Y-63467618D02*
X130260238Y-63562856D01*
X130260238Y-63562856D02*
X130307857Y-63753332D01*
X130307857Y-63753332D02*
X130307857Y-63991427D01*
X130307857Y-63991427D02*
X130260238Y-64181903D01*
X130260238Y-64181903D02*
X130212619Y-64277141D01*
X130212619Y-64277141D02*
X130165000Y-64324760D01*
X130165000Y-64324760D02*
X130069762Y-64372379D01*
X130069762Y-64372379D02*
X129974524Y-64372379D01*
X129974524Y-64372379D02*
X129879286Y-64324760D01*
X129879286Y-64324760D02*
X129831667Y-64277141D01*
X129831667Y-64277141D02*
X129784048Y-64181903D01*
X129784048Y-64181903D02*
X129736429Y-63991427D01*
X129736429Y-63991427D02*
X129736429Y-63753332D01*
X129736429Y-63753332D02*
X129784048Y-63562856D01*
X129784048Y-63562856D02*
X129831667Y-63467618D01*
X129831667Y-63467618D02*
X129879286Y-63419999D01*
X129879286Y-63419999D02*
X129974524Y-63372379D01*
%TO.C,JMPR*%
X99271428Y-66267380D02*
X99271428Y-66981666D01*
X99271428Y-66981666D02*
X99223809Y-67124523D01*
X99223809Y-67124523D02*
X99128571Y-67219761D01*
X99128571Y-67219761D02*
X98985714Y-67267380D01*
X98985714Y-67267380D02*
X98890476Y-67267380D01*
X99747619Y-67267380D02*
X99747619Y-66267380D01*
X99747619Y-66267380D02*
X100080952Y-66981666D01*
X100080952Y-66981666D02*
X100414285Y-66267380D01*
X100414285Y-66267380D02*
X100414285Y-67267380D01*
X100890476Y-67267380D02*
X100890476Y-66267380D01*
X100890476Y-66267380D02*
X101271428Y-66267380D01*
X101271428Y-66267380D02*
X101366666Y-66315000D01*
X101366666Y-66315000D02*
X101414285Y-66362619D01*
X101414285Y-66362619D02*
X101461904Y-66457857D01*
X101461904Y-66457857D02*
X101461904Y-66600714D01*
X101461904Y-66600714D02*
X101414285Y-66695952D01*
X101414285Y-66695952D02*
X101366666Y-66743571D01*
X101366666Y-66743571D02*
X101271428Y-66791190D01*
X101271428Y-66791190D02*
X100890476Y-66791190D01*
X102461904Y-67267380D02*
X102128571Y-66791190D01*
X101890476Y-67267380D02*
X101890476Y-66267380D01*
X101890476Y-66267380D02*
X102271428Y-66267380D01*
X102271428Y-66267380D02*
X102366666Y-66315000D01*
X102366666Y-66315000D02*
X102414285Y-66362619D01*
X102414285Y-66362619D02*
X102461904Y-66457857D01*
X102461904Y-66457857D02*
X102461904Y-66600714D01*
X102461904Y-66600714D02*
X102414285Y-66695952D01*
X102414285Y-66695952D02*
X102366666Y-66743571D01*
X102366666Y-66743571D02*
X102271428Y-66791190D01*
X102271428Y-66791190D02*
X101890476Y-66791190D01*
%TO.C,J5*%
X110166666Y-69367380D02*
X110166666Y-70081666D01*
X110166666Y-70081666D02*
X110119047Y-70224523D01*
X110119047Y-70224523D02*
X110023809Y-70319761D01*
X110023809Y-70319761D02*
X109880952Y-70367380D01*
X109880952Y-70367380D02*
X109785714Y-70367380D01*
X111119047Y-69367380D02*
X110642857Y-69367380D01*
X110642857Y-69367380D02*
X110595238Y-69843571D01*
X110595238Y-69843571D02*
X110642857Y-69795952D01*
X110642857Y-69795952D02*
X110738095Y-69748333D01*
X110738095Y-69748333D02*
X110976190Y-69748333D01*
X110976190Y-69748333D02*
X111071428Y-69795952D01*
X111071428Y-69795952D02*
X111119047Y-69843571D01*
X111119047Y-69843571D02*
X111166666Y-69938809D01*
X111166666Y-69938809D02*
X111166666Y-70176904D01*
X111166666Y-70176904D02*
X111119047Y-70272142D01*
X111119047Y-70272142D02*
X111071428Y-70319761D01*
X111071428Y-70319761D02*
X110976190Y-70367380D01*
X110976190Y-70367380D02*
X110738095Y-70367380D01*
X110738095Y-70367380D02*
X110642857Y-70319761D01*
X110642857Y-70319761D02*
X110595238Y-70272142D01*
%TO.C,C7*%
X113333333Y-48022142D02*
X113285714Y-48069761D01*
X113285714Y-48069761D02*
X113142857Y-48117380D01*
X113142857Y-48117380D02*
X113047619Y-48117380D01*
X113047619Y-48117380D02*
X112904762Y-48069761D01*
X112904762Y-48069761D02*
X112809524Y-47974523D01*
X112809524Y-47974523D02*
X112761905Y-47879285D01*
X112761905Y-47879285D02*
X112714286Y-47688809D01*
X112714286Y-47688809D02*
X112714286Y-47545952D01*
X112714286Y-47545952D02*
X112761905Y-47355476D01*
X112761905Y-47355476D02*
X112809524Y-47260238D01*
X112809524Y-47260238D02*
X112904762Y-47165000D01*
X112904762Y-47165000D02*
X113047619Y-47117380D01*
X113047619Y-47117380D02*
X113142857Y-47117380D01*
X113142857Y-47117380D02*
X113285714Y-47165000D01*
X113285714Y-47165000D02*
X113333333Y-47212619D01*
X113666667Y-47117380D02*
X114333333Y-47117380D01*
X114333333Y-47117380D02*
X113904762Y-48117380D01*
%TO.C,C4*%
X113145833Y-56334642D02*
X113098214Y-56382261D01*
X113098214Y-56382261D02*
X112955357Y-56429880D01*
X112955357Y-56429880D02*
X112860119Y-56429880D01*
X112860119Y-56429880D02*
X112717262Y-56382261D01*
X112717262Y-56382261D02*
X112622024Y-56287023D01*
X112622024Y-56287023D02*
X112574405Y-56191785D01*
X112574405Y-56191785D02*
X112526786Y-56001309D01*
X112526786Y-56001309D02*
X112526786Y-55858452D01*
X112526786Y-55858452D02*
X112574405Y-55667976D01*
X112574405Y-55667976D02*
X112622024Y-55572738D01*
X112622024Y-55572738D02*
X112717262Y-55477500D01*
X112717262Y-55477500D02*
X112860119Y-55429880D01*
X112860119Y-55429880D02*
X112955357Y-55429880D01*
X112955357Y-55429880D02*
X113098214Y-55477500D01*
X113098214Y-55477500D02*
X113145833Y-55525119D01*
X114002976Y-55763214D02*
X114002976Y-56429880D01*
X113764881Y-55382261D02*
X113526786Y-56096547D01*
X113526786Y-56096547D02*
X114145833Y-56096547D01*
%TO.C,C6*%
X113283333Y-59834642D02*
X113235714Y-59882261D01*
X113235714Y-59882261D02*
X113092857Y-59929880D01*
X113092857Y-59929880D02*
X112997619Y-59929880D01*
X112997619Y-59929880D02*
X112854762Y-59882261D01*
X112854762Y-59882261D02*
X112759524Y-59787023D01*
X112759524Y-59787023D02*
X112711905Y-59691785D01*
X112711905Y-59691785D02*
X112664286Y-59501309D01*
X112664286Y-59501309D02*
X112664286Y-59358452D01*
X112664286Y-59358452D02*
X112711905Y-59167976D01*
X112711905Y-59167976D02*
X112759524Y-59072738D01*
X112759524Y-59072738D02*
X112854762Y-58977500D01*
X112854762Y-58977500D02*
X112997619Y-58929880D01*
X112997619Y-58929880D02*
X113092857Y-58929880D01*
X113092857Y-58929880D02*
X113235714Y-58977500D01*
X113235714Y-58977500D02*
X113283333Y-59025119D01*
X114140476Y-58929880D02*
X113950000Y-58929880D01*
X113950000Y-58929880D02*
X113854762Y-58977500D01*
X113854762Y-58977500D02*
X113807143Y-59025119D01*
X113807143Y-59025119D02*
X113711905Y-59167976D01*
X113711905Y-59167976D02*
X113664286Y-59358452D01*
X113664286Y-59358452D02*
X113664286Y-59739404D01*
X113664286Y-59739404D02*
X113711905Y-59834642D01*
X113711905Y-59834642D02*
X113759524Y-59882261D01*
X113759524Y-59882261D02*
X113854762Y-59929880D01*
X113854762Y-59929880D02*
X114045238Y-59929880D01*
X114045238Y-59929880D02*
X114140476Y-59882261D01*
X114140476Y-59882261D02*
X114188095Y-59834642D01*
X114188095Y-59834642D02*
X114235714Y-59739404D01*
X114235714Y-59739404D02*
X114235714Y-59501309D01*
X114235714Y-59501309D02*
X114188095Y-59406071D01*
X114188095Y-59406071D02*
X114140476Y-59358452D01*
X114140476Y-59358452D02*
X114045238Y-59310833D01*
X114045238Y-59310833D02*
X113854762Y-59310833D01*
X113854762Y-59310833D02*
X113759524Y-59358452D01*
X113759524Y-59358452D02*
X113711905Y-59406071D01*
X113711905Y-59406071D02*
X113664286Y-59501309D01*
%TO.C,C5*%
X113283333Y-58084642D02*
X113235714Y-58132261D01*
X113235714Y-58132261D02*
X113092857Y-58179880D01*
X113092857Y-58179880D02*
X112997619Y-58179880D01*
X112997619Y-58179880D02*
X112854762Y-58132261D01*
X112854762Y-58132261D02*
X112759524Y-58037023D01*
X112759524Y-58037023D02*
X112711905Y-57941785D01*
X112711905Y-57941785D02*
X112664286Y-57751309D01*
X112664286Y-57751309D02*
X112664286Y-57608452D01*
X112664286Y-57608452D02*
X112711905Y-57417976D01*
X112711905Y-57417976D02*
X112759524Y-57322738D01*
X112759524Y-57322738D02*
X112854762Y-57227500D01*
X112854762Y-57227500D02*
X112997619Y-57179880D01*
X112997619Y-57179880D02*
X113092857Y-57179880D01*
X113092857Y-57179880D02*
X113235714Y-57227500D01*
X113235714Y-57227500D02*
X113283333Y-57275119D01*
X114188095Y-57179880D02*
X113711905Y-57179880D01*
X113711905Y-57179880D02*
X113664286Y-57656071D01*
X113664286Y-57656071D02*
X113711905Y-57608452D01*
X113711905Y-57608452D02*
X113807143Y-57560833D01*
X113807143Y-57560833D02*
X114045238Y-57560833D01*
X114045238Y-57560833D02*
X114140476Y-57608452D01*
X114140476Y-57608452D02*
X114188095Y-57656071D01*
X114188095Y-57656071D02*
X114235714Y-57751309D01*
X114235714Y-57751309D02*
X114235714Y-57989404D01*
X114235714Y-57989404D02*
X114188095Y-58084642D01*
X114188095Y-58084642D02*
X114140476Y-58132261D01*
X114140476Y-58132261D02*
X114045238Y-58179880D01*
X114045238Y-58179880D02*
X113807143Y-58179880D01*
X113807143Y-58179880D02*
X113711905Y-58132261D01*
X113711905Y-58132261D02*
X113664286Y-58084642D01*
%TO.C,FB1*%
X118993571Y-39833333D02*
X118993571Y-40166666D01*
X119517380Y-40166666D02*
X118517380Y-40166666D01*
X118517380Y-40166666D02*
X118517380Y-39690476D01*
X118993571Y-38976190D02*
X119041190Y-38833333D01*
X119041190Y-38833333D02*
X119088809Y-38785714D01*
X119088809Y-38785714D02*
X119184047Y-38738095D01*
X119184047Y-38738095D02*
X119326904Y-38738095D01*
X119326904Y-38738095D02*
X119422142Y-38785714D01*
X119422142Y-38785714D02*
X119469761Y-38833333D01*
X119469761Y-38833333D02*
X119517380Y-38928571D01*
X119517380Y-38928571D02*
X119517380Y-39309523D01*
X119517380Y-39309523D02*
X118517380Y-39309523D01*
X118517380Y-39309523D02*
X118517380Y-38976190D01*
X118517380Y-38976190D02*
X118565000Y-38880952D01*
X118565000Y-38880952D02*
X118612619Y-38833333D01*
X118612619Y-38833333D02*
X118707857Y-38785714D01*
X118707857Y-38785714D02*
X118803095Y-38785714D01*
X118803095Y-38785714D02*
X118898333Y-38833333D01*
X118898333Y-38833333D02*
X118945952Y-38880952D01*
X118945952Y-38880952D02*
X118993571Y-38976190D01*
X118993571Y-38976190D02*
X118993571Y-39309523D01*
X119517380Y-37785714D02*
X119517380Y-38357142D01*
X119517380Y-38071428D02*
X118517380Y-38071428D01*
X118517380Y-38071428D02*
X118660238Y-38166666D01*
X118660238Y-38166666D02*
X118755476Y-38261904D01*
X118755476Y-38261904D02*
X118803095Y-38357142D01*
%TO.C,U40*%
X127361905Y-56667380D02*
X127361905Y-57476904D01*
X127361905Y-57476904D02*
X127409524Y-57572142D01*
X127409524Y-57572142D02*
X127457143Y-57619761D01*
X127457143Y-57619761D02*
X127552381Y-57667380D01*
X127552381Y-57667380D02*
X127742857Y-57667380D01*
X127742857Y-57667380D02*
X127838095Y-57619761D01*
X127838095Y-57619761D02*
X127885714Y-57572142D01*
X127885714Y-57572142D02*
X127933333Y-57476904D01*
X127933333Y-57476904D02*
X127933333Y-56667380D01*
X128838095Y-57000714D02*
X128838095Y-57667380D01*
X128600000Y-56619761D02*
X128361905Y-57334047D01*
X128361905Y-57334047D02*
X128980952Y-57334047D01*
X129552381Y-56667380D02*
X129647619Y-56667380D01*
X129647619Y-56667380D02*
X129742857Y-56715000D01*
X129742857Y-56715000D02*
X129790476Y-56762619D01*
X129790476Y-56762619D02*
X129838095Y-56857857D01*
X129838095Y-56857857D02*
X129885714Y-57048333D01*
X129885714Y-57048333D02*
X129885714Y-57286428D01*
X129885714Y-57286428D02*
X129838095Y-57476904D01*
X129838095Y-57476904D02*
X129790476Y-57572142D01*
X129790476Y-57572142D02*
X129742857Y-57619761D01*
X129742857Y-57619761D02*
X129647619Y-57667380D01*
X129647619Y-57667380D02*
X129552381Y-57667380D01*
X129552381Y-57667380D02*
X129457143Y-57619761D01*
X129457143Y-57619761D02*
X129409524Y-57572142D01*
X129409524Y-57572142D02*
X129361905Y-57476904D01*
X129361905Y-57476904D02*
X129314286Y-57286428D01*
X129314286Y-57286428D02*
X129314286Y-57048333D01*
X129314286Y-57048333D02*
X129361905Y-56857857D01*
X129361905Y-56857857D02*
X129409524Y-56762619D01*
X129409524Y-56762619D02*
X129457143Y-56715000D01*
X129457143Y-56715000D02*
X129552381Y-56667380D01*
%TO.C,C8*%
X113333333Y-49522142D02*
X113285714Y-49569761D01*
X113285714Y-49569761D02*
X113142857Y-49617380D01*
X113142857Y-49617380D02*
X113047619Y-49617380D01*
X113047619Y-49617380D02*
X112904762Y-49569761D01*
X112904762Y-49569761D02*
X112809524Y-49474523D01*
X112809524Y-49474523D02*
X112761905Y-49379285D01*
X112761905Y-49379285D02*
X112714286Y-49188809D01*
X112714286Y-49188809D02*
X112714286Y-49045952D01*
X112714286Y-49045952D02*
X112761905Y-48855476D01*
X112761905Y-48855476D02*
X112809524Y-48760238D01*
X112809524Y-48760238D02*
X112904762Y-48665000D01*
X112904762Y-48665000D02*
X113047619Y-48617380D01*
X113047619Y-48617380D02*
X113142857Y-48617380D01*
X113142857Y-48617380D02*
X113285714Y-48665000D01*
X113285714Y-48665000D02*
X113333333Y-48712619D01*
X113904762Y-49045952D02*
X113809524Y-48998333D01*
X113809524Y-48998333D02*
X113761905Y-48950714D01*
X113761905Y-48950714D02*
X113714286Y-48855476D01*
X113714286Y-48855476D02*
X113714286Y-48807857D01*
X113714286Y-48807857D02*
X113761905Y-48712619D01*
X113761905Y-48712619D02*
X113809524Y-48665000D01*
X113809524Y-48665000D02*
X113904762Y-48617380D01*
X113904762Y-48617380D02*
X114095238Y-48617380D01*
X114095238Y-48617380D02*
X114190476Y-48665000D01*
X114190476Y-48665000D02*
X114238095Y-48712619D01*
X114238095Y-48712619D02*
X114285714Y-48807857D01*
X114285714Y-48807857D02*
X114285714Y-48855476D01*
X114285714Y-48855476D02*
X114238095Y-48950714D01*
X114238095Y-48950714D02*
X114190476Y-48998333D01*
X114190476Y-48998333D02*
X114095238Y-49045952D01*
X114095238Y-49045952D02*
X113904762Y-49045952D01*
X113904762Y-49045952D02*
X113809524Y-49093571D01*
X113809524Y-49093571D02*
X113761905Y-49141190D01*
X113761905Y-49141190D02*
X113714286Y-49236428D01*
X113714286Y-49236428D02*
X113714286Y-49426904D01*
X113714286Y-49426904D02*
X113761905Y-49522142D01*
X113761905Y-49522142D02*
X113809524Y-49569761D01*
X113809524Y-49569761D02*
X113904762Y-49617380D01*
X113904762Y-49617380D02*
X114095238Y-49617380D01*
X114095238Y-49617380D02*
X114190476Y-49569761D01*
X114190476Y-49569761D02*
X114238095Y-49522142D01*
X114238095Y-49522142D02*
X114285714Y-49426904D01*
X114285714Y-49426904D02*
X114285714Y-49236428D01*
X114285714Y-49236428D02*
X114238095Y-49141190D01*
X114238095Y-49141190D02*
X114190476Y-49093571D01*
X114190476Y-49093571D02*
X114095238Y-49045952D01*
%TO.C,J20*%
X99430476Y-48907382D02*
X99430476Y-49621668D01*
X99430476Y-49621668D02*
X99382857Y-49764525D01*
X99382857Y-49764525D02*
X99287619Y-49859763D01*
X99287619Y-49859763D02*
X99144762Y-49907382D01*
X99144762Y-49907382D02*
X99049524Y-49907382D01*
X99859048Y-49002621D02*
X99906667Y-48955002D01*
X99906667Y-48955002D02*
X100001905Y-48907382D01*
X100001905Y-48907382D02*
X100240000Y-48907382D01*
X100240000Y-48907382D02*
X100335238Y-48955002D01*
X100335238Y-48955002D02*
X100382857Y-49002621D01*
X100382857Y-49002621D02*
X100430476Y-49097859D01*
X100430476Y-49097859D02*
X100430476Y-49193097D01*
X100430476Y-49193097D02*
X100382857Y-49335954D01*
X100382857Y-49335954D02*
X99811429Y-49907382D01*
X99811429Y-49907382D02*
X100430476Y-49907382D01*
X101049524Y-48907382D02*
X101144762Y-48907382D01*
X101144762Y-48907382D02*
X101240000Y-48955002D01*
X101240000Y-48955002D02*
X101287619Y-49002621D01*
X101287619Y-49002621D02*
X101335238Y-49097859D01*
X101335238Y-49097859D02*
X101382857Y-49288335D01*
X101382857Y-49288335D02*
X101382857Y-49526430D01*
X101382857Y-49526430D02*
X101335238Y-49716906D01*
X101335238Y-49716906D02*
X101287619Y-49812144D01*
X101287619Y-49812144D02*
X101240000Y-49859763D01*
X101240000Y-49859763D02*
X101144762Y-49907382D01*
X101144762Y-49907382D02*
X101049524Y-49907382D01*
X101049524Y-49907382D02*
X100954286Y-49859763D01*
X100954286Y-49859763D02*
X100906667Y-49812144D01*
X100906667Y-49812144D02*
X100859048Y-49716906D01*
X100859048Y-49716906D02*
X100811429Y-49526430D01*
X100811429Y-49526430D02*
X100811429Y-49288335D01*
X100811429Y-49288335D02*
X100859048Y-49097859D01*
X100859048Y-49097859D02*
X100906667Y-49002621D01*
X100906667Y-49002621D02*
X100954286Y-48955002D01*
X100954286Y-48955002D02*
X101049524Y-48907382D01*
%TO.C,C2*%
X113333333Y-41272142D02*
X113285714Y-41319761D01*
X113285714Y-41319761D02*
X113142857Y-41367380D01*
X113142857Y-41367380D02*
X113047619Y-41367380D01*
X113047619Y-41367380D02*
X112904762Y-41319761D01*
X112904762Y-41319761D02*
X112809524Y-41224523D01*
X112809524Y-41224523D02*
X112761905Y-41129285D01*
X112761905Y-41129285D02*
X112714286Y-40938809D01*
X112714286Y-40938809D02*
X112714286Y-40795952D01*
X112714286Y-40795952D02*
X112761905Y-40605476D01*
X112761905Y-40605476D02*
X112809524Y-40510238D01*
X112809524Y-40510238D02*
X112904762Y-40415000D01*
X112904762Y-40415000D02*
X113047619Y-40367380D01*
X113047619Y-40367380D02*
X113142857Y-40367380D01*
X113142857Y-40367380D02*
X113285714Y-40415000D01*
X113285714Y-40415000D02*
X113333333Y-40462619D01*
X113714286Y-40462619D02*
X113761905Y-40415000D01*
X113761905Y-40415000D02*
X113857143Y-40367380D01*
X113857143Y-40367380D02*
X114095238Y-40367380D01*
X114095238Y-40367380D02*
X114190476Y-40415000D01*
X114190476Y-40415000D02*
X114238095Y-40462619D01*
X114238095Y-40462619D02*
X114285714Y-40557857D01*
X114285714Y-40557857D02*
X114285714Y-40653095D01*
X114285714Y-40653095D02*
X114238095Y-40795952D01*
X114238095Y-40795952D02*
X113666667Y-41367380D01*
X113666667Y-41367380D02*
X114285714Y-41367380D01*
%TO.C,C21*%
X105469593Y-38022142D02*
X105421974Y-38069761D01*
X105421974Y-38069761D02*
X105279117Y-38117380D01*
X105279117Y-38117380D02*
X105183879Y-38117380D01*
X105183879Y-38117380D02*
X105041022Y-38069761D01*
X105041022Y-38069761D02*
X104945784Y-37974523D01*
X104945784Y-37974523D02*
X104898165Y-37879285D01*
X104898165Y-37879285D02*
X104850546Y-37688809D01*
X104850546Y-37688809D02*
X104850546Y-37545952D01*
X104850546Y-37545952D02*
X104898165Y-37355476D01*
X104898165Y-37355476D02*
X104945784Y-37260238D01*
X104945784Y-37260238D02*
X105041022Y-37165000D01*
X105041022Y-37165000D02*
X105183879Y-37117380D01*
X105183879Y-37117380D02*
X105279117Y-37117380D01*
X105279117Y-37117380D02*
X105421974Y-37165000D01*
X105421974Y-37165000D02*
X105469593Y-37212619D01*
X105850546Y-37212619D02*
X105898165Y-37165000D01*
X105898165Y-37165000D02*
X105993403Y-37117380D01*
X105993403Y-37117380D02*
X106231498Y-37117380D01*
X106231498Y-37117380D02*
X106326736Y-37165000D01*
X106326736Y-37165000D02*
X106374355Y-37212619D01*
X106374355Y-37212619D02*
X106421974Y-37307857D01*
X106421974Y-37307857D02*
X106421974Y-37403095D01*
X106421974Y-37403095D02*
X106374355Y-37545952D01*
X106374355Y-37545952D02*
X105802927Y-38117380D01*
X105802927Y-38117380D02*
X106421974Y-38117380D01*
X107374355Y-38117380D02*
X106802927Y-38117380D01*
X107088641Y-38117380D02*
X107088641Y-37117380D01*
X107088641Y-37117380D02*
X106993403Y-37260238D01*
X106993403Y-37260238D02*
X106898165Y-37355476D01*
X106898165Y-37355476D02*
X106802927Y-37403095D01*
%TO.C,C1*%
X113333333Y-43272142D02*
X113285714Y-43319761D01*
X113285714Y-43319761D02*
X113142857Y-43367380D01*
X113142857Y-43367380D02*
X113047619Y-43367380D01*
X113047619Y-43367380D02*
X112904762Y-43319761D01*
X112904762Y-43319761D02*
X112809524Y-43224523D01*
X112809524Y-43224523D02*
X112761905Y-43129285D01*
X112761905Y-43129285D02*
X112714286Y-42938809D01*
X112714286Y-42938809D02*
X112714286Y-42795952D01*
X112714286Y-42795952D02*
X112761905Y-42605476D01*
X112761905Y-42605476D02*
X112809524Y-42510238D01*
X112809524Y-42510238D02*
X112904762Y-42415000D01*
X112904762Y-42415000D02*
X113047619Y-42367380D01*
X113047619Y-42367380D02*
X113142857Y-42367380D01*
X113142857Y-42367380D02*
X113285714Y-42415000D01*
X113285714Y-42415000D02*
X113333333Y-42462619D01*
X114285714Y-43367380D02*
X113714286Y-43367380D01*
X114000000Y-43367380D02*
X114000000Y-42367380D01*
X114000000Y-42367380D02*
X113904762Y-42510238D01*
X113904762Y-42510238D02*
X113809524Y-42605476D01*
X113809524Y-42605476D02*
X113714286Y-42653095D01*
%TO.C,C9*%
X113333333Y-51072142D02*
X113285714Y-51119761D01*
X113285714Y-51119761D02*
X113142857Y-51167380D01*
X113142857Y-51167380D02*
X113047619Y-51167380D01*
X113047619Y-51167380D02*
X112904762Y-51119761D01*
X112904762Y-51119761D02*
X112809524Y-51024523D01*
X112809524Y-51024523D02*
X112761905Y-50929285D01*
X112761905Y-50929285D02*
X112714286Y-50738809D01*
X112714286Y-50738809D02*
X112714286Y-50595952D01*
X112714286Y-50595952D02*
X112761905Y-50405476D01*
X112761905Y-50405476D02*
X112809524Y-50310238D01*
X112809524Y-50310238D02*
X112904762Y-50215000D01*
X112904762Y-50215000D02*
X113047619Y-50167380D01*
X113047619Y-50167380D02*
X113142857Y-50167380D01*
X113142857Y-50167380D02*
X113285714Y-50215000D01*
X113285714Y-50215000D02*
X113333333Y-50262619D01*
X113809524Y-51167380D02*
X114000000Y-51167380D01*
X114000000Y-51167380D02*
X114095238Y-51119761D01*
X114095238Y-51119761D02*
X114142857Y-51072142D01*
X114142857Y-51072142D02*
X114238095Y-50929285D01*
X114238095Y-50929285D02*
X114285714Y-50738809D01*
X114285714Y-50738809D02*
X114285714Y-50357857D01*
X114285714Y-50357857D02*
X114238095Y-50262619D01*
X114238095Y-50262619D02*
X114190476Y-50215000D01*
X114190476Y-50215000D02*
X114095238Y-50167380D01*
X114095238Y-50167380D02*
X113904762Y-50167380D01*
X113904762Y-50167380D02*
X113809524Y-50215000D01*
X113809524Y-50215000D02*
X113761905Y-50262619D01*
X113761905Y-50262619D02*
X113714286Y-50357857D01*
X113714286Y-50357857D02*
X113714286Y-50595952D01*
X113714286Y-50595952D02*
X113761905Y-50691190D01*
X113761905Y-50691190D02*
X113809524Y-50738809D01*
X113809524Y-50738809D02*
X113904762Y-50786428D01*
X113904762Y-50786428D02*
X114095238Y-50786428D01*
X114095238Y-50786428D02*
X114190476Y-50738809D01*
X114190476Y-50738809D02*
X114238095Y-50691190D01*
X114238095Y-50691190D02*
X114285714Y-50595952D01*
%TO.C,C3*%
X113333333Y-39272142D02*
X113285714Y-39319761D01*
X113285714Y-39319761D02*
X113142857Y-39367380D01*
X113142857Y-39367380D02*
X113047619Y-39367380D01*
X113047619Y-39367380D02*
X112904762Y-39319761D01*
X112904762Y-39319761D02*
X112809524Y-39224523D01*
X112809524Y-39224523D02*
X112761905Y-39129285D01*
X112761905Y-39129285D02*
X112714286Y-38938809D01*
X112714286Y-38938809D02*
X112714286Y-38795952D01*
X112714286Y-38795952D02*
X112761905Y-38605476D01*
X112761905Y-38605476D02*
X112809524Y-38510238D01*
X112809524Y-38510238D02*
X112904762Y-38415000D01*
X112904762Y-38415000D02*
X113047619Y-38367380D01*
X113047619Y-38367380D02*
X113142857Y-38367380D01*
X113142857Y-38367380D02*
X113285714Y-38415000D01*
X113285714Y-38415000D02*
X113333333Y-38462619D01*
X113666667Y-38367380D02*
X114285714Y-38367380D01*
X114285714Y-38367380D02*
X113952381Y-38748333D01*
X113952381Y-38748333D02*
X114095238Y-38748333D01*
X114095238Y-38748333D02*
X114190476Y-38795952D01*
X114190476Y-38795952D02*
X114238095Y-38843571D01*
X114238095Y-38843571D02*
X114285714Y-38938809D01*
X114285714Y-38938809D02*
X114285714Y-39176904D01*
X114285714Y-39176904D02*
X114238095Y-39272142D01*
X114238095Y-39272142D02*
X114190476Y-39319761D01*
X114190476Y-39319761D02*
X114095238Y-39367380D01*
X114095238Y-39367380D02*
X113809524Y-39367380D01*
X113809524Y-39367380D02*
X113714286Y-39319761D01*
X113714286Y-39319761D02*
X113666667Y-39272142D01*
%TO.C,J4*%
X129266666Y-38467380D02*
X129266666Y-39181666D01*
X129266666Y-39181666D02*
X129219047Y-39324523D01*
X129219047Y-39324523D02*
X129123809Y-39419761D01*
X129123809Y-39419761D02*
X128980952Y-39467380D01*
X128980952Y-39467380D02*
X128885714Y-39467380D01*
X130171428Y-38800714D02*
X130171428Y-39467380D01*
X129933333Y-38419761D02*
X129695238Y-39134047D01*
X129695238Y-39134047D02*
X130314285Y-39134047D01*
%TO.C,J1*%
D12*
X138263500Y-45100000D02*
G75*
G03*
X138263500Y-45100000I-63500J0D01*
G01*
D13*
%TO.C,U20*%
X107746700Y-42638300D02*
X109753300Y-42638300D01*
X109753300Y-39361700D02*
X107746700Y-39361700D01*
X109753300Y-41363261D02*
X109753300Y-40636739D01*
%TO.C,C20*%
X103810000Y-40853733D02*
X103810000Y-41146267D01*
X102790000Y-40853733D02*
X102790000Y-41146267D01*
%TO.C,C22*%
X109379569Y-45010000D02*
X109087035Y-45010000D01*
X109379569Y-43990000D02*
X109087035Y-43990000D01*
%TO.C,R1*%
X121722500Y-40145276D02*
X121722500Y-40654724D01*
X120677500Y-40145276D02*
X120677500Y-40654724D01*
D14*
%TO.C,SW1*%
X96900000Y-61350000D02*
X102900000Y-61350000D01*
X102900000Y-61350000D02*
X102900000Y-64850000D01*
X102900000Y-64850000D02*
X96900000Y-64850000D01*
X96900000Y-64850000D02*
X96900000Y-61350000D01*
D13*
%TO.C,J40*%
X124008800Y-63651354D02*
X124008800Y-67158604D01*
X124008800Y-69401393D02*
X124008800Y-73222442D01*
X125327060Y-61782999D02*
X125074076Y-61782999D01*
X125443687Y-74736999D02*
X132886313Y-74736999D01*
X133255924Y-61782999D02*
X133002940Y-61782999D01*
X134321200Y-67158604D02*
X134321200Y-63651354D01*
X134321200Y-73222442D02*
X134321200Y-69401393D01*
%TO.C,JMPR*%
X104572936Y-66165000D02*
X105027064Y-66165000D01*
X104572936Y-67635000D02*
X105027064Y-67635000D01*
%TO.C,C7*%
X116396267Y-48260000D02*
X116103733Y-48260000D01*
X116396267Y-47240000D02*
X116103733Y-47240000D01*
%TO.C,C4*%
X116346267Y-56572500D02*
X116053733Y-56572500D01*
X116346267Y-55552500D02*
X116053733Y-55552500D01*
%TO.C,C6*%
X116336985Y-60072500D02*
X116044451Y-60072500D01*
X116336985Y-59052500D02*
X116044451Y-59052500D01*
%TO.C,C5*%
X116346267Y-58322500D02*
X116053733Y-58322500D01*
X116346267Y-57302500D02*
X116053733Y-57302500D01*
%TO.C,FB1*%
X118620000Y-41917621D02*
X118620000Y-41582379D01*
X119380000Y-41917621D02*
X119380000Y-41582379D01*
%TO.C,C8*%
X116396267Y-49760000D02*
X116103733Y-49760000D01*
X116396267Y-48740000D02*
X116103733Y-48740000D01*
%TO.C,J20*%
X92573010Y-47775601D02*
X92573010Y-57224401D01*
X92573010Y-57224401D02*
X96363960Y-57224401D01*
X96363960Y-47775601D02*
X92573010Y-47775601D01*
X99036040Y-57224401D02*
X102513960Y-57224401D01*
X102513960Y-47775601D02*
X99036040Y-47775601D01*
X105186040Y-57224401D02*
X107838410Y-57224401D01*
X107838410Y-47775601D02*
X105186040Y-47775601D01*
X107838410Y-57224401D02*
X107838410Y-47775601D01*
%TO.C,J2*%
D12*
X138263500Y-52600000D02*
G75*
G03*
X138263500Y-52600000I-63500J0D01*
G01*
D13*
%TO.C,C2*%
X116396267Y-41510000D02*
X116103733Y-41510000D01*
X116396267Y-40490000D02*
X116103733Y-40490000D01*
%TO.C,C21*%
X109396218Y-38260000D02*
X109103684Y-38260000D01*
X109396218Y-37240000D02*
X109103684Y-37240000D01*
%TO.C,C1*%
X116396267Y-43510000D02*
X116103733Y-43510000D01*
X116396267Y-42490000D02*
X116103733Y-42490000D01*
%TO.C,J3*%
X137171200Y-64802000D02*
X140828800Y-64802000D01*
X140828800Y-58198000D02*
X137171200Y-58198000D01*
%TO.C,C9*%
X116396267Y-51310000D02*
X116103733Y-51310000D01*
X116396267Y-50290000D02*
X116103733Y-50290000D01*
%TO.C,C3*%
X116396267Y-39510000D02*
X116103733Y-39510000D01*
X116396267Y-38490000D02*
X116103733Y-38490000D01*
%TO.C,J4*%
X126298000Y-37271200D02*
X126298000Y-40928800D01*
X132902000Y-40928800D02*
X132902000Y-37271200D01*
%TO.C,U2*%
X118368000Y-43598900D02*
X118368000Y-54851100D01*
X118368000Y-54851100D02*
X135132000Y-54851100D01*
X135132000Y-43598900D02*
X118368000Y-43598900D01*
X135132000Y-54851100D02*
X135132000Y-43598900D01*
G36*
X118593600Y-48915501D02*
G01*
X118339600Y-48915501D01*
X118339600Y-48534501D01*
X118593600Y-48534501D01*
X118593600Y-48915501D01*
G37*
D14*
X118593600Y-48915501D02*
X118339600Y-48915501D01*
X118339600Y-48534501D01*
X118593600Y-48534501D01*
X118593600Y-48915501D01*
G36*
X118593600Y-53915501D02*
G01*
X118339600Y-53915501D01*
X118339600Y-53534501D01*
X118593600Y-53534501D01*
X118593600Y-53915501D01*
G37*
X118593600Y-53915501D02*
X118339600Y-53915501D01*
X118339600Y-53534501D01*
X118593600Y-53534501D01*
X118593600Y-53915501D01*
G36*
X120690500Y-43818600D02*
G01*
X120309500Y-43818600D01*
X120309500Y-43564600D01*
X120690500Y-43564600D01*
X120690500Y-43818600D01*
G37*
X120690500Y-43818600D02*
X120309500Y-43818600D01*
X120309500Y-43564600D01*
X120690500Y-43564600D01*
X120690500Y-43818600D01*
G36*
X123690499Y-54885400D02*
G01*
X123309499Y-54885400D01*
X123309499Y-54631400D01*
X123690499Y-54631400D01*
X123690499Y-54885400D01*
G37*
X123690499Y-54885400D02*
X123309499Y-54885400D01*
X123309499Y-54631400D01*
X123690499Y-54631400D01*
X123690499Y-54885400D01*
G36*
X125690500Y-43818600D02*
G01*
X125309500Y-43818600D01*
X125309500Y-43564600D01*
X125690500Y-43564600D01*
X125690500Y-43818600D01*
G37*
X125690500Y-43818600D02*
X125309500Y-43818600D01*
X125309500Y-43564600D01*
X125690500Y-43564600D01*
X125690500Y-43818600D01*
G36*
X128690499Y-54885400D02*
G01*
X128309499Y-54885400D01*
X128309499Y-54631400D01*
X128690499Y-54631400D01*
X128690499Y-54885400D01*
G37*
X128690499Y-54885400D02*
X128309499Y-54885400D01*
X128309499Y-54631400D01*
X128690499Y-54631400D01*
X128690499Y-54885400D01*
G36*
X130690500Y-43818600D02*
G01*
X130309500Y-43818600D01*
X130309500Y-43564600D01*
X130690500Y-43564600D01*
X130690500Y-43818600D01*
G37*
X130690500Y-43818600D02*
X130309500Y-43818600D01*
X130309500Y-43564600D01*
X130690500Y-43564600D01*
X130690500Y-43818600D01*
G36*
X133690499Y-54885400D02*
G01*
X133309499Y-54885400D01*
X133309499Y-54631400D01*
X133690499Y-54631400D01*
X133690499Y-54885400D01*
G37*
X133690499Y-54885400D02*
X133309499Y-54885400D01*
X133309499Y-54631400D01*
X133690499Y-54631400D01*
X133690499Y-54885400D01*
G36*
X135160400Y-45415500D02*
G01*
X134906400Y-45415500D01*
X134906400Y-45034500D01*
X135160400Y-45034500D01*
X135160400Y-45415500D01*
G37*
X135160400Y-45415500D02*
X134906400Y-45415500D01*
X134906400Y-45034500D01*
X135160400Y-45034500D01*
X135160400Y-45415500D01*
G36*
X135160400Y-50415501D02*
G01*
X134906400Y-50415501D01*
X134906400Y-50034501D01*
X135160400Y-50034501D01*
X135160400Y-50415501D01*
G37*
X135160400Y-50415501D02*
X134906400Y-50415501D01*
X134906400Y-50034501D01*
X135160400Y-50034501D01*
X135160400Y-50415501D01*
%TD*%
%LPC*%
D15*
%TO.C,J1*%
X138499999Y-45999999D03*
D16*
X139999999Y-47474999D03*
D15*
X141499999Y-45999999D03*
D16*
X139999999Y-44524999D03*
%TD*%
D17*
%TO.C,U20*%
X107387548Y-40049998D03*
X107387548Y-40999999D03*
X107387548Y-41950000D03*
X110112450Y-41950000D03*
X110112450Y-40049998D03*
%TD*%
D18*
%TO.C,C20*%
X103300000Y-40137500D03*
X103300000Y-41862500D03*
%TD*%
D19*
%TO.C,C22*%
X110095802Y-44500000D03*
X108370802Y-44500000D03*
%TD*%
D20*
%TO.C,R1*%
X121200000Y-39487500D03*
X121200000Y-41312500D03*
%TD*%
D21*
%TO.C,H4*%
X93800000Y-72000000D03*
X94502944Y-70302944D03*
X94502944Y-73697056D03*
X96200000Y-69600000D03*
D22*
X96200000Y-72000000D03*
D21*
X96200000Y-74400000D03*
X97897056Y-70302944D03*
X97897056Y-73697056D03*
X98600000Y-72000000D03*
%TD*%
D23*
%TO.C,SW1*%
X94974999Y-63099999D03*
X104824999Y-63099999D03*
%TD*%
D24*
%TO.C,J7*%
X121999999Y-66099999D03*
X119459999Y-63099999D03*
X116919999Y-66099999D03*
X114379999Y-63099999D03*
X111839999Y-66099999D03*
X109299999Y-63099999D03*
%TD*%
D25*
%TO.C,J40*%
X124500035Y-62529999D03*
X133829963Y-62529999D03*
X124499999Y-68279998D03*
X133829999Y-68279998D03*
D26*
X124699999Y-73999999D03*
X133629999Y-73999999D03*
D27*
X131069999Y-61859998D03*
X128529999Y-61859998D03*
X127259999Y-61859998D03*
X132339999Y-61859998D03*
X129799999Y-61859998D03*
X125989999Y-61859998D03*
%TD*%
D28*
%TO.C,JMPR*%
X103800000Y-66900000D03*
X105800000Y-66900000D03*
%TD*%
D24*
%TO.C,J5*%
X103259999Y-70499999D03*
X105799999Y-73499999D03*
X108339999Y-70499999D03*
X110879999Y-73499999D03*
X113419999Y-70499999D03*
X115959999Y-73499999D03*
X118499999Y-70499999D03*
X121039999Y-73499999D03*
%TD*%
D19*
%TO.C,C7*%
X117112500Y-47750000D03*
X115387500Y-47750000D03*
%TD*%
D21*
%TO.C,H1*%
X93800000Y-39000000D03*
X94502944Y-37302944D03*
X94502944Y-40697056D03*
X96200000Y-36600000D03*
D22*
X96200000Y-39000000D03*
D21*
X96200000Y-41400000D03*
X97897056Y-37302944D03*
X97897056Y-40697056D03*
X98600000Y-39000000D03*
%TD*%
D19*
%TO.C,C4*%
X117062500Y-56062500D03*
X115337500Y-56062500D03*
%TD*%
%TO.C,C6*%
X117053218Y-59562500D03*
X115328218Y-59562500D03*
%TD*%
%TO.C,C5*%
X117062500Y-57812500D03*
X115337500Y-57812500D03*
%TD*%
D29*
%TO.C,FB1*%
X119000000Y-42347500D03*
X119000000Y-41152500D03*
%TD*%
D30*
%TO.C,U40*%
X130599999Y-57820001D03*
X131100000Y-57820001D03*
X131600000Y-57820001D03*
X132100001Y-57820001D03*
X132100001Y-56599999D03*
X131600000Y-56599999D03*
X131100000Y-56599999D03*
X130599999Y-56599999D03*
D31*
X131350000Y-57210000D03*
%TD*%
D19*
%TO.C,C8*%
X117112500Y-49250000D03*
X115387500Y-49250000D03*
%TD*%
D32*
%TO.C,J20*%
X97699999Y-47000001D03*
X97699999Y-57999999D03*
X103849999Y-57999999D03*
X103849999Y-47000001D03*
%TD*%
D15*
%TO.C,J2*%
X138499999Y-53499999D03*
D16*
X139999999Y-54974999D03*
D15*
X141499999Y-53499999D03*
D16*
X139999999Y-52024999D03*
%TD*%
D19*
%TO.C,C2*%
X117112500Y-41000000D03*
X115387500Y-41000000D03*
%TD*%
%TO.C,C21*%
X110112451Y-37750000D03*
X108387451Y-37750000D03*
%TD*%
%TO.C,C1*%
X117112500Y-43000000D03*
X115387500Y-43000000D03*
%TD*%
D33*
%TO.C,J3*%
X140950000Y-64039999D03*
X137049998Y-64039999D03*
X140950000Y-62769999D03*
X137049998Y-62769999D03*
X140950000Y-61499999D03*
X137049998Y-61499999D03*
X140950000Y-60229999D03*
X137049998Y-60229999D03*
X140950000Y-58959999D03*
X137049998Y-58959999D03*
%TD*%
D19*
%TO.C,C9*%
X117112500Y-50800000D03*
X115387500Y-50800000D03*
%TD*%
%TO.C,C3*%
X117112500Y-39000000D03*
X115387500Y-39000000D03*
%TD*%
D21*
%TO.C,H2*%
X136600000Y-39000000D03*
X137302944Y-37302944D03*
X137302944Y-40697056D03*
X139000000Y-36600000D03*
D22*
X139000000Y-39000000D03*
D21*
X139000000Y-41400000D03*
X140697056Y-37302944D03*
X140697056Y-40697056D03*
X141400000Y-39000000D03*
%TD*%
%TO.C,H3*%
X136600000Y-72000000D03*
X137302944Y-70302944D03*
X137302944Y-73697056D03*
X139000000Y-69600000D03*
D22*
X139000000Y-72000000D03*
D21*
X139000000Y-74400000D03*
X140697056Y-70302944D03*
X140697056Y-73697056D03*
X141400000Y-72000000D03*
%TD*%
D34*
%TO.C,J4*%
X127059999Y-41050000D03*
X127059999Y-37149998D03*
X128329999Y-41050000D03*
X128329999Y-37149998D03*
X129599999Y-41050000D03*
X129599999Y-37149998D03*
X130869999Y-41050000D03*
X130869999Y-37149998D03*
X132139999Y-41050000D03*
X132139999Y-37149998D03*
%TD*%
D35*
%TO.C,U2*%
X118999999Y-44224999D03*
X118999999Y-44724998D03*
X118999999Y-45224999D03*
X118999999Y-45724998D03*
X118999999Y-46225000D03*
X118999999Y-46724999D03*
X118999999Y-47224998D03*
X118999999Y-47724999D03*
X118999999Y-48224998D03*
X118999999Y-48725000D03*
X118999999Y-49224999D03*
X118999999Y-49724998D03*
X118999999Y-50225000D03*
X118999999Y-50724999D03*
X118999999Y-51225000D03*
X118999999Y-51724999D03*
X118999999Y-52224998D03*
X118999999Y-52725000D03*
X118999999Y-53224999D03*
X118999999Y-53725000D03*
X118999999Y-54224999D03*
X119499998Y-54224999D03*
X120000000Y-54224999D03*
X120499999Y-54224999D03*
X120999998Y-54224999D03*
X121499999Y-54224999D03*
X121999998Y-54224999D03*
X122500000Y-54224999D03*
X122999999Y-54224999D03*
X123499998Y-54224999D03*
X123999999Y-54224999D03*
X124499998Y-54224999D03*
X125000000Y-54224999D03*
X125499999Y-54224999D03*
X125999998Y-54224999D03*
X126499999Y-54224999D03*
X126999999Y-54224999D03*
X127500000Y-54224999D03*
X127999999Y-54224999D03*
X128499998Y-54224999D03*
X129000000Y-54224999D03*
X129499999Y-54224999D03*
X130000000Y-54224999D03*
X130499999Y-54224999D03*
X130999998Y-54224999D03*
X131500000Y-54224999D03*
X131999999Y-54224999D03*
X132500000Y-54224999D03*
X132999999Y-54224999D03*
X133499998Y-54224999D03*
X134000000Y-54224999D03*
X134499999Y-54224999D03*
X134499999Y-53725000D03*
X134499999Y-53224999D03*
X134499999Y-52725000D03*
X134499999Y-52224998D03*
X134499999Y-51724999D03*
X134499999Y-51225000D03*
X134499999Y-50724999D03*
X134499999Y-50225000D03*
X134499999Y-49724998D03*
X134499999Y-49224999D03*
X134499999Y-48725000D03*
X134499999Y-48224998D03*
X134499999Y-47724999D03*
X134499999Y-47224998D03*
X134499999Y-46724999D03*
X134499999Y-46225000D03*
X134499999Y-45724998D03*
X134499999Y-45224999D03*
X134499999Y-44725000D03*
X134499999Y-44224999D03*
X134000000Y-44224999D03*
X133499998Y-44224999D03*
X132999999Y-44224999D03*
X132500000Y-44224999D03*
X131999999Y-44224999D03*
X131500000Y-44224999D03*
X130999998Y-44224999D03*
X130499999Y-44224999D03*
X130000000Y-44224999D03*
X129499999Y-44224999D03*
X129000000Y-44224999D03*
X128499998Y-44224999D03*
X127999999Y-44224999D03*
X127500000Y-44224999D03*
X126999999Y-44224999D03*
X126499999Y-44224999D03*
X125999998Y-44224999D03*
X125499999Y-44224999D03*
X125000000Y-44224999D03*
X124499998Y-44224999D03*
X123999999Y-44224999D03*
X123499998Y-44224999D03*
X122999999Y-44224999D03*
X122500000Y-44224999D03*
X121999998Y-44224999D03*
X121499999Y-44224999D03*
X120999998Y-44224999D03*
X120499999Y-44224999D03*
X120000000Y-44224999D03*
X119499998Y-44224999D03*
D36*
X120749999Y-46024999D03*
X120749999Y-47624999D03*
X120749999Y-49224999D03*
X120749999Y-50824999D03*
X120749999Y-52424999D03*
X122749999Y-46024999D03*
X122749999Y-47624999D03*
X122749999Y-49224999D03*
X122749999Y-50824999D03*
X122749999Y-52424999D03*
X124749999Y-46024999D03*
X124749999Y-47624999D03*
X124749999Y-49224999D03*
X124749999Y-50824999D03*
X124749999Y-52424999D03*
X126749999Y-46024999D03*
X126749999Y-47624999D03*
X126749999Y-49224999D03*
X126749999Y-50824999D03*
X126749999Y-52424999D03*
X128749999Y-46024999D03*
X128749999Y-47624999D03*
X128749999Y-49224999D03*
X128749999Y-50824999D03*
X128749999Y-52424999D03*
X130749999Y-46024999D03*
X130749999Y-47624999D03*
X130749999Y-49224999D03*
X130749999Y-50824999D03*
X130749999Y-52424999D03*
X132749999Y-46024999D03*
X132749999Y-47624999D03*
X132749999Y-49224999D03*
X132749999Y-50824999D03*
X132749999Y-52424999D03*
D35*
X120999998Y-53574999D03*
X121499999Y-53574999D03*
X121999998Y-53574999D03*
X122500000Y-53574999D03*
X125000000Y-53574999D03*
X125499999Y-53574999D03*
X125999998Y-53574999D03*
X126499999Y-53574999D03*
X130000000Y-53574999D03*
X130499999Y-53574999D03*
X130999998Y-53574999D03*
X131500000Y-53574999D03*
X131500000Y-44874999D03*
X130999998Y-44874999D03*
X130499999Y-44874999D03*
X130000000Y-44874999D03*
X126499999Y-44874999D03*
X125999998Y-44874999D03*
X125499999Y-44874999D03*
X125000000Y-44874999D03*
X122500000Y-44874999D03*
X121999998Y-44874999D03*
X121499999Y-44874999D03*
X120999998Y-44874999D03*
%TD*%
M02*
