%TF.GenerationSoftware,KiCad,Pcbnew,(7.0.0)*%
%TF.CreationDate,2023-05-09T15:07:27+03:00*%
%TF.ProjectId,IoT_sulari,496f545f-7375-46c6-9172-692e6b696361,rev?*%
%TF.SameCoordinates,Original*%
%TF.FileFunction,Copper,L4,Bot*%
%TF.FilePolarity,Positive*%
%FSLAX46Y46*%
G04 Gerber Fmt 4.6, Leading zero omitted, Abs format (unit mm)*
G04 Created by KiCad (PCBNEW (7.0.0)) date 2023-05-09 15:07:27*
%MOMM*%
%LPD*%
G01*
G04 APERTURE LIST*
G04 Aperture macros list*
%AMRoundRect*
0 Rectangle with rounded corners*
0 $1 Rounding radius*
0 $2 $3 $4 $5 $6 $7 $8 $9 X,Y pos of 4 corners*
0 Add a 4 corners polygon primitive as box body*
4,1,4,$2,$3,$4,$5,$6,$7,$8,$9,$2,$3,0*
0 Add four circle primitives for the rounded corners*
1,1,$1+$1,$2,$3*
1,1,$1+$1,$4,$5*
1,1,$1+$1,$6,$7*
1,1,$1+$1,$8,$9*
0 Add four rect primitives between the rounded corners*
20,1,$1+$1,$2,$3,$4,$5,0*
20,1,$1+$1,$4,$5,$6,$7,0*
20,1,$1+$1,$6,$7,$8,$9,0*
20,1,$1+$1,$8,$9,$2,$3,0*%
G04 Aperture macros list end*
%TA.AperFunction,ComponentPad*%
%ADD10C,0.800000*%
%TD*%
%TA.AperFunction,ComponentPad*%
%ADD11C,6.400000*%
%TD*%
%TA.AperFunction,SMDPad,CuDef*%
%ADD12RoundRect,0.237500X-0.237500X0.250000X-0.237500X-0.250000X0.237500X-0.250000X0.237500X0.250000X0*%
%TD*%
%TA.AperFunction,SMDPad,CuDef*%
%ADD13RoundRect,0.237500X-0.250000X-0.237500X0.250000X-0.237500X0.250000X0.237500X-0.250000X0.237500X0*%
%TD*%
%TA.AperFunction,SMDPad,CuDef*%
%ADD14RoundRect,0.237500X0.250000X0.237500X-0.250000X0.237500X-0.250000X-0.237500X0.250000X-0.237500X0*%
%TD*%
%TA.AperFunction,SMDPad,CuDef*%
%ADD15RoundRect,0.237500X0.237500X-0.287500X0.237500X0.287500X-0.237500X0.287500X-0.237500X-0.287500X0*%
%TD*%
%TA.AperFunction,SMDPad,CuDef*%
%ADD16R,0.761200X1.512799*%
%TD*%
%TA.AperFunction,SMDPad,CuDef*%
%ADD17RoundRect,0.237500X0.300000X0.237500X-0.300000X0.237500X-0.300000X-0.237500X0.300000X-0.237500X0*%
%TD*%
%TA.AperFunction,ViaPad*%
%ADD18C,0.800000*%
%TD*%
%TA.AperFunction,Conductor*%
%ADD19C,0.500000*%
%TD*%
%TA.AperFunction,Conductor*%
%ADD20C,0.300000*%
%TD*%
%TA.AperFunction,Conductor*%
%ADD21C,0.293370*%
%TD*%
%TA.AperFunction,Conductor*%
%ADD22C,0.275000*%
%TD*%
G04 APERTURE END LIST*
D10*
%TO.P,H4,1,1*%
%TO.N,GND*%
X93800000Y-72000000D03*
X94502944Y-70302944D03*
X94502944Y-73697056D03*
X96200000Y-69600000D03*
D11*
X96200000Y-72000000D03*
D10*
X96200000Y-74400000D03*
X97897056Y-70302944D03*
X97897056Y-73697056D03*
X98600000Y-72000000D03*
%TD*%
%TO.P,H1,1,1*%
%TO.N,GND*%
X93800000Y-39000000D03*
X94502944Y-37302944D03*
X94502944Y-40697056D03*
X96200000Y-36600000D03*
D11*
X96200000Y-39000000D03*
D10*
X96200000Y-41400000D03*
X97897056Y-37302944D03*
X97897056Y-40697056D03*
X98600000Y-39000000D03*
%TD*%
%TO.P,H2,1,1*%
%TO.N,GND*%
X136600000Y-39000000D03*
X137302944Y-37302944D03*
X137302944Y-40697056D03*
X139000000Y-36600000D03*
D11*
X139000000Y-39000000D03*
D10*
X139000000Y-41400000D03*
X140697056Y-37302944D03*
X140697056Y-40697056D03*
X141400000Y-39000000D03*
%TD*%
%TO.P,H3,1,1*%
%TO.N,GND*%
X136600000Y-72000000D03*
X137302944Y-70302944D03*
X137302944Y-73697056D03*
X139000000Y-69600000D03*
D11*
X139000000Y-72000000D03*
D10*
X139000000Y-74400000D03*
X140697056Y-70302944D03*
X140697056Y-73697056D03*
X141400000Y-72000000D03*
%TD*%
D12*
%TO.P,R2,1*%
%TO.N,NRESET*%
X109500000Y-58487500D03*
%TO.P,R2,2*%
%TO.N,Net-(SW1-B)*%
X109500000Y-60312500D03*
%TD*%
D13*
%TO.P,R8,1*%
%TO.N,GND*%
X103087500Y-47700000D03*
%TO.P,R8,2*%
%TO.N,Net-(R8-Pad2)*%
X104912500Y-47700000D03*
%TD*%
D14*
%TO.P,R7,1*%
%TO.N,GND*%
X113000000Y-47500000D03*
%TO.P,R7,2*%
%TO.N,Net-(R7-Pad2)*%
X111175000Y-47500000D03*
%TD*%
D15*
%TO.P,D1,1,K*%
%TO.N,Net-(D1-K)*%
X98100000Y-45175000D03*
%TO.P,D1,2,A*%
%TO.N,STATUS_LED_RED*%
X98100000Y-43425000D03*
%TD*%
D16*
%TO.P,SW2,1,1*%
%TO.N,BUTTON1*%
X133154758Y-36402599D03*
%TO.P,SW2,2,2*%
X128654756Y-36402599D03*
%TO.P,SW2,3,3*%
%TO.N,Net-(R5-Pad2)*%
X128654756Y-45597399D03*
%TO.P,SW2,4,4*%
X133154758Y-45597399D03*
%TD*%
D17*
%TO.P,C10,1*%
%TO.N,NRESET*%
X109462500Y-56900000D03*
%TO.P,C10,2*%
%TO.N,GND*%
X107737500Y-56900000D03*
%TD*%
D16*
%TO.P,SW3,1,1*%
%TO.N,BUTTON2*%
X124154758Y-36402599D03*
%TO.P,SW3,2,2*%
X119654756Y-36402599D03*
%TO.P,SW3,3,3*%
%TO.N,Net-(R6-Pad2)*%
X119654756Y-45597399D03*
%TO.P,SW3,4,4*%
X124154758Y-45597399D03*
%TD*%
D13*
%TO.P,R5,1*%
%TO.N,GND*%
X129987500Y-47700000D03*
%TO.P,R5,2*%
%TO.N,Net-(R5-Pad2)*%
X131812500Y-47700000D03*
%TD*%
%TO.P,R6,1*%
%TO.N,GND*%
X120992258Y-47700000D03*
%TO.P,R6,2*%
%TO.N,Net-(R6-Pad2)*%
X122817258Y-47700000D03*
%TD*%
D16*
%TO.P,SW5,1,1*%
%TO.N,BUTTON4*%
X106402258Y-36402599D03*
%TO.P,SW5,2,2*%
X101902256Y-36402599D03*
%TO.P,SW5,3,3*%
%TO.N,Net-(R8-Pad2)*%
X101902256Y-45597399D03*
%TO.P,SW5,4,4*%
X106402258Y-45597399D03*
%TD*%
%TO.P,SW4,1,1*%
%TO.N,BUTTON3*%
X115154758Y-36402599D03*
%TO.P,SW4,2,2*%
X110654756Y-36402599D03*
%TO.P,SW4,3,3*%
%TO.N,Net-(R7-Pad2)*%
X110654756Y-45597399D03*
%TO.P,SW4,4,4*%
X115154758Y-45597399D03*
%TD*%
D15*
%TO.P,D2,1,K*%
%TO.N,Net-(D2-K)*%
X95200000Y-45175000D03*
%TO.P,D2,2,A*%
%TO.N,STATUS_LED_GREEN*%
X95200000Y-43425000D03*
%TD*%
D12*
%TO.P,R3,1*%
%TO.N,Net-(D1-K)*%
X98125000Y-47187500D03*
%TO.P,R3,2*%
%TO.N,GND*%
X98125000Y-49012500D03*
%TD*%
%TO.P,R4,1*%
%TO.N,Net-(D2-K)*%
X95210000Y-47170000D03*
%TO.P,R4,2*%
%TO.N,GND*%
X95210000Y-48995000D03*
%TD*%
D18*
%TO.N,GND*%
X102200000Y-41900000D03*
X114200000Y-57100000D03*
X96200000Y-58500000D03*
X140400000Y-53500000D03*
X96600000Y-48995000D03*
X94000000Y-61500000D03*
X94000000Y-64700000D03*
X114400000Y-39100000D03*
X114400000Y-40900000D03*
X114200000Y-58000000D03*
X94300000Y-49000000D03*
X131700000Y-46600000D03*
X102100000Y-48100000D03*
X125700000Y-51600000D03*
X129700000Y-50000000D03*
X114400000Y-40000000D03*
X129800000Y-46800000D03*
X125700000Y-48400000D03*
X120700000Y-67300000D03*
X118270000Y-43360000D03*
X122350000Y-56510000D03*
X126200000Y-36600000D03*
X131700000Y-51600000D03*
X107300000Y-37800000D03*
X133700000Y-49300000D03*
X121700000Y-46600000D03*
X125700000Y-47200000D03*
X108400000Y-41000000D03*
X121700000Y-48500000D03*
X133620110Y-47058411D03*
X105400000Y-57600000D03*
X123625623Y-48527054D03*
X121700000Y-51600000D03*
X105400000Y-58500000D03*
X117700000Y-54800000D03*
X125500000Y-43400000D03*
X129700000Y-51700000D03*
X126556827Y-54888000D03*
X140000000Y-56200000D03*
X96200000Y-57600000D03*
X99200000Y-58500000D03*
X121700000Y-50100000D03*
X107300000Y-43621185D03*
X114200000Y-50000000D03*
X102300000Y-57600000D03*
X99200000Y-57600000D03*
X107927633Y-45372367D03*
X139100000Y-61500000D03*
X103100000Y-48800000D03*
X102300000Y-58500000D03*
X114200000Y-59800000D03*
X140000000Y-48800000D03*
X129700000Y-48400000D03*
X104500000Y-73500000D03*
X140000000Y-43400000D03*
X123700000Y-51600000D03*
X99100000Y-49000000D03*
X129900000Y-57200000D03*
X131700000Y-50000000D03*
X132400000Y-60700000D03*
X127700000Y-50000000D03*
X127700000Y-51700000D03*
X139100000Y-62800000D03*
X132800000Y-57200000D03*
X114400000Y-41800000D03*
X114400000Y-43400000D03*
X114200000Y-48800000D03*
X106400000Y-41000000D03*
X108400000Y-36800000D03*
X140000000Y-50900000D03*
X127700000Y-48500000D03*
X114200000Y-58900000D03*
X130600000Y-55200000D03*
X95600000Y-64800000D03*
X122952362Y-41466867D03*
X114200000Y-56200000D03*
X123700000Y-50000000D03*
X95600000Y-61500000D03*
X140400000Y-46000000D03*
X108400000Y-38700000D03*
X104175500Y-41900000D03*
X125700000Y-46000000D03*
X127700000Y-47100000D03*
X114200000Y-51100000D03*
X114200000Y-47700000D03*
X135400000Y-54300000D03*
X125700000Y-50000000D03*
%TO.N,Net-(U40-DATA2_OUT)*%
X130200000Y-59200000D03*
X127400000Y-59200000D03*
%TO.N,+3.3V*%
X118000000Y-40000000D03*
X118400000Y-58800000D03*
X118100000Y-47800000D03*
X103700000Y-65500000D03*
X127100000Y-42800000D03*
X110112451Y-39000000D03*
X118000000Y-42000000D03*
X117100000Y-40000000D03*
X118400000Y-57000000D03*
X118400000Y-56100000D03*
X111200000Y-39100000D03*
X117100000Y-42000000D03*
X118100000Y-48700000D03*
X104400000Y-71200000D03*
X118400000Y-57900000D03*
X111200000Y-40100000D03*
X140900000Y-65000000D03*
X103700000Y-68300000D03*
X118400000Y-59800000D03*
X109127817Y-39527817D03*
X117100000Y-46800000D03*
X104400000Y-69900000D03*
%TO.N,NRESET*%
X137000000Y-57000000D03*
X124500000Y-55400000D03*
%TO.N,Net-(SW1-B)*%
X107300000Y-61500000D03*
%TO.N,STATUS_LED_RED*%
X112500000Y-44300000D03*
%TO.N,STATUS_LED_GREEN*%
X109100000Y-46400000D03*
%TO.N,BUTTON1*%
X125053815Y-41100000D03*
%TO.N,BUTTON2*%
X124271792Y-40477548D03*
%TO.N,BUTTON3*%
X117700000Y-36400000D03*
%TO.N,BUTTON4*%
X107400000Y-36400000D03*
%TO.N,CS*%
X123000000Y-58300000D03*
X115100000Y-70500000D03*
%TO.N,RST*%
X120400000Y-69900000D03*
X124000000Y-57700000D03*
%TO.N,SWDCLK*%
X125600000Y-56700000D03*
X135400000Y-56700000D03*
%TO.N,SWDIO*%
X126400000Y-58050000D03*
X134550000Y-58500000D03*
%TO.N,Net-(J7-Pad3)*%
X115300000Y-66100000D03*
X107400000Y-66900000D03*
%TD*%
D19*
%TO.N,GND*%
X120992258Y-47700000D02*
X120992258Y-47307742D01*
X96600000Y-48995000D02*
X96617500Y-49012500D01*
X99087500Y-49012500D02*
X99100000Y-49000000D01*
X95210000Y-48995000D02*
X96195000Y-48995000D01*
X103100000Y-47712500D02*
X103087500Y-47700000D01*
X103100000Y-48800000D02*
X103100000Y-47712500D01*
X96600000Y-48995000D02*
X95210000Y-48995000D01*
X98125000Y-49012500D02*
X99087500Y-49012500D01*
X102100000Y-48100000D02*
X102687500Y-48100000D01*
X120992258Y-47307742D02*
X121700000Y-46600000D01*
D20*
X106100000Y-56900000D02*
X105400000Y-57600000D01*
D19*
X120992258Y-47792258D02*
X121700000Y-48500000D01*
X96195000Y-48995000D02*
X96200000Y-49000000D01*
X96617500Y-49012500D02*
X98125000Y-49012500D01*
X113000000Y-47500000D02*
X114000000Y-47500000D01*
X94305000Y-48995000D02*
X94300000Y-49000000D01*
D20*
X107737500Y-56900000D02*
X106100000Y-56900000D01*
D19*
X95210000Y-48995000D02*
X94305000Y-48995000D01*
X114000000Y-47500000D02*
X114200000Y-47700000D01*
X120992258Y-47700000D02*
X120992258Y-47792258D01*
X102687500Y-48100000D02*
X103087500Y-47700000D01*
D20*
%TO.N,Net-(U40-DATA2_OUT)*%
X130200000Y-59200000D02*
X127400000Y-59200000D01*
D21*
%TO.N,Net-(D1-K)*%
X98100000Y-47162500D02*
X98125000Y-47187500D01*
X98100000Y-45175000D02*
X98100000Y-47162500D01*
%TO.N,Net-(D2-K)*%
X95200000Y-45175000D02*
X95200000Y-47160000D01*
X95200000Y-47160000D02*
X95210000Y-47170000D01*
D22*
%TO.N,NRESET*%
X109462500Y-56900000D02*
X113262500Y-60700000D01*
X109462500Y-58450000D02*
X109500000Y-58487500D01*
X126280483Y-55987500D02*
X125692983Y-55400000D01*
X137000000Y-57000000D02*
X135987500Y-55987500D01*
X135987500Y-55987500D02*
X126280483Y-55987500D01*
X109462500Y-56900000D02*
X109462500Y-58450000D01*
X113262500Y-60700000D02*
X119200000Y-60700000D01*
X119200000Y-60700000D02*
X124500000Y-55400000D01*
X124500000Y-55400000D02*
X125692983Y-55400000D01*
D19*
%TO.N,Net-(SW1-B)*%
X109500000Y-60312500D02*
X108487500Y-60312500D01*
X108487500Y-60312500D02*
X107300000Y-61500000D01*
D21*
%TO.N,STATUS_LED_RED*%
X98100000Y-43425000D02*
X98125000Y-43400000D01*
X111100000Y-42900000D02*
X112500000Y-44300000D01*
X105800000Y-43400000D02*
X106300000Y-42900000D01*
X98125000Y-43400000D02*
X105800000Y-43400000D01*
X106300000Y-42900000D02*
X111100000Y-42900000D01*
%TO.N,STATUS_LED_GREEN*%
X107129544Y-44544316D02*
X107129544Y-45629544D01*
X95200000Y-43425000D02*
X96075000Y-44300000D01*
X106885228Y-44300000D02*
X107129544Y-44544316D01*
X107129544Y-45629544D02*
X107900000Y-46400000D01*
X96075000Y-44300000D02*
X106885228Y-44300000D01*
X107900000Y-46400000D02*
X109100000Y-46400000D01*
%TO.N,BUTTON1*%
X125053815Y-41100000D02*
X125053815Y-39546185D01*
X128197400Y-36402600D02*
X128654757Y-36402600D01*
X125053815Y-39546185D02*
X128197400Y-36402600D01*
X128654757Y-36402600D02*
X133154759Y-36402600D01*
%TO.N,BUTTON2*%
X124154759Y-36402600D02*
X119654757Y-36402600D01*
X124271792Y-40477548D02*
X124271792Y-39162274D01*
X124154759Y-39045241D02*
X124154759Y-36402600D01*
X124271792Y-39162274D02*
X124154759Y-39045241D01*
%TO.N,BUTTON3*%
X115154759Y-36402600D02*
X110654757Y-36402600D01*
X117700000Y-36400000D02*
X115154759Y-36402600D01*
%TO.N,BUTTON4*%
X106404859Y-36400000D02*
X106402259Y-36402600D01*
X106402259Y-36402600D02*
X101902257Y-36402600D01*
X107400000Y-36400000D02*
X106404859Y-36400000D01*
D20*
%TO.N,CS*%
X123000000Y-62600000D02*
X123000000Y-58300000D01*
X115100000Y-70500000D02*
X123000000Y-62600000D01*
%TO.N,RST*%
X124000000Y-66300000D02*
X120400000Y-69900000D01*
X124000000Y-57700000D02*
X124000000Y-66300000D01*
D21*
%TO.N,SWDCLK*%
X125821685Y-56478315D02*
X125600000Y-56700000D01*
X135178315Y-56478315D02*
X125821685Y-56478315D01*
X135400000Y-56700000D02*
X135178315Y-56478315D01*
%TO.N,SWDIO*%
X126400000Y-58050000D02*
X126400000Y-58000000D01*
X126400000Y-58000000D02*
X126450000Y-58050000D01*
X126450000Y-58050000D02*
X126400000Y-58050000D01*
X134550000Y-58500000D02*
X134503315Y-58453315D01*
X126853315Y-58453315D02*
X126450000Y-58050000D01*
X134503315Y-58453315D02*
X126853315Y-58453315D01*
D19*
%TO.N,Net-(R5-Pad2)*%
X133154759Y-46357741D02*
X131812500Y-47700000D01*
X133154759Y-45597400D02*
X133154759Y-46357741D01*
X128654757Y-45597400D02*
X133154759Y-45597400D01*
%TO.N,Net-(R6-Pad2)*%
X124154759Y-46362499D02*
X122817258Y-47700000D01*
X124154759Y-45597400D02*
X124154759Y-46362499D01*
X119654757Y-45597400D02*
X124154759Y-45597400D01*
%TO.N,Net-(R7-Pad2)*%
X110654757Y-45597400D02*
X115154759Y-45597400D01*
X110654757Y-46979757D02*
X111175000Y-47500000D01*
X110654757Y-45597400D02*
X110654757Y-46979757D01*
%TO.N,Net-(R8-Pad2)*%
X101902257Y-45597400D02*
X106402259Y-45597400D01*
X106402259Y-46210241D02*
X104912500Y-47700000D01*
X106402259Y-45597400D02*
X106402259Y-46210241D01*
%TO.N,Net-(J7-Pad3)*%
X115300000Y-66100000D02*
X108200000Y-66100000D01*
X108200000Y-66100000D02*
X107400000Y-66900000D01*
%TD*%
M02*
