%TF.GenerationSoftware,KiCad,Pcbnew,(7.0.0)*%
%TF.CreationDate,2023-05-09T15:07:27+03:00*%
%TF.ProjectId,IoT_sulari,496f545f-7375-46c6-9172-692e6b696361,rev?*%
%TF.SameCoordinates,Original*%
%TF.FileFunction,Legend,Bot*%
%TF.FilePolarity,Positive*%
%FSLAX46Y46*%
G04 Gerber Fmt 4.6, Leading zero omitted, Abs format (unit mm)*
G04 Created by KiCad (PCBNEW (7.0.0)) date 2023-05-09 15:07:27*
%MOMM*%
%LPD*%
G01*
G04 APERTURE LIST*
G04 Aperture macros list*
%AMRoundRect*
0 Rectangle with rounded corners*
0 $1 Rounding radius*
0 $2 $3 $4 $5 $6 $7 $8 $9 X,Y pos of 4 corners*
0 Add a 4 corners polygon primitive as box body*
4,1,4,$2,$3,$4,$5,$6,$7,$8,$9,$2,$3,0*
0 Add four circle primitives for the rounded corners*
1,1,$1+$1,$2,$3*
1,1,$1+$1,$4,$5*
1,1,$1+$1,$6,$7*
1,1,$1+$1,$8,$9*
0 Add four rect primitives between the rounded corners*
20,1,$1+$1,$2,$3,$4,$5,0*
20,1,$1+$1,$4,$5,$6,$7,0*
20,1,$1+$1,$6,$7,$8,$9,0*
20,1,$1+$1,$8,$9,$2,$3,0*%
G04 Aperture macros list end*
%ADD10C,0.153000*%
%ADD11C,0.120000*%
%ADD12C,0.800000*%
%ADD13C,6.400000*%
%ADD14RoundRect,0.237500X-0.237500X0.250000X-0.237500X-0.250000X0.237500X-0.250000X0.237500X0.250000X0*%
%ADD15RoundRect,0.237500X-0.250000X-0.237500X0.250000X-0.237500X0.250000X0.237500X-0.250000X0.237500X0*%
%ADD16RoundRect,0.237500X0.250000X0.237500X-0.250000X0.237500X-0.250000X-0.237500X0.250000X-0.237500X0*%
%ADD17RoundRect,0.237500X0.237500X-0.287500X0.237500X0.287500X-0.237500X0.287500X-0.237500X-0.287500X0*%
%ADD18R,0.761200X1.512799*%
%ADD19RoundRect,0.237500X0.300000X0.237500X-0.300000X0.237500X-0.300000X-0.237500X0.300000X-0.237500X0*%
G04 APERTURE END LIST*
D10*
X108017886Y-43552771D02*
X107970267Y-43409914D01*
X107970267Y-43409914D02*
X107922648Y-43362295D01*
X107922648Y-43362295D02*
X107827410Y-43314676D01*
X107827410Y-43314676D02*
X107684553Y-43314676D01*
X107684553Y-43314676D02*
X107589315Y-43362295D01*
X107589315Y-43362295D02*
X107541696Y-43409914D01*
X107541696Y-43409914D02*
X107494077Y-43505152D01*
X107494077Y-43505152D02*
X107494077Y-43886104D01*
X107494077Y-43886104D02*
X108494077Y-43886104D01*
X108494077Y-43886104D02*
X108494077Y-43552771D01*
X108494077Y-43552771D02*
X108446458Y-43457533D01*
X108446458Y-43457533D02*
X108398838Y-43409914D01*
X108398838Y-43409914D02*
X108303600Y-43362295D01*
X108303600Y-43362295D02*
X108208362Y-43362295D01*
X108208362Y-43362295D02*
X108113124Y-43409914D01*
X108113124Y-43409914D02*
X108065505Y-43457533D01*
X108065505Y-43457533D02*
X108017886Y-43552771D01*
X108017886Y-43552771D02*
X108017886Y-43886104D01*
X108494077Y-42886104D02*
X107684553Y-42886104D01*
X107684553Y-42886104D02*
X107589315Y-42838485D01*
X107589315Y-42838485D02*
X107541696Y-42790866D01*
X107541696Y-42790866D02*
X107494077Y-42695628D01*
X107494077Y-42695628D02*
X107494077Y-42505152D01*
X107494077Y-42505152D02*
X107541696Y-42409914D01*
X107541696Y-42409914D02*
X107589315Y-42362295D01*
X107589315Y-42362295D02*
X107684553Y-42314676D01*
X107684553Y-42314676D02*
X108494077Y-42314676D01*
X108494077Y-41981342D02*
X108494077Y-41409914D01*
X107494077Y-41695628D02*
X108494077Y-41695628D01*
X108494077Y-41219437D02*
X108494077Y-40648009D01*
X107494077Y-40933723D02*
X108494077Y-40933723D01*
X108494077Y-40124199D02*
X108494077Y-39933723D01*
X108494077Y-39933723D02*
X108446458Y-39838485D01*
X108446458Y-39838485D02*
X108351219Y-39743247D01*
X108351219Y-39743247D02*
X108160743Y-39695628D01*
X108160743Y-39695628D02*
X107827410Y-39695628D01*
X107827410Y-39695628D02*
X107636934Y-39743247D01*
X107636934Y-39743247D02*
X107541696Y-39838485D01*
X107541696Y-39838485D02*
X107494077Y-39933723D01*
X107494077Y-39933723D02*
X107494077Y-40124199D01*
X107494077Y-40124199D02*
X107541696Y-40219437D01*
X107541696Y-40219437D02*
X107636934Y-40314675D01*
X107636934Y-40314675D02*
X107827410Y-40362294D01*
X107827410Y-40362294D02*
X108160743Y-40362294D01*
X108160743Y-40362294D02*
X108351219Y-40314675D01*
X108351219Y-40314675D02*
X108446458Y-40219437D01*
X108446458Y-40219437D02*
X108494077Y-40124199D01*
X107494077Y-39267056D02*
X108494077Y-39267056D01*
X108494077Y-39267056D02*
X107494077Y-38695628D01*
X107494077Y-38695628D02*
X108494077Y-38695628D01*
X108160743Y-37790866D02*
X107494077Y-37790866D01*
X108541696Y-38028961D02*
X107827410Y-38267056D01*
X107827410Y-38267056D02*
X107827410Y-37648009D01*
X116770386Y-43552771D02*
X116722767Y-43409914D01*
X116722767Y-43409914D02*
X116675148Y-43362295D01*
X116675148Y-43362295D02*
X116579910Y-43314676D01*
X116579910Y-43314676D02*
X116437053Y-43314676D01*
X116437053Y-43314676D02*
X116341815Y-43362295D01*
X116341815Y-43362295D02*
X116294196Y-43409914D01*
X116294196Y-43409914D02*
X116246577Y-43505152D01*
X116246577Y-43505152D02*
X116246577Y-43886104D01*
X116246577Y-43886104D02*
X117246577Y-43886104D01*
X117246577Y-43886104D02*
X117246577Y-43552771D01*
X117246577Y-43552771D02*
X117198958Y-43457533D01*
X117198958Y-43457533D02*
X117151338Y-43409914D01*
X117151338Y-43409914D02*
X117056100Y-43362295D01*
X117056100Y-43362295D02*
X116960862Y-43362295D01*
X116960862Y-43362295D02*
X116865624Y-43409914D01*
X116865624Y-43409914D02*
X116818005Y-43457533D01*
X116818005Y-43457533D02*
X116770386Y-43552771D01*
X116770386Y-43552771D02*
X116770386Y-43886104D01*
X117246577Y-42886104D02*
X116437053Y-42886104D01*
X116437053Y-42886104D02*
X116341815Y-42838485D01*
X116341815Y-42838485D02*
X116294196Y-42790866D01*
X116294196Y-42790866D02*
X116246577Y-42695628D01*
X116246577Y-42695628D02*
X116246577Y-42505152D01*
X116246577Y-42505152D02*
X116294196Y-42409914D01*
X116294196Y-42409914D02*
X116341815Y-42362295D01*
X116341815Y-42362295D02*
X116437053Y-42314676D01*
X116437053Y-42314676D02*
X117246577Y-42314676D01*
X117246577Y-41981342D02*
X117246577Y-41409914D01*
X116246577Y-41695628D02*
X117246577Y-41695628D01*
X117246577Y-41219437D02*
X117246577Y-40648009D01*
X116246577Y-40933723D02*
X117246577Y-40933723D01*
X117246577Y-40124199D02*
X117246577Y-39933723D01*
X117246577Y-39933723D02*
X117198958Y-39838485D01*
X117198958Y-39838485D02*
X117103719Y-39743247D01*
X117103719Y-39743247D02*
X116913243Y-39695628D01*
X116913243Y-39695628D02*
X116579910Y-39695628D01*
X116579910Y-39695628D02*
X116389434Y-39743247D01*
X116389434Y-39743247D02*
X116294196Y-39838485D01*
X116294196Y-39838485D02*
X116246577Y-39933723D01*
X116246577Y-39933723D02*
X116246577Y-40124199D01*
X116246577Y-40124199D02*
X116294196Y-40219437D01*
X116294196Y-40219437D02*
X116389434Y-40314675D01*
X116389434Y-40314675D02*
X116579910Y-40362294D01*
X116579910Y-40362294D02*
X116913243Y-40362294D01*
X116913243Y-40362294D02*
X117103719Y-40314675D01*
X117103719Y-40314675D02*
X117198958Y-40219437D01*
X117198958Y-40219437D02*
X117246577Y-40124199D01*
X116246577Y-39267056D02*
X117246577Y-39267056D01*
X117246577Y-39267056D02*
X116246577Y-38695628D01*
X116246577Y-38695628D02*
X117246577Y-38695628D01*
X117246577Y-38314675D02*
X117246577Y-37695628D01*
X117246577Y-37695628D02*
X116865624Y-38028961D01*
X116865624Y-38028961D02*
X116865624Y-37886104D01*
X116865624Y-37886104D02*
X116818005Y-37790866D01*
X116818005Y-37790866D02*
X116770386Y-37743247D01*
X116770386Y-37743247D02*
X116675148Y-37695628D01*
X116675148Y-37695628D02*
X116437053Y-37695628D01*
X116437053Y-37695628D02*
X116341815Y-37743247D01*
X116341815Y-37743247D02*
X116294196Y-37790866D01*
X116294196Y-37790866D02*
X116246577Y-37886104D01*
X116246577Y-37886104D02*
X116246577Y-38171818D01*
X116246577Y-38171818D02*
X116294196Y-38267056D01*
X116294196Y-38267056D02*
X116341815Y-38314675D01*
X134770386Y-43552771D02*
X134722767Y-43409914D01*
X134722767Y-43409914D02*
X134675148Y-43362295D01*
X134675148Y-43362295D02*
X134579910Y-43314676D01*
X134579910Y-43314676D02*
X134437053Y-43314676D01*
X134437053Y-43314676D02*
X134341815Y-43362295D01*
X134341815Y-43362295D02*
X134294196Y-43409914D01*
X134294196Y-43409914D02*
X134246577Y-43505152D01*
X134246577Y-43505152D02*
X134246577Y-43886104D01*
X134246577Y-43886104D02*
X135246577Y-43886104D01*
X135246577Y-43886104D02*
X135246577Y-43552771D01*
X135246577Y-43552771D02*
X135198958Y-43457533D01*
X135198958Y-43457533D02*
X135151338Y-43409914D01*
X135151338Y-43409914D02*
X135056100Y-43362295D01*
X135056100Y-43362295D02*
X134960862Y-43362295D01*
X134960862Y-43362295D02*
X134865624Y-43409914D01*
X134865624Y-43409914D02*
X134818005Y-43457533D01*
X134818005Y-43457533D02*
X134770386Y-43552771D01*
X134770386Y-43552771D02*
X134770386Y-43886104D01*
X135246577Y-42886104D02*
X134437053Y-42886104D01*
X134437053Y-42886104D02*
X134341815Y-42838485D01*
X134341815Y-42838485D02*
X134294196Y-42790866D01*
X134294196Y-42790866D02*
X134246577Y-42695628D01*
X134246577Y-42695628D02*
X134246577Y-42505152D01*
X134246577Y-42505152D02*
X134294196Y-42409914D01*
X134294196Y-42409914D02*
X134341815Y-42362295D01*
X134341815Y-42362295D02*
X134437053Y-42314676D01*
X134437053Y-42314676D02*
X135246577Y-42314676D01*
X135246577Y-41981342D02*
X135246577Y-41409914D01*
X134246577Y-41695628D02*
X135246577Y-41695628D01*
X135246577Y-41219437D02*
X135246577Y-40648009D01*
X134246577Y-40933723D02*
X135246577Y-40933723D01*
X135246577Y-40124199D02*
X135246577Y-39933723D01*
X135246577Y-39933723D02*
X135198958Y-39838485D01*
X135198958Y-39838485D02*
X135103719Y-39743247D01*
X135103719Y-39743247D02*
X134913243Y-39695628D01*
X134913243Y-39695628D02*
X134579910Y-39695628D01*
X134579910Y-39695628D02*
X134389434Y-39743247D01*
X134389434Y-39743247D02*
X134294196Y-39838485D01*
X134294196Y-39838485D02*
X134246577Y-39933723D01*
X134246577Y-39933723D02*
X134246577Y-40124199D01*
X134246577Y-40124199D02*
X134294196Y-40219437D01*
X134294196Y-40219437D02*
X134389434Y-40314675D01*
X134389434Y-40314675D02*
X134579910Y-40362294D01*
X134579910Y-40362294D02*
X134913243Y-40362294D01*
X134913243Y-40362294D02*
X135103719Y-40314675D01*
X135103719Y-40314675D02*
X135198958Y-40219437D01*
X135198958Y-40219437D02*
X135246577Y-40124199D01*
X134246577Y-39267056D02*
X135246577Y-39267056D01*
X135246577Y-39267056D02*
X134246577Y-38695628D01*
X134246577Y-38695628D02*
X135246577Y-38695628D01*
X134246577Y-37695628D02*
X134246577Y-38267056D01*
X134246577Y-37981342D02*
X135246577Y-37981342D01*
X135246577Y-37981342D02*
X135103719Y-38076580D01*
X135103719Y-38076580D02*
X135008481Y-38171818D01*
X135008481Y-38171818D02*
X134960862Y-38267056D01*
X125770386Y-43552771D02*
X125722767Y-43409914D01*
X125722767Y-43409914D02*
X125675148Y-43362295D01*
X125675148Y-43362295D02*
X125579910Y-43314676D01*
X125579910Y-43314676D02*
X125437053Y-43314676D01*
X125437053Y-43314676D02*
X125341815Y-43362295D01*
X125341815Y-43362295D02*
X125294196Y-43409914D01*
X125294196Y-43409914D02*
X125246577Y-43505152D01*
X125246577Y-43505152D02*
X125246577Y-43886104D01*
X125246577Y-43886104D02*
X126246577Y-43886104D01*
X126246577Y-43886104D02*
X126246577Y-43552771D01*
X126246577Y-43552771D02*
X126198958Y-43457533D01*
X126198958Y-43457533D02*
X126151338Y-43409914D01*
X126151338Y-43409914D02*
X126056100Y-43362295D01*
X126056100Y-43362295D02*
X125960862Y-43362295D01*
X125960862Y-43362295D02*
X125865624Y-43409914D01*
X125865624Y-43409914D02*
X125818005Y-43457533D01*
X125818005Y-43457533D02*
X125770386Y-43552771D01*
X125770386Y-43552771D02*
X125770386Y-43886104D01*
X126246577Y-42886104D02*
X125437053Y-42886104D01*
X125437053Y-42886104D02*
X125341815Y-42838485D01*
X125341815Y-42838485D02*
X125294196Y-42790866D01*
X125294196Y-42790866D02*
X125246577Y-42695628D01*
X125246577Y-42695628D02*
X125246577Y-42505152D01*
X125246577Y-42505152D02*
X125294196Y-42409914D01*
X125294196Y-42409914D02*
X125341815Y-42362295D01*
X125341815Y-42362295D02*
X125437053Y-42314676D01*
X125437053Y-42314676D02*
X126246577Y-42314676D01*
X126246577Y-41981342D02*
X126246577Y-41409914D01*
X125246577Y-41695628D02*
X126246577Y-41695628D01*
X126246577Y-41219437D02*
X126246577Y-40648009D01*
X125246577Y-40933723D02*
X126246577Y-40933723D01*
X126246577Y-40124199D02*
X126246577Y-39933723D01*
X126246577Y-39933723D02*
X126198958Y-39838485D01*
X126198958Y-39838485D02*
X126103719Y-39743247D01*
X126103719Y-39743247D02*
X125913243Y-39695628D01*
X125913243Y-39695628D02*
X125579910Y-39695628D01*
X125579910Y-39695628D02*
X125389434Y-39743247D01*
X125389434Y-39743247D02*
X125294196Y-39838485D01*
X125294196Y-39838485D02*
X125246577Y-39933723D01*
X125246577Y-39933723D02*
X125246577Y-40124199D01*
X125246577Y-40124199D02*
X125294196Y-40219437D01*
X125294196Y-40219437D02*
X125389434Y-40314675D01*
X125389434Y-40314675D02*
X125579910Y-40362294D01*
X125579910Y-40362294D02*
X125913243Y-40362294D01*
X125913243Y-40362294D02*
X126103719Y-40314675D01*
X126103719Y-40314675D02*
X126198958Y-40219437D01*
X126198958Y-40219437D02*
X126246577Y-40124199D01*
X125246577Y-39267056D02*
X126246577Y-39267056D01*
X126246577Y-39267056D02*
X125246577Y-38695628D01*
X125246577Y-38695628D02*
X126246577Y-38695628D01*
X126151338Y-38267056D02*
X126198958Y-38219437D01*
X126198958Y-38219437D02*
X126246577Y-38124199D01*
X126246577Y-38124199D02*
X126246577Y-37886104D01*
X126246577Y-37886104D02*
X126198958Y-37790866D01*
X126198958Y-37790866D02*
X126151338Y-37743247D01*
X126151338Y-37743247D02*
X126056100Y-37695628D01*
X126056100Y-37695628D02*
X125960862Y-37695628D01*
X125960862Y-37695628D02*
X125818005Y-37743247D01*
X125818005Y-37743247D02*
X125246577Y-38314675D01*
X125246577Y-38314675D02*
X125246577Y-37695628D01*
%TO.C,R2*%
X108467380Y-58733333D02*
X107991190Y-58400000D01*
X108467380Y-58161905D02*
X107467380Y-58161905D01*
X107467380Y-58161905D02*
X107467380Y-58542857D01*
X107467380Y-58542857D02*
X107515000Y-58638095D01*
X107515000Y-58638095D02*
X107562619Y-58685714D01*
X107562619Y-58685714D02*
X107657857Y-58733333D01*
X107657857Y-58733333D02*
X107800714Y-58733333D01*
X107800714Y-58733333D02*
X107895952Y-58685714D01*
X107895952Y-58685714D02*
X107943571Y-58638095D01*
X107943571Y-58638095D02*
X107991190Y-58542857D01*
X107991190Y-58542857D02*
X107991190Y-58161905D01*
X107562619Y-59114286D02*
X107515000Y-59161905D01*
X107515000Y-59161905D02*
X107467380Y-59257143D01*
X107467380Y-59257143D02*
X107467380Y-59495238D01*
X107467380Y-59495238D02*
X107515000Y-59590476D01*
X107515000Y-59590476D02*
X107562619Y-59638095D01*
X107562619Y-59638095D02*
X107657857Y-59685714D01*
X107657857Y-59685714D02*
X107753095Y-59685714D01*
X107753095Y-59685714D02*
X107895952Y-59638095D01*
X107895952Y-59638095D02*
X108467380Y-59066667D01*
X108467380Y-59066667D02*
X108467380Y-59685714D01*
%TO.C,R8*%
X104166666Y-49767380D02*
X104499999Y-49291190D01*
X104738094Y-49767380D02*
X104738094Y-48767380D01*
X104738094Y-48767380D02*
X104357142Y-48767380D01*
X104357142Y-48767380D02*
X104261904Y-48815000D01*
X104261904Y-48815000D02*
X104214285Y-48862619D01*
X104214285Y-48862619D02*
X104166666Y-48957857D01*
X104166666Y-48957857D02*
X104166666Y-49100714D01*
X104166666Y-49100714D02*
X104214285Y-49195952D01*
X104214285Y-49195952D02*
X104261904Y-49243571D01*
X104261904Y-49243571D02*
X104357142Y-49291190D01*
X104357142Y-49291190D02*
X104738094Y-49291190D01*
X103595237Y-49195952D02*
X103690475Y-49148333D01*
X103690475Y-49148333D02*
X103738094Y-49100714D01*
X103738094Y-49100714D02*
X103785713Y-49005476D01*
X103785713Y-49005476D02*
X103785713Y-48957857D01*
X103785713Y-48957857D02*
X103738094Y-48862619D01*
X103738094Y-48862619D02*
X103690475Y-48815000D01*
X103690475Y-48815000D02*
X103595237Y-48767380D01*
X103595237Y-48767380D02*
X103404761Y-48767380D01*
X103404761Y-48767380D02*
X103309523Y-48815000D01*
X103309523Y-48815000D02*
X103261904Y-48862619D01*
X103261904Y-48862619D02*
X103214285Y-48957857D01*
X103214285Y-48957857D02*
X103214285Y-49005476D01*
X103214285Y-49005476D02*
X103261904Y-49100714D01*
X103261904Y-49100714D02*
X103309523Y-49148333D01*
X103309523Y-49148333D02*
X103404761Y-49195952D01*
X103404761Y-49195952D02*
X103595237Y-49195952D01*
X103595237Y-49195952D02*
X103690475Y-49243571D01*
X103690475Y-49243571D02*
X103738094Y-49291190D01*
X103738094Y-49291190D02*
X103785713Y-49386428D01*
X103785713Y-49386428D02*
X103785713Y-49576904D01*
X103785713Y-49576904D02*
X103738094Y-49672142D01*
X103738094Y-49672142D02*
X103690475Y-49719761D01*
X103690475Y-49719761D02*
X103595237Y-49767380D01*
X103595237Y-49767380D02*
X103404761Y-49767380D01*
X103404761Y-49767380D02*
X103309523Y-49719761D01*
X103309523Y-49719761D02*
X103261904Y-49672142D01*
X103261904Y-49672142D02*
X103214285Y-49576904D01*
X103214285Y-49576904D02*
X103214285Y-49386428D01*
X103214285Y-49386428D02*
X103261904Y-49291190D01*
X103261904Y-49291190D02*
X103309523Y-49243571D01*
X103309523Y-49243571D02*
X103404761Y-49195952D01*
%TO.C,R7*%
X112254166Y-46267380D02*
X112587499Y-45791190D01*
X112825594Y-46267380D02*
X112825594Y-45267380D01*
X112825594Y-45267380D02*
X112444642Y-45267380D01*
X112444642Y-45267380D02*
X112349404Y-45315000D01*
X112349404Y-45315000D02*
X112301785Y-45362619D01*
X112301785Y-45362619D02*
X112254166Y-45457857D01*
X112254166Y-45457857D02*
X112254166Y-45600714D01*
X112254166Y-45600714D02*
X112301785Y-45695952D01*
X112301785Y-45695952D02*
X112349404Y-45743571D01*
X112349404Y-45743571D02*
X112444642Y-45791190D01*
X112444642Y-45791190D02*
X112825594Y-45791190D01*
X111920832Y-45267380D02*
X111254166Y-45267380D01*
X111254166Y-45267380D02*
X111682737Y-46267380D01*
%TO.C,D1*%
X97167380Y-43561905D02*
X96167380Y-43561905D01*
X96167380Y-43561905D02*
X96167380Y-43800000D01*
X96167380Y-43800000D02*
X96215000Y-43942857D01*
X96215000Y-43942857D02*
X96310238Y-44038095D01*
X96310238Y-44038095D02*
X96405476Y-44085714D01*
X96405476Y-44085714D02*
X96595952Y-44133333D01*
X96595952Y-44133333D02*
X96738809Y-44133333D01*
X96738809Y-44133333D02*
X96929285Y-44085714D01*
X96929285Y-44085714D02*
X97024523Y-44038095D01*
X97024523Y-44038095D02*
X97119761Y-43942857D01*
X97119761Y-43942857D02*
X97167380Y-43800000D01*
X97167380Y-43800000D02*
X97167380Y-43561905D01*
X97167380Y-45085714D02*
X97167380Y-44514286D01*
X97167380Y-44800000D02*
X96167380Y-44800000D01*
X96167380Y-44800000D02*
X96310238Y-44704762D01*
X96310238Y-44704762D02*
X96405476Y-44609524D01*
X96405476Y-44609524D02*
X96453095Y-44514286D01*
%TO.C,C10*%
X109242857Y-55742142D02*
X109290476Y-55789761D01*
X109290476Y-55789761D02*
X109433333Y-55837380D01*
X109433333Y-55837380D02*
X109528571Y-55837380D01*
X109528571Y-55837380D02*
X109671428Y-55789761D01*
X109671428Y-55789761D02*
X109766666Y-55694523D01*
X109766666Y-55694523D02*
X109814285Y-55599285D01*
X109814285Y-55599285D02*
X109861904Y-55408809D01*
X109861904Y-55408809D02*
X109861904Y-55265952D01*
X109861904Y-55265952D02*
X109814285Y-55075476D01*
X109814285Y-55075476D02*
X109766666Y-54980238D01*
X109766666Y-54980238D02*
X109671428Y-54885000D01*
X109671428Y-54885000D02*
X109528571Y-54837380D01*
X109528571Y-54837380D02*
X109433333Y-54837380D01*
X109433333Y-54837380D02*
X109290476Y-54885000D01*
X109290476Y-54885000D02*
X109242857Y-54932619D01*
X108290476Y-55837380D02*
X108861904Y-55837380D01*
X108576190Y-55837380D02*
X108576190Y-54837380D01*
X108576190Y-54837380D02*
X108671428Y-54980238D01*
X108671428Y-54980238D02*
X108766666Y-55075476D01*
X108766666Y-55075476D02*
X108861904Y-55123095D01*
X107671428Y-54837380D02*
X107576190Y-54837380D01*
X107576190Y-54837380D02*
X107480952Y-54885000D01*
X107480952Y-54885000D02*
X107433333Y-54932619D01*
X107433333Y-54932619D02*
X107385714Y-55027857D01*
X107385714Y-55027857D02*
X107338095Y-55218333D01*
X107338095Y-55218333D02*
X107338095Y-55456428D01*
X107338095Y-55456428D02*
X107385714Y-55646904D01*
X107385714Y-55646904D02*
X107433333Y-55742142D01*
X107433333Y-55742142D02*
X107480952Y-55789761D01*
X107480952Y-55789761D02*
X107576190Y-55837380D01*
X107576190Y-55837380D02*
X107671428Y-55837380D01*
X107671428Y-55837380D02*
X107766666Y-55789761D01*
X107766666Y-55789761D02*
X107814285Y-55742142D01*
X107814285Y-55742142D02*
X107861904Y-55646904D01*
X107861904Y-55646904D02*
X107909523Y-55456428D01*
X107909523Y-55456428D02*
X107909523Y-55218333D01*
X107909523Y-55218333D02*
X107861904Y-55027857D01*
X107861904Y-55027857D02*
X107814285Y-54932619D01*
X107814285Y-54932619D02*
X107766666Y-54885000D01*
X107766666Y-54885000D02*
X107671428Y-54837380D01*
%TO.C,R5*%
X131066666Y-49497380D02*
X131399999Y-49021190D01*
X131638094Y-49497380D02*
X131638094Y-48497380D01*
X131638094Y-48497380D02*
X131257142Y-48497380D01*
X131257142Y-48497380D02*
X131161904Y-48545000D01*
X131161904Y-48545000D02*
X131114285Y-48592619D01*
X131114285Y-48592619D02*
X131066666Y-48687857D01*
X131066666Y-48687857D02*
X131066666Y-48830714D01*
X131066666Y-48830714D02*
X131114285Y-48925952D01*
X131114285Y-48925952D02*
X131161904Y-48973571D01*
X131161904Y-48973571D02*
X131257142Y-49021190D01*
X131257142Y-49021190D02*
X131638094Y-49021190D01*
X130161904Y-48497380D02*
X130638094Y-48497380D01*
X130638094Y-48497380D02*
X130685713Y-48973571D01*
X130685713Y-48973571D02*
X130638094Y-48925952D01*
X130638094Y-48925952D02*
X130542856Y-48878333D01*
X130542856Y-48878333D02*
X130304761Y-48878333D01*
X130304761Y-48878333D02*
X130209523Y-48925952D01*
X130209523Y-48925952D02*
X130161904Y-48973571D01*
X130161904Y-48973571D02*
X130114285Y-49068809D01*
X130114285Y-49068809D02*
X130114285Y-49306904D01*
X130114285Y-49306904D02*
X130161904Y-49402142D01*
X130161904Y-49402142D02*
X130209523Y-49449761D01*
X130209523Y-49449761D02*
X130304761Y-49497380D01*
X130304761Y-49497380D02*
X130542856Y-49497380D01*
X130542856Y-49497380D02*
X130638094Y-49449761D01*
X130638094Y-49449761D02*
X130685713Y-49402142D01*
%TO.C,R6*%
X122071424Y-49667380D02*
X122404757Y-49191190D01*
X122642852Y-49667380D02*
X122642852Y-48667380D01*
X122642852Y-48667380D02*
X122261900Y-48667380D01*
X122261900Y-48667380D02*
X122166662Y-48715000D01*
X122166662Y-48715000D02*
X122119043Y-48762619D01*
X122119043Y-48762619D02*
X122071424Y-48857857D01*
X122071424Y-48857857D02*
X122071424Y-49000714D01*
X122071424Y-49000714D02*
X122119043Y-49095952D01*
X122119043Y-49095952D02*
X122166662Y-49143571D01*
X122166662Y-49143571D02*
X122261900Y-49191190D01*
X122261900Y-49191190D02*
X122642852Y-49191190D01*
X121214281Y-48667380D02*
X121404757Y-48667380D01*
X121404757Y-48667380D02*
X121499995Y-48715000D01*
X121499995Y-48715000D02*
X121547614Y-48762619D01*
X121547614Y-48762619D02*
X121642852Y-48905476D01*
X121642852Y-48905476D02*
X121690471Y-49095952D01*
X121690471Y-49095952D02*
X121690471Y-49476904D01*
X121690471Y-49476904D02*
X121642852Y-49572142D01*
X121642852Y-49572142D02*
X121595233Y-49619761D01*
X121595233Y-49619761D02*
X121499995Y-49667380D01*
X121499995Y-49667380D02*
X121309519Y-49667380D01*
X121309519Y-49667380D02*
X121214281Y-49619761D01*
X121214281Y-49619761D02*
X121166662Y-49572142D01*
X121166662Y-49572142D02*
X121119043Y-49476904D01*
X121119043Y-49476904D02*
X121119043Y-49238809D01*
X121119043Y-49238809D02*
X121166662Y-49143571D01*
X121166662Y-49143571D02*
X121214281Y-49095952D01*
X121214281Y-49095952D02*
X121309519Y-49048333D01*
X121309519Y-49048333D02*
X121499995Y-49048333D01*
X121499995Y-49048333D02*
X121595233Y-49095952D01*
X121595233Y-49095952D02*
X121642852Y-49143571D01*
X121642852Y-49143571D02*
X121690471Y-49238809D01*
%TO.C,D2*%
X94167380Y-43461905D02*
X93167380Y-43461905D01*
X93167380Y-43461905D02*
X93167380Y-43700000D01*
X93167380Y-43700000D02*
X93215000Y-43842857D01*
X93215000Y-43842857D02*
X93310238Y-43938095D01*
X93310238Y-43938095D02*
X93405476Y-43985714D01*
X93405476Y-43985714D02*
X93595952Y-44033333D01*
X93595952Y-44033333D02*
X93738809Y-44033333D01*
X93738809Y-44033333D02*
X93929285Y-43985714D01*
X93929285Y-43985714D02*
X94024523Y-43938095D01*
X94024523Y-43938095D02*
X94119761Y-43842857D01*
X94119761Y-43842857D02*
X94167380Y-43700000D01*
X94167380Y-43700000D02*
X94167380Y-43461905D01*
X93262619Y-44414286D02*
X93215000Y-44461905D01*
X93215000Y-44461905D02*
X93167380Y-44557143D01*
X93167380Y-44557143D02*
X93167380Y-44795238D01*
X93167380Y-44795238D02*
X93215000Y-44890476D01*
X93215000Y-44890476D02*
X93262619Y-44938095D01*
X93262619Y-44938095D02*
X93357857Y-44985714D01*
X93357857Y-44985714D02*
X93453095Y-44985714D01*
X93453095Y-44985714D02*
X93595952Y-44938095D01*
X93595952Y-44938095D02*
X94167380Y-44366667D01*
X94167380Y-44366667D02*
X94167380Y-44985714D01*
%TO.C,R3*%
X98467380Y-50533333D02*
X97991190Y-50200000D01*
X98467380Y-49961905D02*
X97467380Y-49961905D01*
X97467380Y-49961905D02*
X97467380Y-50342857D01*
X97467380Y-50342857D02*
X97515000Y-50438095D01*
X97515000Y-50438095D02*
X97562619Y-50485714D01*
X97562619Y-50485714D02*
X97657857Y-50533333D01*
X97657857Y-50533333D02*
X97800714Y-50533333D01*
X97800714Y-50533333D02*
X97895952Y-50485714D01*
X97895952Y-50485714D02*
X97943571Y-50438095D01*
X97943571Y-50438095D02*
X97991190Y-50342857D01*
X97991190Y-50342857D02*
X97991190Y-49961905D01*
X97467380Y-50866667D02*
X97467380Y-51485714D01*
X97467380Y-51485714D02*
X97848333Y-51152381D01*
X97848333Y-51152381D02*
X97848333Y-51295238D01*
X97848333Y-51295238D02*
X97895952Y-51390476D01*
X97895952Y-51390476D02*
X97943571Y-51438095D01*
X97943571Y-51438095D02*
X98038809Y-51485714D01*
X98038809Y-51485714D02*
X98276904Y-51485714D01*
X98276904Y-51485714D02*
X98372142Y-51438095D01*
X98372142Y-51438095D02*
X98419761Y-51390476D01*
X98419761Y-51390476D02*
X98467380Y-51295238D01*
X98467380Y-51295238D02*
X98467380Y-51009524D01*
X98467380Y-51009524D02*
X98419761Y-50914286D01*
X98419761Y-50914286D02*
X98372142Y-50866667D01*
%TO.C,R4*%
X95567380Y-50758333D02*
X95091190Y-50425000D01*
X95567380Y-50186905D02*
X94567380Y-50186905D01*
X94567380Y-50186905D02*
X94567380Y-50567857D01*
X94567380Y-50567857D02*
X94615000Y-50663095D01*
X94615000Y-50663095D02*
X94662619Y-50710714D01*
X94662619Y-50710714D02*
X94757857Y-50758333D01*
X94757857Y-50758333D02*
X94900714Y-50758333D01*
X94900714Y-50758333D02*
X94995952Y-50710714D01*
X94995952Y-50710714D02*
X95043571Y-50663095D01*
X95043571Y-50663095D02*
X95091190Y-50567857D01*
X95091190Y-50567857D02*
X95091190Y-50186905D01*
X94900714Y-51615476D02*
X95567380Y-51615476D01*
X94519761Y-51377381D02*
X95234047Y-51139286D01*
X95234047Y-51139286D02*
X95234047Y-51758333D01*
D11*
%TO.C,R2*%
X110022500Y-59145276D02*
X110022500Y-59654724D01*
X108977500Y-59145276D02*
X108977500Y-59654724D01*
%TO.C,R8*%
X103745276Y-47177500D02*
X104254724Y-47177500D01*
X103745276Y-48222500D02*
X104254724Y-48222500D01*
%TO.C,R7*%
X112342224Y-48022500D02*
X111832776Y-48022500D01*
X112342224Y-46977500D02*
X111832776Y-46977500D01*
%TO.C,D1*%
X97365000Y-45960000D02*
X97365000Y-43500000D01*
X98835000Y-45960000D02*
X97365000Y-45960000D01*
X98835000Y-43500000D02*
X98835000Y-45960000D01*
%TO.C,SW2*%
X134028958Y-37875800D02*
X134028958Y-44124200D01*
X127780558Y-37875800D02*
X134028958Y-37875800D01*
X134028958Y-44124200D02*
X127780558Y-44124200D01*
X127780558Y-44124200D02*
X127780558Y-37875800D01*
%TO.C,C10*%
X108746267Y-57410000D02*
X108453733Y-57410000D01*
X108746267Y-56390000D02*
X108453733Y-56390000D01*
%TO.C,SW3*%
X125028958Y-37875800D02*
X125028958Y-44124200D01*
X118780558Y-37875800D02*
X125028958Y-37875800D01*
X125028958Y-44124200D02*
X118780558Y-44124200D01*
X118780558Y-44124200D02*
X118780558Y-37875800D01*
%TO.C,R5*%
X130645276Y-47177500D02*
X131154724Y-47177500D01*
X130645276Y-48222500D02*
X131154724Y-48222500D01*
%TO.C,R6*%
X121650034Y-47177500D02*
X122159482Y-47177500D01*
X121650034Y-48222500D02*
X122159482Y-48222500D01*
%TO.C,SW5*%
X107276458Y-37875800D02*
X107276458Y-44124200D01*
X101028058Y-37875800D02*
X107276458Y-37875800D01*
X107276458Y-44124200D02*
X101028058Y-44124200D01*
X101028058Y-44124200D02*
X101028058Y-37875800D01*
%TO.C,SW4*%
X116028958Y-37875800D02*
X116028958Y-44124200D01*
X109780558Y-37875800D02*
X116028958Y-37875800D01*
X116028958Y-44124200D02*
X109780558Y-44124200D01*
X109780558Y-44124200D02*
X109780558Y-37875800D01*
%TO.C,D2*%
X94465000Y-45960000D02*
X94465000Y-43500000D01*
X95935000Y-45960000D02*
X94465000Y-45960000D01*
X95935000Y-43500000D02*
X95935000Y-45960000D01*
%TO.C,R3*%
X98647500Y-47845276D02*
X98647500Y-48354724D01*
X97602500Y-47845276D02*
X97602500Y-48354724D01*
%TO.C,R4*%
X95732500Y-47827776D02*
X95732500Y-48337224D01*
X94687500Y-47827776D02*
X94687500Y-48337224D01*
%TD*%
%LPC*%
D12*
%TO.C,H4*%
X93800000Y-72000000D03*
X94502944Y-70302944D03*
X94502944Y-73697056D03*
X96200000Y-69600000D03*
D13*
X96200000Y-72000000D03*
D12*
X96200000Y-74400000D03*
X97897056Y-70302944D03*
X97897056Y-73697056D03*
X98600000Y-72000000D03*
%TD*%
%TO.C,H1*%
X93800000Y-39000000D03*
X94502944Y-37302944D03*
X94502944Y-40697056D03*
X96200000Y-36600000D03*
D13*
X96200000Y-39000000D03*
D12*
X96200000Y-41400000D03*
X97897056Y-37302944D03*
X97897056Y-40697056D03*
X98600000Y-39000000D03*
%TD*%
%TO.C,H2*%
X136600000Y-39000000D03*
X137302944Y-37302944D03*
X137302944Y-40697056D03*
X139000000Y-36600000D03*
D13*
X139000000Y-39000000D03*
D12*
X139000000Y-41400000D03*
X140697056Y-37302944D03*
X140697056Y-40697056D03*
X141400000Y-39000000D03*
%TD*%
%TO.C,H3*%
X136600000Y-72000000D03*
X137302944Y-70302944D03*
X137302944Y-73697056D03*
X139000000Y-69600000D03*
D13*
X139000000Y-72000000D03*
D12*
X139000000Y-74400000D03*
X140697056Y-70302944D03*
X140697056Y-73697056D03*
X141400000Y-72000000D03*
%TD*%
D14*
%TO.C,R2*%
X109500000Y-58487500D03*
X109500000Y-60312500D03*
%TD*%
D15*
%TO.C,R8*%
X103087500Y-47700000D03*
X104912500Y-47700000D03*
%TD*%
D16*
%TO.C,R7*%
X113000000Y-47500000D03*
X111175000Y-47500000D03*
%TD*%
D17*
%TO.C,D1*%
X98100000Y-45175000D03*
X98100000Y-43425000D03*
%TD*%
D18*
%TO.C,SW2*%
X133154758Y-36402599D03*
X128654756Y-36402599D03*
X128654756Y-45597399D03*
X133154758Y-45597399D03*
%TD*%
D19*
%TO.C,C10*%
X109462500Y-56900000D03*
X107737500Y-56900000D03*
%TD*%
D18*
%TO.C,SW3*%
X124154758Y-36402599D03*
X119654756Y-36402599D03*
X119654756Y-45597399D03*
X124154758Y-45597399D03*
%TD*%
D15*
%TO.C,R5*%
X129987500Y-47700000D03*
X131812500Y-47700000D03*
%TD*%
%TO.C,R6*%
X120992258Y-47700000D03*
X122817258Y-47700000D03*
%TD*%
D18*
%TO.C,SW5*%
X106402258Y-36402599D03*
X101902256Y-36402599D03*
X101902256Y-45597399D03*
X106402258Y-45597399D03*
%TD*%
%TO.C,SW4*%
X115154758Y-36402599D03*
X110654756Y-36402599D03*
X110654756Y-45597399D03*
X115154758Y-45597399D03*
%TD*%
D17*
%TO.C,D2*%
X95200000Y-45175000D03*
X95200000Y-43425000D03*
%TD*%
D14*
%TO.C,R3*%
X98125000Y-47187500D03*
X98125000Y-49012500D03*
%TD*%
%TO.C,R4*%
X95210000Y-47170000D03*
X95210000Y-48995000D03*
%TD*%
M02*
